<svg 
          width="11.993021011352539" 
          height="11.991021156311035" fill="none" 
          xmlns="http://www.w3.org/2000/svg">
          <path d="M 10.4195556640625 0.07246534526348114 L 0.6745556592941284 4.569465160369873 C 0.4375729262828827 4.674810662865639 0.24376972764730453 4.858071953058243 0.12534783780574799 5.088798522949219 C 0.006925947964191437 5.319525092840195 -0.028984708711504936 5.583825320005417 0.023582695052027702 5.837784290313721 C 0.07615009881556034 6.0917432606220245 0.21403057873249054 6.320070385932922 0.414314329624176 6.484827518463135 C 0.6145980805158615 6.649584650993347 0.8652263283729553 6.740852396469563 1.1245555877685547 6.743465423583984 L 5.247555732727051 6.743465423583984 L 5.247555732727051 10.86646556854248 C 5.250168759841472 11.12579482793808 5.34143602848053 11.376423135399818 5.506193161010742 11.576706886291504 C 5.670950293540955 11.77699063718319 5.899277418851852 11.914871294051409 6.153236389160156 11.967438697814941 C 6.40719535946846 12.020006101578474 6.671495586633682 11.984094955027103 6.902222156524658 11.865673065185547 C 7.132948726415634 11.74725117534399 7.316210016608238 11.553448110818863 7.421555519104004 11.316465377807617 L 11.921555519104004 1.5714653730392456 C 11.998331569135189 1.362094685435295 12.013619985431433 1.1351319253444672 11.965615272521973 0.9173563718795776 C 11.917610559612513 0.6995808184146881 11.808316469192505 0.5000798404216766 11.650629043579102 0.3423924148082733 C 11.492941617965698 0.18470498919487 11.293440073728561 0.07541116885840893 11.075664520263672 0.02740645594894886 C 10.857888966798782 -0.020598256960511208 10.630926206707954 -0.0053106993436813354 10.421555519104004 0.07146535068750381 L 10.4195556640625 0.07246534526348114 Z" fill="rgb(0,0,0)"/>
        </svg>