<svg 
          width="156" 
          height="204.7310791015625" fill="none" 
          xmlns="http://www.w3.org/2000/svg">
          <path d="M 130.9550036021736 0 C 86.85553453561323 0 0 0 0 0 L 0 130.39411766676835 C 0 151.83457693597563 13.667135324672294 170.11437757177237 32.776448823993896 176.99666947333094 C 32.80386534285676 176.99666947333094 32.844989704952994 177.01035780772563 32.87240622381586 177.02404029571898 C 33.146571422657956 177.11981771422103 33.434445705667514 177.2155834399204 33.70861090450961 177.31136085842246 C 33.790860461098205 177.3250433464158 33.85940155143302 177.33873001150238 33.92794285114354 177.37977747548243 C 50.63831089634388 183.20851780410126 65.6351490889578 192.63575923630742 78 204.7310791015625 C 90.28260077739371 192.7178547402426 105.16977299669065 183.33166236486773 121.72935065541056 177.4892398872143 C 122.2502645189117 177.31136754584924 122.79859242451425 177.13349602002407 123.33321453468002 176.955623678659 C 123.33321453468002 176.94194119066566 123.34691819295249 176.94194870637514 123.36062645238393 176.94194870637514 C 142.40139969887358 170.01860970528088 156 151.79352592184864 156 130.38043225557433 L 156 0 C 156 0 145.96554775363947 0 130.9550036021736 0 Z M 43.63339064094555 23.97172012650144 L 53.43479583056952 23.97172012650144 L 53.43479583056952 54.264748385777544 L 43.63339064094555 65.51175543793076 L 43.63339064094555 23.97172012650144 Z M 24.01687168820261 23.97172012650144 L 33.81827687782658 23.97172012650144 L 33.81827687782658 76.77244268182292 L 24.01687168820261 88.00576432278211 L 24.01687168820261 23.97172012650144 Z M 24.01687168820261 102.97440986253844 L 92.91458282967933 23.97172012650144 L 105.93742958062332 23.97172012650144 L 24.01687168820261 117.92936999110076 L 24.01687168820261 102.97440986253844 Z M 37.01230129215659 132.87064470846906 L 24.01687168820261 132.87064470846906 L 24.01687168820261 132.85695929727504 L 118.9602763315673 23.98540292796793 L 131.96941189437325 23.98540292796793 L 37.01230129215659 132.87064470846906 Z M 105.93742958062332 132.87064470846906 L 78 100.81257420592925 L 84.51142337547199 93.35562225843913 L 118.97398751970536 132.87064470846906 L 105.93742958062332 132.87064470846906 Z M 131.99683427064934 132.87064470846906 L 131.9831230825113 132.87064470846906 L 91.02284675094398 85.88497968029992 L 97.53427012641598 78.40065691042174 L 132.0105454587874 117.94304496338464 L 132.0105454587874 132.87064470846906 L 131.99683427064934 132.87064470846906 Z" fill="rgb(22.000000588595867,23.000000528991222,49.00000087916851)"/>
        </svg>