<?xml version="1.0" encoding="UTF-8"?>
<svg version="1.1" viewBox="0 0 1600 1600" width="1280" height="1280" xmlns="http://www.w3.org/2000/svg">
<path transform="translate(690 841)" d="m0 0c2.79-0.00162 5.58-0.00621 8.37-0.0106 6.74-0.00881 13.5-0.00701 20.2-0.00117 5.49 0.00455 11 0.00512 16.5 0.00295 0.786-3.06e-4 1.57-6.13e-4 2.38-9.29e-4 1.6-6.4e-4 3.19-0.00129 4.79-0.00195 14.9-0.00568 29.8 8.18e-4 44.7 0.0116 12.8 0.00894 25.5 0.00738 38.3-0.00184 14.9-0.0107 29.7-0.0149 44.6-0.00878 1.59 6.37e-4 3.18 0.00127 4.77 0.00189 1.17 4.63e-4 1.17 4.63e-4 2.37 9.35e-4 5.47 0.00172 10.9-0.00117 16.4-0.00589 6.68-0.00564 13.4-0.00402 20 0.00656 3.4 0.00521 6.8 0.0063 10.2 7.02e-4 12.9-0.0193 25.6 0.0622 38.4 1.81 5.24 0.668 10.4 0.771 15.7 0.8 1.04 0.0146 2.08 0.0292 3.15 0.0443 4.34 0.061 8.68 0.102 13 0.144 3.21 0.0339 6.43 0.0789 9.64 0.125 0.964 0.00528 1.93 0.0106 2.92 0.016 5.47 0.0796 10.5 0.692 15.8 1.87 3.36 0.666 6.66 0.788 10.1 0.874 1.01 0.029 1.01 0.029 2.04 0.0587 2.11 0.0588 4.22 0.106 6.32 0.152 1.45 0.0383 2.9 0.0773 4.34 0.117 3.51 0.0949 7.02 0.179 10.5 0.258v3c1.3-0.0619 2.6-0.124 3.94-0.188 4.4-0.0138 7.82 0.928 11.9 2.45 3.04 1.04 5.97 1.4 9.15 1.73v2c2.31 0.33 4.62 0.66 7 1v2c1.22 0.289 2.43 0.577 3.69 0.875 3.23 0.803 6.26 1.79 9.31 3.12v2c2.47 0.495 2.47 0.495 5 1v3h6v3h3c1.36 1.31 2.69 2.65 4 4 1.36 0.804 1.36 0.804 2.75 1.62 0.742 0.454 1.49 0.908 2.25 1.38v2c1.32 0.33 2.64 0.66 4 1v3h3v3h3c1.69 1.31 1.69 1.31 3 3v3h3v3h3c0.33 1.98 0.66 3.96 1 6 0.99 0.33 1.98 0.66 3 1v2c0.99 0.33 1.98 0.66 3 1v3h3v6h3c0.186 1.21 0.186 1.21 0.375 2.44 0.206 0.846 0.412 1.69 0.625 2.56 0.66 0.33 1.32 0.66 2 1 0.625 3.06 0.625 3.06 1 6h2c0.186 1.45 0.186 1.45 0.375 2.94 0.206 1.01 0.412 2.02 0.625 3.06 0.66 0.33 1.32 0.66 2 1 0.414 2.07 0.414 2.07 0.625 4.56 0.0748 0.826 0.15 1.65 0.227 2.5 0.049 0.638 0.098 1.28 0.148 1.93h2c0.133 0.638 0.266 1.28 0.402 1.93 0.177 0.826 0.353 1.65 0.535 2.5 0.174 0.824 0.348 1.65 0.527 2.5 0.343 2.04 0.343 2.04 1.54 3.07 0.548 3.65 0.967 7.31 1.4 11 0.356 2.72 0.888 5.1 1.61 7.78 1.03 4.05 1.3 7.99 1.33 12.2 0.0146 0.73 0.0292 1.46 0.0443 2.21 0.046 2.31 0.0804 4.63 0.112 6.94 0.138 9.96 0.604 19.6 2.05 29.4 0.685 5.38 0.737 10.7 0.695 16.1 0.00773 1.02 0.0155 2.03 0.0234 3.08-0.0133 5.25-0.356 10.2-1.26 15.4-1.58 9.43-1.4 19-1.47 28.5-0.0795 8.94-0.225 17.3-2.84 25.9-1.15 4.1-1.43 8.28-1.7 12.5h-2c-0.33 3.96-0.66 7.92-1 12h-2c-0.049 0.638-0.098 1.28-0.148 1.93-0.0748 0.826-0.15 1.65-0.227 2.5-0.0696 0.824-0.139 1.65-0.211 2.5-0.137 0.682-0.273 1.36-0.414 2.07-0.99 0.495-0.99 0.495-2 1-0.658 3.03-0.658 3.03-1 6h-2c-0.268 1.03-0.536 2.06-0.812 3.12-0.997 3.52-2.45 6.64-4.19 9.88h-2v5c-0.99 0.495-0.99 0.495-2 1-1.05 1.98-2.05 3.97-3 6h-2v3h-2c-0.103 0.557-0.206 1.11-0.312 1.69-0.836 2.81-1.97 4.93-3.69 7.31h-3v3c-1.88 2.19-1.88 2.19-4 4h-2v3h-3v3c-1.63 1.38-3.3 2.71-5 4-0.33 0.66-0.66 1.32-1 2h-3v3c-0.99 0.33-1.98 0.66-3 1-0.66 0.846-1.32 1.69-2 2.56-0.66 0.804-1.32 1.61-2 2.44h-3c-0.33 0.99-0.66 1.98-1 3-1.65 0.33-3.3 0.66-5 1v3h-4v2c-1.65 0.33-3.3 0.66-5 1v3c-1.98 0.33-3.96 0.66-6 1v2c-1.62 0.671-3.25 1.34-4.88 2-0.905 0.371-1.81 0.743-2.74 1.12-2.38 0.875-2.38 0.875-4.38 0.875v2c-1.13 0.124-2.27 0.247-3.44 0.375-1.18 0.206-2.35 0.412-3.56 0.625-0.33 0.66-0.66 1.32-1 2-2.07 0.414-2.07 0.414-4.56 0.625-1.24 0.112-1.24 0.112-2.5 0.227-0.638 0.049-1.28 0.098-1.93 0.148v2c-2.88 0.961-4.7 1.11-7.69 1.06-0.808-0.00902-1.62-0.018-2.45-0.0273-0.922-0.0174-0.922-0.0174-1.86-0.0352v2c-1.05 0.121-2.1 0.242-3.18 0.367-8.81 0.977-8.81 0.977-17.5 2.7-5.67 1.4-11.5 1.6-17.3 1.94v2c-11.9 0.495-11.9 0.495-24 1-0.33 0.66-0.66 1.32-1 2-0.71 0.0198-1.42 0.0396-2.15 0.0601-3.26 0.0961-6.52 0.205-9.79 0.315-1.68 0.0464-1.68 0.0464-3.38 0.0938-7.04 0.238-7.04 0.238-13.9 1.53-7.07 1.78-14.6 1.48-21.8 1.62-1.55 0.0383-3.1 0.0773-4.65 0.117-3.76 0.0952-7.53 0.179-11.3 0.258v2c-1.17 0.0198-2.35 0.0396-3.56 0.0601-4.42 0.0769-8.83 0.165-13.2 0.257-1.9 0.0379-3.8 0.0729-5.7 0.104-2.75 0.0464-5.51 0.104-8.26 0.164-0.83 0.0116-1.66 0.0231-2.51 0.035-4.69 0.114-9.15 0.58-13.8 1.38-6.52 1.02-12.8 1.27-19.4 1.24-1.75 0.00285-1.75 0.00285-3.54 0.00575-3.82 0.00367-7.63-0.00693-11.4-0.0182-2.67-0.00119-5.33-0.0017-8-0.00139-5.56-9.31e-4 -11.1-0.00955-16.7-0.0233-6.43-0.0158-12.9-0.021-19.3-0.0203-6.21 6.1e-4 -12.4-0.00448-18.6-0.0128-2.64-0.00319-5.27-0.00515-7.91-0.00589-3.67-0.00216-7.33-0.0109-11-0.0216-1.09 4.53e-4 -2.19 9.06e-4 -3.32 0.00137-0.994-0.00426-1.99-0.00853-3.01-0.0129-1.3-0.00251-1.3-0.00251-2.62-0.00508-2.08-0.129-2.08-0.129-4.08-1.13-6.44-1.1-13-1.2-19.5-1.32-0.964-0.0208-1.93-0.0416-2.92-0.063-3.05-0.0648-6.09-0.124-9.14-0.183-2.08-0.0433-4.16-0.0869-6.24-0.131-5.07-0.106-10.1-0.208-15.2-0.307v-2c-1.01-0.0198-2.03-0.0396-3.07-0.0601-3.8-0.0767-7.59-0.165-11.4-0.257-1.64-0.038-3.27-0.0729-4.91-0.104-15.7-0.306-15.7-0.306-22.4-2.11-5.16-1.08-10.5-0.949-15.8-1.09-1.2-0.0387-2.4-0.0773-3.63-0.117-2.93-0.0935-5.87-0.179-8.8-0.258v-2c-8.91-0.33-17.8-0.66-27-1v-2c-0.631-0.0553-1.26-0.111-1.91-0.168-2.84-0.252-5.68-0.511-8.53-0.77-0.993-0.087-1.99-0.174-3.01-0.264-0.944-0.087-1.89-0.174-2.86-0.264-0.875-0.0786-1.75-0.157-2.65-0.238-2.04-0.297-2.04-0.297-3.04-1.3-2.69-0.4-5.36-0.751-8.06-1.06-0.759-0.0909-1.52-0.182-2.3-0.275-1.88-0.225-3.76-0.444-5.64-0.662v-2c-0.615 0.0116-1.23 0.0232-1.86 0.0352-1.21 0.0135-1.21 0.0135-2.45 0.0273-0.801 0.0116-1.6 0.0232-2.43 0.0352-2.26-0.0977-2.26-0.0977-5.26-1.1v-2c-3.3-0.33-6.6-0.66-10-1v-2c-2.31-0.33-4.62-0.66-7-1v-2c-2.31-0.33-4.62-0.66-7-1-0.495-1.49-0.495-1.49-1-3h-6v-3h-4v-2c-0.681-0.247-1.36-0.495-2.06-0.75-3.51-1.49-6.65-3.32-9.94-5.25v-2h-3c-1.69-1.38-1.69-1.38-3-3v-2c-1.32-0.33-2.64-0.66-4-1v-2c-0.99-0.33-1.98-0.66-3-1v-2c-1.65-0.33-3.3-0.66-5-1v-3c-1.32-0.33-2.64-0.66-4-1v-3h-2v-2h-2c-3-3.46-3-3.46-3-6h-2v-3c-0.99-0.33-1.98-0.66-3-1-4-4.34-4-4.34-4-8h-2c-0.33-0.99-0.66-1.98-1-3-1.47-1.61-3-3-4.69-4.38-1.8-2.23-1.54-3.84-1.31-6.62h-2c-0.33-1.98-0.66-3.96-1-6h-3c-0.124-0.804-0.248-1.61-0.375-2.44-0.206-0.846-0.413-1.69-0.625-2.56-0.66-0.33-1.32-0.66-2-1-0.735-2.67-1.39-5.31-2-8-0.581-2.38-1.24-4.66-2-7-0.66-0.33-1.32-0.66-2-1-0.414-2.72-0.414-2.72-0.625-6.06-0.112-1.66-0.112-1.66-0.227-3.35-0.049-0.855-0.098-1.71-0.148-2.59h-2c-0.121-0.88-0.242-1.76-0.367-2.67l-0.508-3.52c-0.244-1.72-0.244-1.72-0.492-3.48-0.479-3.22-0.479-3.22-1.65-5.6-1.21-3.36-1.27-6.19-1.33-9.76-0.0146-0.672-0.0292-1.34-0.0443-2.04-0.0462-2.14-0.0805-4.29-0.112-6.43-0.0419-2.8-0.096-5.6-0.156-8.41l-0.0566-3.76c-0.15-3.58-0.702-7.03-1.29-10.6-1.04-6.45-1.27-12.7-1.22-19.2 4.58e-4 -1.13 9.16e-4 -2.26 0.00139-3.42 3e-3 -2.37 0.0108-4.73 0.0233-7.1 0.0183-3.59 0.0205-7.18 0.0203-10.8 0.00492-2.32 0.0107-4.63 0.0176-6.95 0.00111-1.06 0.00223-2.11 0.00337-3.2 0.119-19 0.119-19 2.16-23.1 0.119-2.16 0.179-4.32 0.211-6.48 0.0284-1.31 0.0567-2.62 0.0859-3.97 0.041-2.08 0.0779-4.16 0.104-6.24 0.108-7.81 0.418-14.2 3.6-21.3 0.549-2.88 0.549-2.88 0.688-5.5 0.0657-0.856 0.131-1.71 0.199-2.59 0.0374-0.629 0.0748-1.26 0.113-1.91h2c0.33-2.97 0.66-5.94 1-9h2c0.049-0.638 0.098-1.28 0.148-1.93 0.0748-0.826 0.15-1.65 0.227-2.5 0.0696-0.824 0.139-1.65 0.211-2.5 0.137-0.682 0.273-1.36 0.414-2.07l2-1c0.165-0.825 0.33-1.65 0.5-2.5 0.165-0.825 0.33-1.65 0.5-2.5l2-1c0.658-3.03 0.658-3.03 1-6h3c0.186-0.835 0.186-0.835 0.375-1.69 0.685-2.53 1.62-4.89 2.62-7.31h3v-4h2c0.66-1.65 1.32-3.3 2-5h2c0.33-1.32 0.66-2.64 1-4h3v-3h3v-3c1.63-1.38 3.3-2.71 5-4 0.495-0.99 0.495-0.99 1-2h3v-4h3v-2c0.99-0.33 1.98-0.66 3-1 0.681-0.681 1.36-1.36 2.06-2.06 0.639-0.639 1.28-1.28 1.94-1.94h2v-2h4v-3c0.742-0.289 1.48-0.577 2.25-0.875 4.69-1.62 4.69-1.62 7.75-5.12 1.67-0.333 3.33-0.667 5-1 0.33-0.66 0.66-1.32 1-2 2.65-0.594 5.29-0.742 8-1v-2c3.47-0.495 3.47-0.495 7-1v-2c4.46-0.495 4.46-0.495 9-1v-2c5.28-0.66 10.6-1.32 16-2v-2c0.929-0.0251 1.86-0.0501 2.81-0.0759 3.44-0.0951 6.88-0.194 10.3-0.296 1.49-0.0434 2.98-0.085 4.47-0.125 2.14-0.0577 4.28-0.121 6.42-0.186 1.29-0.0367 2.58-0.0733 3.9-0.111 2.99-6.29e-4 2.99-6.29e-4 5.07-1.21 7.29-1.15 14.7-1.17 22.1-1.25 2.33-0.033 4.67-0.0662 7-0.0996 3.61-0.047 7.23-0.0914 10.8-0.131 3.53-0.0405 7.06-0.0919 10.6-0.144 1.04-0.00841 2.08-0.0168 3.16-0.0255 5.71-0.0908 11.3-0.435 17-1.08 14.2-1.57 28.4-1.56 42.7-1.53z" fill="#000002"/>
<path transform="translate(776 332)" d="m0 0c0.941-0.0063 1.88-0.0126 2.85-0.0191 1.51 0.00607 1.51 0.00607 3.05 0.0123 1.04-0.00191 2.09-0.00383 3.16-0.0058 2.2-0.00136 4.41 0.00232 6.61 0.0107 3.37 0.0107 6.73 1e-4 10.1-0.0127 2.15 0.00132 4.29 0.00388 6.44 0.00781 1-0.00405 2.01-0.0081 3.04-0.0123 5.07 0.0338 9.1 0.396 13.9 2.28 2.65 0.283 5.22 0.502 7.88 0.625 0.688 0.0387 1.38 0.0773 2.09 0.117 1.68 0.0933 3.36 0.177 5.04 0.258v2c4.29 0.33 8.58 0.66 13 1v2c3.96 0.33 7.92 0.66 12 1v3h7v2c2.97 0.66 5.94 1.32 9 2v2c2.31 0.33 4.62 0.66 7 1v2h6v2c2.31 0.66 4.62 1.32 7 2v2c1.65 0.33 3.3 0.66 5 1v2c1.98 0.33 3.96 0.66 6 1v3c0.908-0.0825 1.82-0.165 2.75-0.25 3.25 0.25 3.25 0.25 5.62 2.12 1.62 2.12 1.62 2.12 1.62 4.12 1.98 0.33 3.96 0.66 6 1v2h3v3c0.598 0.289 1.2 0.577 1.81 0.875 2.19 1.12 2.19 1.12 5.19 3.12v2c0.763 0.103 1.53 0.206 2.31 0.312 2.89 0.738 3.95 1.31 5.69 3.69v3h4v3h3v3c0.99 0.33 1.98 0.66 3 1v2h3c0.33 0.99 0.66 1.98 1 3 0.66 0.33 1.32 0.66 2 1v3h3c2.03 1.61 3.12 3.2 4.44 5.44 1.47 2.65 1.47 2.65 3.75 4.69 1.81 1.88 1.81 1.88 1.81 4.88h3c3 5.62 3 5.62 3 9h3v4h3c0.124 0.804 0.247 1.61 0.375 2.44 0.206 0.846 0.413 1.69 0.625 2.56 0.66 0.33 1.32 0.66 2 1 0.625 3.06 0.625 3.06 1 6h2c0.33 0.99 0.66 1.98 1 3 0.66 0.33 1.32 0.66 2 1 0.625 2.56 0.625 2.56 1 5 0.99 0.33 1.98 0.66 3 1v8c0.99 0.33 1.98 0.66 3 1 0.124 0.804 0.247 1.61 0.375 2.44 0.309 1.27 0.309 1.27 0.625 2.56l2 1c0.333 2 0.667 4 1 6l2 1v9h3c0.049 0.615 0.098 1.23 0.148 1.86 0.0748 0.808 0.15 1.62 0.227 2.45 0.0696 0.801 0.139 1.6 0.211 2.43 0.31 2.53 0.31 2.53 2.41 5.26 0.414 2.92 0.414 2.92 0.625 6.19 0.0748 1.09 0.15 2.17 0.227 3.29 0.049 0.831 0.098 1.66 0.148 2.52h2c0.33 6.27 0.66 12.5 1 19h2c0.0508 7.58 0.0858 15.2 0.11 22.7 0.01 2.58 0.0237 5.16 0.041 7.73 0.0243 3.71 0.0356 7.42 0.0444 11.1 0.0103 1.15 0.0206 2.3 0.0313 3.49 7.55e-4 5.4-0.122 9.85-2.23 14.9-0.276 2.28-0.484 4.58-0.625 6.88-0.0748 1.15-0.15 2.3-0.227 3.49-0.049 0.869-0.098 1.74-0.148 2.63h-2c-0.049 0.831-0.098 1.66-0.148 2.52-0.0748 1.09-0.15 2.17-0.227 3.29-0.0696 1.08-0.139 2.16-0.211 3.27-0.414 2.92-0.414 2.92-2.41 5.92-0.379 1.98-0.379 1.98-0.5 4.06-0.5 3.94-0.5 3.94-2.5 5.94-0.384 1.94-0.384 1.94-0.5 4.06-0.165 1.3-0.33 2.6-0.5 3.94-0.66 0.33-1.32 0.66-2 1-0.499 1.66-0.991 3.33-1.43 5.01-0.904 3.13-2.24 6.02-3.57 8.99h-2v7h-3c-0.124 0.969-0.247 1.94-0.375 2.94-0.309 1.52-0.309 1.52-0.625 3.06-0.66 0.33-1.32 0.66-2 1-0.165 0.825-0.33 1.65-0.5 2.5-0.165 0.825-0.33 1.65-0.5 2.5-0.66 0.33-1.32 0.66-2 1-0.33 0.99-0.66 1.98-1 3h-2c-0.33 1.98-0.66 3.96-1 6h-3v4h-2c-0.66 1.65-1.32 3.3-2 5h-2c-0.33 1.32-0.66 2.64-1 4h-2v3h-2c-0.66 1.98-1.32 3.96-2 6h-3v3h-3v3c-2.31 2-2.31 2-5 4-2.38 2.12-2.96 2.87-4 6h-3v3h-3c-0.33 0.99-0.66 1.98-1 3-1.44 1.69-1.44 1.69-3 3h-2c-0.33 0.99-0.66 1.98-1 3h-3v3h-3v3c-0.804 0.124-1.61 0.247-2.44 0.375-0.846 0.206-1.69 0.412-2.56 0.625-0.33 0.66-0.66 1.32-1 2h-3v3c-1.65 0.33-3.3 0.66-5 1v2h-4v3c-1.98 0.33-3.96 0.66-6 1v3h-4v2c-1.98 0.33-3.96 0.66-6 1v3h-6v3h-7v3c-0.804 0.124-1.61 0.247-2.44 0.375-0.846 0.206-1.69 0.412-2.56 0.625-0.33 0.66-0.66 1.32-1 2-2.07 0.414-2.07 0.414-4.56 0.625-1.24 0.112-1.24 0.112-2.5 0.227-0.638 0.049-1.28 0.098-1.93 0.148v2c-2.02 0.456-4.04 0.911-6.05 1.37-2.15 0.538-2.15 0.538-3.95 2.63-2.16 0.195-2.16 0.195-4.62 0.125-0.817-0.018-1.63-0.0361-2.48-0.0547-0.94-0.0348-0.94-0.0348-1.9-0.0703v3c-0.82 0.049-1.64 0.098-2.48 0.148-1.08 0.0748-2.16 0.15-3.27 0.227-1.07 0.0696-2.13 0.139-3.23 0.211-2.92 0.227-2.92 0.227-4.92 1.41-3.15 1.51-6.41 1.47-9.84 1.62-0.697 0.0387-1.39 0.0773-2.11 0.117-1.71 0.0938-3.42 0.177-5.14 0.258v2h-60v-2c-1.04-0.049-2.07-0.098-3.14-0.148-1.37-0.0751-2.74-0.151-4.11-0.227-0.682-0.0309-1.36-0.0619-2.07-0.0938-3.77-0.22-6.38-0.78-9.68-2.53-2.88-0.359-5.74-0.503-8.64-0.656-0.78-0.113-1.56-0.227-2.36-0.344-0.33-0.66-0.66-1.32-1-2-1.99-0.354-1.99-0.354-4.31-0.438-3.9-0.338-5.65-1.05-8.69-3.56-3.15-0.72-3.15-0.72-6-1v-2c-1.3-0.124-2.6-0.247-3.94-0.375-2.21-0.211-2.21-0.211-4.06-0.625-0.33-0.66-0.66-1.32-1-2-1.98-0.727-3.98-1.4-6-2v-2h-6c-0.33-0.66-0.66-1.32-1-2-0.825-0.165-1.65-0.33-2.5-0.5-0.825-0.165-1.65-0.33-2.5-0.5-0.33-0.66-0.66-1.32-1-2-1.64-0.722-3.31-1.39-5-2v-2c-1.14 0.0928-1.14 0.0928-2.31 0.188-2.69-0.188-2.69-0.188-4.38-1.62-0.433-0.516-0.866-1.03-1.31-1.56-0.66-0.33-1.32-0.66-2-1v-2c-1.65-0.33-3.3-0.66-5-1v-2c-0.639-0.124-1.28-0.247-1.94-0.375-1.02-0.309-1.02-0.309-2.06-0.625-0.33-0.66-0.66-1.32-1-2-0.99-0.33-1.98-0.66-3-1v-3h-3v-2c-0.804-0.124-1.61-0.247-2.44-0.375-1.27-0.309-1.27-0.309-2.56-0.625-0.33-0.66-0.66-1.32-1-2-0.99-0.33-1.98-0.66-3-1v-3h-3v-3h-3v-3h-3v-3c-1.32-0.33-2.64-0.66-4-1v-3h-3v-3h-3v-3h-3v-3h-3v-3c-0.99-0.33-1.98-0.66-3-1v-3h-3v-5h-3v-4h-3c-0.33-1.65-0.66-3.3-1-5h-2v-4h-3c-0.33-1.65-0.66-3.3-1-5h-3v-5h-2c-0.33-1.98-0.66-3.96-1-6h-3c-0.124-0.804-0.247-1.61-0.375-2.44-0.206-0.846-0.413-1.69-0.625-2.56-0.66-0.33-1.32-0.66-2-1v-6h-3c-0.289-1.03-0.578-2.06-0.875-3.12-0.683-2.41-1.43-4.75-2.25-7.12-0.875-2.75-0.875-2.75-0.875-5.75h-2c-0.289-1.22-0.578-2.43-0.875-3.69-0.605-2.46-1.25-4.6-2.25-6.94-1.07-2.89-1.02-5.32-0.875-8.38h-2c-1.26-2.52-1.1-4.31-1.06-7.12 0.0135-1.37 0.0135-1.37 0.0273-2.76 0.0116-0.699 0.0232-1.4 0.0352-2.12h-2c-0.121-1.09-0.242-2.17-0.367-3.29-0.169-1.45-0.338-2.89-0.508-4.34-0.0786-0.713-0.157-1.43-0.238-2.16-0.0838-0.703-0.168-1.41-0.254-2.13-0.0733-0.639-0.147-1.28-0.222-1.94-0.358-2.26-0.358-2.26-1.43-4.67-1.43-5.1-1.26-10-1.24-15.3-0.00287-1.7-0.00287-1.7-0.0058-3.44-0.00136-2.4 0.00231-4.79 0.0107-7.19 0.0107-3.67 8.1e-5 -7.34-0.0127-11 0.00132-2.33 0.00388-4.66 0.00781-6.99-0.00405-1.1-0.0081-2.2-0.0123-3.33 0.0063-1.02 0.0126-2.04 0.0191-3.1 0.00159-0.897 0.00318-1.79 0.00482-2.72 0.272-2.58 1-4.17 2.25-6.41 0.446-2.12 0.446-2.12 0.633-4.33 0.126-1.2 0.126-1.2 0.254-2.42 0.0786-0.825 0.157-1.65 0.238-2.5 0.0864-0.84 0.173-1.68 0.262-2.55 0.211-2.07 0.413-4.13 0.613-6.2h2c-0.0348-0.641-0.0696-1.28-0.105-1.94-0.187-5.97 0.487-9.72 3.11-15.1 0.691-2.78 0.691-2.78 1-5h2c0.33-2.97 0.66-5.94 1-9h2c0.33-2.31 0.66-4.62 1-7h2c0.33-2.97 0.66-5.94 1-9h3v-6l2-1c0.934-1.66 1.8-3.35 2.62-5.06 0.669-1.38 0.669-1.38 1.35-2.79 0.338-0.71 0.675-1.42 1.02-2.15h2c-0.0619-0.763-0.124-1.53-0.188-2.31 0.223-3.19 0.871-3.65 3.19-5.69 0.495-1.49 0.495-1.49 1-3 0.66-0.33 1.32-0.66 2-1 0.495-1.49 0.495-1.49 1-3h2c0.66-1.98 1.32-3.96 2-6h2v-3h3v-3c0.66-0.33 1.32-0.66 2-1 0.722-1.64 1.39-3.31 2-5h2c0.495-1.49 0.495-1.49 1-3h2v-3c0.99-0.33 1.98-0.66 3-1 2.37-2 2.99-2.97 4-6h3v-3h3v-3h3v-3h3v-3h3v-3c0.99-0.33 1.98-0.66 3-1 0.495-0.99 0.495-0.99 1-2 2.56-0.625 2.56-0.625 5-1 0.33-0.99 0.66-1.98 1-3h3v-3h3v-2c0.804-0.289 1.61-0.577 2.44-0.875 2.7-0.858 2.7-0.858 3.56-3.12h3v-3h6c0.33-0.99 0.66-1.98 1-3 1.65-0.33 3.3-0.66 5-1v-2h4v-2c1.98-0.33 3.96-0.66 6-1v-3c2.97-0.33 5.94-0.66 9-1 0.33-0.99 0.66-1.98 1-3 2.69-1.06 2.69-1.06 6-2 2.02-0.609 4.02-1.26 6-2 0.33-0.66 0.66-1.32 1-2 2.06-0.391 4.09-0.507 6.19-0.656 0.598-0.113 1.2-0.227 1.81-0.344 0.33-0.66 0.66-1.32 1-2 1.96-0.344 1.96-0.344 4.38-0.5 3.52-0.229 4.55-0.453 7.62-2.5 2.92-0.414 2.92-0.414 6.19-0.625 1.63-0.112 1.63-0.112 3.29-0.227 0.831-0.049 1.66-0.098 2.52-0.148v-2c1.65-0.0735 1.65-0.0735 3.32-0.148 1.45-0.0751 2.91-0.151 4.36-0.227 0.721-0.0309 1.44-0.0619 2.19-0.0938 1.06-0.058 1.06-0.058 2.14-0.117 0.644-0.0314 1.29-0.0628 1.95-0.0952 2.14-0.248 2.14-0.248 4.36-1.32 2.74-1.02 4.66-1.25 7.56-1.26z" fill="#000002"/>
<path transform="translate(59.2 1097)" d="m0 0c1.68-0.0309 1.68-0.0309 3.39-0.0625 6.3-0.0298 10.8 0.359 16.4 3.31 2.78 0.691 2.78 0.691 5 1v2c0.969 0.124 1.94 0.247 2.94 0.375 1.01 0.206 2.02 0.412 3.06 0.625 0.495 0.99 0.495 0.99 1 2 0.99 0.33 1.98 0.66 3 1v3h3v2c1.32 0.33 2.64 0.66 4 1v2h2c0.495 1.48 0.495 1.48 1 3 0.66 0.33 1.32 0.66 2 1v3h3c0.495 1.48 0.495 1.48 1 3 0.66 0.33 1.32 0.66 2 1 0.333 2 0.667 4 1 6 0.66 0.33 1.32 0.66 2 1 0.598 2.25 0.598 2.25 1.06 5 0.342 3.3 0.342 3.3 1.94 6 1.1 7.34 1.1 14.6 1 22h2c0.495 12.4 0.495 12.4 1 25h2c0.0501 0.631 0.1 1.26 0.152 1.91 0.231 2.84 0.477 5.68 0.723 8.53 0.0786 0.993 0.157 1.99 0.238 3.01 0.0838 0.944 0.168 1.89 0.254 2.86 0.0733 0.875 0.147 1.75 0.222 2.65 0.203 1.01 0.203 1.01 0.411 2.04 0.66 0.33 1.32 0.66 2 1v21c0.99 0.33 1.98 0.66 3 1 0.049 1.05 0.098 2.1 0.148 3.18 0.075 1.38 0.151 2.76 0.227 4.14 0.0464 1.04 0.0464 1.04 0.0938 2.09 0.212 3.67 0.451 5.47 2.53 8.6 0.414 2.92 0.414 2.92 0.625 6.19 0.0748 1.09 0.15 2.17 0.227 3.29 0.049 0.831 0.098 1.66 0.148 2.52h2c0.049 0.638 0.098 1.28 0.148 1.93 0.112 1.24 0.112 1.24 0.227 2.5 0.0696 0.824 0.139 1.65 0.211 2.5 0.137 0.682 0.273 1.36 0.414 2.07 0.66 0.33 1.32 0.66 2 1 0.414 2.29 0.414 2.29 0.625 5.06l0.227 2.79c0.049 0.71 0.098 1.42 0.148 2.15h2c0.33 2.64 0.66 5.28 1 8h2c0.33 2.31 0.66 4.62 1 7h2c0.289 0.969 0.577 1.94 0.875 2.94 0.767 3.17 0.767 3.17 3.12 4.06v6c0.99 0.33 1.98 0.66 3 1v5h3c0.124 0.804 0.248 1.61 0.375 2.44 0.206 0.846 0.412 1.69 0.625 2.56 0.66 0.33 1.32 0.66 2 1 1.12 2.28 2.05 4.61 3 6.97 0.827 2.2 0.827 2.2 3 3.03 0.625 3.06 0.625 3.06 1 6h2v3h4v6h3v3c0.99 0.33 1.98 0.66 3 1v3h3v5h3l1 3c0.825 0.66 1.65 1.32 2.5 2 2.5 2 2.5 2 3.5 5 2 2.37 2.97 2.99 6 4v4c1.32 0.66 2.64 1.32 4 2v2h2c2.35 1.97 3 3 4 6 0.99 0.33 1.98 0.66 3 1v3h3v2c1.32 0.66 2.64 1.32 4 2v2h4l1 3c2 2.37 2.97 2.99 6 4 1.33 1.67 2.67 3.33 4 5 0.99 0.33 1.98 0.66 3 1v3h5v3c1.32 0.33 2.64 0.66 4 1v2h3c0.33 0.66 0.66 1.32 1 2 2.53 0.656 2.53 0.656 5 1v4h3v2c0.969 0.124 1.94 0.247 2.94 0.375 1.52 0.309 1.52 0.309 3.06 0.625 0.33 0.66 0.66 1.32 1 2 1.65 0.712 3.32 1.37 5 2 3.86 1.71 3.86 1.71 5 4 2.53 0.656 2.53 0.656 5 1v3h5c0.33 0.99 0.66 1.98 1 3h7v3c1.98 0.33 3.96 0.66 6 1v2c2.64 0.33 5.28 0.66 8 1v2c2.31 0.33 4.62 0.66 7 1v2c3.3 0.33 6.6 0.66 10 1v2c3.3 0.33 6.6 0.66 10 1v2c0.831 0.049 1.66 0.098 2.52 0.148 1.09 0.0748 2.17 0.15 3.29 0.227 1.08 0.0696 2.16 0.139 3.27 0.211 2.92 0.414 2.92 0.414 5.92 2.41 2.53 0.276 4.97 0.464 7.5 0.562 7.15 0.32 7.15 0.32 10.5 1.44v2h19v2c1.04 0.083 1.04 0.083 2.1 0.168 3.11 0.252 6.23 0.511 9.34 0.77 1.09 0.087 2.18 0.174 3.3 0.264 1.03 0.087 2.07 0.174 3.13 0.264 0.958 0.0786 1.92 0.157 2.9 0.238 2.22 0.297 2.22 0.297 3.22 1.3 1.85 0.228 3.71 0.395 5.57 0.535 1.12 0.087 2.25 0.174 3.41 0.264 1.18 0.087 2.37 0.174 3.59 0.264 1.19 0.0909 2.38 0.182 3.6 0.275 2.95 0.225 5.89 0.445 8.84 0.662v2c0.678-0.0116 1.36-0.0232 2.05-0.0352 17.1-0.166 17.1-0.166 21.9 3.04 2.02 0.378 2.02 0.378 4.12 0.5 1.28 0.165 2.56 0.33 3.88 0.5 0.33 0.66 0.66 1.32 1 2 0.825 0.165 1.65 0.33 2.5 0.5 0.825 0.165 1.65 0.33 2.5 0.5 0.33 0.66 0.66 1.32 1 2 0.99 0.33 1.98 0.66 3 1v3h4c2.75 2.37 2.75 2.37 5 5v2h3v5h3c0.33 1.32 0.66 2.64 1 4h2c0.33 1.98 0.66 3.96 1 6h2c0.205 0.638 0.41 1.28 0.621 1.93 0.269 0.826 0.539 1.65 0.816 2.5l0.809 2.5c0.575 2.03 0.575 2.03 1.75 3.07 0.284 4.56 0.232 9.12 0.25 13.7 0.0309 1.92 0.0309 1.92 0.0625 3.88 0.00516 1.24 0.0103 2.48 0.0156 3.76 0.00935 1.14 0.0187 2.27 0.0283 3.44-0.403 3.66-1.59 6.03-3.36 9.24-0.699 2.74-0.699 2.74-1 5h-2c-0.33 1.98-0.66 3.96-1 6h-2c-0.33 1.32-0.66 2.64-1 4h-3v3h-2c-0.33 1.32-0.66 2.64-1 4h-2v2c-1.32 0.33-2.64 0.66-4 1v2h-3v3c-1.98 0.33-3.96 0.66-6 1v2c-4.34 2.45-8.29 3.62-13.1 4.47-0.612 0.174-1.22 0.348-1.86 0.527-0.33 0.66-0.66 1.32-1 2h-27c-0.33-0.66-0.66-1.32-1-2-2.52-0.471-2.52-0.471-5.57-0.633-1.12-0.0838-2.25-0.168-3.41-0.254-1.18-0.0786-2.37-0.157-3.59-0.238-1.78-0.13-1.78-0.13-3.6-0.262-2.95-0.213-5.89-0.417-8.84-0.613v-2c-7.92-0.33-15.8-0.66-24-1v-2c-0.555-0.0198-1.11-0.0396-1.68-0.0601-2.52-0.0955-5.05-0.205-7.57-0.315-0.873-0.0309-1.75-0.0619-2.64-0.0938-0.844-0.0387-1.69-0.0773-2.56-0.117-0.775-0.0314-1.55-0.0628-2.35-0.0952-2.42-0.351-4.03-1.23-6.2-2.32-2.07-0.328-2.07-0.328-4.22-0.344-1.18-0.0445-1.18-0.0445-2.38-0.0898-1.64-0.0444-3.29-0.0886-4.93-0.133-0.784-0.0296-1.57-0.0593-2.38-0.0898-0.713-0.0187-1.43-0.0374-2.16-0.0566-1.93-0.287-1.93-0.287-4.93-2.29-2.39-0.295-4.79-0.493-7.19-0.625-1.27-0.0748-2.54-0.15-3.86-0.227-0.976-0.049-1.95-0.098-2.96-0.148v-2c-0.843-0.133-1.69-0.266-2.55-0.402-1.1-0.177-2.19-0.353-3.32-0.535-1.09-0.174-2.18-0.348-3.3-0.527-2.82-0.535-2.82-0.535-4.82-1.54-1.54-0.225-3.08-0.408-4.62-0.562-0.817-0.0838-1.63-0.168-2.48-0.254-0.626-0.0606-1.25-0.121-1.9-0.184-0.33-0.99-0.66-1.98-1-3-0.615 0.0348-1.23 0.0696-1.86 0.105-0.808 0.0271-1.62 0.0541-2.45 0.082-0.801 0.0348-1.6 0.0696-2.43 0.105-2.79-0.362-3.38-1.29-5.26-3.29-3.61-0.73-3.61-0.73-7-1v-2c-2.97-0.33-5.94-0.66-9-1v-2c-2.31-0.33-4.62-0.66-7-1v-2c-1.3-0.124-2.6-0.247-3.94-0.375-2.21-0.211-2.21-0.211-4.06-0.625-0.33-0.66-0.66-1.32-1-2-3.03-0.658-3.03-0.658-6-1v-3h-6v-3h-7v-3c-0.681-0.103-1.36-0.206-2.06-0.312-3.57-0.835-6.6-2.18-9.94-3.69v-2c-1.98-0.33-3.96-0.66-6-1v-3h-4c-0.33-0.66-0.66-1.32-1-2-0.66-0.165-1.32-0.33-2-0.5-0.66-0.165-1.32-0.33-2-0.5-0.33-0.66-0.66-1.32-1-2-1.98-0.727-3.98-1.4-6-2v-2h-3v-3h-6v-3c-1.32-0.33-2.64-0.66-4-1v-2c-1.65-0.33-3.3-0.66-5-1v-2c-1.32-0.33-2.64-0.66-4-1v-3h-3v-2c-1.98-0.33-3.96-0.66-6-1v-3h-3v-3h-4v-3c-0.557-0.0825-1.11-0.165-1.69-0.25-3.05-0.989-4.96-2.6-7.31-4.75v-2h-3c-1.69-1.31-1.69-1.31-3-3v-3h-3v-3h-3c-0.33-0.66-0.66-1.32-1-2-0.99-0.33-1.98-0.66-3-1v-3h-3v-3h-3c-1.69-1.31-1.69-1.31-3-3v-3h-3c-1.38-1.63-2.71-3.3-4-5-0.66-0.33-1.32-0.66-2-1v-3c-0.99-0.33-1.98-0.66-3-1-2.19-1.94-2.19-1.94-4-4v-2h-2v-3h-3c-1.69-1.31-1.69-1.31-3-3v-3c-0.99-0.33-1.98-0.66-3-1-4-4.34-4-4.34-4-8h-3v-4h-3v-3h-3c-0.33-1.98-0.66-3.96-1-6h-2v-3h-3c-0.33-1.32-0.66-2.64-1-4h-2c-0.254-0.566-0.508-1.13-0.77-1.71-0.344-0.733-0.688-1.47-1.04-2.22-0.336-0.731-0.673-1.46-1.02-2.21-1.1-2.18-1.1-2.18-4.17-2.85v-6h-3v-3h-2c-0.289-0.969-0.578-1.94-0.875-2.94-0.767-3.17-0.767-3.17-3.12-4.06-0.625-2.56-0.625-2.56-1-5h-2v-4h-3c-0.33-1.98-0.66-3.96-1-6h-2c-1.81-4.02-3.34-7.61-4-12h-3v-7h-3v-6h-3c-0.124-0.969-0.248-1.94-0.375-2.94-0.206-1.01-0.412-2.02-0.625-3.06-0.66-0.33-1.32-0.66-2-1-0.53-1.92-1.05-3.85-1.49-5.79-0.714-3.11-1.61-6.15-2.51-9.21h-2c-0.33-2.97-0.66-5.94-1-9h-2c-0.121-0.638-0.242-1.28-0.367-1.93-0.251-1.24-0.251-1.24-0.508-2.5-0.162-0.824-0.325-1.65-0.492-2.5-0.209-0.682-0.418-1.36-0.633-2.07-0.66-0.33-1.32-0.66-2-1v-9h-2c-2.24-8.28-3.84-16.5-5-25h-2c-0.049-1.06-0.098-2.12-0.148-3.21-0.075-1.39-0.151-2.78-0.227-4.16-0.0309-0.699-0.0619-1.4-0.0938-2.12-0.126-4.21-0.126-4.21-2.53-7.51-0.257-2.63-0.42-5.18-0.5-7.81-0.09-5.41-0.09-5.41-1.49-10.6-1.56-4.04-1.48-8.12-1.63-12.4-0.0387-0.884-0.0773-1.77-0.117-2.68-0.0938-2.17-0.177-4.34-0.258-6.51h-2c-0.33-7.92-0.66-15.8-1-24h-2c-0.0501-0.752-0.1-1.5-0.152-2.28-0.231-3.39-0.477-6.77-0.723-10.2-0.0786-1.18-0.157-2.37-0.238-3.59-0.0838-1.12-0.168-2.25-0.254-3.41-0.0733-1.04-0.147-2.08-0.222-3.16-0.136-0.795-0.271-1.59-0.411-2.41-0.66-0.33-1.32-0.66-2-1v-27h2c0.121-0.771 0.242-1.54 0.367-2.34 0.168-1 0.335-2.01 0.508-3.04 0.244-1.5 0.244-1.5 0.492-3.02 0.633-2.6 0.633-2.6 2.63-4.6 0.165-0.846 0.33-1.69 0.5-2.56 0.165-0.804 0.33-1.61 0.5-2.44 0.66-0.33 1.32-0.66 2-1 0.33-0.99 0.66-1.98 1-3 1.44-1.69 1.44-1.69 3-3h2c0.33-1.32 0.66-2.64 1-4h2c0.33-0.99 0.66-1.98 1-3h2v-2h4v-3c1.32-0.33 2.64-0.66 4-1v-2c1.98-0.33 3.96-0.66 6-1v-2c4.46-0.495 4.46-0.495 9-1v-2c4.95-1.65 10.1-1.23 15.2-1.25z" fill="#000002"/>
<path transform="translate(425)" d="m0 0h34v3c0.638 0.049 1.28 0.098 1.93 0.148 0.826 0.0748 1.65 0.15 2.5 0.227 0.824 0.0696 1.65 0.139 2.5 0.211 0.682 0.137 1.36 0.273 2.07 0.414 0.33 0.66 0.66 1.32 1 2 1.24 0.248 1.24 0.248 2.5 0.5 1.24 0.248 1.24 0.248 2.5 0.5 0.33 0.66 0.66 1.32 1 2 0.99 0.33 1.98 0.66 3 1 0.33 0.66 0.66 1.32 1 2 0.99 0.33 1.98 0.66 3 1v2c0.619 0.0619 1.24 0.124 1.88 0.188 2.12 0.813 2.12 0.813 3.38 3.38 0.248 0.804 0.495 1.61 0.75 2.44h2v4h3c0.33 1.32 0.66 2.64 1 4h2c0.33 1.98 0.66 3.96 1 6h2c0.121 0.615 0.242 1.23 0.367 1.86 0.168 0.808 0.335 1.62 0.508 2.45 0.162 0.801 0.325 1.6 0.492 2.43 0.578 2.51 0.578 2.51 2.63 5.26 0.227 2.64 0.227 2.64 0.195 5.76-0.00645 1.12-0.0129 2.24-0.0195 3.39-0.0168 1.17-0.0335 2.33-0.0508 3.54-0.00902 1.18-0.018 2.36-0.0273 3.57-0.0236 2.91-0.0565 5.83-0.0977 8.74h-2c-0.66 3.3-1.32 6.6-2 10h-2c-0.33 1.98-0.66 3.96-1 6h-2c-0.33 1.65-0.66 3.3-1 5-1.49 0.495-1.49 0.495-3 1v3c-1.38 1.69-1.38 1.69-3 3h-2c-0.33 0.99-0.66 1.98-1 3h-3v3h-3c-0.33 0.99-0.66 1.98-1 3-1.65 0.33-3.3 0.66-5 1v2c-1.45 0.186-1.45 0.186-2.94 0.375-1.52 0.309-1.52 0.309-3.06 0.625-0.33 0.66-0.66 1.32-1 2-2 0.598-2 0.598-4.44 1.06-3.39 0.652-3.39 0.652-6.56 1.94-7.29 1.18-14.6 1.11-22 1v2c-0.752 0.0553-1.5 0.111-2.28 0.168-3.39 0.252-6.77 0.511-10.2 0.77-1.18 0.087-2.37 0.174-3.59 0.264-1.12 0.087-2.25 0.174-3.41 0.264-1.04 0.0786-2.08 0.157-3.16 0.238-2.36 0.04-2.36 0.04-3.41 1.3-1.63 0.227-3.27 0.395-4.91 0.535-0.989 0.087-1.98 0.174-3 0.264-1.04 0.087-2.08 0.174-3.15 0.264-1.57 0.136-1.57 0.136-3.17 0.275-2.59 0.225-5.18 0.445-7.77 0.662v2c-0.56 0.0198-1.12 0.0396-1.7 0.0601-2.54 0.0953-5.08 0.205-7.62 0.315-1.32 0.0464-1.32 0.0464-2.67 0.0938-1.27 0.058-1.27 0.058-2.57 0.117-0.78 0.0314-1.56 0.0628-2.36 0.0952-2.39 0.215-2.39 0.215-5.08 2.32-2.12 0.246-4.25 0.403-6.38 0.5-4.39 0.202-7.59 0.807-11.6 2.5-2.37 0.337-4.72 0.498-7.11 0.656-0.624 0.113-1.25 0.227-1.89 0.344-0.33 0.66-0.66 1.32-1 2-2.32 0.393-4.62 0.507-6.97 0.656-1.01 0.17-1.01 0.17-2.03 0.344-0.33 0.66-0.66 1.32-1 2-1.96 0.232-3.91 0.459-5.87 0.648-3.02 0.499-5.43 1.94-8.13 3.35h-4v2c-2.31 0.33-4.62 0.66-7 1v2c-1.98 0.33-3.96 0.66-6 1v3h-6v2c-1.98 0.33-3.96 0.66-6 1v2c-1.45 0.433-1.45 0.433-2.94 0.875-3.17 0.767-3.17 0.767-4.06 3.12h-5v3c-0.99 0.33-1.98 0.66-3 1-0.33 0.66-0.66 1.32-1 2-1.67 0.333-3.33 0.667-5 1-0.33 0.66-0.66 1.32-1 2h-3v3c-1.98 0.33-3.96 0.66-6 1v3c-6.75 4-6.75 4-9 4v2c-0.99 0.33-1.98 0.66-3 1l-1 2h-3v3h-3v3c-1.98 0.33-3.96 0.66-6 1v3h-3v3h-3l-1 3h-2l-1 3c-1.37 1.69-1.37 1.69-3 3h-3v3c-1.87 2.19-1.87 2.19-4 4h-2l-1 3h-2v3h-3v3c-0.979 1.02-1.98 2.02-3 3l-1 3h-3v3h-3v3l-2 1-1 3h-2l-2 6h-2v3h-3l-1 6h-3v3l-2 1c-0.165 0.825-0.33 1.65-0.5 2.5-0.165 0.825-0.33 1.65-0.5 2.5-0.66 0.33-1.32 0.66-2 1-0.33 0.99-0.66 1.98-1 3-0.66 0.33-1.32 0.66-2 1-0.656 2.53-0.656 2.53-1 5h-3v6h-3c-0.33 1.98-0.66 3.96-1 6h-2v6h-3l-0.312 2.56c-0.77 3.85-2.05 6.88-3.69 10.4h-2l-0.148 1.93-0.227 2.5c-0.0696 0.824-0.139 1.65-0.211 2.5-0.137 0.682-0.273 1.36-0.414 2.07-0.66 0.33-1.32 0.66-2 1-0.465 1.9-0.465 1.9-0.625 4.06-0.186 1.95-0.186 1.95-0.375 3.94-0.99 0.33-1.98 0.66-3 1v9h-2l-0.148 2.48-0.227 3.27-0.211 3.23c-0.414 3.02-0.414 3.02-1.42 5-1.4 2.84-1.39 5.43-1.56 8.58-0.191 3.43-0.349 6.17-1.44 9.44h-2v21h-3c-0.0198 0.559-0.0396 1.12-0.0601 1.69-0.0965 2.58-0.206 5.16-0.315 7.74-0.0309 0.878-0.0619 1.76-0.0938 2.66-0.225 5.08-0.866 9.73-2.07 14.7-0.809 3.9-0.931 7.83-1.09 11.8l-0.117 2.48c-0.0929 1.99-0.176 3.97-0.258 5.96h-2l0.0352 2.27c0.0586 6.65-0.217 13.1-1.04 19.7h-2c-0.33 3.3-0.66 6.6-1 10h-2c-0.33 1.98-0.66 3.96-1 6h-2c-0.66 1.98-1.32 3.96-2 6h-2v3h-3v3c-1.31 1.69-1.31 1.69-3 3h-3v3h-3c-0.33 0.99-0.66 1.98-1 3l-5 1v2c-2.31 0.33-4.62 0.66-7 1v2c-2.97 0.33-5.94 0.66-9 1-0.33 0.99-0.66 1.98-1 3h-24c-0.33-0.66-0.66-1.32-1-2-2.12-0.687-2.12-0.687-4.56-1.12-0.826-0.168-1.65-0.335-2.5-0.508l-1.93-0.367v-2c-1.98-0.33-3.96-0.66-6-1v-2c-1.98-0.33-3.96-0.66-6-1v-3h-3c-1.69-1.37-1.69-1.37-3-3v-2h-3v-4h-3v-3h-3l-1-6h-2l-1-6h-2c-0.121-0.638-0.242-1.28-0.367-1.93l-0.508-2.5c-0.162-0.824-0.325-1.65-0.492-2.5l-0.633-2.07-2-1v-28l2-1c0.437-2.33 0.437-2.33 0.562-5.14 0.0748-1.05 0.15-2.11 0.227-3.19 0.104-1.66 0.104-1.66 0.211-3.36 0.414-6.48 0.887-12.2 3-18.3 0.376-3.29 0.506-6.57 0.625-9.88 0.0387-0.879 0.0773-1.76 0.117-2.66 0.0936-2.15 0.177-4.31 0.258-6.46h2l0.148-3.69c0.0751-1.62 0.151-3.25 0.227-4.87 0.0464-1.2 0.0464-1.2 0.0938-2.42 0.244-4.98 1.13-9.21 2.53-14 0.353-2.81 0.501-5.61 0.625-8.44 0.0387-0.732 0.0773-1.46 0.117-2.22 0.0932-1.78 0.177-3.56 0.258-5.35h2l1-16h2c0.049-0.748 0.098-1.5 0.148-2.27 0.0748-0.985 0.15-1.97 0.227-2.98l0.211-2.95c0.406-2.74 1.17-4.37 2.41-6.8 0.349-2.36 0.5-4.69 0.656-7.07l0.344-1.93 2-1c0.23-2 0.457-4.01 0.656-6.02 0.451-2.61 1.7-3.95 3.34-5.98 0.754-2.31 1.41-4.65 2-7 0.187-0.736 0.374-1.47 0.566-2.23 0.486-1.92 0.961-3.85 1.43-5.77h2c0.66-2.97 1.32-5.94 2-9h2v-6c0.66-0.33 1.32-0.66 2-1l1-6c0.66-0.33 1.32-0.66 2-1 0.727-1.98 1.4-3.98 2-6h2v-6h3l1-6h2l1-6h2l0.375-2.94 0.625-3.06c0.66-0.33 1.32-0.66 2-1 0.712-1.65 1.37-3.32 2-5 0.652-1.34 1.31-2.68 2-4h2l1-6h3c0.33-1.32 0.66-2.64 1-4h2v-5h3c0.33-1.32 0.66-2.64 1-4h2c0.33-1.65 0.66-3.3 1-5h2c0.186-0.959 0.186-0.959 0.375-1.94l0.625-2.06c0.66-0.33 1.32-0.66 2-1l1-4c0.66-0.33 1.32-0.66 2-1 0.33-0.99 0.66-1.98 1-3h3v-3h3v-4h2c0.33-1.65 0.66-3.3 1-5 0.99-0.33 1.98-0.66 3-1 0.33-0.99 0.66-1.98 1-3h2c0.33-0.99 0.66-1.98 1-3h2c0.33-0.99 0.66-1.98 1-3 1.44-1.69 1.44-1.69 3-3h2c0.33-1.32 0.66-2.64 1-4h2c0.66-1.65 1.32-3.3 2-5h2v-3c0.99-0.33 1.98-0.66 3-1 0.66-0.99 1.32-1.98 2-3h2v-2h2c0.33-0.99 0.66-1.98 1-3 0.66-0.33 1.32-0.66 2-1 0.33-0.99 0.66-1.98 1-3h3v-2c0.804-0.268 1.61-0.536 2.44-0.812 0.846-0.392 1.69-0.784 2.56-1.19 0.33-0.99 0.66-1.98 1-3h3v-2c1.88-2.12 1.88-2.12 4-4h2c0.33-0.99 0.66-1.98 1-3h2v-2c0.99-0.33 1.98-0.66 3-1 0.33-0.99 0.66-1.98 1-3l5-1v-2c0.99-0.33 1.98-0.66 3-1 0.66-0.825 1.32-1.65 2-2.5 2-2.5 2-2.5 5-3.5l1-2c2.56-0.625 2.56-0.625 5-1l1-3h3v-2c5.29-4 5.29-4 9-4v-3c2.97-1.24 5.85-2.3 9-3v-3c2.97-0.495 2.97-0.495 6-1v-2h4v-3c1.14-0.155 1.14-0.155 2.31-0.312 2.72-0.452 2.72-0.452 4.25-2.25l1.44-1.44h4v-2l2.94-1.44c2.87-1.26 2.87-1.26 4.06-2.56 1.67-0.0406 3.33-0.0427 5 0v-3h6l1-3c2.97-0.495 2.97-0.495 6-1v-2c0.804-0.124 1.61-0.248 2.44-0.375l2.56-0.625 1-2c2-0.333 4-0.667 6-1 0.33-0.66 0.66-1.32 1-2 2.07-0.414 2.07-0.414 4.56-0.625l2.5-0.227c0.638-0.049 1.28-0.098 1.93-0.148v-2c2.31-0.33 4.62-0.66 7-1v-2c2.97-0.33 5.94-0.66 9-1v-2c0.782-0.205 1.56-0.41 2.37-0.621 1.52-0.404 1.52-0.404 3.07-0.816 1.01-0.267 2.02-0.534 3.06-0.809 2.42-0.514 2.42-0.514 3.5-1.75 1.52-0.0718 3.04-0.0839 4.56-0.0625 0.826 0.00902 1.65 0.018 2.5 0.0273 0.957 0.0174 0.957 0.0174 1.93 0.0352v-2c6.44-0.99 6.44-0.99 13-2v-2c7.92-0.495 7.92-0.495 16-1v-2c1.25-0.049 2.51-0.098 3.8-0.148 1.65-0.075 3.3-0.151 4.95-0.227 0.825-0.0309 1.65-0.0619 2.5-0.0938 0.799-0.0387 1.6-0.0773 2.42-0.117l2.22-0.0952c2.15-0.213 2.15-0.213 4.08-1.32 2.39-1.18 4.14-1.31 6.79-1.41 0.889-0.0387 1.78-0.0773 2.7-0.117 0.92-0.0309 1.84-0.0619 2.79-0.0938 0.936-0.0387 1.87-0.0773 2.84-0.117 2.3-0.0941 4.61-0.18 6.91-0.258v-2c7.59-0.33 15.2-0.66 23-1v-2l25-1v-3z" fill="#000002"/>
<path transform="translate(1535 1097)" d="m0 0c0.932-0.00129 1.86-0.00258 2.82-0.00391 0.976 0.00387 1.95 0.00773 2.96 0.0117 1.46-0.0058 1.46-0.0058 2.96-0.0117 1.4 0.00193 1.4 0.00193 2.82 0.00391 0.857 0.00113 1.71 0.00226 2.6 0.00342 2.12 0.129 2.12 0.129 4.12 1.13v2c0.568 0.0374 1.14 0.0748 1.72 0.113 5.36 0.457 9.44 1.52 14.3 3.89v2c1.98 0.33 3.96 0.66 6 1v3h3v2c0.99 0.33 1.98 0.66 3 1 1.69 1.38 1.69 1.38 3 3v3h3v3c0.99 0.33 1.98 0.66 3 1 0.33 1.65 0.66 3.3 1 5h2c2.63 5.37 3.61 10 4 16h3v27c-0.66 0.33-1.32 0.66-2 1-0.437 2.31-0.437 2.31-0.562 5.1-0.0748 1.05-0.15 2.1-0.227 3.18-0.0696 1.1-0.139 2.21-0.211 3.35-0.436 6.78-1.08 12.8-3 19.4-0.361 3.14-0.503 6.28-0.625 9.44-0.0387 0.827-0.0773 1.65-0.117 2.51-0.0933 2.02-0.177 4.04-0.258 6.06h-2c-0.0198 0.555-0.0396 1.11-0.0601 1.68-0.0955 2.52-0.205 5.05-0.315 7.57-0.0309 0.873-0.0619 1.75-0.0938 2.64-0.0387 0.844-0.0773 1.69-0.117 2.56-0.0314 0.775-0.0628 1.55-0.0952 2.35-0.351 2.42-1.23 4.03-2.32 6.2-0.359 2.12-0.359 2.12-0.414 4.33-0.0387 0.799-0.0773 1.6-0.117 2.42-0.0464 1.24-0.0464 1.24-0.0938 2.5-0.0387 0.84-0.0773 1.68-0.117 2.55-0.094 2.07-0.177 4.14-0.258 6.2h-2c-0.33 5.61-0.66 11.2-1 17h-2c-0.049 0.759-0.098 1.52-0.148 2.3-0.0748 0.994-0.15 1.99-0.227 3.01-0.0696 0.986-0.139 1.97-0.211 2.99-0.414 2.7-0.414 2.7-2.41 5.7-0.454 2.28-0.454 2.28-0.625 4.69-0.0748 0.808-0.15 1.62-0.227 2.45-0.049 0.615-0.098 1.23-0.148 1.86-0.99 0.33-1.98 0.66-3 1v9c-0.99 0.33-1.98 0.66-3 1-0.33 2.97-0.66 5.94-1 9h-2c-0.33 2.97-0.66 5.94-1 9h-2c-0.124 1.11-0.247 2.23-0.375 3.38-0.625 3.62-0.625 3.62-2.62 5.62-0.165 1.01-0.33 2.02-0.5 3.06-0.165 0.969-0.33 1.94-0.5 2.94-0.66 0.33-1.32 0.66-2 1-0.658 3.03-0.658 3.03-1 6h-3v6c-0.99 0.33-1.98 0.66-3 1v6h-3c-0.33 1.98-0.66 3.96-1 6h-2c-0.33 1.98-0.66 3.96-1 6h-2c-0.124 0.969-0.247 1.94-0.375 2.94-0.309 1.52-0.309 1.52-0.625 3.06-0.66 0.33-1.32 0.66-2 1-0.165 0.66-0.33 1.32-0.5 2-0.165 0.66-0.33 1.32-0.5 2-0.66 0.33-1.32 0.66-2 1-0.652 2.02-0.652 2.02-1 4h-2c-0.33 1.98-0.66 3.96-1 6h-3c-0.33 1.32-0.66 2.64-1 4h-2v5h-3c-0.33 1.32-0.66 2.64-1 4h-2c-0.33 1.65-0.66 3.3-1 5h-2c-0.124 0.639-0.247 1.28-0.375 1.94-0.309 1.02-0.309 1.02-0.625 2.06-0.66 0.33-1.32 0.66-2 1-0.652 2.02-0.652 2.02-1 4h-3v4h-3v3h-3v4h-2c-0.33 1.65-0.66 3.3-1 5-0.99 0.33-1.98 0.66-3 1-0.33 0.99-0.66 1.98-1 3h-2c-0.33 0.99-0.66 1.98-1 3h-2c-0.33 0.99-0.66 1.98-1 3-1.44 1.69-1.44 1.69-3 3h-2c-0.33 1.32-0.66 2.64-1 4h-2c-0.66 1.65-1.32 3.3-2 5h-2v3c-0.99 0.33-1.98 0.66-3 1-0.66 0.99-1.32 1.98-2 3h-2v2h-2c-0.33 0.99-0.66 1.98-1 3-0.66 0.33-1.32 0.66-2 1-0.33 0.99-0.66 1.98-1 3h-3v2c-0.804 0.268-1.61 0.536-2.44 0.812-0.846 0.392-1.69 0.784-2.56 1.19-0.33 0.99-0.66 1.98-1 3h-3v2c-1.88 2.12-1.88 2.12-4 4h-2c-0.33 0.99-0.66 1.98-1 3h-2v2c-0.99 0.33-1.98 0.66-3 1-0.33 0.99-0.66 1.98-1 3-1.65 0.33-3.3 0.66-5 1v2h-4v3c-1.94 2.4-2.99 3-6 4-0.33 0.66-0.66 1.32-1 2-2.56 0.625-2.56 0.625-5 1-0.33 0.99-0.66 1.98-1 3h-3v2c-5.29 4-5.29 4-9 4v3c-2.97 1.24-5.85 2.3-9 3v3c-1.98 0.33-3.96 0.66-6 1v2h-4v3c-0.763 0.103-1.53 0.206-2.31 0.312-2.72 0.452-2.72 0.452-4.25 2.25-0.474 0.474-0.949 0.949-1.44 1.44h-4v2c-1.98 0.33-3.96 0.66-6 1-0.33 0.99-0.66 1.98-1 3h-5v3h-6c-0.33 0.99-0.66 1.98-1 3-1.98 0.33-3.96 0.66-6 1v2c-2.31 0.33-4.62 0.66-7 1v2h-6v3c-2.97 0.33-5.94 0.66-9 1v2l-3.12 0.875c-2.41 0.683-4.75 1.43-7.12 2.25-2.75 0.875-2.75 0.875-5.75 0.875v2c-2.75 0.917-4.36 1.11-7.19 1.06-1.26-0.0206-2.52-0.0412-3.81-0.0625-0.33 0.99-0.66 1.98-1 3-0.603 0.049-1.21 0.098-1.83 0.148-1.2 0.112-1.2 0.112-2.42 0.227-0.789 0.0696-1.58 0.139-2.39 0.211-2.46 0.432-4.14 1.29-6.36 2.41-2.11 0.344-2.11 0.344-4.19 0.5-1.26 0.165-2.52 0.33-3.81 0.5-0.33 0.66-0.66 1.32-1 2-3.22 0.331-6.4 0.466-9.63 0.566-1.79 0.0795-3.58 0.25-5.37 0.434-0.33 0.66-0.66 1.32-1 2-1.23 0.049-2.46 0.098-3.73 0.148-1.63 0.0751-3.27 0.151-4.9 0.227-1.21 0.0464-1.21 0.0464-2.45 0.0938-3.54 0.173-6.52 0.394-9.89 1.53-4.27 1.41-8.43 1.46-12.9 1.62-0.879 0.0387-1.76 0.0773-2.66 0.117-2.15 0.0936-4.31 0.177-6.46 0.258v2c-10.9 0.495-10.9 0.495-22 1v2c-1.22 0.0606-2.44 0.121-3.69 0.184-1.62 0.0845-3.25 0.169-4.87 0.254-0.8 0.0393-1.6 0.0786-2.42 0.119-4.72 0.25-9.37 0.522-14 1.44-0.33 0.66-0.66 1.32-1 2h-33v-3c-0.638-0.049-1.28-0.098-1.93-0.148-0.826-0.0748-1.65-0.15-2.5-0.227-0.824-0.0696-1.65-0.139-2.5-0.211-0.682-0.137-1.36-0.273-2.07-0.414-0.33-0.66-0.66-1.32-1-2-0.825-0.165-1.65-0.33-2.5-0.5-0.825-0.165-1.65-0.33-2.5-0.5-0.33-0.66-0.66-1.32-1-2-0.99-0.33-1.98-0.66-3-1-0.33-0.66-0.66-1.32-1-2-0.66-0.165-1.32-0.33-2-0.5-0.66-0.165-1.32-0.33-2-0.5-0.33-0.66-0.66-1.32-1-2-0.99-0.33-1.98-0.66-3-1-0.495-1.49-0.495-1.49-1-3-0.66-0.33-1.32-0.66-2-1-0.144-0.619-0.289-1.24-0.438-1.88-0.664-2.51-1.72-3.36-3.56-5.12v-2h-2c-0.33-1.98-0.66-3.96-1-6h-2c-2.84-8.52-4.21-15.3-4.25-24.3-0.0206-1.13-0.0412-2.26-0.0625-3.42-0.0277-5.89 0.0421-10.2 3.31-15.3 0.699-2.74 0.699-2.74 1-5h2c0.33-1.65 0.66-3.3 1-5h2c0.33-1.98 0.66-3.96 1-6h3v-3h2c0.33-0.99 0.66-1.98 1-3h2c0.33-0.99 0.66-1.98 1-3h3v-3h3c0.33-0.99 0.66-1.98 1-3 1.65-0.33 3.3-0.66 5-1v-2c2.31-0.33 4.62-0.66 7-1v-2c0.626-0.133 1.25-0.266 1.9-0.402 0.817-0.177 1.63-0.353 2.48-0.535 0.812-0.174 1.62-0.348 2.46-0.527 2.19-0.458 2.19-0.458 4.16-1.54 8.3-1.11 16.6-1.12 25-1v-2c1.04-0.083 1.04-0.083 2.1-0.168 3.11-0.252 6.23-0.511 9.34-0.77 1.09-0.087 2.18-0.174 3.3-0.264 1.03-0.087 2.07-0.174 3.13-0.264 0.958-0.0786 1.92-0.157 2.9-0.238 2.19-0.0638 2.19-0.0638 3.22-1.3 1.47-0.202 2.95-0.347 4.44-0.465 1.34-0.117 1.34-0.117 2.71-0.236 1.9-0.158 3.8-0.311 5.7-0.461 1.34-0.119 1.34-0.119 2.71-0.24 1.24-0.1 1.24-0.1 2.5-0.203 0.638-0.13 1.28-0.261 1.93-0.395 0.33-0.66 0.66-1.32 1-2 0.595-0.0198 1.19-0.0396 1.8-0.0601 2.69-0.0951 5.38-0.205 8.07-0.315 1.41-0.0464 1.41-0.0464 2.84-0.0938 0.896-0.0387 1.79-0.0773 2.71-0.117 1.24-0.0471 1.24-0.0471 2.51-0.0952 2.28-0.145 2.28-0.145 4.06-2.32 2.28-0.252 4.58-0.405 6.88-0.5 4.35-0.182 7.32-0.439 11.1-2.5 2.36-0.349 4.69-0.5 7.07-0.656 0.636-0.113 1.27-0.227 1.93-0.344 0.33-0.66 0.66-1.32 1-2 2.5-0.414 2.5-0.414 5.56-0.625 1.01-0.0748 2.02-0.15 3.07-0.227 0.782-0.049 1.56-0.098 2.37-0.148v-2c1.11-0.124 2.23-0.247 3.38-0.375 3.66-0.272 3.66-0.272 5.62-2.62 2.66-0.565 5.29-0.738 8-1v-2c2.31-0.33 4.62-0.66 7-1v-2c0.969-0.289 1.94-0.577 2.94-0.875 3.17-0.767 3.17-0.767 4.06-3.12 2.31-0.741 4.65-1.4 7-2 0.804-0.206 1.61-0.412 2.44-0.625 0.516-0.124 1.03-0.247 1.56-0.375v-2c0.969-0.289 1.94-0.577 2.94-0.875 3.17-0.767 3.17-0.767 4.06-3.12h5c0.33-0.99 0.66-1.98 1-3 1.65-0.33 3.3-0.66 5-1v-2c0.99-0.33 1.98-0.66 3-1 0.33-0.66 0.66-1.32 1-2h3v-3c1.98-0.33 3.96-0.66 6-1v-3c6.75-4 6.75-4 9-4v-2h3c0.33-0.99 0.66-1.98 1-3h3v-3h3v-3c1.21-0.433 1.21-0.433 2.44-0.875 2.7-0.858 2.7-0.858 3.56-3.12h3v-3h3c0.33-0.99 0.66-1.98 1-3h2c0.33-0.99 0.66-1.98 1-3 1.38-1.69 1.38-1.69 3-3h3v-3c1.88-2.19 1.88-2.19 4-4h2c0.33-0.99 0.66-1.98 1-3h2v-3h3c0.103-0.557 0.206-1.11 0.312-1.69 0.836-2.81 1.97-4.93 3.69-7.31h3v-3h3v-4h3v-3h2c0.66-1.98 1.32-3.96 2-6h2v-3h3c0.33-1.98 0.66-3.96 1-6h3v-3c0.66-0.33 1.32-0.66 2-1 0.165-0.825 0.33-1.65 0.5-2.5 0.165-0.825 0.33-1.65 0.5-2.5 0.66-0.33 1.32-0.66 2-1 0.33-0.99 0.66-1.98 1-3h2c0.33-1.98 0.66-3.96 1-6h3v-6h3c0.33-1.98 0.66-3.96 1-6h2v-6h3c0.33-2.31 0.66-4.62 1-7h2c0.33-2.31 0.66-4.62 1-7h2c0.33-2.64 0.66-5.28 1-8h2c0.049-0.71 0.098-1.42 0.148-2.15 0.0748-0.919 0.15-1.84 0.227-2.79 0.0696-0.917 0.139-1.83 0.211-2.78 0.137-0.754 0.273-1.51 0.414-2.29 0.66-0.33 1.32-0.66 2-1 0.467-2.13 0.467-2.13 0.625-4.56 0.0748-0.826 0.15-1.65 0.227-2.5 0.049-0.638 0.098-1.28 0.148-1.93h2c0.049-0.831 0.098-1.66 0.148-2.52 0.0748-1.09 0.15-2.17 0.227-3.29 0.0696-1.08 0.139-2.16 0.211-3.27 0.414-2.92 0.414-2.92 2.41-5.92 0.3-2.59 0.509-5.09 0.625-7.69 0.0387-0.702 0.0773-1.4 0.117-2.13 0.094-1.73 0.177-3.46 0.258-5.19 0.99-0.33 1.98-0.66 3-1v-21c0.66-0.33 1.32-0.66 2-1 0.452-2.11 0.452-2.11 0.598-4.66 0.0793-0.94 0.159-1.88 0.24-2.85 0.0741-0.989 0.148-1.98 0.225-3 0.154-1.95 0.311-3.9 0.473-5.84 0.0658-0.868 0.132-1.74 0.199-2.63 0.265-2.03 0.265-2.03 1.27-3.03 0.228-1.78 0.395-3.56 0.535-5.35 0.087-1.08 0.174-2.16 0.264-3.27 0.087-1.14 0.174-2.27 0.264-3.44 0.136-1.71 0.136-1.71 0.275-3.46 0.225-2.83 0.445-5.65 0.662-8.48h2c-0.0116-0.834-0.0232-1.67-0.0352-2.53-0.142-17.7-0.142-17.7 3.04-22.5 0.394-2.32 0.735-4.66 1-7h2c0.33-1.98 0.66-3.96 1-6h2c0.66-1.98 1.32-3.96 2-6h2v-3h3c0.33-1.32 0.66-2.64 1-4h2c0.33-0.99 0.66-1.98 1-3h2v-2h3c0.33-0.99 0.66-1.98 1-3 1.65-0.33 3.3-0.66 5-1v-2c3.47-0.495 3.47-0.495 7-1v-2c2.97-0.33 5.94-0.66 9-1v-2c2.43-1.21 4.01-1.13 6.72-1.13z" fill="#000002"/>
<path transform="translate(1144)" d="m0 0h25v2c1.18 0.0752 1.18 0.0752 2.38 0.152 3.58 0.233 7.16 0.478 10.7 0.723 1.86 0.118 1.86 0.118 3.75 0.238 1.2 0.0838 2.4 0.168 3.63 0.254l3.33 0.222c3.27 0.425 6.05 1.34 9.16 2.41 2.21 0.35 2.21 0.35 4.3 0.414 0.748 0.0387 1.5 0.0773 2.27 0.117 0.761 0.0309 1.52 0.0619 2.3 0.0938 0.784 0.0387 1.57 0.0773 2.38 0.117 1.92 0.0935 3.83 0.177 5.75 0.258v2c1.95 0.0735 1.95 0.0735 3.95 0.148 1.73 0.0751 3.45 0.151 5.18 0.227 0.856 0.0309 1.71 0.0619 2.59 0.0938 4.83 0.223 8.68 0.955 13.3 2.53 3.46 0.299 6.88 0.46 10.3 0.566 3.71 0.161 5.49 0.322 8.66 2.43 2.59 0.3 5.09 0.509 7.69 0.625 0.702 0.0387 1.4 0.0773 2.13 0.117 1.73 0.094 3.46 0.177 5.19 0.258v2c0.927 0.133 1.85 0.266 2.81 0.402 1.8 0.265 1.8 0.265 3.63 0.535 1.19 0.174 2.39 0.348 3.62 0.527 2.94 0.535 2.94 0.535 3.94 1.54 1.47 0.208 2.95 0.367 4.44 0.5 4.34 0.39 4.34 0.39 6.56 1.5v2c0.615-0.0348 1.23-0.0696 1.86-0.105 0.808-0.0271 1.62-0.0541 2.45-0.082 1.2-0.0522 1.2-0.0522 2.43-0.105 2.79 0.362 3.38 1.29 5.26 3.29 3.61 0.73 3.61 0.73 7 1v2c2.97 0.33 5.94 0.66 9 1v2c3.78 1.1 7.54 2.13 11.4 3 1.79 0.495 1.79 0.495 3.62 1 0.33 0.66 0.66 1.32 1 2 3.03 0.658 3.03 0.658 6 1v3h6v3h6c0.33 0.66 0.66 1.32 1 2 1.74 1.09 1.74 1.09 3.81 2.06 0.687 0.342 1.37 0.683 2.08 1.04 2.02 0.868 3.96 1.43 6.11 1.9v2c1.98 0.33 3.96 0.66 6 1v3h4v2c1.21 0.186 1.21 0.186 2.44 0.375 0.846 0.206 1.69 0.412 2.56 0.625 0.33 0.66 0.66 1.32 1 2 1.98 0.727 3.98 1.4 6 2v2h3v3h6c0.33 0.99 0.66 1.98 1 3 1.86 1.23 1.86 1.23 4.06 2.19 0.733 0.344 1.47 0.688 2.22 1.04 0.566 0.254 1.13 0.508 1.71 0.77v2c1.32 0.33 2.64 0.66 4 1v3h3v2c1.98 0.33 3.96 0.66 6 1v3h3v3h4v3c0.557 0.0825 1.11 0.165 1.69 0.25 3.05 0.989 4.96 2.6 7.31 4.75v2h3c1.69 1.31 1.69 1.31 3 3v3h3c1.37 1.63 2.71 3.3 4 5l3 2v2h3v3c0.99 0.33 1.98 0.66 3 1v2h3v3h3v3h3v3h3v3h3c0.33 0.99 0.66 1.98 1 3 0.66 0.33 1.32 0.66 2 1v3h3v3h3c1.69 1.31 1.69 1.31 3 3v3c0.99 0.33 1.98 0.66 3 1 1.19 2.56 1.19 2.56 2 5h2v3h3v4h3v3h3c0.33 1.98 0.66 3.96 1 6h2v3h3c0.33 1.32 0.66 2.64 1 4h2c0.33 1.65 0.66 3.3 1 5h2c0.33 0.99 0.66 1.98 1 3 0.99 0.33 1.98 0.66 3 1v6h3v3h2c0.289 0.969 0.577 1.94 0.875 2.94 0.767 3.17 0.767 3.17 3.12 4.06 0.333 1.33 0.667 2.67 1 4 0.66 0.33 1.32 0.66 2 1v4h2c2 3 2 3 2 6h2c0.268 0.866 0.536 1.73 0.812 2.62 1.86 6.15 1.86 6.15 6.19 10.4v6c0.99 0.33 1.98 0.66 3 1v5h3c0.124 0.969 0.247 1.94 0.375 2.94 0.206 1.01 0.412 2.02 0.625 3.06 0.66 0.33 1.32 0.66 2 1 0.339 2.33 0.672 4.67 1 7 0.66 0.66 1.32 1.32 2 2 0.4 2.32 0.74 4.66 1 7h2c0.33 2.64 0.66 5.28 1 8h2c0.121 0.638 0.242 1.28 0.367 1.93 0.168 0.826 0.335 1.65 0.508 2.5 0.162 0.824 0.325 1.65 0.492 2.5 0.209 0.682 0.418 1.36 0.633 2.07 0.66 0.33 1.32 0.66 2 1v9h2c1.26 2.52 1.1 4.31 1.06 7.12-0.0135 1.37-0.0135 1.37-0.0273 2.76-0.0174 1.05-0.0174 1.05-0.0352 2.12h2c0.66 4.29 1.32 8.58 2 13h2c0.33 5.94 0.66 11.9 1 18h2c0.049 1.17 0.098 2.34 0.148 3.54 0.0751 1.55 0.151 3.1 0.227 4.64l0.0938 2.33c0.23 4.57 0.23 4.57 1.53 8.92 1.57 4.01 1.47 8.1 1.62 12.4 0.0387 0.884 0.0773 1.77 0.117 2.68 0.0938 2.17 0.177 4.34 0.258 6.51h2c0.049 1.3 0.098 2.6 0.148 3.95 0.0751 1.73 0.151 3.45 0.227 5.18l0.0938 2.59c0.0387 0.838 0.0773 1.68 0.117 2.54 0.0471 1.15 0.0471 1.15 0.0952 2.32 0.255 2.55 0.255 2.55 1.31 5.34 1.03 3.14 1.41 5.85 1.65 9.14 0.126 1.66 0.126 1.66 0.254 3.36 0.0786 1.14 0.157 2.28 0.238 3.46 0.13 1.75 0.13 1.75 0.262 3.53 0.211 2.86 0.415 5.73 0.613 8.59h2v25h-3c-0.33 3.3-0.66 6.6-1 10h-2c-0.33 1.98-0.66 3.96-1 6h-2c-0.33 1.98-0.66 3.96-1 6h-3v3c-0.66 0.33-1.32 0.66-2 1-0.33 0.99-0.66 1.98-1 3-3.44 3-3.44 3-6 3v2h-3v3c-0.99 0.33-1.98 0.66-3 1-0.33 0.66-0.66 1.32-1 2-3.06 0.625-3.06 0.625-6 1v2c-0.615 0.121-1.23 0.242-1.86 0.367-0.808 0.168-1.62 0.335-2.45 0.508-0.801 0.162-1.6 0.325-2.43 0.492-2.51 0.578-2.51 0.578-5.26 2.63-4.07 0.443-8.16 0.324-12.2 0.312-1.12 0.0161-2.24 0.0322-3.39 0.0488-6.29 0.00371-10.8-0.421-16.4-3.36-2.78-0.691-2.78-0.691-5-1v-2c-0.969-0.124-1.94-0.248-2.94-0.375-1.52-0.309-1.52-0.309-3.06-0.625-0.33-0.66-0.66-1.32-1-2-0.99-0.33-1.98-0.66-3-1v-3h-3v-2c-1.18-0.34-1.18-0.34-2.38-0.688-2.62-1.31-2.62-1.31-3.94-3.94-0.227-0.784-0.454-1.57-0.688-2.38h-2v-3h-3c-0.33-0.99-0.66-1.98-1-3-0.66-0.33-1.32-0.66-2-1-0.333-1.67-0.667-3.33-1-5-0.66-0.33-1.32-0.66-2-1-0.257-1.99-0.508-3.99-0.656-5.99-0.257-2.32-0.257-2.32-2.34-5.01-1.44-7.18-1.11-14.7-1-22h-2c-0.049-1.12-0.098-2.25-0.148-3.4-0.0751-1.51-0.151-3.02-0.227-4.54-0.0464-1.1-0.0464-1.1-0.0938-2.23-0.201-3.84-0.601-7.44-1.5-11.2-1.28-5.36-1.71-10.7-2.16-16.2-0.13-1.51-0.13-1.51-0.262-3.06-0.21-2.46-0.414-4.92-0.613-7.38h-2c-0.0198-0.56-0.0396-1.12-0.0601-1.7-0.0953-2.54-0.205-5.08-0.315-7.62-0.0464-1.32-0.0464-1.32-0.0938-2.67-0.0387-0.848-0.0773-1.7-0.117-2.57-0.0471-1.17-0.0471-1.17-0.0952-2.36-0.215-2.39-0.215-2.39-2.32-5.08-0.317-3.19-0.463-6.34-0.566-9.55-0.166-3.65-0.354-5.33-2.43-8.45-0.414-2.92-0.414-2.92-0.625-6.19-0.112-1.63-0.112-1.63-0.227-3.29-0.049-0.831-0.098-1.66-0.148-2.52h-2c-0.33-3.3-0.66-6.6-1-10h-2c-0.33-3.3-0.66-6.6-1-10h-2c-0.33-2.31-0.66-4.62-1-7h-2c-0.33-2.64-0.66-5.28-1-8h-2c-0.33-1.98-0.66-3.96-1-6h-3v-7c-0.99-0.33-1.98-0.66-3-1v-5h-3c-0.124-0.804-0.247-1.61-0.375-2.44-0.206-0.846-0.412-1.69-0.625-2.56-0.66-0.33-1.32-0.66-2-1-1.12-2.28-2.05-4.61-3-6.97-0.827-2.2-0.827-2.2-3-3.03-0.625-3.06-0.625-3.06-1-6h-2v-3h-4c-0.124-0.804-0.247-1.61-0.375-2.44-0.309-1.27-0.309-1.27-0.625-2.56-0.66-0.33-1.32-0.66-2-1v-3c-0.99-0.33-1.98-0.66-3-1v-3h-3c-0.33-1.65-0.66-3.3-1-5h-2c-0.33-0.99-0.66-1.98-1-3-1.24-0.99-1.24-0.99-2.5-2-2.5-2-2.5-2-3.5-5-0.66-0.33-1.32-0.66-2-1v-2c-1.32-0.33-2.64-0.66-4-1v-4c-1.32-0.66-2.64-1.32-4-2v-2h-2v-3h-3c-0.33-0.99-0.66-1.98-1-3-0.99-0.33-1.98-0.66-3-1-1.69-1.44-1.69-1.44-3-3v-2c-1.65-0.66-3.3-1.32-5-2v-2h-3c-0.33-0.99-0.66-1.98-1-3-2-2.37-2.97-2.99-6-4-1.33-1.67-2.67-3.33-4-5-0.99-0.33-1.98-0.66-3-1v-2c-1.65-0.33-3.3-0.66-5-1v-3c-1.32-0.33-2.64-0.66-4-1v-2h-3v-3h-6c-0.33-0.99-0.66-1.98-1-3-0.66-0.33-1.32-0.66-2-1v-2c-0.969-0.124-1.94-0.248-2.94-0.375-1.01-0.206-2.02-0.412-3.06-0.625-0.33-0.66-0.66-1.32-1-2-2.08-1.05-2.08-1.05-4.5-2-4.39-1.78-4.39-1.78-5.5-4-2.53-0.656-2.53-0.656-5-1v-3h-5c-0.33-0.99-0.66-1.98-1-3h-6c-0.33-0.66-0.66-1.32-1-2-1.98-0.727-3.98-1.4-6-2v-2c-2.31-0.33-4.62-0.66-7-1v-2c-2.64-0.33-5.28-0.66-8-1v-2c-1.07-0.0735-1.07-0.0735-2.15-0.148-0.919-0.0748-1.84-0.15-2.79-0.227-0.917-0.0696-1.83-0.139-2.78-0.211-0.754-0.137-1.51-0.273-2.29-0.414-0.33-0.66-0.66-1.32-1-2-2.13-0.467-2.13-0.467-4.56-0.625-0.826-0.0748-1.65-0.15-2.5-0.227-0.957-0.0735-0.957-0.0735-1.93-0.148v-2c-1.25-0.0735-1.25-0.0735-2.52-0.148-1.09-0.0748-2.17-0.15-3.29-0.227-1.08-0.0696-2.16-0.139-3.27-0.211-2.92-0.414-2.92-0.414-5.92-2.41-2.52-0.25-4.97-0.418-7.5-0.5-7.09-0.23-7.09-0.23-10.5-2.5-2.22-0.365-2.22-0.365-4.67-0.414-1.34-0.058-1.34-0.058-2.71-0.117-0.929-0.0309-1.86-0.0619-2.81-0.0938-1.41-0.058-1.41-0.058-2.85-0.117-2.32-0.0942-4.64-0.18-6.96-0.258v-2c-0.876-0.0752-0.876-0.0752-1.77-0.152-2.7-0.235-5.4-0.479-8.11-0.723-0.918-0.0786-1.84-0.157-2.78-0.238-5.43-0.497-10.7-1.31-16-2.44-3.5-0.664-6.92-0.877-10.5-1.07-1.3-0.0748-2.6-0.15-3.95-0.227l-2.93-0.148v-2c-0.822 0.0116-1.64 0.0232-2.49 0.0352-18.7 0.151-18.7 0.151-23.5-3.04-2.05-0.451-2.05-0.451-4.19-0.625-1.89-0.186-1.89-0.186-3.81-0.375v-3h-6c-0.495-0.99-0.495-0.99-1-2-1.48-0.495-1.48-0.495-3-1v-3h-4c-3.19-2.67-5.53-4.74-6-9h-2v-3h-3c-0.33-0.99-0.66-1.98-1-3-0.66-0.33-1.32-0.66-2-1-0.625-3.06-0.625-3.06-1-6h-2c-0.121-0.615-0.242-1.23-0.367-1.86-0.168-0.808-0.335-1.62-0.508-2.45-0.162-0.801-0.325-1.6-0.492-2.43-0.578-2.51-0.578-2.51-2.63-5.26-0.243-2.59-0.243-2.59-0.23-5.66 0.00193-1.1 0.00387-2.21 0.00586-3.35 0.0122-1.15 0.0245-2.31 0.0371-3.5 6.45e-4 -1.15 0.00129-2.31 0.00195-3.5 0.0451-8.58 0.0451-8.58 1.19-12h2c0.33-2.97 0.66-5.94 1-9h2c0.186-1.45 0.186-1.45 0.375-2.94 0.206-1.01 0.412-2.02 0.625-3.06 0.66-0.33 1.32-0.66 2-1 0.33-0.99 0.66-1.98 1-3h3v-3h2c0.33-1.32 0.66-2.64 1-4h2v-2c0.99-0.33 1.98-0.66 3-1 0.33-0.66 0.66-1.32 1-2h3v-3c1.98-0.33 3.96-0.66 6-1v-2c5.25-3.18 10-3.66 16-4v-3z" fill="#000002"/>
</svg>
