<?xml version="1.0" encoding="UTF-8"?>
<svg version="1.1" viewBox="0 0 1600 1600" width="1280" height="1280" xmlns="http://www.w3.org/2000/svg">
<path transform="translate(644)" d="m0 0h749v3h16v3c1.09-0.0206 2.19-0.0412 3.31-0.0625 3.69 0.0625 3.69 0.0625 6.69 1.06v2c2.97 0.33 5.94 0.66 9 1v2c0.969 0.124 1.94 0.248 2.94 0.375 1.52 0.309 1.52 0.309 3.06 0.625 0.33 0.66 0.66 1.32 1 2 0.825 0.165 1.65 0.33 2.5 0.5 0.825 0.165 1.65 0.33 2.5 0.5 0.33 0.66 0.66 1.32 1 2 0.99 0.33 1.98 0.66 3 1v2c1.98 0.33 3.96 0.66 6 1v3h3v3c1.32 0.33 2.64 0.66 4 1v2c2.47 0.495 2.47 0.495 5 1v3h3v3h3c0.33 1.65 0.66 3.3 1 5 0.99 0.33 1.98 0.66 3 1v3h3v3h3v4h3c0.186 1.21 0.186 1.21 0.375 2.44 0.206 0.846 0.412 1.69 0.625 2.56 0.66 0.33 1.32 0.66 2 1 0.333 1.67 0.667 3.33 1 5 0.66 0.33 1.32 0.66 2 1 0.333 1.67 0.667 3.33 1 5 0.66 0.33 1.32 0.66 2 1 0.414 2.07 0.414 2.07 0.625 4.56 0.0748 0.826 0.15 1.65 0.227 2.5 0.049 0.638 0.098 1.28 0.148 1.93h2c1.16 3.47 1.07 6.36 1 10h3v16h3v1071h-3c0.0116 1.13 0.0232 2.26 0.0352 3.43 0.00938 1.48 0.0185 2.96 0.0273 4.45 0.00838 0.746 0.0168 1.49 0.0254 2.26 0.0254 5.64 0.0254 5.64-1.09 7.86h-2c0.0206 1.09 0.0412 2.19 0.0625 3.31-0.0625 3.69-0.0625 3.69-1.06 6.69h-2c-0.33 2.31-0.66 4.62-1 7h-2l-0.375 3.94c-0.211 2.21-0.211 2.21-0.625 4.06-0.66 0.33-1.32 0.66-2 1-0.33 0.99-0.66 1.98-1 3h-2c-0.33 1.98-0.66 3.96-1 6h-3v4h-3v5h-3c-0.33 1.32-0.66 2.64-1 4h-2c-0.33 0.99-0.66 1.98-1 3h-2v3h-4v3h-3v3h-3v3h-3v3c-1.98 0.33-3.96 0.66-6 1v2c-0.99 0.33-1.98 0.66-3 1-0.712 0.773-0.712 0.773-1.44 1.56-1.56 1.44-1.56 1.44-5.56 1.44v3h-6v3h-6v3h-9v3c-4.29 0.33-8.58 0.66-13 1v2h-834c-0.33-0.66-0.66-1.32-1-2-1.9-0.465-1.9-0.465-4.06-0.625-1.3-0.124-2.6-0.248-3.94-0.375v-3h-4v-3h-3v-3c-1.98-0.33-3.96-0.66-6-1v-5h-3v-4h-3c-0.33-2.64-0.66-5.28-1-8h-2c-1.24-9.6-1.14-19.2-1.13-28.8-0.00104-1.93-0.00253-3.87-0.0044-5.8-0.0039-5.33-0.00156-10.7 0.00178-16 0.00253-5.79-7.22e-4 -11.6-0.00324-17.4-0.00385-10.8-0.00318-21.6-4.47e-4 -32.5 0.00253-10.2 0.0027-20.4 7.57e-4 -30.7-1.29e-4 -0.688-2.58e-4 -1.38-3.91e-4 -2.09-5.33e-4 -2.8-0.00108-5.61-0.00165-8.41-0.00529-26.1-0.00565-52.2-0.00285-78.3 8.28e-5 -0.773 1.66e-4 -1.55 2.51e-4 -2.34 8.29e-5 -0.775 1.66e-4 -1.55 2.51e-4 -2.35 0.00252-23.6 0.00317-47.2 0.00198-70.8-7.75e-5 -1.58-1.55e-4 -3.16-2.31e-4 -4.74-3.1e-4 -6.35-6.29e-4 -12.7-9.6e-4 -19.1-9.17e-4 -17.8-0.00149-35.5-0.00179-53.3-1.36e-5 -0.809-2.73e-5 -1.62-4.14e-5 -2.45-4.09e-4 -25.8 7.18e-4 -51.5 0.00289-77.3 7.02e-5 -0.836 1.4e-4 -1.67 2.13e-4 -2.53 0.00114-13.6 0.00236-27.1 0.00359-40.7 0.00485-53.8 0.00463-108-2.31e-4 -161-0.00122-13.6-0.00243-27.1-0.00357-40.7-7.04e-5 -0.835-1.41e-4 -1.67-2.13e-4 -2.53-0.00216-25.7-0.00307-51.5-0.00264-77.2 1.36e-5 -0.808 2.72e-5 -1.62 4.12e-5 -2.45 3.13e-4 -17.7 9.46e-4 -35.5 0.00187-53.2 3.29e-4 -6.35 6.42e-4 -12.7 9.51e-4 -19 7.74e-5 -1.58 1.56e-4 -3.16 2.36e-4 -4.74 0.00119-23.6 1.79e-4 -47.2-0.00235-70.8-8.28e-5 -0.773-1.66e-4 -1.55-2.51e-4 -2.34-1.24e-4 -1.16-1.24e-4 -1.16-2.51e-4 -2.34-0.00276-26-0.00174-52.1 0.00353-78.1 5.52e-4 -2.8 0.00109-5.6 0.00161-8.4 1.3e-4 -0.687 2.6e-4 -1.37 3.95e-4 -2.08 0.00185-10.2 9.25e-4 -20.4-0.00166-30.6-0.00285-11.3-0.00241-22.7 0.00251-34 0.00238-5.71 0.0032-11.4-4.06e-4 -17.1-0.00325-5.21-0.00183-10.4 0.00318-15.6 1e-3 -1.86 3.6e-4 -3.73-0.00221-5.59-0.0155-12.1 0.379-24.2 1.13-36.3 0.99-0.495 0.99-0.495 2-1 0.467-2.13 0.467-2.13 0.625-4.56 0.0748-0.826 0.15-1.65 0.227-2.5 0.049-0.638 0.098-1.28 0.148-1.93h2c0.33-2.97 0.66-5.94 1-9h3v-7h3v-6h3v-5c1.49-0.495 1.49-0.495 3-1v-3h3c0.33-1.98 0.66-3.96 1-6h3v-3h3v-3c0.99-0.495 0.99-0.495 2-1 0.33-0.99 0.66-1.98 1-3h3v-3h3v-3h3v-3h3v-3h4v-3h6v-3h3v-3h6v-3c1.45-0.186 1.45-0.186 2.94-0.375 1.52-0.309 1.52-0.309 3.06-0.625 0.33-0.66 0.66-1.32 1-2 2.07-0.414 2.07-0.414 4.56-0.625 0.826-0.0748 1.65-0.15 2.5-0.227 0.957-0.0735 0.957-0.0735 1.93-0.148v-2c4.46-0.495 4.46-0.495 9-1v-2c3.76-1.25 7.27-1.11 11.2-1.06 0.75 0.00451 1.5 0.00902 2.27 0.0137 1.85 0.0118 3.69 0.0297 5.54 0.0488v-3zm81 153v3c-1.11-0.0206-2.23-0.0412-3.38-0.0625-3.46-0.201-3.46-0.201-5.62 1.06v2h-4v3c-0.804 0.124-1.61 0.248-2.44 0.375-0.846 0.206-1.69 0.412-2.56 0.625-0.33 0.66-0.66 1.32-1 2-0.99 0.33-1.98 0.66-3 1v3h-3v6h-3c-0.33 1.98-0.66 3.96-1 6h-2c-0.33 2.31-0.66 4.62-1 7h-2c-1.23 5.73-1.14 11.4-1.13 17.2-0.00156 1.13-0.00312 2.26-0.00473 3.43-0.00399 3.79-8.28e-4 7.59 0.00232 11.4-8.05e-4 2.72-0.0031 5.44-0.00531 8.16-0.00445 6.62-0.00349 13.2-5.87e-4 19.9 0.00226 5.38 0.00256 10.8 0.00148 16.1-1.53e-4 0.766-3.06e-4 1.53-4.64e-4 2.32-3.2e-4 1.56-6.44e-4 3.11-9.73e-4 4.67-0.00285 14.6 4.27e-4 29.2 0.0058 43.8 0.00447 12.5 0.00369 25-9.19e-4 37.5-0.00535 14.5-0.00746 29.1-0.00439 43.6 3.19e-4 1.55 6.33e-4 3.1 9.43e-4 4.65 1.54e-4 0.763 3.09e-4 1.53 4.68e-4 2.31 8.63e-4 5.37-5.93e-4 10.7-0.00295 16.1-0.00281 6.55-0.00204 13.1 0.00328 19.6 0.00263 3.34 0.00312 6.68 3.51e-4 10-0.00273 3.62 6.91e-4 7.25 0.00568 10.9-0.00223 1.05-0.00446 2.11-0.00676 3.19 0.0138 5.15 0.239 10 1.13 15.1h2c0.33 2.31 0.66 4.62 1 7h2c0.33 1.98 0.66 3.96 1 6h3v3h3v6h4v3c1.65 0.33 3.3 0.66 5 1v2c0.99 0.33 1.98 0.66 3 1 0.33 0.66 0.66 1.32 1 2 2.13 0.467 2.13 0.467 4.56 0.625 0.826 0.0748 1.65 0.15 2.5 0.227 0.638 0.049 1.28 0.098 1.93 0.148v2c2.73 0.909 4.29 1.13 7.09 1.13 1.26 0.00376 1.26 0.00376 2.54 0.00759 1.39-0.00351 1.39-0.00351 2.8-0.00709 0.984 0.00145 1.97 0.00291 2.98 0.0044 3.33 0.00368 6.66 1.65e-4 9.98-0.00326 2.4 0.00115 4.79 0.00274 7.19 0.00473 5.23 0.00332 10.5 0.0035 15.7 9.53e-4 7.77-0.00377 15.5-0.00185 23.3 0.00121 13.9 0.00527 27.8 0.00481 41.6 0.00192 12.1-0.00251 24.3-0.00317 36.4-0.00198 0.805 7.64e-5 1.61 1.53e-4 2.44 2.31e-4 3.27 3.11e-4 6.53 6.3e-4 9.8 9.6e-4 30.7 0.00306 61.3 2.82e-4 92-0.0051 27.3-0.00475 54.5-0.00432 81.8 4.61e-4 30.6 0.00535 61.2 0.00748 91.8 0.00439 3.26-3.21e-4 6.52-6.34e-4 9.78-9.43e-4 1.2-1.19e-4 1.2-1.19e-4 2.43-2.4e-4 12.1-0.00114 24.3 1.96e-4 36.4 0.00272 13.8 0.00285 27.6 0.00216 41.4-0.00328 7.73-0.00294 15.5-0.00312 23.2 6.46e-4 5.76 0.0025 11.5-1.95e-4 17.3-0.00497 2.34-0.00112 4.68-5.34e-4 7.02 0.00188 3.16 0.00301 6.33-4.65e-5 9.49-0.00472 0.923 0.00234 1.85 0.00468 2.8 0.00709 1.26-0.00376 1.26-0.00376 2.54-0.00759 0.724-6.78e-5 1.45-1.36e-4 2.19-2.05e-4 2.13-0.0594 2.13-0.0594 4.9-1.13v-2c2.31-0.33 4.62-0.66 7-1v-2c1.98-0.33 3.96-0.66 6-1v-3h3v-3h3v-3h3v-3h3c0.33-1.98 0.66-3.96 1-6 0.99-0.33 1.98-0.66 3-1v-6h2c0.982-2.95 1.13-4.84 1.13-7.91 0.00261-1.02 0.00522-2.04 0.0079-3.09-0.00223-1.12-0.00446-2.24-0.00676-3.4 0.00156-1.19 0.00312-2.38 0.00473-3.6 0.00331-3.31 0.00211-6.61-9.86e-4 -9.92-0.00226-3.56 0.00123-7.13 0.00398-10.7 0.00445-6.98 0.00348-14 5.87e-4 -21-0.00226-5.67-0.00257-11.3-0.00148-17 1.53e-4 -0.807 3.06e-4 -1.61 4.64e-4 -2.44 3.2e-4 -1.64 6.44e-4 -3.28 9.73e-4 -4.92 0.00285-15.4-4.3e-4 -30.7-0.0058-46.1-0.00447-13.2-0.00369-26.4 9.19e-4 -39.6 0.00535-15.3 0.00746-30.6 0.00439-46-3.19e-4 -1.63-6.33e-4 -3.26-9.43e-4 -4.9-1.54e-4 -0.803-3.09e-4 -1.61-4.68e-4 -2.43-8.65e-4 -5.67 5.97e-4 -11.3 0.00295-17 0.0028-6.91 0.00206-13.8-0.00328-20.7-0.00264-3.53-0.00364-7.05-3.51e-4 -10.6 0.00351-3.82-6.69e-4 -7.63-0.00568-11.4 0.00223-1.12 0.00446-2.25 0.00676-3.41-0.00391-1.52-0.00391-1.52-0.0079-3.08-2.44e-4 -1.32-2.44e-4 -1.32-4.92e-4 -2.67 0.0102-2.17 0.0102-2.17-1.13-4.11h-2v-7h-3c-0.0928-1.36-0.0928-1.36-0.188-2.75-1.01-4.03-2.53-4.87-5.81-7.25-0.33-0.99-0.66-1.98-1-3h-3v-3h-3v-2c-1.98-0.33-3.96-0.66-6-1v-3h-7v-2c-2.27-1.13-3.48-1.12-6-1.12-1.26-0.00337-1.26-0.00337-2.55-0.00681-0.933 0.00263-1.87 0.00525-2.83 0.00796-0.99-0.00115-1.98-0.00231-3-0.0035-3.36-0.00267-6.71 0.00186-10.1 0.00629-2.41-4.36e-4 -4.83-0.00131-7.24-0.00259-5.27-0.00178-10.5-4.22e-4 -15.8 0.00364-7.84 0.00602-15.7 0.00634-23.5 0.00546-13.2-0.00132-26.4 0.00203-39.5 0.00802-13.1 0.00591-26.1 0.00976-39.2 0.0109-1.22 1.03e-4 -1.22 1.03e-4 -2.46 2.08e-4 -4.12 3.38e-4 -8.24 6.4e-4 -12.4 9.27e-4 -29.2 0.0021-58.4 0.00884-87.6 0.0183-28.4 0.00918-56.7 0.0163-85.1 0.0205-1.31 1.97e-4 -1.31 1.97e-4 -2.65 3.99e-4 -8.77 0.00132-17.5 0.00259-26.3 0.00384-17.9 0.00254-35.8 0.00536-53.6 0.00835-1.23 2.06e-4 -1.23 2.06e-4 -2.49 4.16e-4 -54.9 0.00921-110 0.0251-165 0.0419zm0 453v3c-1.11-0.0206-2.23-0.0412-3.38-0.0625-3.46-0.201-3.46-0.201-5.62 1.06v2h-4v3c-0.804 0.124-1.61 0.248-2.44 0.375-0.846 0.206-1.69 0.412-2.56 0.625-0.33 0.66-0.66 1.32-1 2-0.99 0.33-1.98 0.66-3 1v3h-3v6h-3c-0.33 1.98-0.66 3.96-1 6h-2c-0.33 2.31-0.66 4.62-1 7h-2c-1.71 7.71-1.71 16.3 0 24h2c0.33 2.31 0.66 4.62 1 7h2c0.33 1.98 0.66 3.96 1 6h3v4h3v5c0.99 0.33 1.98 0.66 3 1 0.495 0.516 0.99 1.03 1.5 1.56 1.51 1.78 1.51 1.78 4.5 1.44v3h4v3h9v3h587v-3h7v-3h6v-3h3v-3h3c0.33-0.99 0.66-1.98 1-3 0.825-0.598 1.65-1.2 2.5-1.81 3.04-2.66 3.23-4.24 3.5-8.19h3v-7h2c1.35-2.69 1.13-4.8 1.13-7.81 0.00129-1.16 0.00258-2.32 0.00391-3.51-0.00387-1.21-0.00773-2.43-0.0117-3.68 0.00387-1.21 0.00773-2.43 0.0117-3.68-0.00129-1.16-0.00258-2.32-0.00391-3.51l-0.00342-3.23c0.0446-2.57 0.0446-2.57-1.13-4.58h-2v-7h-3c-0.33-1.98-0.66-3.96-1-6h-3v-3c-1.63-1.38-3.3-2.71-5-4-0.33-0.66-0.66-1.32-1-2h-3v-3c-1.98-0.33-3.96-0.66-6-1v-3h-7v-2c-2.27-1.13-3.48-1.12-6-1.12-1.26-0.00337-1.26-0.00337-2.55-0.00681-0.933 0.00263-1.87 0.00525-2.83 0.00796-0.99-0.00115-1.98-0.00231-3-0.0035-3.36-0.00267-6.71 0.00186-10.1 0.00629-2.41-4.36e-4 -4.83-0.00131-7.24-0.00259-5.27-0.00178-10.5-4.22e-4 -15.8 0.00364-7.84 0.00602-15.7 0.00634-23.5 0.00546-13.2-0.00132-26.4 0.00203-39.5 0.00802-13.1 0.00591-26.1 0.00976-39.2 0.0109-1.22 1.03e-4 -1.22 1.03e-4 -2.46 2.08e-4 -4.12 3.38e-4 -8.24 6.4e-4 -12.4 9.27e-4 -29.2 0.0021-58.4 0.00884-87.6 0.0183-28.4 0.00918-56.7 0.0163-85.1 0.0205-1.31 1.97e-4 -1.31 1.97e-4 -2.65 3.99e-4 -8.77 0.00132-17.5 0.00259-26.3 0.00384-17.9 0.00254-35.8 0.00536-53.6 0.00835-1.23 2.06e-4 -1.23 2.06e-4 -2.49 4.16e-4 -54.9 0.00921-110 0.0251-165 0.0419zm0 156v3c-0.957 0.0735-0.957 0.0735-1.93 0.148-0.826 0.0748-1.65 0.15-2.5 0.227-1.24 0.104-1.24 0.104-2.5 0.211-0.682 0.137-1.36 0.273-2.07 0.414-0.33 0.66-0.66 1.32-1 2-0.99 0.33-1.98 0.66-3 1v2c-1.65 0.33-3.3 0.66-5 1v3h-4v4h-3v5h-3c-0.33 1.98-0.66 3.96-1 6h-2c-0.33 2.31-0.66 4.62-1 7h-2c-1.41 7.93-1.71 16.1 0 24h2c0.33 2.31 0.66 4.62 1 7h2c0.33 2.31 0.66 4.62 1 7h3v3h3v6h4v2c1.65 0.33 3.3 0.66 5 1v3h4v3c2.97 0.33 5.94 0.66 9 1v2c8.93 1.3 17.9 1.14 26.9 1.13 1.83 0.00115 3.67 0.00274 5.5 0.00473 5.02 0.00417 10 0.00211 15.1-9.86e-4 5.42-0.00226 10.8 0.00123 16.3 0.00398 10.6 0.00445 21.2 0.00349 31.9 5.87e-4 8.63-0.00226 17.3-0.00256 25.9-0.00148 1.84 2.3e-4 1.84 2.3e-4 3.72 4.64e-4 2.5 3.2e-4 4.99 6.44e-4 7.49 9.73e-4 22.7 0.00277 45.5-1.03e-4 68.2-0.00534 20.7-0.00475 41.5-0.00432 62.2 4.61e-4 23.3 0.00535 46.6 0.00746 70 0.00439 2.49-3.19e-4 4.97-6.33e-4 7.46-9.43e-4 1.22-1.54e-4 2.45-3.09e-4 3.71-4.68e-4 8.62-8.63e-4 17.2 5.94e-4 25.9 0.00295 10.5 0.0028 21 0.00205 31.5-0.00328 5.36-0.00263 10.7-0.00366 16.1-3.51e-4 4.91 0.00298 9.81 0.00134 14.7-0.00398 1.77-0.00112 3.55-5.51e-4 5.32 0.00188 12.2 0.156 12.2 0.156 24.3-1.13 0.33-0.66 0.66-1.32 1-2 3.06-0.625 3.06-0.625 6-1v-3h6v-3h3v-3h3v-3h3c0.33-0.99 0.66-1.98 1-3l1.56-1.44c1.89-1.7 1.89-1.7 1.44-5.56h3v-6h2c1.05-3.14 1.13-5.36 1.13-8.66 0.00129-1.1 0.00258-2.21 0.00391-3.35-0.00387-1.15-0.00773-2.31-0.0117-3.5 0.00387-1.15 0.00773-2.31 0.0117-3.5-0.00129-1.1-0.00258-2.21-0.00391-3.35l-0.00342-3.07c-0.0191-2.7-0.0191-2.7-1.13-5.59h-2v-6c-0.99-0.33-1.98-0.66-3-1-0.33-1.98-0.66-3.96-1-6h-3v-3h-3v-3h-3v-3h-3v-3c-1.98-0.33-3.96-0.66-6-1v-2c-2.31-0.33-4.62-0.66-7-1v-2c-3.58-1.19-6.82-1.14-10.5-1.12-0.778-0.00115-1.56-0.00231-2.36-0.0035-2.63-0.00266-5.26 0.00185-7.89 0.00629-1.9-4.36e-4 -3.79-0.00131-5.69-0.00259-5.23-0.00224-10.5 0.00178-15.7 0.00678-5.63 0.00431-11.3 0.00286-16.9 0.0021-9.76-5.25e-4 -19.5 0.00262-29.3 0.00824-14.1 0.00812-28.2 0.0107-42.3 0.012-22.9 0.00219-45.8 0.00884-68.7 0.0183-22.2 0.00918-44.5 0.0163-66.7 0.0205-1.03 1.97e-4 -1.03 1.97e-4 -2.08 3.99e-4 -6.88 0.00132-13.8 0.00259-20.6 0.00384-57.7 0.0104-115 0.0281-173 0.0507zm0 157v2c-4.45 0.495-4.45 0.495-9 1v3h-4v3h-5v3h-4v4h-3v5h-3c-0.33 2.31-0.66 4.62-1 7h-2c-0.33 2.31-0.66 4.62-1 7h-2c-1.71 7.91-1.41 16.1 0 24h2c0.33 2.31 0.66 4.62 1 7h2c0.33 1.98 0.66 3.96 1 6h3v3h3v6h4v3c1.65 0.33 3.3 0.66 5 1v2c1.49 0.495 1.49 0.495 3 1l1 2c2.13 0.467 2.13 0.467 4.56 0.625 0.826 0.0748 1.65 0.15 2.5 0.227 0.957 0.0735 0.957 0.0735 1.93 0.148v2c3.8 1.27 7.36 1.14 11.3 1.13 1.3 0.00218 1.3 0.00218 2.62 0.0044 2.92 0.00368 5.84 1.66e-4 8.76-0.00326 2.1 0.00115 4.21 0.00274 6.31 0.00473 5.8 0.00419 11.6 0.0021 17.4-9.86e-4 6.25-0.00225 12.5 0.00123 18.7 0.00398 11.5 0.0042 23.1 0.00382 34.6 0.00109 10.7-0.00251 21.3-0.00317 32-0.00198 1.06 1.15e-4 1.06 1.15e-4 2.14 2.31e-4 2.87 3.11e-4 5.73 6.3e-4 8.6 9.6e-4 26.9 0.00306 53.8 2.82e-4 80.7-0.0051 23.9-0.00475 47.9-0.00432 71.8 4.61e-4 26.9 0.00535 53.7 0.00748 80.6 0.00439 2.86-3.21e-4 5.72-6.34e-4 8.59-9.43e-4 0.705-7.91e-5 1.41-1.58e-4 2.14-2.4e-4 10.7-0.00114 21.3 1.95e-4 32 0.00272 12.1 0.00285 24.2 0.00206 36.3-0.00328 6.19-0.00264 12.4-0.00364 18.6-3.51e-4 5.65 0.00296 11.3 0.00137 17-0.00398 2.05-0.00112 4.11-5.35e-4 6.16 0.00188 2.78 0.00301 5.55-4.84e-5 8.33-0.00472 0.809 0.00234 1.62 0.00468 2.45 0.00709 3.22-0.0109 5.79-0.106 8.87-1.13v-2h5c0.33-0.99 0.66-1.98 1-3 2.97-0.495 2.97-0.495 6-1v-3h4v-3h3v-3h3v-3h3v-4h2c0.33-1.98 0.66-3.96 1-6h3v-12h3v-12h-3v-13h-3c-0.33-1.98-0.66-3.96-1-6h-2v-4h-3v-3h-3v-3h-3v-3h-4v-3h-6v-3h-6v-3c-6.01-0.75-11.8-1.14-17.9-1.13-0.852-0.00145-1.7-0.00291-2.58-0.0044-2.85-0.00364-5.69-1.84e-4 -8.54 0.00326-2.07-0.00115-4.13-0.00274-6.2-0.00473-5.67-0.00417-11.3-0.00211-17 9.86e-4 -6.11 0.00226-12.2-0.00123-18.3-0.00398-11.3-0.00419-22.6-0.00383-33.8-0.00109-10.4 0.00252-20.8 0.00317-31.3 0.00198-1.04-1.15e-4 -1.04-1.15e-4 -2.1-2.31e-4 -2.81-3.11e-4 -5.61-6.3e-4 -8.42-9.6e-4 -26.3-0.00306-52.7-2.87e-4 -79 0.0051-23.4 0.00475-46.8 0.00432-70.2-4.61e-4 -26.3-0.00535-52.6-0.00748-78.8-0.00439-2.8 3.21e-4 -5.6 6.34e-4 -8.4 9.43e-4 -1.03 1.19e-4 -1.03 1.19e-4 -2.09 2.4e-4 -10.4 0.00114-20.8-1.93e-4 -31.3-0.00272-11.8-0.00286-23.7-0.00205-35.5 0.00328-6.04 0.00263-12.1 0.00365-18.1 3.51e-4 -5.53-0.00297-11.1-0.00135-16.6 0.00398-2 0.00112-4.01 5.44e-4 -6.01-0.00188-2.72-0.00303-5.44 6.99e-5 -8.16 0.00472-0.781-0.00234-1.56-0.00468-2.37-0.00709-4.53 0.0155-8.81 0.39-13.3 1.13zm0 156v3h-9v3h-4v3c-0.804 0.124-1.61 0.248-2.44 0.375-0.846 0.206-1.69 0.412-2.56 0.625-0.33 0.66-0.66 1.32-1 2-0.99 0.33-1.98 0.66-3 1v3h-3v6h-3c-0.33 1.98-0.66 3.96-1 6h-2c-0.33 2.31-0.66 4.62-1 7h-2c-1.71 7.71-1.71 16.3 0 24h2c0.33 2.31 0.66 4.62 1 7h2c0.33 1.98 0.66 3.96 1 6h3v3h3v6c0.99 0.33 1.98 0.66 3 1 0.495 0.516 0.99 1.03 1.5 1.56 1.51 1.78 1.51 1.78 4.5 1.44 0.33 0.99 0.66 1.98 1 3h3v2c2.96 1.48 5.74 1.06 9 1v3h166v-3h9v-3c0.908-0.0619 1.82-0.124 2.75-0.188 4.03-1.01 4.87-2.53 7.25-5.81 0.99-0.33 1.98-0.66 3-1v-3h3v-3h2c0.33-1.98 0.66-3.96 1-6h3v-9h3v-26h-3v-9h-3c-0.33-1.98-0.66-3.96-1-6h-2v-3h-3c-0.33-1.32-0.66-2.64-1-4h-3v-3h-3v-2c-1.98-0.33-3.96-0.66-6-1v-3h-7v-3h-168z" fill="#000002"/>
<path transform="translate(197,253)" d="m0 0h243c0.33 332 0.66 664 1 1006h2c0.917 5.38 1.11 10.5 1 16h3v10h3v9h3v6h3v6h3l1 6h2v4h3l1 6h3v3h3v4h3v3h3v5h3v3l4 1v3h3v2l5 1v3h4v3h3v3l2.94 0.375c1.01 0.206 2.02 0.412 3.06 0.625l1 2c0.99 0.33 1.98 0.66 3 1v2c1.98 0.33 3.96 0.66 6 1v3h6v3h6v3h4v3h6v3h5c0.33 0.99 0.66 1.98 1 3 1.98 0.33 3.96 0.66 6 1v3h3v2l2.94 0.375c1.01 0.206 2.02 0.412 3.06 0.625 0.33 0.66 0.66 1.32 1 2 3.03 0.658 3.03 0.658 6 1v3h6v3h3v3h6v3h6v3l2.94 0.375c1.01 0.206 2.02 0.412 3.06 0.625 0.33 0.66 0.66 1.32 1 2 0.99 0.33 1.98 0.66 3 1v2l2.94 0.375c1.01 0.206 2.02 0.412 3.06 0.625 0.33 0.66 0.66 1.32 1 2 2.53 0.656 2.53 0.656 5 1v3h6v3h4v3h6v3h6v3l2.94 0.375c1.01 0.206 2.02 0.412 3.06 0.625 0.33 0.66 0.66 1.32 1 2 0.99 0.33 1.98 0.66 3 1v2c1.98 0.33 3.96 0.66 6 1v3h6v3h6v3h4v3h6v3h6v3l2.94 0.375c1.01 0.206 2.02 0.412 3.06 0.625 0.33 0.66 0.66 1.32 1 2 0.99 0.33 1.98 0.66 3 1v2c1.98 0.33 3.96 0.66 6 1v3h6v3h6v3h4v3h6v3h5l1 3c1.98 0.33 3.96 0.66 6 1v3h3v2l2.94 0.375c1.01 0.206 2.02 0.412 3.06 0.625l1 2 5 1 1 2 5 1 1 2c0.99 0.33 1.98 0.66 3 1v3h6v3h6v3l2.94 0.375c1.01 0.206 2.02 0.412 3.06 0.625l1 2c0.99 0.33 1.98 0.66 3 1v2c1.98 0.33 3.96 0.66 6 1v3h6v3h6v3h4v3h6v3h6v3l2.94 0.375c1.01 0.206 2.02 0.412 3.06 0.625l1 2c0.99 0.33 1.98 0.66 3 1v2c1.98 0.33 3.96 0.66 6 1v3h6v3h6v3h4v3h6v3h6v3l2.94 0.375c1.01 0.206 2.02 0.412 3.06 0.625l1 2c0.99 0.33 1.98 0.66 3 1v2c1.98 0.33 3.96 0.66 6 1v3h6v3h6v3h3v3h6v3h6l1 3c1.98 0.33 3.96 0.66 6 1v3h3v2l2.94 0.375c1.01 0.206 2.02 0.412 3.06 0.625l1 2 5 1 1 2c2.53 0.656 2.53 0.656 5 1v3h4v3h-718v-3h-16v-3c-1.09 0.0206-2.19 0.0412-3.31 0.0625-3.69-0.0625-3.69-0.0625-6.69-1.06v-2c-2.97-0.33-5.94-0.66-9-1v-3h-6c-0.33-0.66-0.66-1.32-1-2-0.825-0.165-1.65-0.33-2.5-0.5-0.825-0.165-1.65-0.33-2.5-0.5-0.33-0.66-0.66-1.32-1-2-2.53-0.656-2.53-0.656-5-1v-3h-4v-3h-3v-3c-1.32-0.33-2.64-0.66-4-1v-2c-1.65-0.33-3.3-0.66-5-1v-3h-3v-3h-3c-0.33-1.65-0.66-3.3-1-5-0.99-0.33-1.98-0.66-3-1v-3h-3v-3h-3l-1-6h-2l-1-3-2-1c-0.333-1.67-0.667-3.33-1-5l-2-1c-0.333-1.67-0.667-3.33-1-5l-2-1c-0.414-2.07-0.414-2.07-0.625-4.56l-0.227-2.5-0.148-1.93h-2c-1.16-3.47-1.07-6.36-1-10h-3v-16h-3v-1134h3c-0.0116-1.05-0.0232-2.1-0.0352-3.18-0.00938-1.38-0.0185-2.76-0.0273-4.14-0.00838-0.69-0.0168-1.38-0.0254-2.09-0.0152-3.14 0.086-5.59 1.09-8.6h2c0.33-3.3 0.66-6.6 1-10h2c0.33-2.97 0.66-5.94 1-9h3v-6h3v-4h2c0.33-1.98 0.66-3.96 1-6h3v-3h3v-6h3v-3h3v-3h3v-3c0.99-0.33 1.98-0.66 3-1 0.33-0.99 0.66-1.98 1-3h3v-3h3v-3h3v-3h6v-3h4v-3c1.65-0.33 3.3-0.66 5-1v-2c1.45-0.186 1.45-0.186 2.94-0.375 1.52-0.309 1.52-0.309 3.06-0.625 0.33-0.66 0.66-1.32 1-2h6v-3c4.45-0.495 4.45-0.495 9-1v-2c2.99-0.872 5.64-1.11 8.75-1.06 0.799 0.00902 1.6 0.018 2.42 0.0273 0.603 0.0116 1.21 0.0232 1.83 0.0352v-3z" fill="#000002"/>
<path transform="translate(787,247)" d="m0 0h463v171h-463v-171z" fill="#000002"/>
<path transform="translate(747,1381)" d="m0 0c40.1-0.0229 80.2-0.0405 120-0.0511 4.73-0.00125 9.46-0.00255 14.2-0.00387 0.942-2.62e-4 1.88-5.25e-4 2.85-7.95e-4 15.3-0.00436 30.5-0.0122 45.8-0.0214 15.7-0.00934 31.3-0.0149 47-0.0169 9.67-0.00138 19.3-0.00573 29-0.0138 6.62-0.00527 13.2-0.00689 19.9-0.00558 3.83 6.44e-4 7.65-3.76e-4 11.5-0.0057 4.14-0.00572 8.28-0.0038 12.4-0.00105 1.83-0.00437 1.83-0.00437 3.71-0.00883 1.1 0.00199 2.2 0.00398 3.33 0.00603 0.957-3.8e-4 1.91-7.59e-4 2.9-0.00115 2.14 0.124 2.14 0.124 3.14 1.12 0.0992 2.23 0.126 4.47 0.127 6.71 0.00156 0.709 0.00312 1.42 0.00473 2.15 0.00401 2.39 8.19e-4 4.79-0.00232 7.18 0.00135 1.71 0.00313 3.42 0.00531 5.13 0.00458 4.66 0.00278 9.31-3.79e-4 14-0.00252 4.86-1.86e-4 9.73 0.00139 14.6 0.00182 8.17-5.85e-4 16.3-0.00534 24.5-0.00544 9.46-0.00368 18.9 0.00183 28.4 0.00453 8.11 0.00518 16.2 0.00256 24.3-0.00156 4.85-0.00176 9.7 0.00154 14.5 0.00288 4.56 8.94e-4 9.12-0.00489 13.7-0.00133 1.68-9.38e-4 3.35 0.00126 5.03 0.00272 2.28-6.82e-4 4.57-0.00568 6.85-3.77e-4 1.28-7.54e-4 2.56-0.00114 3.88-0.126 3.08-0.126 3.08-1.13 6.08h-3v-3h-6v-3h-6v-3h-6v-3c-1.32-0.33-2.64-0.66-4-1v-2c-1.98-0.33-3.96-0.66-6-1v-2c-1.98-0.33-3.96-0.66-6-1v-3h-6v-3h-4v-2c-1.98-0.33-3.96-0.66-6-1v-3h-6v-3h-6v-3c-1.98-0.33-3.96-0.66-6-1v-2c-1.32-0.33-2.64-0.66-4-1v-2c-1.98-0.33-3.96-0.66-6-1v-2c-1.98-0.33-3.96-0.66-6-1v-3h-6v-3h-4v-2c-2.97-0.495-2.97-0.495-6-1v-3h-6v-3h-6v-3c-0.969-0.124-1.94-0.247-2.94-0.375-1.01-0.206-2.02-0.412-3.06-0.625l-1-2c-0.99-0.33-1.98-0.66-3-1v-2c-2.97-0.495-2.97-0.495-6-1v-3h-6v-3h-6v-3h-4v-3h-6v-3h-6v-3c-0.969-0.124-1.94-0.247-2.94-0.375-1.01-0.206-2.02-0.412-3.06-0.625l-1-2c-2.53-0.656-2.53-0.656-5-1v-3h-4v-2c-2.97-0.495-2.97-0.495-6-1v-3h-6v-3h-6v-3h-4v-3h-5c-0.33-0.99-0.66-1.98-1-3-1.98-0.33-3.96-0.66-6-1v-2c-1.98-0.33-3.96-0.66-6-1v-3h-6v-3h-4v-3h-6v-3h-6v-3h-6v-3c-1.98-0.495-1.98-0.495-4-1v-2h-5c-0.33-0.99-0.66-1.98-1-3-2.97-0.495-2.97-0.495-6-1v-3h-6v-3h-6v-3h-4v-3h-6v-3h-6v-3c-2.97-0.495-2.97-0.495-6-1v-2c-1.32-0.33-2.64-0.66-4-1v-2c-2.97-0.495-2.97-0.495-6-1v-2c-2.97-0.495-2.97-0.495-6-1v-3h-6v-3z" fill="#000002"/>
</svg>
