<?xml version="1.0" encoding="UTF-8"?>
<svg version="1.1" viewBox="0 0 1600 1600" width="1280" height="1280" xmlns="http://www.w3.org/2000/svg">
<path transform="translate(262,772)" d="m0 0h51v3h24v3c1.36-0.0174 1.36-0.0174 2.74-0.0352 1.18-0.00902 2.36-0.018 3.57-0.0273 1.17-0.0116 2.34-0.0232 3.55-0.0352 3.14 0.0977 3.14 0.0977 6.14 1.1v2c0.615-0.0116 1.23-0.0232 1.86-0.0352 0.808-0.00902 1.62-0.018 2.45-0.0273 1.2-0.0174 1.2-0.0174 2.43-0.0352 2.26 0.0977 2.26 0.0977 5.26 1.1v2c3.3 0.33 6.6 0.66 10 1v2c2.97 0.33 5.94 0.66 9 1v2c3.3 0.33 6.6 0.66 10 1v3h6v3h7v3h8v3c1.98 0.33 3.96 0.66 6 1v2h4v3c1.98 0.33 3.96 0.66 6 1v2c0.969 0.124 1.94 0.247 2.94 0.375 1.01 0.206 2.02 0.413 3.06 0.625 0.33 0.66 0.66 1.32 1 2 0.99 0.33 1.98 0.66 3 1v2c1.98 0.33 3.96 0.66 6 1v3h3v3h6v3h3v3c0.908 0.0619 1.82 0.124 2.75 0.188 4.03 1.01 4.87 2.53 7.25 5.81 0.99 0.33 1.98 0.66 3 1v3h3v3h3v3h4v3h3v3c1.11 0.0928 1.11 0.0928 2.25 0.188 3.62 1.07 4.74 2.68 6.75 5.81v3h3v3h3v4h3v3h3v3h3v3h3c0.33 0.99 0.66 1.98 1 3 0.66 0.33 1.32 0.66 2 1 0.625 2.56 0.625 2.56 1 5 0.99 0.33 1.98 0.66 3 1v3h3v5h3v4h3c0.33 1.98 0.66 3.96 1 6h2c0.33 0.99 0.66 1.98 1 3 0.66 0.33 1.32 0.66 2 1 0.333 1.67 0.667 3.33 1 5 0.66 0.33 1.32 0.66 2 1 0.625 2.56 0.625 2.56 1 5h2v4h3c0.33 2.31 0.66 4.62 1 7h2c0.33 1.98 0.66 3.96 1 6h3v9h3v6h3v9h3c0.33 3.3 0.66 6.6 1 10h2c0.33 2.97 0.66 5.94 1 9h2c0.33 4.29 0.66 8.58 1 13h2c1.1 3.29 1.1 5.74 1.06 9.19-0.00902 1.09-0.018 2.17-0.0273 3.29-0.0174 1.25-0.0174 1.25-0.0352 2.52 0.99 0.33 1.98 0.66 3 1v21h3v53h-3c0.00524 0.56 0.0105 1.12 0.0159 1.7 0.0208 2.54 0.0338 5.08 0.0466 7.62 0.00838 0.881 0.0168 1.76 0.0254 2.67 0.00322 0.848 0.00645 1.7 0.00977 2.57 0.00524 0.78 0.0105 1.56 0.0159 2.36-0.114 2.08-0.114 2.08-1.11 5.08h-2l0.0352 1.83c0.00902 0.799 0.018 1.6 0.0273 2.42 0.0174 1.18 0.0174 1.18 0.0352 2.39-0.0938 2.27-0.465 4.19-1.1 6.36h-2c-0.33 3.96-0.66 7.92-1 12h-2c-0.049 0.855-0.098 1.71-0.148 2.59-0.0748 1.1-0.15 2.21-0.227 3.35-0.0696 1.1-0.139 2.2-0.211 3.34-0.137 0.898-0.273 1.8-0.414 2.72-0.99 0.495-0.99 0.495-2 1-0.467 2.13-0.467 2.13-0.625 4.56-0.0748 0.826-0.15 1.65-0.227 2.5-0.049 0.638-0.098 1.28-0.148 1.93h-3v7h-2c-0.33 2.97-0.66 5.94-1 9h-3v9h-3v6h-3c-0.33 2.31-0.66 4.62-1 7h-2c-0.33 1.98-0.66 3.96-1 6h-2c-0.33 2.97-0.66 5.94-1 9h-3v6h-3v4h-2c-0.33 1.98-0.66 3.96-1 6h-3v6h-3v6h-3c-0.124 0.969-0.247 1.94-0.375 2.94-0.206 1.01-0.412 2.02-0.625 3.06-0.99 0.495-0.99 0.495-2 1-0.165 0.825-0.33 1.65-0.5 2.5-0.165 0.825-0.33 1.65-0.5 2.5-0.99 0.495-0.99 0.495-2 1-0.33 0.99-0.66 1.98-1 3h-2c-0.33 1.98-0.66 3.96-1 6h-3v6h-3v4h-3v6h-3v3h-3c-0.124 0.969-0.248 1.94-0.375 2.94-0.309 1.52-0.309 1.52-0.625 3.06-0.66 0.33-1.32 0.66-2 1-0.33 0.99-0.66 1.98-1 3h-2c-0.124 0.804-0.248 1.61-0.375 2.44-0.309 1.27-0.309 1.27-0.625 2.56-0.66 0.33-1.32 0.66-2 1-0.33 0.99-0.66 1.98-1 3h-3v6h-3v3h-3v6h-3v3h-3c-0.33 1.32-0.66 2.64-1 4h-2c-0.33 1.98-0.66 3.96-1 6h-3v3h-3v6h-3v3h-3v3h-3v4h-3v5c-0.99 0.33-1.98 0.66-3 1v3h-4v3h-2c-0.33 1.32-0.66 2.64-1 4h-2c-0.33 1.65-0.66 3.3-1 5h-3v3c-0.66 0.33-1.32 0.66-2 1-0.33 0.99-0.66 1.98-1 3h-3v3h-3c-0.33 1.98-0.66 3.96-1 6h-3v3h-3v3c-1.65 1.35-3.32 2.69-5 4-0.33 0.99-0.66 1.98-1 3h-3v5h-3v4h-3v3h-3v3h-3v3h-3c-0.33 1.32-0.66 2.64-1 4h-2c-0.33 0.99-0.66 1.98-1 3h-2c-0.33 0.99-0.66 1.98-1 3h-2c-0.33 1.98-0.66 3.96-1 6h-3v3h-3v3h-3v3c-0.99 0.33-1.98 0.66-3 1-1.36 1.65-2.69 3.31-4 5-0.66 0.33-1.32 0.66-2 1-0.33 0.99-0.66 1.98-1 3h-3v3h-3v3h-3v3h-3v3h-3v3h-3v3h-3c-0.33 1.32-0.66 2.64-1 4h-3v3h-3v3h-3v3h-3v3h-3v3h-3v3h-3v3c-0.99 0.33-1.98 0.66-3 1-2.37 2-2.99 2.97-4 6h-3v3h-3v3h-3v3h-3v3c-0.99 0.33-1.98 0.66-3 1-0.33 0.66-0.66 1.32-1 2h-3v3c-5.63 1.12-5.63 1.12-9 0v-3h-3v-3h-3v-3h-3v-3h-6c-0.33-0.99-0.66-1.98-1-3-1.66-1.34-3.33-2.68-5-4-1.36-1.64-2.7-3.31-4-5-2.12-2.38-2.87-2.96-6-4v-3h-3v-3h-3v-3h-3v-3h-3v-3h-3c-0.33-0.99-0.66-1.98-1-3-2-2.37-2.97-2.99-6-4v-3h-3v-3h-3v-3h-3v-3h-3v-3h-3c-0.33-0.99-0.66-1.98-1-3-0.846-0.66-1.69-1.32-2.56-2-0.804-0.66-1.61-1.32-2.44-2v-3h-3v-3h-3c-0.33-1.65-0.66-3.3-1-5h-3v-4h-3v-3h-3v-3h-3c-0.33-0.99-0.66-1.98-1-3-1.66-1.34-3.33-2.68-5-4-0.701-0.887-1.4-1.77-2.12-2.69-1.74-2.56-1.74-2.56-4.88-3.31v-3h-3v-6h-3v-3h-3v-3h-3v-4h-3v-3h-3v-3h-3c-0.33-1.98-0.66-3.96-1-6h-3v-3h-3v-3h-3v-4h-3c-0.33-1.65-0.66-3.3-1-5h-2c-0.33-0.99-0.66-1.98-1-3-0.66-0.33-1.32-0.66-2-1v-3h-3v-3h-3l-1-6h-3v-3h-3v-4h-3c-0.33-1.65-0.66-3.3-1-5h-2v-4h-3v-3h-3l-1-6c-0.99-0.33-1.98-0.66-3-1v-2c-0.99-0.33-1.98-0.66-3-1v-3h-2l-1-6h-3v-3h-3v-6h-3v-3h-3v-4h-3c-0.124-0.804-0.248-1.61-0.375-2.44-0.206-0.846-0.412-1.69-0.625-2.56-0.66-0.33-1.32-0.66-2-1-0.625-2.56-0.625-2.56-1-5-0.99-0.33-1.98-0.66-3-1v-3h-3v-6h-3v-4h-3c-0.124-0.804-0.248-1.61-0.375-2.44-0.206-0.846-0.412-1.69-0.625-2.56-0.66-0.33-1.32-0.66-2-1v-3h-3v-6h-3c-0.33-1.98-0.66-3.96-1-6h-2c-0.33-1.98-0.66-3.96-1-6-0.99-0.33-1.98-0.66-3-1v-3h-2c-0.33-1.98-0.66-3.96-1-6h-3v-6h-3v-6h-3c-0.186-1.45-0.186-1.45-0.375-2.94-0.206-1.01-0.412-2.02-0.625-3.06-0.66-0.33-1.32-0.66-2-1v-6h-3v-6h-3c-0.495-3.47-0.495-3.47-1-7h-2c-0.495-3.96-0.495-3.96-1-8-0.99-0.33-1.98-0.66-3-1v-6h-3v-7h-3v-9h-3v-9h-3v-9h-3c-0.495-6.43-0.495-6.43-1-13h-2c-0.33-3.96-0.66-7.92-1-12h-2c-1.07-3.46-1.1-6.64-1.06-10.2 0.00902-1.08 0.018-2.16 0.0273-3.27 0.0116-0.82 0.0232-1.64 0.0352-2.48h-3v-25h-3v-35h3c-0.00524-0.747-0.0105-1.49-0.0159-2.26-0.0207-3.37-0.0338-6.74-0.0466-10.1-0.00838-1.18-0.0168-2.35-0.0254-3.56-0.00322-1.12-0.00645-2.24-0.00977-3.4-0.00524-1.04-0.0105-2.07-0.0159-3.14 0.114-2.52 0.114-2.52 1.11-4.52h2c-0.0116-0.904-0.0232-1.81-0.0352-2.74-0.00902-1.18-0.018-2.36-0.0273-3.57l-0.0352-3.55c0.0977-3.14 0.0977-3.14 1.1-6.14h2c0.33-4.29 0.66-8.58 1-13h2c0.33-3.96 0.66-7.92 1-12h3v-9h3v-7h3v-9h3v-6h3v-6c0.99-0.33 1.98-0.66 3-1 0.495-2.97 0.495-2.97 1-6h2c0.124-0.969 0.248-1.94 0.375-2.94l0.625-3.06c0.66-0.33 1.32-0.66 2-1 0.656-2.53 0.656-2.53 1-5h3v-6h3v-4h3v-6h3v-3h3c0.0928-1.36 0.0928-1.36 0.188-2.75 1.01-4.03 2.53-4.87 5.81-7.25 0.495-1.49 0.495-1.49 1-3h2c0.124-0.804 0.248-1.61 0.375-2.44 0.206-0.846 0.412-1.69 0.625-2.56 0.66-0.33 1.32-0.66 2-1 0.495-1.49 0.495-1.49 1-3h3v-3h3v-3h3v-3h3v-3h3c0.495-1.98 0.495-1.98 1-4h2c0.495-1.49 0.495-1.49 1-3h2c0.495-1.49 0.495-1.49 1-3h3v-3h3v-3h3v-3h3v-3h3v-3c0.99-0.33 1.98-0.66 3-1 0.495-0.99 0.495-0.99 1-2 2.56-0.625 2.56-0.625 5-1 0.33-0.99 0.66-1.98 1-3h3v-3h3v-3h6v-3h3v-3h6v-3h4v-3h6v-3c2.97-0.495 2.97-0.495 6-1v-3h6v-3h6v-3h7v-3h6v-3c2.97-0.33 5.94-0.66 9-1v-2c0.969-0.124 1.94-0.247 2.94-0.375 1.01-0.206 2.02-0.413 3.06-0.625 0.33-0.66 0.66-1.32 1-2 2.07-0.414 2.07-0.414 4.56-0.625 1.24-0.112 1.24-0.112 2.5-0.227 0.957-0.0735 0.957-0.0735 1.93-0.148v-2c3.96-0.33 7.92-0.66 12-1v-2c3.47-1.16 6.36-1.07 10-1v-2c3.42-1.14 6.09-1.1 9.69-1.06 1.77 0.0135 1.77 0.0135 3.57 0.0273 0.904 0.0116 1.81 0.0232 2.74 0.0352v-3h24v-3zm7 194v2c-0.855 0.049-1.71 0.098-2.59 0.148-1.1 0.0748-2.21 0.15-3.35 0.227-1.1 0.0696-2.2 0.139-3.34 0.211-0.898 0.137-1.8 0.273-2.72 0.414-0.33 0.66-0.66 1.32-1 2-3.06 0.625-3.06 0.625-6 1v3h-6v3h-6v3h-4v3c-2.97 0.495-2.97 0.495-6 1v3h-3v3h-3v3h-3v3h-3v3h-3c-0.33 1.98-0.66 3.96-1 6h-3v4h-3v6h-3v6h-3v9h-3c-0.33 4.29-0.66 8.58-1 13h-2v31h2c0.33 4.29 0.66 8.58 1 13h3v9h3v6h3c0.33 1.98 0.66 3.96 1 6h2v4h3v3h3c0.33 1.98 0.66 3.96 1 6h3v3h3v3h3v3c1.98 0.33 3.96 0.66 6 1v3h3v3h4v2c1.98 0.33 3.96 0.66 6 1v3h6v3h9v3h12v3h35v-3h12v-3h7v-3h6v-3h6c0.33-0.99 0.66-1.98 1-3h3v-3c1.98-0.33 3.96-0.66 6-1v-3h3v-3h3v-3h3v-3c0.598-0.0619 1.2-0.124 1.81-0.188 3.11-1.16 3.79-2.88 5.19-5.81v-3h3v-4h3v-6h3v-6h3v-7h3c0.33-3.96 0.66-7.92 1-12h2c0.779-12.8 1.19-25.2 0-38h-2c-0.33-3.96-0.66-7.92-1-12h-3v-7h-3v-6h-3v-6h-3c-0.33-1.65-0.66-3.3-1-5h-2v-4h-3v-3c-0.99-0.33-1.98-0.66-3-1-2.37-2-2.99-2.97-4-6h-3v-3h-3v-3h-4v-2c-1.65-0.33-3.3-0.66-5-1v-3h-6v-3h-7v-3h-6v-3c-4.29-0.33-8.58-0.66-13-1v-2c-4-0.746-7.78-1.13-11.8-1.13-1.08-0.00129-2.16-0.00258-3.28-0.00391-1.12 0.00387-2.23 0.00773-3.38 0.0117-1.12-0.00387-2.23-0.00773-3.38-0.0117-1.62 0.00193-1.62 0.00193-3.28 0.00391-0.978 0.00113-1.96 0.00226-2.96 0.00342-3.03 0.136-5.9 0.574-8.88 1.13z" fill="#000002"/>
<path transform="translate(1287,85)" d="m0 0h50v2c8.25 0.33 16.5 0.66 25 1 0.33 0.66 0.66 1.32 1 2 2.55 0.312 5 0.513 7.56 0.625 0.711 0.0387 1.42 0.0773 2.15 0.117 1.76 0.0945 3.52 0.177 5.28 0.258v3h12v3h10v3h9v3c1.67-0.0309 1.67-0.0309 3.38-0.0625 3.62 0.0625 3.62 0.0625 5.62 1.06v2c2.31 0.33 4.62 0.66 7 1v2c1.98 0.33 3.96 0.66 6 1v2c2.31 0.33 4.62 0.66 7 1v2c1.98 0.33 3.96 0.66 6 1v3h6v3h6v3h6v3c1.32 0.33 2.64 0.66 4 1v2c1.98 0.33 3.96 0.66 6 1v3h3v2c1.98 0.33 3.96 0.66 6 1v3h3v3h4v3h5v3h4v3h3v3h3v3h3c0.33 0.99 0.66 1.98 1 3 2 2.37 2.97 2.99 6 4v3h3v3h3v3h3v3h3v3h3v4h3v3h3c0.33 1.65 0.66 3.3 1 5 0.99 0.33 1.98 0.66 3 1v3h2v3h3c0.33 0.99 0.66 1.98 1 3 0.516 0.495 1.03 0.99 1.56 1.5 1.44 1.5 1.44 1.5 1.44 4.5h3v4h3v6h3v3h3v6h3v6h3c0.33 2.31 0.66 4.62 1 7h2c0.33 1.98 0.66 3.96 1 6h3v6h3v7h3v9h3v6h3c0.049 0.638 0.098 1.28 0.148 1.93 0.0748 0.826 0.15 1.65 0.227 2.5 0.104 1.24 0.104 1.24 0.211 2.5 0.137 0.682 0.273 1.36 0.414 2.07 0.66 0.33 1.32 0.66 2 1 0.414 2.72 0.414 2.72 0.625 6.06 0.0748 1.1 0.15 2.21 0.227 3.35 0.049 0.855 0.098 1.71 0.148 2.59h2c0.33 3.96 0.66 7.92 1 12h2c1.13 5.36 1.1 10.6 1 16h2c1.06 3.18 1.11 5.43 1.1 8.76-0.00322 1.12-0.00645 2.24-0.00977 3.39-0.00838 1.17-0.0168 2.33-0.0254 3.54-0.00451 1.18-0.00902 2.36-0.0137 3.57-0.0118 2.91-0.0283 5.83-0.0488 8.74h3v35h-3v24c-0.99 0.33-1.98 0.66-3 1 0.0174 1.25 0.0174 1.25 0.0352 2.52 0.0135 1.63 0.0135 1.63 0.0273 3.29 0.0116 1.08 0.0232 2.16 0.0352 3.27-0.0977 2.92-0.0977 2.92-1.1 5.92h-2c-0.33 4.29-0.66 8.58-1 13h-2c-0.33 3.96-0.66 7.92-1 12h-3v9l-2 1c-0.467 2.13-0.467 2.13-0.625 4.56-0.0748 0.826-0.15 1.65-0.227 2.5-0.049 0.638-0.098 1.28-0.148 1.93h-3v7h-3v8h-3v7h-3c-0.33 2.97-0.66 5.94-1 9h-2c-0.124 0.969-0.247 1.94-0.375 2.94-0.206 1.01-0.412 2.02-0.625 3.06l-2 1c-0.658 3.03-0.658 3.03-1 6h-3v6h-3v6h-3v6h-3v6h-3c-0.33 2.31-0.66 4.62-1 7h-2v3h-3c-0.33 1.98-0.66 3.96-1 6h-2c-0.124 0.969-0.247 1.94-0.375 2.94-0.206 1.01-0.412 2.02-0.625 3.06-0.66 0.33-1.32 0.66-2 1-0.656 2.53-0.656 2.53-1 5h-3v4h-3v6h-3v4h-3v5h-3c-0.124 0.969-0.247 1.94-0.375 2.94-0.309 1.52-0.309 1.52-0.625 3.06-0.66 0.33-1.32 0.66-2 1-0.33 0.99-0.66 1.98-1 3h-3v6h-3v3h-3v4h-2c-0.33 1.65-0.66 3.3-1 5h-3v4h-3v6h-3v3h-3c-0.33 1.32-0.66 2.64-1 4h-2c-0.33 1.65-0.66 3.3-1 5h-3v4h-3v5h-3v4h-3v3h-3c-0.33 1.32-0.66 2.64-1 4h-2c-0.0928 1.11-0.0928 1.11-0.188 2.25-1.06 3.58-2.88 4.55-5.81 6.75-0.33 0.99-0.66 1.98-1 3h-3v3h-2c-0.33 1.98-0.66 3.96-1 6h-3v3h-3v3h-3c-0.33 1.32-0.66 2.64-1 4h-2c-0.124 0.804-0.247 1.61-0.375 2.44-0.309 1.27-0.309 1.27-0.625 2.56-0.66 0.33-1.32 0.66-2 1-0.33 0.99-0.66 1.98-1 3h-3v3h-3v3h-3v3h-3v4h-3v5h-3v3c-0.99 0.33-1.98 0.66-3 1-0.33 0.99-0.66 1.98-1 3h-3v3h-3v3h-3v3h-3v4h-3v3h-3v5c-0.99 0.33-1.98 0.66-3 1-2.37 2-2.99 2.97-4 6h-3v3h-3v3h-3v3h-3v3h-3v3h-3v4h-3v3h-3v3h-4v3h-3v3h-3v3h-3v3h-3v3h-3v4h-3v3h-3v3h-4v3h-3v3h-3v3h-3v3h-3v3c-1.98 0.33-3.96 0.66-6 1v3h-3v3h-3v3h-9c-0.33-0.99-0.66-1.98-1-3-2-2.37-2.97-2.99-6-4v-3h-3v-3h-3v-3h-3v-3h-3v-3h-3v-3h-4v-3h-3v-3h-3v-3h-3c-0.33-0.99-0.66-1.98-1-3-1.66-1.34-3.33-2.68-5-4-0.701-0.887-1.4-1.77-2.12-2.69-1.74-2.56-1.74-2.56-4.88-3.31v-3h-3v-3h-3v-3h-3v-3h-3v-4h-3v-3h-3v-3h-3v-3h-3v-3h-3v-3c-1.32-0.33-2.64-0.66-4-1v-3h-3v-3h-3v-3h-3c-0.33-1.65-0.66-3.3-1-5-0.99-0.33-1.98-0.66-3-1v-3h-3v-3h-3v-3c-0.99-0.33-1.98-0.66-3-1v-2c-0.99-0.33-1.98-0.66-3-1v-3h-3v-3h-3v-3h-3c-0.124-0.804-0.247-1.61-0.375-2.44-0.206-0.846-0.412-1.69-0.625-2.56-0.66-0.33-1.32-0.66-2-1v-3h-3v-3h-3c-0.33-0.99-0.66-1.98-1-3-2-2.37-2.97-2.99-6-4v-5h-3v-4h-3v-3h-3v-3h-3c-0.33-0.99-0.66-1.98-1-3-0.66-0.33-1.32-0.66-2-1-0.625-2.56-0.625-2.56-1-5-0.99-0.33-1.98-0.66-3-1v-3h-3v-3h-3v-6h-3v-3h-3v-3h-3c-0.495-2.97-0.495-2.97-1-6h-2v-3h-3v-4h-3c-0.495-2.97-0.495-2.97-1-6h-3v-3h-3v-3h-3v-6h-3v-4h-3c-0.124-0.804-0.247-1.61-0.375-2.44-0.206-0.846-0.412-1.69-0.625-2.56-0.66-0.33-1.32-0.66-2-1v-3h-3c-0.495-2.97-0.495-2.97-1-6h-2v-3h-3c-0.33-1.98-0.66-3.96-1-6-0.99-0.33-1.98-0.66-3-1v-3h-3v-6h-3v-3h-3v-6h-3c-0.33-1.98-0.66-3.96-1-6h-2v-4h-3c-0.33-1.98-0.66-3.96-1-6h-2c-0.33-1.98-0.66-3.96-1-6h-3v-6h-3v-6h-3v-4h-3v-6h-3c-0.186-1.45-0.186-1.45-0.375-2.94-0.206-1.01-0.412-2.02-0.625-3.06-0.66-0.33-1.32-0.66-2-1-0.594-2.65-0.742-5.29-1-8h-2c-0.495-3.47-0.495-3.47-1-7h-2c-0.33-1.98-0.66-3.96-1-6h-3v-7h-3v-9h-3v-6h-3c-0.049-0.638-0.098-1.28-0.148-1.93-0.0748-0.826-0.15-1.65-0.227-2.5-0.0696-0.824-0.139-1.65-0.211-2.5-0.137-0.682-0.273-1.36-0.414-2.07-0.66-0.33-1.32-0.66-2-1v-9h-3c-0.33-3.96-0.66-7.92-1-12h-2c-0.33-3.96-0.66-7.92-1-12h-2c-0.872-2.99-1.11-5.64-1.06-8.75l0.0273-2.42c0.0116-0.603 0.0232-1.21 0.0352-1.83h-2c-0.941-2.82-1.12-4.53-1.1-7.45 0.00322-0.848 0.00645-1.7 0.00977-2.57 0.0126-1.32 0.0126-1.32 0.0254-2.67 0.00451-0.893 0.00902-1.79 0.0137-2.71 0.0118-2.2 0.0282-4.4 0.0488-6.61h-3v-53h3v-22h3c-0.0116-0.82-0.0232-1.64-0.0352-2.48-0.00902-1.08-0.018-2.16-0.0273-3.27-0.0116-1.07-0.0232-2.13-0.0352-3.23 0.0826-2.55 0.351-4.59 1.1-7.02h2c0.33-3.96 0.66-7.92 1-12h2c0.33-3.3 0.66-6.6 1-10h2c0.33-2.97 0.66-5.94 1-9h3v-9h3v-7h3v-9h3c0.495-2.97 0.495-2.97 1-6h2c0.124-0.969 0.247-1.94 0.375-2.94 0.206-1.01 0.412-2.02 0.625-3.06 0.66-0.33 1.32-0.66 2-1 0.33-0.99 0.66-1.98 1-3h2c0.495-2.97 0.495-2.97 1-6h3v-6h3v-4h2c0.33-1.65 0.66-3.3 1-5h3v-4h3v-5c0.99-0.33 1.98-0.66 3-1v-3h3c0.33-1.98 0.66-3.96 1-6h3v-3h3v-3h3v-4h3v-3h3v-3h3v-3h3c0.33-1.98 0.66-3.96 1-6h3v-3c1.65-0.33 3.3-0.66 5-1 0.495-1.49 0.495-1.49 1-3h2c0.495-1.49 0.495-1.49 1-3h3v-3h3v-3h3v-3h4v-3h3v-3c0.804-0.124 1.61-0.248 2.44-0.375 0.846-0.206 1.69-0.412 2.56-0.625 0.495-0.99 0.495-0.99 1-2h3v-3c1.98-0.33 3.96-0.66 6-1v-3h3v-2c2.97-0.495 2.97-0.495 6-1v-3h4v-3h6v-3h6v-3c0.99-0.33 1.98-0.66 3-1 0.33-0.66 0.66-1.32 1-2h6v-3c2.64-0.33 5.28-0.66 8-1v-2c2.31-0.33 4.62-0.66 7-1v-2c2.31-0.33 4.62-0.66 7-1v-2c2.96-1.48 5.74-1.06 9-1v-3h9v-3h10v-3h12v-3c7.92-0.495 7.92-0.495 16-1v-2c11.9-0.495 11.9-0.495 24-1v-2zm7 193v3h-12c-0.33 0.99-0.66 1.98-1 3h-6v3h-6c-0.33 0.99-0.66 1.98-1 3-1.98 0.33-3.96 0.66-6 1v2c-0.804 0.124-1.61 0.248-2.44 0.375-0.846 0.206-1.69 0.413-2.56 0.625-0.33 0.66-0.66 1.32-1 2-0.99 0.33-1.98 0.66-3 1v3h-3v3h-3v3h-3v3c-1.32 0.33-2.64 0.66-4 1v2c-1.49 0.495-1.49 0.495-3 1v3h-2c-0.33 1.98-0.66 3.96-1 6h-3v6h-3v6h-3v7h-3c-0.33 3.96-0.66 7.92-1 12h-2c-0.779 12.8-1.19 25.2 0 38h2c0.33 3.96 0.66 7.92 1 12h3v7h3v6h3v6h3v3h3c0.0619 0.908 0.124 1.82 0.188 2.75 1.01 4.03 2.53 4.87 5.81 7.25 0.33 0.99 0.66 1.98 1 3h3v3h3v3h3v3h6v3h3v3c1.45 0.186 1.45 0.186 2.94 0.375 1.01 0.206 2.02 0.412 3.06 0.625 0.33 0.66 0.66 1.32 1 2 3.03 0.658 3.03 0.658 6 1v2c2.31 0.33 4.62 0.66 7 1v2c2.88 0.961 4.7 1.11 7.69 1.06 0.808-0.00902 1.62-0.018 2.45-0.0273 0.615-0.0116 1.23-0.0232 1.86-0.0352v2c3.5 1.17 6.27 1.13 9.97 1.13 0.677 9.57e-4 1.35 0.00191 2.05 0.0029 1.43 6.8e-4 2.86-0.00116 4.29-0.00534 2.19-0.00535 4.37-4.78e-5 6.56 0.00635 1.39-6.61e-4 2.78-0.00194 4.17-0.00391 1.9-0.00169 1.9-0.00169 3.83-0.00342 3.17 0.0145 3.17 0.0145 6.14-1.13v-2h9c0.33-0.99 0.66-1.98 1-3 2.97-0.33 5.94-0.66 9-1v-2c0.969-0.124 1.94-0.248 2.94-0.375 1.01-0.206 2.02-0.412 3.06-0.625 0.33-0.66 0.66-1.32 1-2 2.56-0.625 2.56-0.625 5-1v-3h4v-3c1.65-0.33 3.3-0.66 5-1v-2h4v-3h3c0.33-0.99 0.66-1.98 1-3 0.825-0.619 1.65-1.24 2.5-1.88 2.82-2.4 3.2-3.52 3.5-7.12 0.99-0.33 1.98-0.66 3-1v-3h3v-3h2c0.33-1.98 0.66-3.96 1-6h3v-7h3v-9h3c0.33-3.96 0.66-7.92 1-12h2v-32h-2c-0.33-3.96-0.66-7.92-1-12h-3v-10h-3v-6h-3v-6h-3c-0.33-1.32-0.66-2.64-1-4h-2c-0.124-0.804-0.247-1.61-0.375-2.44-0.206-0.846-0.412-1.69-0.625-2.56-0.66-0.33-1.32-0.66-2-1-0.33-0.99-0.66-1.98-1-3h-3v-3h-3v-3h-3v-3h-3v-3h-6v-3c-0.99-0.33-1.98-0.66-3-1-0.474-0.516-0.949-1.03-1.44-1.56-1.7-1.89-1.7-1.89-5.56-1.44v-3h-6v-3h-9v-3h-10v-3h-37z" fill="#000002"/>
<path transform="translate(850,719)" d="m0 0h275v90c-3.17 0.792-5.26 1.12-8.43 1.12-1.33 0.00299-1.33 0.00299-2.68 0.00603-0.969-0.00291-1.94-0.00583-2.94-0.00883-1.03 8.54e-4 -2.06 0.00171-3.13 0.00259-3.47 0.00165-6.94-0.00386-10.4-0.00932-2.48-2.82e-4 -4.97-1.24e-4 -7.45 4.43e-4 -5.35 2.28e-4 -10.7-0.00261-16.1-0.00824-7.74-0.00813-15.5-0.0107-23.2-0.012-12.6-0.00219-25.1-0.00884-37.7-0.0183-12.2-0.00918-24.4-0.0163-36.6-0.0205-0.752-2.63e-4 -1.5-5.25e-4 -2.28-7.96e-4 -3.77-0.00131-7.54-0.00257-11.3-0.00381-31.3-0.0104-62.6-0.0281-93.9-0.0503v2c-6.27 0.33-12.5 0.66-19 1v2c-5.94 0.495-5.94 0.495-12 1v2c-2.97 0.33-5.94 0.66-9 1-0.33 0.99-0.66 1.98-1 3h-6v3h-6v3h-4v3h-6v3h-3v3h-3v3c-1.98 0.33-3.96 0.66-6 1v3h-3v3h-3v3h-3v3h-3c-0.33 1.98-0.66 3.96-1 6h-3v3h-3v4h-3v6h-3c-0.124 0.969-0.247 1.94-0.375 2.94-0.309 1.52-0.309 1.52-0.625 3.06l-2 1c-0.165 0.825-0.33 1.65-0.5 2.5-0.165 0.825-0.33 1.65-0.5 2.5l-2 1c-0.658 3.03-0.658 3.03-1 6h-3v9h-3v12l-2 1c-0.33 15.5-0.66 31-1 47h3v12h3v9h3c0.33 2.97 0.66 5.94 1 9h2c0.33 2.31 0.66 4.62 1 7h3v3h2c0.33 1.98 0.66 3.96 1 6h3v4h3v5h3v4h3v3h3v3h3v3h4v3h3v3c1.98 0.33 3.96 0.66 6 1v3h3v3h4v3h5c0.33 0.66 0.66 1.32 1 2 3.03 0.658 3.03 0.658 6 1v3h6v3h6c0.33 0.99 0.66 1.98 1 3 3.63 0.33 7.26 0.66 11 1v2c5.28 0.33 10.6 0.66 16 1v2c101 0.33 203 0.66 307 1v2c5.94 0.33 11.9 0.66 18 1v3h13v3h9v3h9v3h7v3h6c0.33 0.99 0.66 1.98 1 3 1.3 0.124 2.6 0.247 3.94 0.375 2.21 0.211 2.21 0.211 4.06 0.625 0.33 0.66 0.66 1.32 1 2 0.99 0.33 1.98 0.66 3 1v2c1.98 0.33 3.96 0.66 6 1v3h6v3h4v3h5v3h4v3c1.98 0.33 3.96 0.66 6 1v3h3v3h3v3h3v3h4v3h3v3h3v3h3v3h3v3h3v4h3v3h3v3h3c0.33 1.98 0.66 3.96 1 6h3v3h2c0.33 1.32 0.66 2.64 1 4h2c0.33 1.98 0.66 3.96 1 6h3v3h3v6h3v6h3v6h3c0.186 1.45 0.186 1.45 0.375 2.94 0.206 1.01 0.412 2.02 0.625 3.06 0.66 0.33 1.32 0.66 2 1 0.333 1.67 0.667 3.33 1 5 0.66 0.33 1.32 0.66 2 1 0.414 2.07 0.414 2.07 0.625 4.56 0.0748 0.826 0.15 1.65 0.227 2.5 0.049 0.638 0.098 1.28 0.148 1.93 0.99 0.33 1.98 0.66 3 1v9h3v12h3v13h3c0.33 9.24 0.66 18.5 1 28h2v22h-2c-0.33 9.24-0.66 18.5-1 28h-3v15h-3v10h-3v9h-3c-0.33 2.97-0.66 5.94-1 9h-2c-0.33 2.31-0.66 4.62-1 7h-2c-0.33 1.98-0.66 3.96-1 6h-2c-0.124 0.969-0.247 1.94-0.375 2.94-0.206 1.01-0.412 2.02-0.625 3.06-0.66 0.33-1.32 0.66-2 1-0.656 2.53-0.656 2.53-1 5h-3v6h-3v4h-3v6h-3v3h-3c-0.33 1.98-0.66 3.96-1 6h-3v3c-0.66 0.33-1.32 0.66-2 1-0.33 0.99-0.66 1.98-1 3h-3v3h-3v3h-3v6c-0.99 0.33-1.98 0.66-3 1-0.33 0.66-0.66 1.32-1 2h-3v3h-3v3c-1.65 0.33-3.3 0.66-5 1-0.33 0.99-0.66 1.98-1 3h-3v3h-3v3h-3v3h-4v3h-5v3h-4v3c-1.98 0.33-3.96 0.66-6 1v2h-3v3c-1.98 0.33-3.96 0.66-6 1-0.33 0.99-0.66 1.98-1 3h-5v3h-7v3h-6v3c-2.97 0.33-5.94 0.66-9 1v2c-1.45 0.186-1.45 0.186-2.94 0.375-1.01 0.206-2.02 0.412-3.06 0.625-0.33 0.66-0.66 1.32-1 2h-9v3c-4.29 0.33-8.58 0.66-13 1v2c-4.96 1.32-9.91 1.09-15 1v2c-2.93 0.977-4.79 1.12-7.84 1.12-1.01 0.00225-2.01 0.00449-3.05 0.00681-1.11-0.00263-2.22-0.00525-3.36-0.00796-1.77 0.00173-1.77 0.00173-3.58 0.0035-3.3 0.0022-6.59-1.16e-4 -9.89-0.00428-3.58-0.00342-7.16-0.00107-10.7 5.77e-4 -6.28 0.00208-12.6 4.24e-4 -18.8-0.00364-9.34-0.00602-18.7-0.00634-28-0.00546-15.7 0.00132-31.4-0.00203-47.1-0.00802-15.6-0.00591-31.1-0.00976-46.7-0.0109-0.966-6.87e-5 -1.93-1.37e-4 -2.93-2.08e-4 -4.91-3.38e-4 -9.81-6.4e-4 -14.7-9.27e-4 -34.8-0.0021-69.5-0.00884-104-0.0183-33.8-0.00918-67.6-0.0163-101-0.0205-1.56-1.97e-4 -1.56-1.97e-4 -3.15-3.99e-4 -10.5-0.00132-20.9-0.00259-31.4-0.00384-21.3-0.00254-42.6-0.00536-63.9-0.00835-1.47-2.06e-4 -1.47-2.06e-4 -2.97-4.16e-4 -50.7-0.00713-101-0.0185-152-0.0308-0.713-1.73e-4 -1.43-3.47e-4 -2.16-5.25e-4 -14-0.00341-28-0.00702-42-0.0106v-90c2.9-0.966 4.71-1.12 7.73-1.12 0.98-0.00225 1.96-0.00449 2.97-0.00681 1.62 0.00394 1.62 0.00394 3.28 0.00796 1.15-0.00115 2.3-0.00231 3.48-0.0035 3.21-0.0022 6.42 1.15e-4 9.63 0.00428 3.49 0.00342 6.97 0.00107 10.5-5.77e-4 6.12-0.00208 12.2-4.24e-4 18.3 0.00364 9.09 0.00602 18.2 0.00634 27.3 0.00546 15.3-0.00132 30.6 0.00203 45.9 0.00802 15.2 0.00591 30.3 0.00976 45.5 0.0109 0.941 6.87e-5 1.88 1.37e-4 2.85 2.08e-4 4.78 3.38e-4 9.56 6.4e-4 14.3 9.27e-4 33.9 0.0021 67.7 0.00884 102 0.0183 32.9 0.00918 65.8 0.0163 98.7 0.0205 1.01 1.32e-4 2.03 2.63e-4 3.07 3.99e-4 10.2 0.00132 20.4 0.00259 30.6 0.00384 20.7 0.00254 41.5 0.00536 62.2 0.00835 1.43 2.06e-4 1.43 2.06e-4 2.89 4.16e-4 63.7 0.0092 127 0.0251 191 0.0419v-2c2.88-1.44 5.42-1.09 8.62-1.06 1.19 0.00902 2.38 0.018 3.6 0.0273 1.37 0.0174 1.37 0.0174 2.77 0.0352v-3h10v-3h9v-3h6v-3h6v-3c1.98-0.33 3.96-0.66 6-1 0.33-0.99 0.66-1.98 1-3h3v-2c3.3-3.12 4.32-4 9-4v-3h3v-3h3v-3h3v-3h3c0.33-1.32 0.66-2.64 1-4h2c0.33-1.65 0.66-3.3 1-5h3v-4h3v-3h3v-6h3v-6h3c0.33-1.98 0.66-3.96 1-6h2c0.33-2.31 0.66-4.62 1-7h2c0.33-2.97 0.66-5.94 1-9h2c0.33-4.29 0.66-8.58 1-13h2v-43c-0.66-0.33-1.32-0.66-2-1-0.312-2.55-0.513-5-0.625-7.56-0.058-1.07-0.058-1.07-0.117-2.15-0.0945-1.76-0.177-3.52-0.258-5.28h-2c-0.33-2.97-0.66-5.94-1-9h-2c-0.33-2.31-0.66-4.62-1-7h-3v-6h-3v-6h-3v-4h-3v-6h-3v-3h-3v-3h-3c-0.33-1.98-0.66-3.96-1-6h-3v-3h-3v-3c-1.98-0.33-3.96-0.66-6-1v-3h-3v-3h-3v-3h-4v-3h-6v-3c-1.98-0.33-3.96-0.66-6-1v-2c-1.32-0.33-2.64-0.66-4-1v-2c-1.3-0.124-2.6-0.247-3.94-0.375-2.21-0.211-2.21-0.211-4.06-0.625-0.33-0.66-0.66-1.32-1-2-3.03-0.658-3.03-0.658-6-1v-2c-3.96-0.33-7.92-0.66-12-1v-3h-19v-2c-101-0.33-202-0.66-306-1v-3h-16v-3c-0.615 0.0116-1.23 0.0232-1.86 0.0352-1.21 0.0135-1.21 0.0135-2.45 0.0273-0.801 0.0116-1.6 0.0232-2.43 0.0352-2.26-0.0977-2.26-0.0977-5.26-1.1v-2c-3.3-0.33-6.6-0.66-10-1v-2c-2.97-0.33-5.94-0.66-9-1v-3h-6c-0.33-0.66-0.66-1.32-1-2-3.03-0.658-3.03-0.658-6-1v-3h-6v-3h-6v-3h-6v-3c-1.32-0.33-2.64-0.66-4-1v-2c-1.98-0.33-3.96-0.66-6-1v-3h-3v-2c-1.98-0.33-3.96-0.66-6-1v-3h-3v-3h-3c-0.33-0.66-0.66-1.32-1-2-0.99-0.33-1.98-0.66-3-1v-3h-5c-0.33-0.99-0.66-1.98-1-3-2-2.37-2.97-2.99-6-4v-3h-3v-3h-3v-3h-3c-0.33-1.65-0.66-3.3-1-5-0.99-0.33-1.98-0.66-3-1v-3h-3v-3c-0.99-0.33-1.98-0.66-3-1v-3h-3v-5h-3v-4h-3v-3h-3v-6h-3c-0.33-1.98-0.66-3.96-1-6h-2c-0.33-1.98-0.66-3.96-1-6h-2c-0.33-0.99-0.66-1.98-1-3-0.66-0.33-1.32-0.66-2-1-0.414-2.07-0.414-2.07-0.625-4.56-0.112-1.24-0.112-1.24-0.227-2.5-0.0735-0.957-0.0735-0.957-0.148-1.93h-3v-6h-3v-7h-3v-9h-3v-12h-3v-13h-3c-0.33-8.25-0.66-16.5-1-25h-2v-34h2c0.33-7.26 0.66-14.5 1-22h2c0.33-5.28 0.66-10.6 1-16h3v-9c0.66-0.33 1.32-0.66 2-1 0.467-2.13 0.467-2.13 0.625-4.56 0.0748-0.826 0.15-1.65 0.227-2.5 0.0735-0.957 0.0735-0.957 0.148-1.93h3v-9h3v-6h3v-6c0.99-0.33 1.98-0.66 3-1 0.33-1.98 0.66-3.96 1-6h2c0.33-1.98 0.66-3.96 1-6h3v-6h3v-3h3v-6h3v-4h3c0.124-0.804 0.247-1.61 0.375-2.44 0.206-0.846 0.413-1.69 0.625-2.56 0.66-0.33 1.32-0.66 2-1 0.33-0.99 0.66-1.98 1-3h3v-3h3v-3c0.66-0.33 1.32-0.66 2-1 0.33-0.99 0.66-1.98 1-3h3v-3h3v-3h3v-3h3v-3h3v-3h3v-3h4v-3h3v-3h3v-3c1.98-0.33 3.96-0.66 6-1v-2h3v-3c1.98-0.33 3.96-0.66 6-1v-3h4v-3h6v-3h3v-3c1.45-0.186 1.45-0.186 2.94-0.375 1.01-0.206 2.02-0.413 3.06-0.625 0.33-0.66 0.66-1.32 1-2h6v-3c3.96-0.495 3.96-0.495 8-1v-2c3.47-0.495 3.47-0.495 7-1v-2c2.97-0.33 5.94-0.66 9-1 0.33-0.99 0.66-1.98 1-3h9v-3h13v-3h18v-3z" fill="#000002"/>
</svg>
