<?xml version="1.0" encoding="UTF-8"?>
<svg version="1.1" viewBox="0 0 1600 1600" width="1280" height="1280" xmlns="http://www.w3.org/2000/svg">
<path transform="translate(718,134)" d="m0 0c21-0.0467 41.9-0.082 62.9-0.104 9.73-0.0103 19.5-0.0244 29.2-0.0473 8.48-0.0199 17-0.0328 25.4-0.0373 4.49-0.00261 8.98-0.00878 13.5-0.0233 4.22-0.0135 8.45-0.0178 12.7-0.0148 1.55-5.52e-4 3.11-0.00456 4.66-0.0122 2.11-0.00989 4.23-0.00758 6.34-0.0021 1.78-0.00277 1.78-0.00277 3.59-0.00559 2.76 0.246 2.76 0.246 4.76 2.25 2.05 0.261 2.05 0.261 4.42 0.16 1.37-0.0176 1.37-0.0176 2.77-0.0356 0.99-0.0205 1.98-0.0409 3-0.062 8.47-0.0846 16.9-0.0225 25.4 0.312 0.956 0.031 1.91 0.062 2.9 0.094 0.901 0.0386 1.8 0.0772 2.73 0.117 0.786 0.0314 1.57 0.0628 2.38 0.0952 2.43 0.319 2.43 0.319 5.33 1.32 3.3 1.06 5.99 1.28 9.46 1.34 1.2 0.0296 2.4 0.0593 3.63 0.0898 1.86 0.0329 1.86 0.0329 3.76 0.0664 7.51 0.134 14.6 0.374 22 2.04 4.32 0.874 8.7 0.889 13.1 1.03 4.68 0.198 8.65 1.1 13.2 2.43 2.16 0.226 4.33 0.395 6.5 0.5 4.81 0.234 8.88 1.18 13.5 2.5 3.45 0.548 6.92 0.869 10.4 1.21 3.59 0.394 5.55 0.747 8.61 2.79 2.76 0.137 5.45-0.00345 8.21-0.125 3.03 0.136 5.03 0.92 7.79 2.12 2.33 0.368 4.66 0.702 7 1 0.581 0.146 1.16 0.291 1.76 0.441 3.14 0.783 6.31 1.34 9.49 1.93 4.2 0.809 8.27 1.65 12.2 3.25 3.6 1.41 6.67 1.91 10.5 2.38 5.49 0.963 10.7 2.12 16 4 0.602 0.143 1.2 0.286 1.82 0.434 3.57 0.93 6.97 2.32 10.4 3.63 2.59 0.88 5.07 1.44 7.75 1.94 7.47 2.49 14.9 5.1 22.2 8.12 3.38 1.39 6.71 2.42 10.2 3.31 6.57 1.69 12.5 4.54 18.6 7.56v2c0.516-0.248 1.03-0.495 1.56-0.75 3.27-0.335 4.99 1.08 7.7 2.77 2.19 1.24 4.27 1.58 6.73 1.98 2.16 0.914 3.82 1.86 5.63 3.34 3.18 2.23 6.65 3.7 10.2 5.28 6.1 2.8 12 5.82 17.8 9.25 0.973 0.572 0.973 0.572 1.97 1.15 1.53 0.93 3.01 1.94 4.47 2.97v2c0.722 0.103 1.44 0.206 2.19 0.312 3.13 0.765 5.13 1.92 7.81 3.69 1.43 0.942 1.43 0.942 2.9 1.9 4.36 2.95 8.69 5.93 13 8.95 3.48 2.41 7.02 4.7 10.6 6.96 0.499 0.393 0.998 0.786 1.51 1.19v2c1.02 0.309 1.02 0.309 2.06 0.625 3.3 1.55 5.53 3.48 8.19 5.94 1.82 1.5 3.61 2.46 5.75 3.44v2c0.722 0.227 1.44 0.454 2.19 0.688 3.4 1.59 5.26 3.57 7.81 6.31 1.66 1.67 3.33 3.34 5 5 1.05 1.05 2.1 2.1 3.16 3.16l1.66 1.66c1.68 1.68 3.35 3.35 5.03 5.03 0.536 0.536 1.07 1.07 1.62 1.62 1.38 1.38 2.76 2.76 4.13 4.14 1.6 1.6 3.21 3.2 4.83 4.79 7.65 7.57 14.6 15.5 21.4 23.9 0.864 1.05 0.864 1.05 1.75 2.12 0.544 0.668 1.09 1.34 1.65 2.02 0.49 0.598 0.979 1.2 1.48 1.81 1.35 1.85 2.3 3.74 3.31 5.8 0.986 1.01 1.99 2.01 3 3 1.1 1.5 2.16 3.02 3.19 4.56 0.53 0.785 1.06 1.57 1.61 2.38 1.21 2.06 1.21 2.06 1.21 4.06 0.99 0.33 1.98 0.66 3 1 1.11 1.61 1.11 1.61 2.19 3.75 2.13 4.04 4.41 7.93 6.81 11.8 0.688 1.11 1.38 2.23 2.09 3.38 1.1 1.76 2.2 3.51 3.33 5.25 3.05 4.72 5.51 9.62 7.98 14.7 1.63 3.19 3.4 6.26 5.23 9.34 3.35 5.66 6.02 11.4 8.44 17.5 1.89 5.02 1.89 5.02 4.94 9.31 0.0406 1.67 0.0427 3.33 0 5h2l0.988 3c0.441 1.33 0.883 2.67 1.32 4 0.213 0.648 0.427 1.3 0.646 1.96 1.33 4 2.75 7.96 4.24 11.9 1.52 4.06 2.93 8.16 4.36 12.3 0.304 0.868 0.607 1.74 0.92 2.63 0.843 2.41 1.68 4.83 2.52 7.25 0.37 1.05 0.74 2.11 1.12 3.2 1.33 4.26 2.18 8.61 3.1 13 0.561 2.94 0.561 2.94 2.78 4.83 0.552 2.34 1.02 4.7 1.44 7.06 0.942 5.09 2.1 9.93 3.87 14.8 1.08 3.33 1.66 6.73 2.26 10.2 0.242 1.96 0.242 1.96 1.43 2.97 0.285 3.07 0.449 6.14 0.621 9.21 0.111 2.92 0.111 2.92 2.38 4.79 0.412 2.26 0.733 4.53 1 6.81 0.524 4.86 0.524 4.86 1.97 9.48 1.21 3.19 1.62 6.13 2.03 9.51l0.5 3.96c0.167 1.37 0.334 2.74 0.5 4.11 0.327 2.69 0.661 5.37 1 8.05 0.144 1.19 0.289 2.38 0.438 3.6 0.584 3.6 1.54 6.97 2.56 10.5 0.244 1.45 0.451 2.91 0.598 4.37 0.0793 0.74 0.159 1.48 0.24 2.24 0.0741 0.748 0.148 1.5 0.225 2.27 0.0772 4.96 0.0772 4.96 1.94 9.12 0.133 1.6 0.203 3.2 0.246 4.8 0.0329 0.976 0.0657 1.95 0.0996 2.96 0.061 2.07 0.118 4.14 0.172 6.2 0.0512 1.47 0.0512 1.47 0.104 2.96 0.0376 1.35 0.0376 1.35 0.0759 2.73 0.161 2.61 0.161 2.61 2.3 5.34 0.287 2.61 0.287 2.61 0.344 5.74 0.0296 1.15 0.0593 2.3 0.0898 3.48 0.0329 1.81 0.0329 1.81 0.0664 3.65 0.13 6.92 0.33 13.7 1.5 20.5 1.27 7.57 1.42 15.1 1.57 22.8-0.687 14.9-0.687 14.9 2.44 28.9 0.0965 2.13 0.126 4.26 0.127 6.38 0.00234 0.994 0.00234 0.994 0.00473 2.01 4e-3 2.23 8.23e-4 4.46-0.00232 6.69 0.00135 1.59 0.00313 3.19 0.00531 4.78 0.00457 4.34 0.00279 8.68-3.79e-4 13-0.00253 4.53-1.86e-4 9.06 0.00139 13.6 0.00182 7.61-5.83e-4 15.2-0.00534 22.8-0.00544 8.81-0.00368 17.6 0.00183 26.4 0.00453 7.55 0.00518 15.1 0.00256 22.7-0.00156 4.52-0.00176 9.03 0.00154 13.5 0.00288 4.24 9.04e-4 8.49-0.00489 12.7-0.00133 1.56-9.33e-4 3.12 0.00126 4.69 0.00271 2.12-6.69e-4 4.25-0.00568 6.37-3.77e-4 1.19-7.54e-4 2.38-0.00114 3.61-0.126 2.65-0.126 2.65-1.13 3.65-1.23 7.51-1.22 15.2-1.44 22.8-0.292 9.12-0.853 18.1-1.83 27.2-1.16 11.3-1.4 22.6-1.74 34h-2c-0.0198 0.747-0.0396 1.49-0.0601 2.26-0.095 3.37-0.205 6.74-0.315 10.1-0.0309 1.18-0.0619 2.35-0.0938 3.56-0.0387 1.12-0.0773 2.24-0.117 3.4-0.0471 1.56-0.0471 1.56-0.0952 3.14-0.319 2.52-0.319 2.52-2.32 4.52-0.336 2-0.336 2-0.344 4.28-0.0296 0.842-0.0593 1.68-0.0898 2.55-0.0219 0.88-0.0438 1.76-0.0664 2.67-0.0433 1.74-0.095 3.48-0.156 5.22-0.0187 0.773-0.0374 1.55-0.0566 2.34-0.287 1.94-0.287 1.94-2.29 3.94-0.253 2.24-0.405 4.5-0.5 6.75-0.155 3.65-0.328 6.74-1.49 10.2-1.2 3.63-1.46 7.12-1.63 10.9-0.0387 0.688-0.0773 1.38-0.117 2.09-0.0933 1.68-0.177 3.36-0.258 5.04h-2c-0.121 1.12-0.242 2.24-0.367 3.39-0.169 1.47-0.338 2.95-0.508 4.42-0.0786 0.738-0.157 1.48-0.238 2.24-0.431 3.67-0.806 5.83-2.89 8.95-0.382 1.97-0.685 3.95-0.938 5.94-0.779 5.52-1.92 10.8-3.34 16.2-0.901 3.58-1.57 7.18-2.2 10.8-0.527 2.06-0.527 2.06-2.53 5.06-0.599 1.97-0.599 1.97-1 4.12-0.165 0.788-0.33 1.58-0.5 2.39-0.335 1.67-0.669 3.34-1 5.01-0.248 1.2-0.248 1.2-0.5 2.42-0.144 0.731-0.289 1.46-0.438 2.21-0.562 1.85-0.562 1.85-2.56 3.85-0.384 1.91-0.384 1.91-0.5 4-0.278 3.78-0.278 3.78-2.5 6-0.144 1.11-0.289 2.23-0.438 3.38-0.592 3.82-1.33 4.68-3.56 7.62-0.516 1.97-1.03 3.94-1.47 5.93-0.809 3.18-2.19 6.08-3.53 9.07-2.1 5.02-3.44 9.58-4 15-0.99 0.33-1.98 0.66-3 1-1.14 3.26-1.14 3.26-2 7-0.656 2-1.32 4-2 6h-2c-0.33 2.64-0.66 5.28-1 8-0.99 0.33-1.98 0.66-3 1-0.153 1.32-0.153 1.32-0.309 2.66-0.733 3.54-1.84 5.67-3.75 8.71-4.44 7.32-8.18 14.9-11.9 22.6h-2c-0.371 1.27-0.371 1.27-0.75 2.56-2.53 6.95-6.65 12.4-11 18.3-2.94 4.12-5.62 8.39-8.26 12.7-0.939 1.51-1.95 2.97-2.97 4.42h-2c-0.402 1.11-0.402 1.11-0.812 2.25-1.14 2.64-2.28 4.61-4.19 6.75h-2v2h-2c-0.402 1.11-0.402 1.11-0.812 2.25-1.14 2.64-2.28 4.61-4.19 6.75h-2c-0.66 1.65-1.32 3.3-2 5h-2c-0.248 0.557-0.495 1.11-0.75 1.69-2.83 5.24-6.84 8.8-11.3 12.6-3.63 3.14-6.85 6.54-9.95 10.2-6.86 8.05-6.86 8.05-10.7 9.56-2.92 1.18-3.01 2.17-4.31 4.94-1.64 1.37-3.31 2.7-5 4-0.86 0.706-1.72 1.41-2.61 2.14l-2.58 2.11c-0.86 0.706-1.72 1.41-2.61 2.14-2.21 1.61-2.21 1.61-4.21 1.61v2c-4.38 3-4.38 3-7 3v2c-0.639 0.103-1.28 0.206-1.94 0.312-0.681 0.227-1.36 0.454-2.06 0.688-0.33 0.99-0.66 1.98-1 3-5.22 3-5.22 3-8 3v2c-2.1 1.47-4.18 2.81-6.38 4.12-0.905 0.559-0.905 0.559-1.83 1.13-4.53 2.75-4.53 2.75-6.8 2.75v2c-1.29 0.672-2.58 1.34-3.88 2-0.719 0.371-1.44 0.742-2.18 1.12-1.95 0.875-1.95 0.875-3.95 0.875v2c-5.25 3.79-11 6.55-17 9-5.3 2.52-10.5 5.25-15.6 8.12-4.11 2.28-8.09 3.87-12.6 5.23-2.32 0.81-3.94 2.13-5.86 3.65-1.99 0.689-3.99 1.35-6 2-2.4 0.886-4.8 1.78-7.19 2.69-6.24 2.35-12.5 4.69-18.8 7-0.768 0.285-1.54 0.57-2.33 0.864-4.63 1.71-9.28 3.31-14 4.81-1.75 0.499-1.75 0.499-2.75 1.64-3.42 0.761-6.85 1.42-10.3 2.09-3.74 0.81-3.74 0.81-7.16 2.42-3.9 1.65-7.51 2.39-11.7 3.06-4.52 0.739-8.64 1.65-12.9 3.44-1.49 0.354-2.99 0.666-4.5 0.938-7.92 1.51-15.7 3.39-23.6 5.3-11.1 2.7-22.1 4.99-33.5 6.51-0.998 0.135-2 0.269-3.03 0.408-2.01 0.269-4.03 0.534-6.04 0.794-1.39 0.182-1.39 0.182-2.8 0.369-1.25 0.162-1.25 0.162-2.53 0.326-2.11 0.265-2.11 0.265-4.06 1.36-2.81 0.369-5.62 0.702-8.44 1-5.86 0.577-5.86 0.577-11.6 2-2.96 0.183-5.91 0.325-8.88 0.438-6.72 0.298-13.2 0.945-19.8 2.09-4.61 0.653-9.22 0.876-13.9 1.04-3.94 0.169-7.66 0.641-11.5 1.39-9.82 1.71-19.8 1.74-29.8 2.1-3.06 0.117-6.11 0.236-9.17 0.357-1.89 0.0742-3.78 0.146-5.66 0.214-4.94 0.188-9.85 0.482-14.8 0.874-7.17 0.516-14.3 0.64-21.5 0.638-1.98 0.00504-1.98 0.00504-3.99 0.0102-3.58 0.00873-7.15 0.0112-10.7 0.0118-2.25 7.18e-4 -4.51 0.00287-6.76 0.0055-7.91 0.00923-15.8 0.0133-23.7 0.0125-7.28-5.97e-4 -14.6 0.00988-21.9 0.0257-6.32 0.0133-12.6 0.0184-19 0.0178-3.74-2.5e-4 -7.49 0.00232-11.2 0.0132-17.7 0.0477-35.1-0.454-52.7-1.76-9.24-0.675-18.5-0.953-27.8-1.24-11.5-0.439-11.5-0.439-13.3-2.25-2.19-0.147-4.39-0.228-6.59-0.281-0.66-0.0184-1.32-0.0368-2-0.0558-2.12-0.0589-4.23-0.112-6.35-0.163-2.78-0.0676-5.56-0.141-8.34-0.219-1.86-0.0454-1.86-0.0454-3.76-0.0918-2.97-0.189-2.97-0.189-4.97-1.19v-2c-0.665 0.0105-1.33 0.0209-2.02 0.0317-3.04 0.0418-6.07 0.0677-9.11 0.0933-1.05 0.0168-2.09 0.0335-3.17 0.0508-5.4 0.0342-9.61-0.242-14.7-2.18-2.33-0.233-4.66-0.397-7-0.5-4.77-0.209-8.5-0.986-13-2.5-2.63-0.371-5.23-0.684-7.88-0.938-20.9-2.24-20.9-2.24-30.1-6.06-1.51-0.377-3.03-0.71-4.56-1-0.862-0.165-1.72-0.33-2.61-0.5-3.02-0.535-6.05-1.02-9.07-1.5-4.1-0.669-7.83-1.6-11.8-3-6-1.55-12.1-2.53-18.2-3.44-2.81-0.564-5.17-1.44-7.8-2.56-1.45-0.514-2.91-1.01-4.38-1.5-0.709-0.237-1.42-0.474-2.15-0.719-3.14-0.991-6.31-1.88-9.48-2.78-15.2-4.57-30.2-9.7-44.8-15.8-2.75-1.04-5.28-1.74-8.17-2.2v-2l-2.94-0.75c-3.72-1.06-7.15-2.54-10.7-4.15-1.89-0.86-3.79-1.68-5.7-2.48-3.92-1.67-7.72-3.56-11.5-5.49l-2.1-1.06c-1.38-0.697-2.77-1.39-4.15-2.09-2.64-1.33-5.29-2.65-7.93-3.97-1.33-0.667-2.67-1.33-4-2v-2l-2.46-0.688c-4.41-1.63-8.22-3.89-12.2-6.31l-2.3-1.37c-3.05-1.82-6.06-3.66-9.01-5.63v-2l-2.08-0.75c-3.42-1.46-6.52-3.3-9.67-5.25l-1.79-1.08c-4.34-2.67-4.34-2.67-5.46-4.92-1.43-0.863-2.89-1.67-4.38-2.44-2.99-1.55-5.46-2.94-7.62-5.56v-2c-0.547-0.251-1.09-0.503-1.66-0.762-2.79-1.48-5.28-3.21-7.84-5.05l-2.84-2.02c-2.67-2.18-4.56-4.45-6.66-7.17-1.64-1.5-1.64-1.5-3.25-2.69l-2.75-2.31v-2c-0.99-0.33-1.98-0.66-3-1v-2c-0.99-0.33-1.98-0.66-3-1-1.17-1.41-2.34-2.82-3.48-4.26-1.7-1.94-3.54-3.52-5.52-5.18-3.14-2.67-5.5-5.31-7.7-8.79-1.85-2.52-4.09-4.57-6.3-6.77-15-17.2-15-17.2-15-21-0.99-0.33-1.98-0.66-3-1-1.76-2.3-1.76-2.3-3.69-5.31-0.695-1.08-1.39-2.16-2.11-3.27-0.36-0.563-0.72-1.13-1.09-1.71-1.11-1.71-2.26-3.4-3.42-5.08-0.726-1.06-1.45-2.11-2.2-3.2l-2.03-2.94c-1.47-2.5-1.47-2.5-1.47-5.5h-2c-0.33-1.32-0.66-2.64-1-4h-2l-1-6h-2c-4-6.75-4-6.75-4-9h-2c-1.17-2.43-2.34-4.87-3.5-7.31-0.334-0.69-0.668-1.38-1.01-2.09-2.49-5.26-2.49-5.26-2.49-8.6h-2c-0.66-2.31-1.32-4.62-2-7h-2c-1.94-2.91-2.45-4.49-3.19-7.81-1.59-6.16-4.25-11.4-7.19-17-1.38-2.69-2.55-5.34-3.62-8.16l-0.781-1.96c-2.29-5.92-4.22-11.6-4.22-18h-2c-0.338-1.04-0.675-2.07-1.02-3.14-0.45-1.37-0.901-2.74-1.35-4.11-0.333-1.02-0.333-1.02-0.672-2.07-1.11-3.37-2.34-6.53-3.95-9.68-0.492-1.93-0.98-3.87-1.44-5.81-0.56-2.18-1.25-4.26-2-6.38-1.72-4.97-2.81-10.1-3.91-15.2-0.386-2.54-0.386-2.54-1.65-3.62-0.576-3.09-1.03-6.2-1.5-9.31-0.221-2.6-0.221-2.6-1.5-3.69-0.396-2.01-0.743-4.04-1.06-6.06-0.177-1.1-0.353-2.21-0.535-3.35-0.133-0.855-0.266-1.71-0.402-2.59h-1c-0.166-1.01-0.166-1.01-0.335-2.05-0.507-3.07-1.02-6.14-1.54-9.2l-0.527-3.22c-0.261-1.54-0.261-1.54-0.527-3.11l-0.476-2.86c-0.574-2.48-1.45-4.32-2.59-6.57-0.405-2.78-0.739-5.52-1-8.31-0.519-5.47-1.45-10.4-3-15.7-0.243-1.91-0.435-3.83-0.562-5.75-0.208-3.05-0.466-5.34-1.44-8.25-0.462-3.61-0.863-7.22-1.25-10.8-0.355-3.2-0.73-6.1-1.75-9.16-0.123-1.41-0.2-2.82-0.246-4.24-0.0329-0.82-0.0657-1.64-0.0996-2.49-0.0608-1.71-0.118-3.43-0.172-5.14l-0.104-2.5c-0.0251-0.745-0.0501-1.49-0.0759-2.26-0.234-2.5-0.234-2.5-1.29-5.2-1.16-3.62-1.41-6.83-1.61-10.6-0.0392-0.692-0.0784-1.38-0.119-2.1-0.123-2.19-0.235-4.39-0.346-6.58-0.116-2.2-0.234-4.4-0.357-6.6-0.11-1.99-0.213-3.98-0.315-5.98-0.21-2.61-0.56-4.8-1.27-7.3-1.17-11.8-1.29-23.7-1.61-35.5-0.0367-1.25-0.0735-2.5-0.111-3.79-0.0303-1.12-0.0606-2.24-0.0918-3.39-0.138-3.31-0.138-3.31-0.693-6.59-0.468-3.49-0.625-6.8-0.63-10.3-0.00426-1.29-0.00853-2.58-0.0129-3.9 3.49e-4 -1.41 8.11e-4 -2.82 0.00137-4.23-3e-3 -1.5-0.0064-3-0.0102-4.5-0.00881-4.06-0.0112-8.11-0.0118-12.2-7.12e-4 -2.54-0.00285-5.07-0.0055-7.61-0.00924-8.85-0.0133-17.7-0.0125-26.6 6.01e-4 -8.24-0.00997-16.5-0.0257-24.7-0.0131-7.09-0.0184-14.2-0.0178-21.3 2.55e-4 -4.23-0.00259-8.46-0.0132-12.7-0.00969-3.98-0.00976-7.95-0.00248-11.9 0.00104-1.46-0.00131-2.91-0.00736-4.37-0.00773-1.99-0.00187-3.98 0.00463-5.98-5.45e-4 -1.11-0.00109-2.23-0.00165-3.37 0.266-3.32 1.12-5.99 2.25-9.11 0.255-2.56 0.255-2.56 0.16-5.13-0.0117-0.962-0.0234-1.92-0.0354-2.92-0.0308-1.52-0.0308-1.52-0.0623-3.08-0.0839-8.1-0.032-16.2 0.375-24.2 0.0394-0.843 0.0788-1.69 0.119-2.56 0.314-5.81 0.314-5.81 1.44-8.07 0.202-2.44 0.352-4.86 0.465-7.31 0.0785-1.48 0.157-2.97 0.236-4.45 0.12-2.34 0.237-4.68 0.348-7.02 0.11-2.26 0.23-4.52 0.353-6.77 0.0303-0.7 0.0606-1.4 0.0918-2.12 0.201-3.59 0.459-5.25 2.51-8.32 0.334-2.3 0.334-2.3 0.344-4.86 0.0296-0.951 0.0593-1.9 0.0898-2.88 0.0219-0.993 0.0438-1.99 0.0664-3.01 0.145-6.47 0.559-12 2.5-18.2 0.461-2.78 0.766-5.57 1.06-8.38 0.808-7.5 0.808-7.5 1.94-8.62-0.018-1.24-0.0361-2.48-0.0547-3.75-0.066-6.17 0.933-12.1 1.93-18.2l0.527-3.44c0.174-1.08 0.348-2.16 0.527-3.28 0.236-1.47 0.236-1.47 0.476-2.97 0.594-2.38 0.594-2.38 2.59-4.38 0.416-2.17 0.735-4.37 1-6.56 0.864-6.6 1.81-13 4-19.3 1.17-3.65 1.78-7.28 2.43-11.1 1.44-7.79 3.31-15.5 5.57-23.1 0.153-0.628 0.307-1.26 0.465-1.9 0.57-2.23 1.25-4.41 1.97-6.6l0.746-2.28c0.816-2.22 0.816-2.22 1.88-4.27 1.15-2.14 1.15-2.14 1.43-5.57 0.5-3.38 0.5-3.38 2.5-5.38 0.688-1.94 1.3-3.9 1.88-5.88 2.88-9.66 5.97-19.1 9.98-28.3 1.19-2.78 1.19-2.78 2.08-5.68 1.49-4.32 3.5-8.36 5.5-12.5 1.51-3.16 2.77-6.17 3.66-9.56l0.906-3.09c0.66-0.33 1.32-0.66 2-1 0.495-1.24 0.495-1.24 1-2.5 1-2.5 1-2.5 3-3.5 0.673-2.33 1.34-4.67 2-7 0.951-1.7 1.95-3.36 3-5 1.02-1.99 2.02-3.99 3-6h2c0.135-0.534 0.271-1.07 0.41-1.62 1.64-5.67 4.08-9.85 7.57-14.6 2.3-3.17 4.42-6.43 6.52-9.73 0.379-0.592 0.759-1.18 1.15-1.79 1.81-2.83 3.6-5.66 5.37-8.5 0.611-0.975 1.22-1.95 1.85-2.95 0.534-0.86 1.07-1.72 1.62-2.61 1.36-1.99 2.74-3.58 4.51-5.21 0.66 0.33 1.32 0.66 2 1-0.33-0.99-0.66-1.98-1-3 0.937-1.63 0.937-1.63 2.43-3.41 0.544-0.656 1.09-1.31 1.65-1.99 0.593-0.695 1.19-1.39 1.8-2.11 0.596-0.715 1.19-1.43 1.81-2.17 1.2-1.44 2.41-2.88 3.63-4.32 2.24-2.67 4.44-5.37 6.63-8.07 1.35-1.65 2.71-3.29 4.06-4.94 0.529-0.654 1.06-1.31 1.6-1.98 3.16-3.83 6.61-6.99 10.4-10.2 2.02-1.83 3.75-3.74 5.5-5.82 2.89-3.4 5.97-6.31 9.38-9.2 3.14-2.67 6.18-5.44 9.24-8.2 1.88-1.6 1.88-1.6 3.88-2.6 0.639-0.681 1.28-1.36 1.94-2.06 3.4-3.49 7.39-6.17 11.3-8.97 2.64-1.91 5.18-3.92 7.72-5.96 5.48-4.06 11-7.73 17.1-10.9 1.99-1.19 3.28-2.51 4.91-4.14 7.01-4.89 14.5-9.01 22-13 1.46-0.78 2.91-1.56 4.37-2.34 1.54-0.825 3.09-1.65 4.63-2.47 0.743-0.398 1.49-0.795 2.25-1.2 0.701-0.372 1.4-0.744 2.12-1.13 0.626-0.334 1.25-0.667 1.9-1.01 1.73-0.844 1.73-0.844 4.73-1.84 2.53-1.06 3.9-1.88 5.69-4 2.74-2.37 4.99-2.61 8.48-3.24 4.99-1.34 9.55-3.75 14.2-6 5.76-2.79 11.6-5.12 17.6-7.07 5.24-1.7 10.3-3.59 15.4-5.69 8.95-3.68 18.1-6.51 27.5-9.08 2.94-0.609 2.94-0.609 4.09-1.92 2.77-0.541 5.53-1.04 8.31-1.5 1.54-0.259 3.08-0.519 4.61-0.781 0.685-0.114 1.37-0.228 2.08-0.346 2.85-0.531 5.37-1.06 7.97-2.37 2.19-1.08 4.12-1.55 6.51-2 0.853-0.165 1.71-0.33 2.59-0.5 0.884-0.165 1.77-0.33 2.68-0.5 6.14-1.17 12.2-2.46 18.2-4 2.5-0.51 5-0.977 7.51-1.44 2.57-0.528 2.57-0.528 5.27-1.55 3.17-0.998 6.03-1.48 9.32-1.83 1.13-0.124 2.26-0.249 3.43-0.377 1.17-0.122 2.33-0.244 3.54-0.369 2.32-0.249 4.65-0.501 6.97-0.754 1.02-0.108 2.05-0.215 3.11-0.326 2.66-0.332 5.24-0.795 7.86-1.36v-1c0.877-0.0752 0.877-0.0752 1.77-0.152 2.66-0.233 5.32-0.478 7.98-0.723 0.92-0.0786 1.84-0.157 2.79-0.238 1.33-0.126 1.33-0.126 2.7-0.254 0.817-0.0733 1.63-0.147 2.48-0.222 2.31-0.299 2.31-0.299 4.27-1.43 2.48-1.2 4.34-1.27 7.08-1.33 0.962-0.0296 1.92-0.0593 2.91-0.0898 3.02-0.0664 3.02-0.0664 6.05-0.133 0.962-0.0296 1.92-0.0593 2.91-0.0898 0.875-0.0187 1.75-0.0374 2.65-0.0566 2.57-0.306 4.13-1.13 6.41-2.29 2.12-0.0354 4.24-0.0604 6.36-0.0122 5 0.0232 9.97-0.495 14.9-0.925 1.07-0.087 2.14-0.174 3.24-0.264 5.22-0.348 5.22-0.348 10.3-1.3 2.17-0.511 4.12-0.659 6.35-0.716 0.828-0.0232 1.66-0.0463 2.51-0.0702 0.886-0.0198 1.77-0.0397 2.68-0.0602 1.38-0.0347 1.38-0.0347 2.78-0.0702 1.94-0.0476 3.87-0.0928 5.81-0.136 2.96-0.0671 5.93-0.145 8.89-0.224 1.88-0.0449 3.77-0.0892 5.65-0.133 0.886-0.0239 1.77-0.0478 2.68-0.0724 0.828-0.0169 1.66-0.0337 2.51-0.0511 0.725-0.017 1.45-0.0339 2.2-0.0514 2.14 0.0929 4 0.5 6.05 1.09-0.33-0.99-0.66-1.98-1-3zm-63 6v1h8v-1h-8zm283 0 4 1zm-573 80c-0.33 0.66-0.66 1.32-1 2h2c-0.33-0.66-0.66-1.32-1-2zm414 11.5c-8.19 0.535-16.4 0.648-24.6 0.727-1.37 0.0144-2.75 0.0288-4.12 0.0433-5.65 0.0581-11.3 0.113-17 0.147-17.4 0.11-34.5 0.858-51.8 2.9-6.33 0.745-12.6 1.16-19 1.4-2.98 0.121-5.35 0.342-8.2 1.29-1.61 0.192-3.22 0.342-4.84 0.465-0.971 0.0766-1.94 0.153-2.94 0.232-1.56 0.119-1.56 0.119-3.15 0.24-2.18 0.176-4.36 0.353-6.54 0.531-1.09 0.0889-2.19 0.178-3.32 0.27l-3.21 0.262c-0.965 0.0786-1.93 0.157-2.93 0.238-12.5 0.968-12.5 0.968-24.6 4.04-3.97 1.13-8.03 1.49-12.1 1.95-5.29 0.604-10.5 1.41-15.8 2.33-0.732 0.127-1.46 0.254-2.22 0.385-3.82 0.662-3.82 0.662-7.41 2.05-2.79 0.275-5.58 0.446-8.37 0.621-2.86 0.219-2.86 0.219-5.63 2.38-2.19 0.379-2.19 0.379-4.56 0.562-3.34 0.252-3.34 0.252-6.44 1.44v2c-1.01-0.0348-1.01-0.0348-2.05-0.0703-0.892-0.018-1.78-0.0361-2.7-0.0547-0.882-0.0232-1.76-0.0464-2.67-0.0703-2.76 0.209-4.16 0.915-6.58 2.2-1.84 0.46-3.7 0.871-5.56 1.25-13.9 3.09-27.2 7.89-40.5 13-2.05 0.783-4.11 1.54-6.18 2.29-6.72 2.45-13.3 4.97-19.6 8.39-2.21 1.08-2.21 1.08-4.99 1.98-3.89 1.33-7.44 3.1-11.1 4.98-1.35 0.685-2.7 1.37-4.05 2.05-0.662 0.337-1.32 0.675-2.01 1.02-3.35 1.7-6.71 3.37-10.1 5.05v2c-2.64 0.66-5.28 1.32-8 2v2l-2.44 0.625c-7.37 2.85-13.4 7.97-19.5 12.8-2.53 1.87-5.26 3.12-8.07 4.53-1.68 1.66-3.34 3.32-5 5-1.75 1.48-3.52 2.94-5.31 4.38-10.1 8.17-19.8 16.7-28.2 26.7-2.5 2.94-2.5 2.94-5.5 4.94v2l-1.81 0.75c-2.5 1.43-3.67 2.82-5.19 5.25v2c-0.99 0.33-1.98 0.66-3 1-1.23 3.01-1.23 3.01-2 6h-2c-2.82 3.11-4.84 6.43-6.85 10.1-1.75 2.89-3.86 5.48-5.98 8.11-1.45 1.86-1.45 1.86-1.17 4.8h-2c-1.46 2.65-2 3.89-2 7-0.874 0.28-0.874 0.28-1.77 0.566-3.22 2.07-4.4 5.01-5.98 8.37-0.316 0.634-0.632 1.27-0.957 1.92-1.41 2.89-2.29 4.89-2.29 8.14h-2c-0.326 0.652-0.652 1.3-0.988 1.98-0.437 0.874-0.874 1.75-1.32 2.65l-1.39 2.78c-0.96 1.91-1.94 3.82-2.93 5.72-1.37 2.86-2.48 5.72-3.57 8.69-1.9 5.14-3.95 10.2-6.14 15.2-2.32 5.36-4.27 10.1-4.67 15.9h-2c-1.14 2.29-1.1 3.59-1.06 6.12l0.0625 3.88h-2c-1.96 3.51-2.91 7.15-4 11-0.33 0.33-0.66 0.66-1 1-0.0715 1.35-0.084 2.71-0.0625 4.06l0.0625 3.94h-2c-1.53 3.07-1.39 6.3-1.62 9.69-0.379 2.31-0.379 2.31-2.38 4.31-0.388 2.33-0.388 2.33-0.5 4.94-0.217 3.69-0.381 4.88-2.5 8.06-0.382 2.15-0.382 2.15-0.5 4.44-0.171 2.52-0.347 4.26-1.5 6.53-1.21 2.45-1.38 4.44-1.57 7.16-0.34 4.68-0.34 4.68-1.44 6.88-0.527 3.21-0.961 6.42-1.4 9.64-0.598 3.36-0.598 3.36-1.64 6.26-1.2 3.86-1.29 7.4-1.4 11.4-0.227 5.56-0.757 10.2-2.87 15.4-1.3 4.38-1.28 8.95-1.48 13.5-0.211 2.84-0.211 2.84-1.21 3.84-0.216 1.91-0.371 3.83-0.5 5.75-0.0825 1.17-0.165 2.33-0.25 3.53-0.0825 1.23-0.165 2.45-0.25 3.72-0.162 2.42-0.329 4.83-0.5 7.25-0.0722 1.08-0.144 2.16-0.219 3.27-0.281 2.48-0.281 2.48-1.28 3.48-0.291 2.89-0.524 5.77-0.719 8.67-0.0628 0.875-0.126 1.75-0.19 2.65-0.201 2.81-0.397 5.62-0.591 8.43-0.195 2.8-0.391 5.59-0.591 8.39-0.125 1.74-0.246 3.48-0.364 5.23-0.0568 0.797-0.114 1.59-0.172 2.42-0.0481 0.696-0.0961 1.39-0.146 2.11-0.227 2.11-0.227 2.11-0.739 4.46-0.58 3.15-0.644 6.14-0.678 9.34-0.00829 0.651-0.0166 1.3-0.0251 1.97-0.0173 1.41-0.0325 2.81-0.0458 4.22-0.0211 2.22-0.0481 4.45-0.0767 6.67-0.0696 5.52-0.129 11-0.189 16.6-0.0509 4.67-0.106 9.34-0.166 14-0.0266 2.19-0.0474 4.39-0.068 6.58-0.0166 1.34-0.0335 2.68-0.0507 4.02-0.0125 1.17-0.0251 2.34-0.038 3.55-0.151 2.75-0.151 2.75-1.15 4.75-0.0918 2.15-0.118 4.31-0.114 6.47-1.46e-4 0.664-2.92e-4 1.33-4.43e-4 2.01 6.98e-4 2.2 0.00848 4.39 0.0163 6.59 0.00186 1.52 0.00329 3.04 0.00429 4.57 0.00382 4.01 0.0136 8.02 0.0247 12 0.0102 4.09 0.0148 8.18 0.0198 12.3 0.0107 8.02 0.0278 16 0.0488 24.1h2c-0.00444 0.754-0.00888 1.51-0.0135 2.28-0.0404 7.18-0.0707 14.4-0.0902 21.5-0.0103 3.69-0.0243 7.38-0.0473 11.1-0.0221 3.57-0.0338 7.15-0.0389 10.7-0.00538 2-0.0209 3.99-0.0368 5.99-9.7e-4 8.09 0.634 15.9 1.76 23.9 0.655 4.97 0.878 9.92 1.03 14.9-0.6 11.5-0.6 11.5 2.44 21.6 0.133 1.65 0.203 3.3 0.246 4.95 0.0329 1.01 0.0657 2.02 0.0996 3.07 0.0608 2.14 0.118 4.28 0.172 6.41l0.104 3.08c0.0251 0.931 0.0501 1.86 0.0759 2.82 0.326 2.86 1.21 5.01 2.3 7.66 0.379 2.34 0.379 2.34 0.562 4.72 0.0748 0.868 0.15 1.74 0.227 2.63 0.141 1.81 0.282 3.62 0.422 5.43 0.0748 0.867 0.15 1.73 0.227 2.63 0.0909 1.18 0.0909 1.18 0.184 2.38 0.269 2.23 0.269 2.23 1.37 4.13 1.29 2.65 1.5 4.97 1.79 7.91l0.363 3.42c0.117 1.17 0.235 2.35 0.355 3.56 0.701 6.95 1.4 13.5 3.5 20.2 0.74 3.5 1.33 7.04 1.94 10.6 0.369 3.51 0.369 3.51 2.06 6.43 0.284 2.81 0.448 5.62 0.621 8.43 0.142 2.73 0.142 2.73 2.38 4.57 0.492 1.93 0.492 1.93 0.875 4.31 0.761 4.18 1.83 8.14 3.12 12.2 1.25 3.93 2.32 7.76 3.06 11.8 1.04 5.65 3.02 10.7 5.38 15.9 1.45 3.3 2.47 6.68 3.5 10.1 2.19 7.28 4.93 14.2 8.06 21.1 2.29 5.08 4.15 10.3 6 15.6h2c0.0825 0.846 0.165 1.69 0.25 2.56 0.726 3.33 1.91 5.61 3.62 8.51 1.86 3.18 3.58 6.43 5.31 9.67 0.533 0.988 0.533 0.988 1.08 2 1.46 2.73 2.76 5.31 3.74 8.25h2c0.125 0.585 0.249 1.17 0.377 1.77 1.02 3.65 3.05 6.68 5 9.91l1.21 2.09c2.33 4.12 2.33 4.12 6.41 6.22 0.668 2 1.33 4 2 6 2.07 2.9 2.07 2.9 4.5 5.62 2.63 3.04 4.8 5.73 6.5 9.38 1.31 1.36 2.65 2.69 4 4 0.944 1.12 1.88 2.24 2.81 3.38 2.06 2.44 4.16 4.54 6.62 6.56 3.36 2.77 6.12 5.87 8.94 9.18 2.09 2.42 4.33 4.65 6.62 6.88l2.62 2.75c2.24 2.44 2.24 2.44 5.38 3.25v2c1.63 1.34 3.34 2.6 5.06 3.81l3.04 2.16 2.9 2.03c6.74 4.73 6.74 4.73 8.38 6.45 2.68 2.56 5.94 4.14 9.15 5.95 2.47 1.6 2.47 1.6 4.47 3.62 2.21 2.19 4.27 3.33 7.06 4.66l2.6 1.26c2.42 1.13 2.42 1.13 5.34 2.05v2c4.02 1.81 7.61 3.34 12 4v2c1.98 0.33 3.96 0.66 6 1v2l7 2v2l3.44 0.375c1.18 0.206 2.35 0.412 3.56 0.625 0.33 0.66 0.66 1.32 1 2 2.01 0.858 4.06 1.64 6.12 2.38 3.8 1.41 7.41 2.76 10.9 4.88 2.9 1.69 4.75 2.19 8 2.75 2.06 0.749 4.1 1.55 6.13 2.38 2.01 0.779 2.01 0.779 4.87 0.621v2c0.843 0.205 1.69 0.41 2.55 0.621l3.32 0.816c1.64 0.4 1.64 0.4 3.3 0.809 2.82 0.754 2.82 0.754 4.82 1.75l2.56 0.375c4.32 0.785 8.31 2.18 12.4 3.62 0.99 0.33 1.98 0.66 3 1 0.66-0.33 1.32-0.66 2-1 0.33 0.66 0.66 1.32 1 2 2.03 0.656 2.03 0.656 4.47 1.07 0.899 0.174 1.8 0.348 2.72 0.527 1.42 0.261 1.42 0.261 2.87 0.527 0.949 0.182 1.9 0.364 2.88 0.551 2.35 0.449 4.71 0.89 7.06 1.32v2c0.927 0.049 1.85 0.098 2.81 0.148 1.8 0.112 1.8 0.112 3.63 0.227 1.79 0.104 1.79 0.104 3.62 0.211 0.971 0.137 1.94 0.273 2.94 0.414 0.33 0.66 0.66 1.32 1 2 0.985-0.0387 1.97-0.0773 2.98-0.117 4.28 0.00215 8.14 0.951 12.3 1.99 7.32 1.75 14.5 2.81 22 3.35 4.08 0.334 7.7 0.998 11.6 2.26 5.32 1.7 10.5 2.23 16.1 2.64 1.84 0.145 3.69 0.294 5.53 0.445 1.2 0.0892 1.2 0.0892 2.43 0.18 2.11 0.25 2.11 0.25 5.11 1.25 3.31 0.227 6.62 0.392 9.93 0.518 3.18 0.158 5.89 0.419 8.89 1.52 3.83 1.16 7.09 1.05 11.1 0.977 5.66-0.0222 11.3 0.487 16.9 0.925 1.19 0.087 2.38 0.174 3.6 0.264 8.8 0.666 8.8 0.666 12.7 1.31 2.65 0.438 5.16 0.666 7.84 0.765 0.969 0.0367 1.94 0.0735 2.94 0.111 1.59 0.0532 1.59 0.0532 3.22 0.107 1.13 0.0406 2.26 0.0812 3.42 0.123 8.04 0.272 16.1 0.462 24.1 0.627 1.01 0.021 2.02 0.042 3.05 0.0636 5.09 0.105 10.2 0.204 15.3 0.294 1.9 0.037 3.79 0.0741 5.69 0.111 0.873 0.0135 1.75 0.0271 2.65 0.041 0.814 0.0168 1.63 0.0335 2.47 0.0508 0.707 0.0125 1.41 0.0251 2.14 0.038 2.13 0.151 2.13 0.151 4.58 0.661 2.63 0.505 4.95 0.581 7.62 0.528 0.986-0.0169 1.97-0.0337 2.99-0.0511 1.06-0.0239 2.12-0.0478 3.21-0.0724 1.66-0.0319 1.66-0.0319 3.35-0.0644 2.35-0.0462 4.69-0.0952 7.04-0.147 3.54-0.0769 7.07-0.145 10.6-0.211 14-0.278 14-0.278 28.1-1.04 7.57-0.497 15.1-0.495 22.7-0.445 1.25 0.00783 2.51 0.0157 3.8 0.0237 5.22 0.0367 10.4 0.079 15.6 0.14 3.85 0.0424 7.7 0.0658 11.6 0.0864 1.75 0.0279 1.75 0.0279 3.54 0.0564 6.01 0.0188 10.9-0.465 16.5-2.62 2.71-0.968 5.25-1.11 8.11-1.17 1.09-0.0309 2.19-0.0619 3.32-0.0938 1.67-0.0271 1.67-0.0271 3.38-0.0547 13.3 0.885 13.3 0.885 25.1-2.38 1.68-0.193 3.36-0.324 5.05-0.43 1.06-0.0715 2.13-0.143 3.22-0.217 1.15-0.0754 2.3-0.151 3.48-0.229 8.75-0.624 17.4-1.4 26.1-2.62 0.866-0.118 1.73-0.237 2.62-0.359 1.2-0.178 1.2-0.178 2.43-0.36 1.04-0.154 1.04-0.154 2.1-0.311 2.03-0.407 2.03-0.407 3.99-1.48 3.23-1.61 6.75-1.66 10.3-1.99 1.61-0.166 3.22-0.332 4.84-0.5 1.21-0.124 1.21-0.124 2.45-0.25 3.62-0.377 7.23-0.797 10.8-1.25 1.19-0.144 2.39-0.289 3.62-0.438 3.12-0.399 3.12-0.399 5.94-2.56 1.91-0.344 1.91-0.344 4.06-0.5 8.7-0.825 16.9-2.99 25.2-5.43 7.61-2.2 15.3-4.25 23-6.11 1.06-0.258 1.06-0.258 2.15-0.521 1.98-0.478 3.96-0.947 5.94-1.42 3.77-1.06 7.08-2.44 10.7-4.03 1.05-0.289 2.1-0.578 3.19-0.875 4.37-1.29 8.42-3.04 12.6-4.82 4.2-1.7 8.48-3.07 12.8-4.41 2.54-0.758 2.54-0.758 4.4-2.89 1.73-0.613 3.49-1.17 5.25-1.69 7.32-2.36 14-5.72 20.8-9.31 0.984-0.519 1.97-1.04 2.98-1.57 5.15-2.77 10.2-5.68 15.2-8.72 2.2-1.33 4.42-2.65 6.64-3.95 0.669-0.394 1.34-0.788 2.03-1.19 1.32-0.778 2.65-1.55 3.97-2.32 3.54-2.09 6.35-4.28 9.18-7.25 1.68-0.968 3.36-1.93 5.06-2.86 2.89-1.7 5.49-3.73 8.14-5.77 1.55-1.18 3.17-2.28 4.8-3.37v-2c0.556-0.224 1.11-0.449 1.68-0.68 4.01-2.28 6.84-5.87 9.98-9.2 2.34-2.12 2.34-2.12 5.34-2.12 0.227-0.557 0.454-1.11 0.688-1.69 2.03-3.57 5.02-6.08 7.97-8.89 1.48-1.44 2.91-2.93 4.34-4.42v-2c0.99-0.33 1.98-0.66 3-1 0.464-1.21 0.464-1.21 0.938-2.44 1.27-3.06 2.16-3.25 5.06-4.56 0.33-0.99 0.66-1.98 1-3 0.99-0.33 1.98-0.66 3-1 1.68-2.11 3.23-4.21 4.75-6.44l1.34-1.91c0.892-1.28 1.78-2.56 2.67-3.84 1.69-2.45 3.41-4.87 5.12-7.31 1.04-1.5 2.08-3 3.12-4.5 0.434-0.619 0.869-1.24 1.32-1.88 2.08-2.8 2.08-2.8 2.68-6.12h2c0.773-1.61 0.773-1.61 1.56-3.25 1.75-3.51 3.68-6.88 5.69-10.2 9.85-16.8 17.8-34.7 24.4-52.9 1.13-3.07 2.32-6.1 3.56-9.13 1.52-3.76 2.68-7.52 3.75-11.4 0.473-1.4 0.953-2.79 1.44-4.19 1.58-4.64 2.71-9.34 3.82-14.1 0.683-2.47 1.58-4.43 2.75-6.7 0.394-1.36 0.749-2.74 1.06-4.12 0.937-3.87 0.937-3.87 1.94-5.88 0.177-1.43 0.319-2.87 0.438-4.31 0.361-3.6 1.22-6.33 2.56-9.69 0.295-2.34 0.498-4.66 0.656-7.01 0.344-1.99 0.344-1.99 2.34-3.99 0.583-2.58 0.583-2.58 0.938-5.62 0.706-5.06 1.56-10.1 2.56-15.1 1.32-6.73 2.16-13.5 2.77-20.3 0.288-3.01 0.597-5.68 1.73-8.5 1.46-3.68 1.65-7.36 2-11.3 0.425-4.64 0.92-9.14 2.03-13.7 1.17-4.99 1.38-9.9 1.54-15 0.0598-1.77 0.123-3.54 0.191-5.31 0.0239-0.77 0.0479-1.54 0.0725-2.33 0.174-1.92 0.174-1.92 1.17-3.92 0.213-2.29 0.37-4.58 0.5-6.88 0.0406-0.686 0.0812-1.37 0.123-2.08 0.13-2.2 0.254-4.4 0.377-6.6 0.124-2.18 0.249-4.35 0.377-6.53 0.117-1.99 0.229-3.99 0.342-5.98 0.2-2.79 0.452-5.52 0.779-8.29 0.56-4.87 0.827-9.73 1.04-14.6 0.0417-0.944 0.0835-1.89 0.126-2.86 0.3-7.23 0.469-14.5 0.584-21.7 0.0167-1.04 0.0335-2.08 0.0507-3.15 0.0661-4.26 0.129-8.52 0.18-12.8 0.0395-3.17 0.0909-6.34 0.144-9.51 0.00841-0.965 0.0168-1.93 0.0255-2.93 0.0166-0.89 0.0333-1.78 0.0504-2.7 0.0103-0.78 0.0206-1.56 0.0312-2.36 0.272-2.03 0.272-2.03 2.27-5.03 0.291-2.81 0.291-2.81 0.227-6.03-1.51e-4 -1.24-3.02e-4 -2.48-4.58e-4 -3.76-0.0102-1.35-0.0206-2.71-0.0313-4.06-0.00373-1.39-0.00658-2.77-0.00858-4.16-0.00763-3.64-0.0273-7.29-0.0494-10.9-0.0205-3.72-0.0296-7.44-0.0397-11.2-0.0214-7.3-0.0556-14.6-0.0977-21.9h-2c-0.0103-0.645-0.0206-1.29-0.0312-1.95-0.11-6.82-0.224-13.6-0.341-20.4-0.0429-2.53-0.0846-5.06-0.125-7.59-0.428-28.1-0.428-28.1-2.57-56.1-0.805-7.95-1.12-15.8-0.864-23.8 0.0755-3.25 0.00848-5.92-1.03-9.02-1.53-4.62-1.51-9.19-1.66-14-0.0387-0.975-0.0773-1.95-0.117-2.95-0.0937-2.39-0.179-4.78-0.258-7.17h-1c-0.116-0.777-0.232-1.55-0.351-2.35-0.525-3.51-1.06-7.01-1.59-10.5-0.182-1.22-0.365-2.45-0.553-3.71-0.177-1.17-0.354-2.33-0.537-3.54-0.162-1.08-0.325-2.16-0.492-3.27-0.35-2.58-0.35-2.58-1.48-4.61-0.195-1.46-0.343-2.93-0.465-4.39-0.078-0.873-0.156-1.75-0.236-2.65-0.157-1.84-0.31-3.67-0.461-5.51-0.413-4.57-1.02-8.22-2.84-12.5-0.612-2.79-1.05-5.61-1.5-8.44-0.804-5.06-1.83-9.7-3.5-14.6-0.31-1.7-0.58-3.41-0.812-5.12-1.03-6.61-2.69-13-4.36-19.5-1.47-5.76-2.62-11.5-3.37-17.4-0.226-1-0.226-1-0.457-2.02-0.66-0.33-1.32-0.66-2-1-0.578-1.94-1.06-3.9-1.5-5.88-0.819-3.69-1.38-5.95-3.5-9.12 0.0206-0.763 0.0412-1.53 0.0625-2.31-0.0818-3.52-1.29-5.69-3.06-8.69-0.66-0.33-1.32-0.66-2-1-0.389-1.65-0.709-3.33-1-5-1.15-4.52-1.15-4.52-2.91-8.81-1.94-3.9-3.34-8.03-4.87-12.1-0.967-2.45-2.02-4.75-3.22-7.09-0.368-1.32-0.712-2.66-1-4h-2c-0.66-2.31-1.32-4.62-2-7h-2c-0.33-1.98-0.66-3.96-1-6h-2c-0.33-1.98-0.66-3.96-1-6h-2c-0.289-0.908-0.578-1.82-0.875-2.75-0.89-2.57-1.84-4.86-3.12-7.25h-2c-0.227-0.804-0.454-1.61-0.688-2.44-2.16-5.88-4.85-11.1-9.31-15.6-0.972-1.75-1.94-3.5-2.91-5.25-1.64-2.64-3.87-4.59-6.09-6.75-2.4-2.95-4.69-5.98-7-9-1.37-1.75-2.74-3.5-4.12-5.25-0.932-1.18-0.932-1.18-1.88-2.39-2.2-2.61-4.56-4.97-6.99-7.36-0.86-0.883-1.72-1.77-2.61-2.68-0.852-0.87-1.7-1.74-2.58-2.64-0.86-0.883-1.72-1.77-2.61-2.68-1.96-2.24-1.96-2.24-4.21-2.01-0.206-0.557-0.412-1.11-0.625-1.69-1.54-2.6-3.43-4.16-5.79-6.01-1.59-1.3-1.59-1.3-4.27-4.05-2.18-2.45-2.18-2.45-5.31-3.25v-2c-0.831-0.381-0.831-0.381-1.68-0.77-0.724-0.344-1.45-0.688-2.2-1.04-0.719-0.336-1.44-0.673-2.18-1.02-1.95-1.17-1.95-1.17-3.95-4.17h-2v-2l-3-1.62c-3.65-2.07-6.91-4.51-10.2-7.11-1.88-1.46-1.88-1.46-4.8-2.27l-3-3c-2.68-1.59-3.82-2-7-2v-2c-0.887-0.433-1.77-0.866-2.69-1.31-1.89-0.965-3.77-1.97-5.59-3.07-3.15-1.86-6.39-3.5-9.66-5.11-0.595-0.295-1.19-0.59-1.8-0.895-1.75-0.87-3.51-1.74-5.26-2.61-1.04-0.523-2.09-1.05-3.16-1.59-15-7.46-30.8-14.6-47.1-18.6-2.78-0.852-2.78-0.852-5.15-2.33-2.73-1.58-5.25-2.27-8.31-2.96-2.65-0.642-5.22-1.43-7.82-2.25-1.46-0.457-1.46-0.457-2.94-0.924-2-0.631-3.99-1.27-5.98-1.91-4.55-1.42-8.85-2.63-13.6-3.07-3.96-0.41-3.96-0.41-6.96-2.41-2.31-0.384-2.31-0.384-4.81-0.5-4.05-0.251-7.36-1.18-11.2-2.5-7.82-1.89-15.7-3.36-23.7-4.57-2.33-0.43-2.33-0.43-4.33-1.43-3.35-0.232-6.7-0.394-10.1-0.518-5.52-0.269-5.52-0.269-7.87-1.46-2.38-1.18-4.33-1.49-6.96-1.81-0.947-0.119-1.89-0.237-2.87-0.36-1.51-0.178-1.51-0.178-3.05-0.359-2.1-0.259-4.2-0.518-6.3-0.777-1.02-0.124-2.04-0.247-3.08-0.375-2.29-0.284-4.57-0.587-6.85-0.915-16.1-2.31-32.3-3.52-48.6-4.09-6.28-0.24-6.28-0.24-7.39-1.34-8.26-1.31-16.7-1.18-25.1-1.26-2.3-0.0213-4.6-0.0483-6.9-0.0767-5.7-0.0692-11.4-0.129-17.1-0.189-4.84-0.0509-9.69-0.106-14.5-0.166-2.27-0.0265-4.53-0.0474-6.8-0.068-1.38-0.0166-2.76-0.0335-4.14-0.0507-1.21-0.0125-2.41-0.0251-3.65-0.038-2.82-0.151-2.82-0.151-4.82-1.15-2.92-0.0997-5.83-0.14-8.75-0.133-0.887-9.57e-4 -1.77-0.00191-2.69-0.0029-1.89-6.82e-4 -3.78 0.00118-5.67 0.00534-2.83 0.00525-5.65 1.1e-4 -8.48-0.00635-8.29-0.00301-16.5 0.0741-24.8 0.621zm-580 175 1 3zm-3 6 1 3zm-6 15 1 2zm-6 15 1 2zm-3 9 1 2zm-7 22 1 2zm-3 9 1 2zm-6 20 1 4zm-3 11 1 3zm-3 14 1 4zm1181 1 1 3zm3 12 1 2zm-1187 2 1 4zm1190 11 1 3zm-1194 7v6h1v-6h-1zm1197 8v5h1v-5h-1zm-1200 9v8h1v-8h-1zm1203 7v5h1v-5h-1zm-1206 19 1 3zm1210 6v5h1v-5h-1zm-1216 43v11h1v-11h-1zm1222 14v6h1v-6h-1zm-1225 24v7h1v-7h-1zm1227 2 1 2zm1 5v17h1v-17h-1zm0 185v20h1v-20h-1zm-1228 21v7h1v-7h-1zm1227 1 1 3zm-2 25v5h1v-5h-1zm-1222 8v9h1v-9h-1zm1219 30 1 2zm-1 5 1 2zm-2 14v5h1v-5h-1zm-1210 8 1 2zm1209 0 1 2zm-3 12v10h1v-10h-1zm-1203 9v6h1v-6h-1zm1201 5 1 2zm-1 7v5h1v-5h-1zm-1197 7 1 3zm1191 23 1 3zm-1185 8 1 2zm1176 27c-0.33 0.66-0.66 1.32-1 2h2c-0.33-0.66-0.66-1.32-1-2zm-1169 2 1 3zm1166 7 1 2zm-1163 5 1 2zm1159 7 1 2zm-1156 3 1 2zm1154 1 1 2zm-4 12 1 2zm-3 6 1 3zm-16 35 1 2zm-3 6 1 2zm-55 72 1 2zm-660 104v1h5v-1h-5z" fill="#FC0803"/>
<path transform="translate(575,526)" d="m0 0c5.06 3.94 9.47 8.47 14 13 1.29 1.11 2.58 2.21 3.88 3.31 4.85 4.21 8.87 9 13 13.9 4.22 4.92 8.66 8.89 13.8 12.9 3.28 2.69 5.78 5.55 8.34 8.92v2c0.577 0.247 1.15 0.495 1.75 0.75 2.58 1.43 4.31 3.03 6.25 5.25v2c0.536 0.227 1.07 0.454 1.62 0.688 5.74 3.17 10.6 7.98 14.4 13.3v2c0.557 0.227 1.11 0.454 1.69 0.688 2.99 1.7 4.93 3.82 7.31 6.31 1.33 1.34 2.66 2.67 4 4 1.02 1.03 1.02 1.03 2.07 2.08 1.58 1.58 3.19 3.13 4.8 4.67 2.12 2.25 2.12 2.25 3.19 4.44 1.22 2.35 2.61 2.68 4.94 3.81 0.33 0.99 0.66 1.98 1 3 0.99 0.33 1.98 0.66 3 1 1.18 1.15 2.35 2.3 3.49 3.49 2.28 2.28 4.77 4.31 7.25 6.38 1.95 1.85 3.65 3.72 5.39 5.75 3.83 4.4 7.89 8.53 12 12.6 0.755 0.754 1.51 1.51 2.29 2.28 2.39 2.38 4.78 4.76 7.17 7.14 1.61 1.61 3.22 3.21 4.84 4.82 3.59 3.59 7.19 7.17 10.8 10.7 1.53 1.53 3.06 3.05 4.59 4.58 1.53 1.53 3.07 3.04 4.62 4.54 0.777 0.759 1.55 1.52 2.36 2.3 0.79 0.767 1.58 1.53 2.39 2.32 1.79 1.99 1.79 1.99 1.79 3.99 0.594 0.254 1.19 0.508 1.8 0.77 2.44 1.37 3.65 2.74 5.39 4.92 2.56 3.04 5.12 5.45 8.31 7.81 4.51 3.37 7.92 7.19 11.5 11.5 8.5 10.5 8.5 10.5 20 16.9 0.66 0.0412 1.32 0.0825 2 0.125v-2c1.61-1.33 1.61-1.33 3.75-2.81 3.36-2.44 5.76-4.84 8.25-8.19 1.67-1.67 3.33-3.33 5-5 0.763-0.949 1.53-1.9 2.31-2.88 4.01-4.9 9.03-8.79 13.9-12.8 2.67-2.31 4.61-4.58 6.75-7.38 3.89-4.73 7.94-8.91 12.6-12.9 4.87-4.34 9.4-9.06 14-13.7 1.46-1.48 2.93-2.95 4.41-4.42 0.722-0.722 1.44-1.44 2.19-2.19 0.928-0.928 1.86-1.86 2.81-2.81 0.636-0.647 1.27-1.29 1.93-1.96 0.684-0.694 1.37-1.39 2.07-2.1 0.639-0.651 1.28-1.3 1.94-1.97 2.06-1.96 2.06-1.96 4.57-3.91 2.55-2.1 4.33-4.23 6.3-6.87 4.48-5.74 9.58-10.1 15.2-14.6 3.17-2.76 5.76-5.75 8.42-8.99 0.5-0.519 1-1.04 1.52-1.57h2c0.34-0.835 0.34-0.835 0.688-1.69 1.69-2.98 3.83-4.94 6.31-7.31 1.13-1.14 2.25-2.29 3.38-3.44 2.29-2.3 4.62-4.44 7.12-6.5 3.26-2.74 5.97-5.79 8.73-9.03 1.8-2.07 3.66-4.07 5.58-6.04 0.563-0.577 1.13-1.15 1.71-1.75 1.48-1.25 1.48-1.25 3.48-1.25 0.33-0.99 0.66-1.98 1-3 4.32-4.77 4.32-4.77 8-6 0.686-1.32 1.35-2.66 2-4 3.29-4.35 6.93-7.8 11.1-11.3 1.64-1.43 3.2-2.95 4.74-4.48 2.22-2.22 4.38-3.78 7.19-5.19 0.268-0.577 0.536-1.15 0.812-1.75 1.58-3 3.74-4.92 6.19-7.25 0.784-0.804 1.57-1.61 2.38-2.44 2.56-2.5 5.22-4.79 7.95-7.1 1.4-1.22 2.74-2.52 4.05-3.84 8.35-8.35 15.3-14.7 27.6-15.1 10.9 0.46 18.9 4.08 27 11.4 7.92 9.38 10.9 19.8 10 32-1.82 8.48-5.4 15-12.1 20.4-3.89 3.33-7.13 7.38-10.3 11.4-2.42 3.09-3.78 4.4-7.59 5.19-1.28 1.98-1.28 1.98-2 4h-2c-0.33 0.99-0.66 1.98-1 3-1.38 1.32-1.38 1.32-3.12 2.69-2.72 2.24-5.04 4.55-7.31 7.25-2.98 3.51-6.21 6.49-9.71 9.48-3.43 2.95-6.45 6.11-9.35 9.59-2.37 2.84-4.85 5.42-7.5 8-1.08 1.14-1.08 1.14-2.19 2.31-1.81 1.69-1.81 1.69-3.81 1.69-0.33 0.99-0.66 1.98-1 3-1.71 1.65-1.71 1.65-3.81 3.38-3.15 2.66-5.68 5.34-8.19 8.62-1.64 1.69-3.31 3.35-5 5-1.38 1.37-2.75 2.75-4.12 4.12-1.29 1.29-2.58 2.58-3.88 3.88-0.508 0.519-1.02 1.04-1.54 1.57-1.51 1.47-3.08 2.78-4.71 4.11-3.32 2.82-6.1 5.9-8.91 9.22-2.6 2.96-5.41 5.69-8.24 8.43-1.69 1.59-1.69 1.59-2.6 3.66-0.578 0.268-1.16 0.536-1.75 0.812-5.18 2.73-8.77 7.91-12.6 12.3-3.16 3.59-6.55 6.82-10.2 9.91-5.34 4.54-9.95 9.61-14.6 14.9-2.22 2.48-4.54 4.83-6.92 7.14-0.598 0.619-1.2 1.24-1.81 1.88-1.94 1.89-3.94 3.62-6 5.38-3.54 3.06-6.58 6.35-9.61 9.91-2.07 2.41-4.31 4.62-6.58 6.84-0.592 0.614-1.18 1.23-1.79 1.86-0.938 0.967-0.938 0.967-1.89 1.95-0.581 0.605-1.16 1.21-1.76 1.83-1.55 1.36-1.55 1.36-3.55 1.36-0.249 0.587-0.498 1.17-0.754 1.78-1.42 2.53-2.96 3.93-5.18 5.79-2.95 2.47-2.95 2.47-5.69 5.15-1.37 1.29-1.37 1.29-3.37 1.29-1.56 4.39-1.56 4.39-2 9 0.98 1.35 1.98 2.68 3 4v2c0.835 0.309 0.835 0.309 1.69 0.625 2.6 1.55 4.05 3.45 5.9 5.81 1.48 1.64 2.94 2.73 4.79 3.94 3.62 2.44 6.22 5.39 9.01 8.72 1.69 2.05 1.69 2.05 4.05 4.34 3.01 3.01 5.75 6.22 8.5 9.48 2.18 2.21 4.4 3.51 7.06 5.09 1.55 1.61 1.55 1.61 2.88 3.31 2.59 3.18 5.38 5.71 8.61 8.23 1.73 1.66 2.48 3.31 3.52 5.46 1.32 1.01 2.66 2.01 4 3v2c0.835 0.371 0.835 0.371 1.69 0.75 4.8 2.59 8.01 5.96 11.3 10.2 0.866 0.835 0.866 0.835 1.75 1.69 1.25 1.31 1.25 1.31 1.25 3.31l1.69 0.688c2.97 1.68 4.97 3.85 7.31 6.31 1.14 1.08 1.14 1.08 2.31 2.19 1.69 1.81 1.69 1.81 1.69 3.81l1.77 0.781c2.41 1.32 4.05 2.77 5.98 4.72 0.614 0.608 1.23 1.22 1.86 1.84 1.39 1.66 1.39 1.66 1.39 3.66 0.639 0.268 1.28 0.536 1.94 0.812 2.06 1.19 2.06 1.19 3.06 4.19 0.99 0.33 1.98 0.66 3 1 1.18 1.15 2.35 2.3 3.49 3.49 2.28 2.28 4.77 4.31 7.25 6.38 1.96 1.85 3.66 3.73 5.41 5.77 3.74 4.29 7.7 8.3 11.8 12.3 1.48 1.47 2.96 2.94 4.44 4.41 2.31 2.29 4.62 4.57 6.94 6.85 2.25 2.22 4.5 4.45 6.74 6.68 0.7 0.686 1.4 1.37 2.12 2.08 0.957 0.952 0.957 0.952 1.93 1.92 0.565 0.558 1.13 1.12 1.71 1.69 1.21 1.44 1.21 1.44 1.21 3.44 0.584 0.269 1.17 0.539 1.77 0.816 5.83 3.1 10.2 7.97 14.2 13.1 5.93 7.46 13 13.7 20 20.1 25.3 23.6 25.3 23.6 26.2 38.4 0.369 11-2.33 19.3-9.78 27.4-2.38 2.12-2.38 2.12-4.38 2.12-0.33 0.99-0.66 1.98-1 3-9.51 6.1-19.9 6.21-31 5-3.5-1.18-6.21-2.59-9-5v-2c-0.804-0.268-1.61-0.536-2.44-0.812-0.846-0.392-1.69-0.784-2.56-1.19-0.33-0.99-0.66-1.98-1-3-0.557-0.268-1.11-0.536-1.69-0.812-3.35-1.72-5.94-4.27-8.31-7.19v-2c-0.552-0.227-1.1-0.454-1.67-0.688-3.02-1.7-5.14-3.86-7.58-6.31-0.892-0.887-1.78-1.77-2.7-2.69-2.05-2.31-2.05-2.31-2.05-4.31-0.536-0.206-1.07-0.412-1.62-0.625-3.29-1.91-5.97-4.42-8.38-7.38v-2c-0.552-0.227-1.1-0.454-1.67-0.688-3.02-1.7-5.14-3.86-7.58-6.31-0.892-0.887-1.78-1.77-2.7-2.69-2.05-2.31-2.05-2.31-2.05-4.31-0.99-0.33-1.98-0.66-3-1v-2h-2v-2c-0.639-0.268-1.28-0.536-1.94-0.812-2.06-1.19-2.06-1.19-3.06-4.19-1.33-0.673-2.66-1.34-4-2-1.69-1.55-3.33-3.17-4.94-4.81-0.834-0.852-1.67-1.7-2.53-2.58-1.25-1.29-1.25-1.29-2.54-2.61-0.909-0.87-1.82-1.74-2.75-2.64-2.25-2.36-2.25-2.36-3.25-5.36-1.32-0.696-2.65-1.36-4-2-1.34-1.16-2.64-2.37-3.89-3.62l-2.15-2.14c-0.73-0.737-1.46-1.47-2.21-2.23-0.745-0.737-1.49-1.47-2.26-2.23-0.704-0.706-1.41-1.41-2.13-2.14-0.645-0.647-1.29-1.29-1.95-1.96-1.41-1.66-1.41-1.66-1.41-3.66-0.639-0.268-1.28-0.536-1.94-0.812-2.06-1.19-2.06-1.19-3.06-4.19-1.33-0.678-2.66-1.34-4-2-1.65-1.49-3.25-3.03-4.81-4.61-0.912-0.918-1.82-1.84-2.76-2.78-0.955-0.972-1.91-1.94-2.87-2.92-0.951-0.961-1.9-1.92-2.85-2.88-1.76-1.78-3.52-3.56-5.28-5.34-3.38-3.42-6.77-6.83-10.2-10.2-2.19-2.31-2.19-2.31-2.19-4.31-0.59-0.264-1.18-0.529-1.79-0.801-2.29-1.24-3.77-2.53-5.59-4.39-0.607-0.623-1.21-1.25-1.84-1.89-1.64-1.77-3.19-3.57-4.72-5.43-2.06-2.45-4.19-4.56-6.62-6.62-5.64-4.79-10.8-10.1-15.9-15.4-3.07-3.1-6.15-6.18-9.3-9.2-2.19-2.31-2.19-2.31-2.19-4.31-0.558-0.231-1.12-0.461-1.69-0.699-2.92-1.65-4.91-3.71-7.25-6.11-0.834-0.852-1.67-1.7-2.53-2.58-1.25-1.29-1.25-1.29-2.54-2.61-2.58-2.59-5.17-5.16-7.81-7.69-2.19-2.31-2.19-2.31-2.19-4.31-0.619-0.289-1.24-0.578-1.88-0.875-2.12-1.12-2.12-1.12-4.12-3.12-6.51 0.673-10.3 5.32-14.3 10-5.42 6.38-5.42 6.38-8.89 8.06-2.38 1.23-2.69 2.55-3.81 4.94-1.8 2.01-3.74 3.78-5.79 5.53-4.25 3.62-8 7.37-11.6 11.6-2.08 2.41-4.31 4.63-6.59 6.85-0.722 0.763-1.44 1.53-2.19 2.31-1.81 1.69-1.81 1.69-3.81 1.69-0.33 0.99-0.66 1.98-1 3-1.45 1.39-1.45 1.39-3.25 2.81-3.4 2.8-5.98 5.76-8.75 9.19-1.65 1.69-3.31 3.36-5 5-0.722 0.763-1.44 1.53-2.19 2.31-1.81 1.69-1.81 1.69-3.81 1.69-0.33 0.99-0.66 1.98-1 3-1.71 1.65-1.71 1.65-3.81 3.38-3.15 2.66-5.68 5.34-8.19 8.62-1.64 1.69-3.31 3.35-5 5-1.38 1.37-2.75 2.75-4.12 4.12-1.29 1.29-2.58 2.58-3.88 3.88-0.508 0.519-1.02 1.04-1.54 1.57-1.51 1.47-3.08 2.78-4.71 4.11-3.32 2.82-6.1 5.9-8.91 9.22-2.6 2.96-5.41 5.69-8.24 8.43-1.69 1.59-1.69 1.59-2.6 3.66-0.577 0.247-1.15 0.495-1.75 0.75-2.58 1.43-3.96 3.25-5.76 5.54-2.29 2.63-4.97 4.78-7.62 7.03-2.24 2.02-4 4.32-5.86 6.68h-2c-0.255 0.594-0.51 1.19-0.773 1.8-1.35 2.43-2.7 3.65-4.85 5.39-4.01 3.37-7.35 7.08-10.7 11.1-0.549 0.568-1.1 1.14-1.66 1.72h-2c-0.227 0.557-0.454 1.11-0.688 1.69-2.48 4.38-6.4 7.4-10.2 10.6-3.51 3.04-6.53 6.3-9.53 9.84-2.08 2.41-4.31 4.63-6.59 6.85-0.722 0.763-1.44 1.53-2.19 2.31-1.81 1.69-1.81 1.69-3.81 1.69-0.433 0.897-0.433 0.897-0.875 1.81-1.96 3.81-3.4 5.32-7.12 7.19-1.18 1.58-1.18 1.58-2.38 3.19-5.58 6.61-13.7 10.6-22.2 11.4-8.11 0.354-15.4-0.086-22.4-4.58l-3.12-1.69c-3.99-3.21-7.08-7.03-9.88-11.3v-2h-2c-4.31-12.6-5.28-20.5 0-33 2.74-5.19 6.69-8.68 11.2-12.3 1.89-1.79 2.62-3.37 3.77-5.68 1.77-1.75 1.77-1.75 3.81-3.44 2.35-1.99 4.57-3.95 6.75-6.12 1.94-1.94 3.89-3.68 6-5.44 2.88-2.44 5.14-4.98 7.44-8 1.07-1.3 2.16-2.59 3.25-3.88 0.521-0.616 1.04-1.23 1.58-1.87 1.9-1.97 3.83-3.73 5.89-5.51 4.36-3.77 8.42-7.78 12.5-11.9 0.685-0.69 1.37-1.38 2.08-2.09 1.32-1.33 2.65-2.67 3.97-4 2.25-2.27 4.51-4.53 6.77-6.78 0.681-0.692 1.36-1.38 2.06-2.1 0.639-0.648 1.28-1.3 1.94-1.96 0.639-0.651 1.28-1.3 1.94-1.97 2.06-1.96 2.06-1.96 4.57-3.91 2.55-2.1 4.33-4.23 6.3-6.87 4.48-5.74 9.58-10.1 15.2-14.6 3.17-2.76 5.76-5.75 8.42-8.99 0.5-0.519 1-1.04 1.52-1.57h2c0.227-0.557 0.454-1.11 0.688-1.69 1.69-2.98 3.83-4.94 6.31-7.31 1.13-1.14 2.25-2.29 3.38-3.44 2.29-2.3 4.62-4.44 7.12-6.5 3.26-2.74 5.97-5.79 8.73-9.03 1.8-2.07 3.66-4.07 5.58-6.04 0.845-0.866 0.845-0.866 1.71-1.75 1.48-1.25 1.48-1.25 3.48-1.25 0.33-0.99 0.66-1.98 1-3 4.32-4.77 4.32-4.77 8-6 0.33-0.99 0.66-1.98 1-3 0.66-0.33 1.32-0.66 2-1 0.536-0.866 1.07-1.73 1.62-2.62 2.28-3.57 5.24-6.06 8.47-8.76 1.92-1.57 1.92-1.57 3.52-3.32 1.38-1.29 1.38-1.29 3.38-1.29 0.247-0.598 0.495-1.2 0.75-1.81 1.44-2.52 2.93-3.48 5.25-5.19 0.585-0.736 1.17-1.47 1.77-2.23 2.48-3.08 5.17-5.87 7.98-8.64 0.53-0.529 1.06-1.06 1.61-1.6 2.9-2.87 5.85-5.63 8.96-8.27 7.01-5.95 7.01-5.95 11.6-13.7 0.342-2.6 0.342-2.6-1.34-4.69-0.661-0.666-1.32-1.33-2-2.02-3.56-3.65-3.56-3.65-3.56-5.81-0.99-0.33-1.98-0.66-3-1-2.69-2.44-2.69-2.44-5-5v-2c-0.583-0.258-1.17-0.516-1.77-0.781-2.41-1.32-4.05-2.77-5.98-4.72-0.614-0.608-1.23-1.22-1.86-1.84-1.39-1.66-1.39-1.66-1.39-3.66-0.639-0.268-1.28-0.536-1.94-0.812-2.06-1.19-2.06-1.19-3.06-4.19-0.557-0.268-1.11-0.536-1.69-0.812-3.35-1.72-5.94-4.27-8.31-7.19v-2c-0.558-0.231-1.12-0.461-1.69-0.699-2.92-1.65-4.91-3.71-7.25-6.11-0.834-0.852-1.67-1.7-2.53-2.58-1.25-1.29-1.25-1.29-2.54-2.61-1.67-1.67-3.33-3.33-5-5l-20-20c-1.35-1.29-1.35-1.29-2.73-2.61-2.27-2.39-2.27-2.39-3.27-5.39-1.32-0.696-2.65-1.36-4-2-1.34-1.16-2.64-2.37-3.89-3.62-0.709-0.706-1.42-1.41-2.15-2.14-0.73-0.737-1.46-1.47-2.21-2.23-0.745-0.737-1.49-1.47-2.26-2.23-0.704-0.706-1.41-1.41-2.13-2.14-0.645-0.647-1.29-1.29-1.95-1.96-1.41-1.66-1.41-1.66-1.41-3.66-0.639-0.268-1.28-0.536-1.94-0.812-2.06-1.19-2.06-1.19-3.06-4.19-1.33-0.679-2.66-1.34-4-2-1.65-1.48-3.25-3.01-4.81-4.58-0.912-0.914-1.82-1.83-2.76-2.77-0.471-0.477-0.942-0.954-1.43-1.45-1.42-1.44-2.86-2.88-4.29-4.31-4.46-4.49-8.71-9-12.7-13.9-0.928-0.743-1.86-1.49-2.81-2.25-0.722-0.577-1.44-1.15-2.19-1.75v-2c-0.886-0.396-0.886-0.396-1.79-0.801-2.29-1.24-3.77-2.53-5.59-4.39-0.607-0.623-1.21-1.25-1.84-1.89-1.64-1.77-3.19-3.57-4.72-5.43-2.02-2.4-4.1-4.47-6.5-6.5-4.39-3.74-8.47-7.76-12.6-11.8-1.03-1.01-1.03-1.01-2.07-2.03-0.636-0.635-1.27-1.27-1.93-1.92-0.577-0.573-1.15-1.15-1.75-1.74-1.25-1.49-1.25-1.49-1.25-3.49-0.562-0.237-1.12-0.474-1.7-0.719-2.82-1.57-4.78-3.5-7.05-5.78-0.799-0.794-1.6-1.59-2.42-2.41-1.83-2.09-1.83-2.09-1.83-4.09-0.583-0.258-1.17-0.516-1.77-0.781-2.41-1.32-4.05-2.77-5.98-4.72-0.614-0.608-1.23-1.22-1.86-1.84-1.39-1.66-1.39-1.66-1.39-3.66-0.639-0.268-1.28-0.536-1.94-0.812-2.06-1.19-2.06-1.19-3.06-4.19-0.99-0.33-1.98-0.66-3-1-1.79-2.29-1.79-2.29-3.62-5.19-0.611-0.942-1.22-1.88-1.85-2.86-1.58-3.06-2.15-5.55-2.52-8.96h-1c-0.926-11.6 2.6-22 10-31 12.8-12.8 31-15.1 46-5z" fill="#FC0803"/>
<path transform="translate(775 134)" d="m0 0c1.68-0.00504 1.68-0.00504 3.39-0.0102 3.69-0.00948 7.38-0.0115 11.1-0.0125 2.56-0.00321 5.13-0.00658 7.69-0.0101 5.37-0.00598 10.7-0.00788 16.1-0.00725 6.21 6.02e-4 12.4-0.00999 18.6-0.0257 5.98-0.0146 12-0.0182 17.9-0.0176 2.54-0.00118 5.09-0.00563 7.63-0.0133 3.55-0.00974 7.09-0.00695 10.6-8.95e-4 1.06-0.00562 2.12-0.0112 3.21-0.017 0.962 0.00419 1.92 0.00839 2.91 0.0127 1.26-8.17e-4 1.26-8.17e-4 2.54-0.00165 2.03 0.249 2.03 0.249 4.03 2.25 2.05 0.261 2.05 0.261 4.42 0.16 1.37-0.0176 1.37-0.0176 2.77-0.0356 0.99-0.0205 1.98-0.0409 3-0.062 8.47-0.0846 16.9-0.0225 25.4 0.312 1.43 0.0465 1.43 0.0465 2.9 0.094 0.901 0.0386 1.8 0.0772 2.73 0.117 0.786 0.0314 1.57 0.0628 2.38 0.0952 2.43 0.319 2.43 0.319 5.33 1.32 3.3 1.06 5.99 1.28 9.46 1.34 1.2 0.0296 2.4 0.0593 3.63 0.0898 1.86 0.0329 1.86 0.0329 3.76 0.0664 7.51 0.134 14.6 0.374 22 2.04 4.32 0.874 8.7 0.889 13.1 1.03 4.68 0.198 8.65 1.1 13.2 2.43 2.16 0.226 4.33 0.395 6.5 0.5 4.81 0.234 8.88 1.18 13.5 2.5 3.45 0.548 6.92 0.869 10.4 1.21 3.59 0.394 5.55 0.747 8.61 2.79 2.76 0.137 5.45-0.00345 8.21-0.125 3.03 0.136 5.03 0.92 7.79 2.12 2.33 0.368 4.66 0.702 7 1 0.581 0.146 1.16 0.291 1.76 0.441 3.14 0.783 6.31 1.34 9.49 1.93 4.2 0.809 8.27 1.65 12.2 3.25 3.6 1.41 6.67 1.91 10.5 2.38 5.49 0.963 10.7 2.12 16 4 0.602 0.143 1.2 0.286 1.82 0.434 3.57 0.93 6.97 2.32 10.4 3.63 2.59 0.88 5.07 1.44 7.75 1.94 2.99 0.998 3.95 1.75 6 4l-8 2c1.98 1.98 1.98 1.98 4 4h-12c-0.66-1.65-1.32-3.3-2-5-1.22-0.0745-1.22-0.0745-3 1-2.35-0.305-2.35-0.305-5.06-0.875-0.898-0.183-1.8-0.366-2.72-0.555-2.21-0.57-2.21-0.57-3.21-1.57-0.66 0.33-1.32 0.66-2 1-2.03-0.707-2.03-0.707-4.5-1.81-5.09-2.14-10.1-3.31-15.5-4.19v-3c-1.32-0.33-2.64-0.66-4-1 0.33-0.99 0.66-1.98 1-3h-4v5c-2.62 0.75-2.62 0.75-6 1-3.06-1.88-3.06-1.88-6-4-2.73-0.782-2.73-0.782-5-1 0.33-0.66 0.66-1.32 1-2-1.65-0.66-3.3-1.32-5-2-0.66 0.66-1.32 1.32-2 2-1.67-0.333-3.33-0.667-5-1-0.66 0.66-1.32 1.32-2 2-0.887-0.309-1.77-0.619-2.69-0.938-2.78-0.892-5.44-1.56-8.31-2.06 0.66-0.66 1.32-1.32 2-2 0.33-1.32 0.66-2.64 1-4h-14v2c-2 2-2 2-4.14 2.01-0.88-0.107-1.76-0.214-2.67-0.324-5.47-0.615-10.9-1.04-16.4-1.41-2.75-0.281-2.75-0.281-5.75-1.28v-2c-1.98-0.99-3.96-1.98-6-3v-2c-1.65-0.33-3.3-0.66-5-1v3 1c-8.24 0.475-8.24 0.475-11.3-1.44-0.557-0.516-1.11-1.03-1.69-1.56-2.15-0.705-2.15-0.705-4-1 0.33 0.99 0.66 1.98 1 3h-5c-0.33-0.99-0.66-1.98-1-3 0.33-0.66 0.66-1.32 1-2-2.31-0.33-4.62-0.66-7-1 0.33-0.66 0.66-1.32 1-2-4.52-0.0292-9.04-0.0469-13.6-0.0625-1.28-0.00838-2.55-0.0168-3.87-0.0254-1.24-0.00322-2.48-0.00645-3.76-0.00977-1.14-0.00524-2.27-0.0105-3.44-0.0159-3.52 0.119-6.89 0.556-10.4 1.11 0.99 1.32 1.98 2.64 3 4-7.71 0.995-15.4 1.91-23 0h-4c-5.5 0-5.5 0-8-1-0.495-0.99-0.495-0.99-1-2-1.64-0.722-3.31-1.39-5-2v-3c-0.99 0.33-1.98 0.66-3 1v-3c-8.04-1.12-16-1.11-24.1-1.06-1.36 0.00503-2.71 0.00959-4.07 0.0137-3.29 0.0117-6.58 0.0281-9.87 0.0488-0.33 0.66-0.66 1.32-1 2-2.71 0.476-5.34 0.841-8.06 1.12-0.759 0.0864-1.52 0.173-2.3 0.262-1.88 0.213-3.76 0.414-5.64 0.613 0.99 0.66 1.98 1.32 3 2-6.91 1.11-13.6 1.02-20.6 0.75-1.1-0.0271-2.2-0.0541-3.33-0.082-6.19-0.231-10.6-0.987-16.1-3.67-3.01-0.522-3.01-0.522-5.88-0.625-5.04-0.288-5.04-0.288-6.12-1.38-2.52-0.399-5.03-0.751-7.56-1.06-0.711-0.0909-1.42-0.182-2.15-0.275-1.76-0.225-3.52-0.444-5.28-0.662v-1c5.73-1.22 11.4-1.15 17.2-1.15zm163 6.15 4 1z" fill="#F90807"/>
<path transform="translate(1427 1076)" d="m0 0c2.51 0.275 4.01 0.81 6.11 2.23 2.73 4.92 3.44 9.57 2 15-0.315 1.73-0.628 3.46-0.938 5.19-0.616 3.37-1.11 4.88-3.06 7.81-0.599 1.97-0.599 1.97-1 4.12-0.247 1.18-0.247 1.18-0.5 2.39-0.335 1.67-0.669 3.34-1 5.01-0.165 0.798-0.33 1.6-0.5 2.42-0.144 0.731-0.289 1.46-0.438 2.21-0.562 1.85-0.562 1.85-2.56 3.85-0.384 1.91-0.384 1.91-0.5 4-0.278 3.78-0.278 3.78-2.5 6-0.144 1.11-0.289 2.23-0.438 3.38-0.592 3.82-1.33 4.68-3.56 7.62-0.516 1.97-1.03 3.94-1.47 5.93-0.809 3.18-2.19 6.08-3.53 9.07-2.1 5.02-3.44 9.58-4 15-1.48 0.495-1.48 0.495-3 1-1.14 3.26-1.14 3.26-2 7-0.656 2-1.32 4-2 6h-2c-0.495 0.99-0.495 0.99-1 2 0.33-1.65 0.66-3.3 1-5-1.58 1.08-1.58 1.08-3 3-0.217 1.76-0.217 1.76-0.438 3.56-0.562 3.44-0.562 3.44-2.38 4.94-2.47 0.564-3.79 0.183-6.19-0.5-0.885-2.98-1.66-5.9-2-9 0.953-1.37 1.95-2.7 3-4-0.299-1.86-0.6-3.72-0.926-5.57-0.153-5.01 1.8-9.95 3.93-14.4 1.48-0.99 1.48-0.99 3-2 0.25-2.58 0.25-2.58 0-5h-2c0.61-3.56 1.58-6.68 3-10h2c0.495-0.99 0.495-0.99 1-2h6v-8h2v-7c2.47-0.495 2.47-0.495 5-1-0.99-0.66-1.98-1.32-3-2 0.142-1.42 0.289-2.83 0.438-4.25 0.122-1.18 0.122-1.18 0.246-2.39 0.781-5.82 0.781-5.82 3.32-8.36 0.196-2.64 0.196-2.64 0.0195-5.71-0.029-1.14-0.058-2.29-0.0879-3.47-0.0791-2.41-0.17-4.83-0.273-7.24-0.195-8.9-0.195-8.9 2.78-12.7 0.847-0.62 1.69-1.24 2.57-1.88 1.27-3.13 1.27-3.13 2-6 1.86-1.86 4.42-1.18 6.89-1.23z" fill="#F90807"/>
<path transform="translate(300,394)" d="m0 0c5.7 3.15 5.7 3.15 7 6.81 0 3.71-0.81 6.69-2 10.2-0.99-0.33-1.98-0.66-3-1-5.14 2.57-7.23 13.8-9 19-0.352 1.33-0.693 2.66-1 4h2c-1.75 6.75-1.75 6.75-4 9-0.725 1.64-1.38 3.32-2 5-0.995 2.67-1.99 5.34-3 8-0.322 0.857-0.645 1.71-0.977 2.6-0.507 1.31-0.507 1.31-1.02 2.65-0.309 0.81-0.619 1.62-0.938 2.45-1.1 2.38-2.42 4.26-4.06 6.3v-7h-3c-0.227 0.639-0.454 1.28-0.688 1.94-1.31 2.06-1.31 2.06-3.62 2.88-2.78 0.194-4.99-0.12-7.69-0.812-1.12-4.75-1.12-4.75 0-7h3v-4c-0.66-0.33-1.32-0.66-2-1 1.28-1.71 2.62-3.37 4-5h2c0.33-1.32 0.66-2.64 1-4 2.97-0.495 2.97-0.495 6-1v2h3c-0.474-0.433-0.949-0.866-1.44-1.31-1.56-1.69-1.56-1.69-2.56-4.69-0.99-0.33-1.98-0.66-3-1 0.308-1.81 0.621-3.63 0.938-5.44 0.174-1.01 0.348-2.02 0.527-3.06 0.535-2.5 0.535-2.5 1.54-3.5 3.06-0.161 5.06 0.0185 8 1-0.248-1.11-0.248-1.11-0.5-2.25-0.853-4.69-0.53-9.12 0.5-13.8 1.81-1.56 1.81-1.56 4-2 2.12 0.938 2.12 0.938 4 2 0.66-0.33 1.32-0.66 2-1-0.126-0.87-0.126-0.87-0.254-1.76-0.608-4.67-0.818-8.6 0.254-13.2 3.75-1.12 3.75-1.12 6 0v-2z" fill="#F90807"/>
<path transform="translate(264,492)" d="m0 0c0.124 0.804 0.248 1.61 0.375 2.44 0.206 0.846 0.413 1.69 0.625 2.56 0.66 0.33 1.32 0.66 2 1 0.125 2.88 0.125 2.88 0 6-0.66 0.66-1.32 1.32-2 2-0.458 1.97-0.458 1.97-0.625 4.12-0.124 1.28-0.248 2.56-0.375 3.88h-2c-0.049 0.843-0.098 1.69-0.148 2.55-0.0748 1.1-0.15 2.19-0.227 3.32-0.0696 1.09-0.139 2.18-0.211 3.3-0.414 2.82-0.414 2.82-2.41 4.82-0.343 2.53-0.442 5.04-0.559 7.59-0.508 2.77-1.29 3.67-3.44 5.41v-5c-0.99 0.495-0.99 0.495-2 1-2 0.04-4 0.0435-6 0-0.495-1.49-0.495-1.49-1-3-3.01-1.23-3.01-1.23-6-2 1.03-6.04 2.2-11.5 5-17 0.66-0.33 1.32-0.66 2-1 0.33 0.66 0.66 1.32 1 2 1.32-0.66 2.64-1.32 4-2v-3c0.66-0.33 1.32-0.66 2-1 0.08-3.52 0.0401-6.62-1-10h-2c-0.125-5.75-0.125-5.75 1-8 3.89-1.71 7.95-0.607 12 0z" fill="#F90807"/>
<path transform="translate(718,134)" d="m0 0c2.04-0.0273 4.08-0.0465 6.12-0.0625 1.14-0.0116 2.27-0.0232 3.45-0.0352 3.24 0.0923 6.25 0.484 9.43 1.1-1.32 0.66-2.64 1.32-4 2 0.495 2.97 0.495 2.97 1 6-0.831 0.11-1.66 0.219-2.52 0.332-1.09 0.159-2.17 0.317-3.29 0.48-1.08 0.151-2.16 0.302-3.27 0.457-2.92 0.451-2.92 0.451-4.38 2.29-2.52 2.35-5.08 1.76-8.42 1.69-1.82-0.0232-1.82-0.0232-3.68-0.0469-2.93-0.173-5.6-0.531-8.45-1.2v-2c-0.784-0.268-1.57-0.536-2.38-0.812-2.62-1.19-2.62-1.19-4.62-4.19-0.99 0.33-1.98 0.66-3 1-1.67 0.338-3.33 0.671-5 1-2.13 0.519-4.25 1.04-6.38 1.56-4.71 1.1-8.81 1.77-13.6 1.44v-3c-1.09 0.165-2.19 0.33-3.31 0.5-5.23 0.666-10.4 0.587-15.7 0.5-0.33-0.99-0.66-1.98-1-3 0.706-0.0553 1.41-0.111 2.14-0.168 3.2-0.253 6.41-0.511 9.61-0.77 1.11-0.087 2.22-0.174 3.37-0.264 1.07-0.087 2.14-0.174 3.24-0.264 0.985-0.0786 1.97-0.157 2.98-0.238 2.55-0.219 2.55-0.219 4.56-0.802 2.17-0.512 4.12-0.659 6.35-0.716 0.828-0.0232 1.66-0.0463 2.51-0.0702 0.886-0.0198 1.77-0.0397 2.68-0.0602 0.917-0.0232 1.83-0.0463 2.78-0.0702 1.94-0.0476 3.87-0.0928 5.81-0.136 2.96-0.0671 5.93-0.145 8.89-0.224 1.88-0.0449 3.77-0.0892 5.65-0.133 0.886-0.0239 1.77-0.0478 2.68-0.0724 0.828-0.0169 1.66-0.0337 2.51-0.0511 0.725-0.017 1.45-0.0339 2.2-0.0514 2.14 0.0929 4 0.5 6.05 1.09-0.495-1.49-0.495-1.49-1-3zm-63 6v1h8v-1h-8z" fill="#F90807"/>
<path transform="translate(845,1366)" d="m0 0c2 0.339 4 0.674 6 1-0.33 0.66-0.66 1.32-1 2-3.06 0.625-3.06 0.625-6 1v3c0.99 0.99 0.99 0.99 2 2v4c-2.31-0.33-4.62-0.66-7-1v-6c-2.31-0.66-4.62-1.32-7-2 0.186 0.784 0.371 1.57 0.562 2.38 0.438 2.62 0.438 2.62-0.562 4.62h5c-0.66 0.99-1.32 1.98-2 3-3.63-0.66-7.26-1.32-11-2v2c0.66 0.33 1.32 0.66 2 1-5.45 1.25-9.01 1.56-14-1-2.65-0.756-5.31-1.37-8-2-0.495-3.46-0.495-3.46-1-7 1.65-0.33 3.3-0.66 5-1-1.83-0.0297-1.83-0.0297-3.7-0.0601-4.53-0.0761-9.06-0.165-13.6-0.257-1.96-0.0383-3.92-0.0731-5.88-0.104-2.82-0.0457-5.64-0.104-8.46-0.164-0.876-0.0116-1.75-0.0231-2.66-0.035-0.821-0.0199-1.64-0.0397-2.49-0.0602-0.719-0.0133-1.44-0.0266-2.18-0.0404-2.34-0.32-3.99-1.12-6.04-2.28 4.42-0.78 7.65-0.892 12 0 1.71 0.0612 3.42 0.0708 5.13 0.0376 0.999-0.0169 2-0.0337 3.03-0.0511 1.07-0.0239 2.14-0.0478 3.24-0.0724 1.12-0.0212 2.23-0.0425 3.38-0.0644 2.36-0.0462 4.73-0.0952 7.09-0.147 3.58-0.0772 7.16-0.145 10.7-0.211 2.3-0.0463 4.61-0.0931 6.91-0.141 1.05-0.0198 2.11-0.0397 3.2-0.0602 6.49-0.147 12.9-0.551 19.4-1.18 2.85-0.107 5.13 0.226 7.89 0.891z" fill="#F80807"/>
<path transform="translate(216,714)" d="m0 0h1v6h2c0.814 5.69 1.16 11.2 1.12 16.9 0.00387 0.766 0.00773 1.53 0.0117 2.32-0.00994 5.61-0.00994 5.61-1.14 6.74 0.0902 2.19 0.247 4.38 0.438 6.56 0.102 1.2 0.204 2.4 0.309 3.63 0.0838 0.927 0.168 1.85 0.254 2.81 0.33-0.66 0.66-1.32 1-2 2.31 0.33 4.62 0.66 7 1 0.319 4.58 0.0362 7.44-3 11-2.61 0.133-2.61 0.133-5 0-0.755 8.36-1.14 16.6-1 25-2.47 0.495-2.47 0.495-5 1v-24h-1c-0.125-6.75-0.125-6.75 1-9-1.32-0.33-2.64-0.66-4-1v-3c0.99-0.495 0.99-0.495 2-1 0.729-1.98 0.729-1.98 1.19-4.31 0.269-1.17 0.269-1.17 0.543-2.36 0.28-2.42 0.0109-4.03-0.73-6.32 0.66 0.33 1.32 0.66 2 1-0.165-1.28-0.33-2.56-0.5-3.88-0.515-5.19-0.646-10.4-0.688-15.6-0.0129-0.793-0.0258-1.59-0.0391-2.4-0.0067-3.91 0.00945-5.83 2.23-9.16z" fill="#F90807"/>
<path transform="translate(1436,1039)" d="m0 0c3.69 0.498 5.6 1.1 8 4 0.66-0.99 1.32-1.98 2-3v9h-2c-0.121 1.12-0.242 2.24-0.367 3.39-0.169 1.47-0.338 2.95-0.508 4.42-0.118 1.11-0.118 1.11-0.238 2.24-0.431 3.67-0.806 5.83-2.89 8.95-0.456 2.51-0.456 2.51-0.625 5.19-0.0748 0.901-0.15 1.8-0.227 2.73-0.0735 1.03-0.0735 1.03-0.148 2.08h-1c-0.33-2.31-0.66-4.62-1-7-0.495 0.495-0.495 0.495-1 1-1.67 0.0406-3.33 0.0427-5 0-0.454-1.11-0.908-2.23-1.38-3.38-1.35-3.59-1.35-3.59-3.62-5.62-2-3-2-3-1.69-6.56 0.688-3.44 0.688-3.44 1.69-5.44 0.673-1.66 1.34-3.33 2-5h2c0.66-1.65 1.32-3.3 2-5h3c0.33-0.66 0.66-1.32 1-2z" fill="#F90807"/>
<path transform="translate(236,592)" d="m0 0c3.49 1.11 6.77 2.26 10 4 0.426 5.54-1.09 9.9-3 15h-1c-0.33-1.98-0.66-3.96-1-6-0.433 0.928-0.433 0.928-0.875 1.88-1.12 2.12-1.12 2.12-3.12 4.12 0.33 0.804 0.66 1.61 1 2.44 1.29 4.6 2.21 10.1 0 14.6h-2v4c-2.97 0.495-2.97 0.495-6 1v-3c-0.99-0.66-1.98-1.32-3-2v-3c-0.66-0.33-1.32-0.66-2-1 0.495-1.49 0.495-1.49 1-3 0.99-0.33 1.98-0.66 3-1-0.33-0.66-0.66-1.32-1-2h2v-16c-0.66-0.33-1.32-0.66-2-1h2c-0.33-0.99-0.66-1.98-1-3 0.33-0.66 0.66-1.32 1-2h6v-4z" fill="#F90807"/>
<path transform="translate(1376,1217)" d="m0 0c0.66 0.33 1.32 0.66 2 1 0.594 2.65 0.742 5.29 1 8-0.99 0.33-1.98 0.66-3 1-0.33 0.99-0.66 1.98-1 3-0.99 0.495-0.99 0.495-2 1-0.99 1.48-0.99 1.48-2 3 0.802 2.67 0.802 2.67 2 5-3.62 4.88-3.62 4.88-7 6-0.309 1.13-0.619 2.27-0.938 3.44-1.06 3.56-1.06 3.56-2.94 5-2.12 0.562-2.12 0.562-6.12 0.562-0.495-1.48-0.495-1.48-1-3-0.0825 0.784-0.165 1.57-0.25 2.38-0.75 2.62-0.75 2.62-2.81 3.94-0.639 0.227-1.28 0.454-1.94 0.688-1.12-3.31-1.12-3.31-2-7 0.66-0.99 1.32-1.98 2-3 0.33-0.99 0.66-1.98 1-3h3c-0.0838-0.626-0.168-1.25-0.254-1.9-0.153-1.23-0.153-1.23-0.309-2.48-0.104-0.812-0.209-1.62-0.316-2.46-0.121-2.16-0.121-2.16 0.879-4.16 1.58-0.0272 3.17-0.0465 4.75-0.0625 1.32-0.0174 1.32-0.0174 2.67-0.0352 2.36 0.0894 4.32 0.429 6.58 1.1-0.0464-0.652-0.0928-1.3-0.141-1.98-0.332-8.03-0.332-8.03 1.95-11.6 1.08-1.18 1.08-1.18 2.19-2.38h3c0.33-0.66 0.66-1.32 1-2z" fill="#F90807"/>
<path transform="translate(1396,405)" d="m0 0h4c0.268 0.701 0.536 1.4 0.812 2.12 2 5.31 2 5.31 5.19 9.88 0.0406 1.67 0.0427 3.33 0 5h2c0.338 1.02 0.675 2.05 1.02 3.11 0.45 1.36 0.901 2.72 1.35 4.08 0.222 0.674 0.443 1.35 0.672 2.04 1.21 3.64 2.48 7.23 3.95 10.8-5.62 3-5.62 3-9 3v-3h-2c-0.66-3.96-1.32-7.92-2-12h-3c-0.33-1.32-0.66-2.64-1-4-1.14 0.248-1.14 0.248-2.31 0.5-2.69 0.5-2.69 0.5-5.69 0.5-0.66-0.99-1.32-1.98-2-3h2c0.33-0.66 0.66-1.32 1-2 0.66-0.66 1.32-1.32 2-2 0.259-2.01 0.514-4.02 0.715-6.04 0.332-2.29 1.17-3.96 2.29-5.96v-3z" fill="#F90807"/>
<path transform="translate(1448 1e3)" d="m0 0c1.5 2.06 1.5 2.06 2 4h2c0.293 6.05 0.293 6.05 0 8-0.99 0.66-1.98 1.32-3 2-0.33 0.33-0.66 0.66-1 1-0.33 0.33-0.66 0.66-1 1-0.245 3.04-0.384 6.07-0.523 9.12-0.51 3.09-1.04 4.02-3.48 5.88-0.99-0.66-1.98-1.32-3-2-0.293-2.38-0.293-2.38-0.188-5.12 0.0406-1.37 0.0406-1.37 0.082-2.76 0.0348-0.699 0.0696-1.4 0.105-2.12h-7c-1.67-3.34-1.45-6.52-0.363-10.1 0.753-1.99 1.55-3.96 2.36-5.93 0.33-0.99 0.66-1.98 1-3 3.81-1.83 8.04-0.83 12 0z" fill="#F90807"/>
<path transform="translate(1174 190)" d="m0 0c1.23 0.64 2.46 1.28 3.69 1.94v2c0.516-0.248 1.03-0.495 1.56-0.75 3.27-0.335 4.99 1.08 7.7 2.77 2.19 1.24 4.27 1.58 6.73 1.98 2.26 0.958 4 2 5.94 3.5 2.25 1.64 4.45 2.56 7.06 3.5-0.33 0.66-0.66 1.32-1 2h-3c-0.495 2.47-0.495 2.47-1 5h-5c-0.495-1.49-0.495-1.49-1-3-2.43-1.22-4.42-1.32-7.12-1.56-0.91-0.0838-1.82-0.168-2.76-0.254-0.699-0.0606-1.4-0.121-2.12-0.184v-2c-2.64-0.99-5.28-1.98-8-3v-2c-1.65-0.33-3.3-0.66-5-1v-2.31c-0.702-2.79-0.702-2.79-2.85-3.69-2.04-0.747-4.06-1.42-6.15-2v-3c4.81-1.6 7.93-0.12 12.3 2.06z" fill="#F90807"/>
<path transform="translate(475 1322)" d="m0 0c1.78 0.713 1.78 0.713 3.59 1.44 1.19 0.473 2.38 0.946 3.6 1.43 0.915 0.373 1.83 0.745 2.77 1.13v2c0.592 0.049 1.18 0.098 1.79 0.148 4.46 0.422 8.07 1.06 12.2 2.85 1.99 0.376 3.99 0.72 6 1 0.495 1.98 0.495 1.98 1 4h-2c-0.33 0.66-0.66 1.32-1 2-1.33 0.667-2.67 1.33-4 2-0.33 0.66-0.66 1.32-1 2-2.38-0.25-2.38-0.25-5-1-0.66-1.32-1.32-2.64-2-4h-10v-2h-6c-0.289-0.619-0.577-1.24-0.875-1.88-1.06-2.26-1.06-2.26-3.12-4.12 0.66-0.33 1.32-0.66 2-1-2.97-0.495-2.97-0.495-6-1 3.64-6.45 3.64-6.45 8.04-5z" fill="#F90807"/>
<path transform="translate(490 168)" d="m0 0c1.13 0.0206 2.27 0.0412 3.44 0.0625v1c2.48 0.495 2.48 0.495 5 1-0.66 0.454-1.32 0.907-2 1.38-0.99 0.804-0.99 0.804-2 1.62v2c-1.65 0.33-3.3 0.66-5 1h5v2h-6v2h-2v2c-1.99 0.488-3.97 0.977-5.96 1.46-2.74 0.717-5.38 1.65-8.04 2.6-3 0.938-3 0.938-6 0.938v-2h2v-7c-0.66-0.33-1.32-0.66-2-1v-2c11.7-3.96 11.7-3.96 16.2-5.19 6.43-1.86 6.43-1.86 7.38-1.88z" fill="#F90807"/>
<path transform="translate(280,1136)" d="m0 0c4.88 4.4 6.21 10.7 7 17h2c0.716 1.73 1.43 3.45 2.15 5.18 0.92 2.09 0.92 2.09 2.85 4.82v4c-2.98 1.49-5.72 1.12-9 1-1-1-1-1-1.06-3.56 0.0206-0.804 0.0412-1.61 0.0625-2.44-0.99-0.33-1.98-0.66-3-1v-5c-1.98-0.33-3.96-0.66-6-1 0.33-2.64 0.66-5.28 1-8-0.66-0.33-1.32-0.66-2-1 0.33-1.65 0.66-3.3 1-5h3v-4c0.66-0.33 1.32-0.66 2-1z" fill="#F90807"/>
<path transform="translate(412,196)" d="m0 0 2 1c0.625 2.06 0.625 2.06 1 4-0.639 0.227-1.28 0.454-1.94 0.688-2.33 1.17-2.33 1.17-2.81 3.94-0.0825 0.784-0.165 1.57-0.25 2.38-6.75 0.125-6.75 0.125-9-1v4c-1.58 0.217-1.58 0.217-3.19 0.438-2.97 0.438-5.88 0.941-8.81 1.56 0.99 1.32 1.98 2.64 3 4h-3v2c-0.928-0.526-0.928-0.526-1.88-1.06-0.701-0.309-1.4-0.619-2.12-0.938-0.66 0.33-1.32 0.66-2 1v-2h-2v-5c1.44-0.816 2.87-1.63 4.31-2.44 0.801-0.452 1.6-0.905 2.43-1.37 2.26-1.19 2.26-1.19 5.26-2.19 2.53-1.06 3.9-1.88 5.69-4 2.96-2.56 5.5-2.93 9.29-3.61 2.08-0.312 2.08-0.312 4.02-1.39z" fill="#F90807"/>
<path transform="translate(1115 1413)" d="m0 0c4.71 0.0785 9.2 0.256 13.8 1.23-0.33 1.65-0.66 3.3-1 5 3.46 1.48 3.46 1.48 7 3-2.66 3.47-5.57 3.75-9.75 4.5-5.78 1.11-5.78 1.11-11.2 3.19-3.25 1.42-5.49 1.57-9 1.31 2.57-2.57 4.48-2.54 8-3-0.485-3.46-0.977-6.89-1.69-10.3-0.103-0.887-0.206-1.77-0.312-2.69 2-2 2-2 4.17-2.23z" fill="#F90807"/>
<path transform="translate(1323 1295)" d="m0 0c1.21 0.0309 1.21 0.0309 2.44 0.0625 0.359 6.22 0.359 6.22-1.12 9.44-2.63 2.19-4.56 1.86-7.88 1.56 0.33 1.32 0.66 2.64 1 4-3.62 3-3.62 3-7 3v3c-0.625 2.62-0.625 2.62-2 5-3.12 0.812-3.12 0.812-6 1v-2c-1.32-0.66-2.64-1.32-4-2h2c0.224-0.735 0.449-1.47 0.68-2.23 1.61-3.38 3.52-4.84 6.45-7.15 3.53-2.86 3.53-2.86 5.53-6.76 0.0274-2.11 0.0274-2.11-0.656-4.86h3c2.9-0.596 4.73-1.99 7.56-2.06z" fill="#F90908"/>
<path transform="translate(635,140)" d="m0 0c0.99 0.66 1.98 1.32 3 2h-2v2h2v2c-4.29-0.33-8.58-0.66-13-1-0.33 0.99-0.66 1.98-1 3-1.16 0.0561-1.16 0.0561-2.35 0.113-8.36 0.509-16.6 1.46-24.6 3.89-0.33 0.66-0.66 1.32-1 2-2.67-0.458-5-0.998-7.5-2.06-2.68-1-4.67-1.1-7.5-0.938 0.639-0.289 1.28-0.577 1.94-0.875 2.21-0.953 2.21-0.953 3.06-3.12 1.89-0.379 1.89-0.379 4.33-0.562 0.881-0.0748 1.76-0.15 2.67-0.227 0.927-0.0696 1.85-0.139 2.81-0.211 1.82-0.138 3.64-0.284 5.46-0.438 1.22-0.0909 1.22-0.0909 2.46-0.184 2.3-0.264 2.3-0.264 4.25-1.39 2.49-1.21 4.36-1.27 7.12-1.33 1.45-0.0445 1.45-0.0445 2.93-0.0898 2.03-0.0444 4.06-0.0886 6.09-0.133 1.45-0.0445 1.45-0.0445 2.92-0.0898 1.32-0.028 1.32-0.028 2.67-0.0566 2.57-0.148 2.57-0.148 5.3-2.29z" fill="#F60807"/>
<path transform="translate(261,1079)" d="m0 0c1.76 3.18 2.63 6.22 3.44 9.75 1.36 5.63 2.99 10.9 5.45 16.2 2.17 4.66 2.17 4.66 1.8 7.54-0.227 0.516-0.454 1.03-0.688 1.56v-3c-0.99 0.495-0.99 0.495-2 1-5.36 0.408-10.1 0.447-15-2h-2v-3c0.99-0.66 1.98-1.32 3-2v-1h5c-0.186-0.557-0.371-1.11-0.562-1.69-0.522-2.76-9.7e-5 -4.56 0.562-7.31 0.0896-2.67 0.0454-5.32 0-8h2c-0.33-0.66-0.66-1.32-1-2-0.04-2-0.0435-4 0-6z" fill="#F90807"/>
<path transform="translate(1446,816)" d="m0 0h1c0.33 4.62 0.66 9.24 1 14 0.66-0.33 1.32-0.66 2-1 1.43 5.9 1.91 11.5-1 17-0.66 0.33-1.32 0.66-2 1h3c0.264 7.92 0.264 7.92-2 12 0.33 0.99 0.66 1.98 1 3-3-1-3-1-4.66-4.05-2.08-6.11-1.78-12.6-1.73-18.9 0.0162-2.19 5.74e-5 -4.38-0.019-6.58 0.00198-1.41 0.00582-2.81 0.0117-4.22 0.00338-1.26 0.00677-2.53 0.0103-3.83 0.412-3.58 1.24-5.51 3.39-8.38z" fill="#F90807"/>
<path transform="translate(226,969)" d="m0 0c8.05 0.805 8.05 0.805 12 3h3c1.14 3.42 1.1 6.09 1.06 9.69-0.00902 1.18-0.018 2.36-0.0273 3.57-0.0116 0.904-0.0232 1.81-0.0352 2.74-0.33-0.66-0.66-1.32-1-2h-2c0.33 0.866 0.66 1.73 1 2.62 0.987 3.33 1.16 5.93 1 9.38-1.94 0.562-1.94 0.562-4 1-1.81-1.81-1.26-4.68-1.38-7.12-0.365-5.36-1.11-9.16-3.62-13.9-0.33-0.66-0.66-1.32-1-2h-3c-1.34-0.306-2.68-0.635-4-1 0.66-1.98 1.32-3.96 2-6z" fill="#F90807"/>
<path transform="translate(554,1346)" d="m0 0c5.77-0.248 10.8 0.663 16.4 2 1.24 0.286 1.24 0.286 2.51 0.578 2.02 0.467 4.04 0.944 6.06 1.42v3c-2.93 0.976-4.96 1.08-8 1v3c-5.95 1.98-11.3 1.32-17-1-0.66-0.33-1.32-0.66-2-1v-6c1.65-0.33 3.3-0.66 5-1-0.99-0.66-1.98-1.32-3-2z" fill="#F90807"/>
<path transform="translate(215,855)" d="m0 0h2v2c0.66 0.33 1.32 0.66 2 1-0.33 0.99-0.66 1.98-1 3 1.32 0.33 2.64 0.66 4 1h-5v13h2c0.0424 2.33 0.0409 4.67 0 7-0.33 0.33-0.66 0.66-1 1-0.0408 2-0.0425 4 0 6-0.66-0.33-1.32-0.66-2-1v-3c-0.66 0.66-1.32 1.32-2 2-0.182-0.592-0.364-1.18-0.551-1.79-2-6.45-2-6.45-5.45-12.2h-3-2v-4c1.32 0.33 2.64 0.66 4 1v-2c1.18-0.34 1.18-0.34 2.38-0.688 2.77-1.08 2.77-1.08 3.88-3.56 0.792-2.9 1.33-5.77 1.75-8.75z" fill="#F90807"/>
<path transform="translate(1384,376)" d="m0 0c2.21 2.04 3.66 3.93 5.01 6.62 0.347 0.69 0.694 1.38 1.05 2.09 0.352 0.715 0.704 1.43 1.07 2.17 0.36 0.708 0.719 1.42 1.09 2.14 1.81 3.64 3.26 6.9 3.79 11-6 2-6 2-8.12 1.5-1.88-1.5-1.88-1.5-2.62-5.12-0.124-1.67-0.124-1.67-0.25-3.38h-2c-1.64-4.7-3-9-3-14h2c0.33-0.66 0.66-1.32 1-2 0.33-0.33 0.66-0.66 1-1z" fill="#F90807"/>
<path transform="translate(1182,1389)" d="m0 0c1.32 0.33 2.64 0.66 4 1 0.0374 0.699 0.0748 1.4 0.113 2.12 0.0986 1.37 0.0986 1.37 0.199 2.76 0.058 0.905 0.116 1.81 0.176 2.74 0.3 2.75 0.3 2.75 3.51 4.38-4.85 2.61-9.77 4.36-15 6v-4h-4v-2c-0.99-0.33-1.98-0.66-3-1v-6c0.922 0.108 0.922 0.108 1.86 0.219 0.808 0.0928 1.62 0.186 2.45 0.281 1.2 0.139 1.2 0.139 2.43 0.281 2.38 0.267 2.38 0.267 5.26 0.219 0.66-2.31 1.32-4.62 2-7z" fill="#F90807"/>
<path transform="translate(232,835)" d="m0 0h1c0.0103 0.76 0.0206 1.52 0.0312 2.3 0.0986 7.22 0.201 14.4 0.308 21.7 0.0548 3.71 0.108 7.42 0.158 11.1 0.0483 3.59 0.101 7.18 0.156 10.8 0.0298 2.01 0.0556 4.03 0.0813 6.04 0.128 8.06 0.546 16 1.27 24.1-3 0-3 0-5.19-1.81-1.81-2.19-1.81-2.19-1.81-5.19h-3c-1.26-4.29-0.63-6.88 1-11 2.47-0.495 2.47-0.495 5-1 0.33-18.8 0.66-37.6 1-57z" fill="#F90908"/>
<path transform="translate(1345,1273)" d="m0 0c-0.571 3.99-1.81 6.63-4 10-0.474 0.887-0.949 1.77-1.44 2.69-1.74 2.58-2.62 3.39-5.56 4.31-3.25 0.125-3.25 0.125-6 0v-5c0.66-0.33 1.32-0.66 2-1 0.652-2.02 0.652-2.02 1-4h-2c0.33-1.65 0.66-3.3 1-5 1.56-0.535 3.12-1.05 4.69-1.56 0.87-0.29 1.74-0.58 2.64-0.879 2.92-0.61 4.82-0.336 7.68 0.441z" fill="#F90807"/>
<path transform="translate(398 302)" d="m0 0c0.701 0.00516 1.4 0.0103 2.12 0.0156 0.701-0.00516 1.4-0.0103 2.12-0.0156 1.88 0.266 1.88 0.266 3.88 2.27v3l2 2c-1.45 1.01-2.91 2-4.38 3-1.22 0.835-1.22 0.835-2.46 1.69-2.16 1.31-2.16 1.31-4.16 1.31-0.33-0.66-0.66-1.32-1-2h-8c0.33-1.65 0.66-3.3 1-5h3c0.289-0.619 0.577-1.24 0.875-1.88 1.3-2.46 2.13-3.98 5-4.39z" fill="#F90807"/>
<path transform="translate(664 1364)" d="m0 0c1.6-0.00387 1.6-0.00387 3.23-0.00781 2.58 0.133 2.58 0.133 3.58 1.13 0.0406 1.67 0.0427 3.33 0 5 0.66 0.33 1.32 0.66 2 1-2.55 2.55-3.84 2.37-7.38 2.62-0.956 0.0748-1.91 0.15-2.9 0.227-2.24 0.122-4.48 0.148-6.73 0.148v-2c-0.99-0.33-1.98-0.66-3-1 0.33-1.98 0.66-3.96 1-6 3.43-1.05 6.61-1.13 10.2-1.12z" fill="#F90807"/>
<path transform="translate(952 1359)" d="m0 0c1.65 0.0174 1.65 0.0174 3.34 0.0352 1.1 0.00902 2.21 0.018 3.35 0.0273 0.855 0.0116 1.71 0.0232 2.59 0.0352v2c1.32 0.33 2.64 0.66 4 1v2c-1.23 0.199-1.23 0.199-2.48 0.402-1.62 0.265-1.62 0.265-3.27 0.535-1.6 0.261-1.6 0.261-3.23 0.527-2.87 0.463-2.87 0.463-5.05 1.09-2.55 0.58-4.97 0.615-7.59 0.633-1.44 0.0213-1.44 0.0213-2.91 0.043-2.46-0.23-2.46-0.23-4.46-2.23 0.33-0.33 0.66-0.66 1-1-0.66-0.66-1.32-1.32-2-2 3.29-1.65 6.93-1.45 10.6-1.72 2.95-0.341 3.09-1.27 6.16-1.38z" fill="#F90807"/>
<path transform="translate(1208,1385)" d="m0 0v2c1.32 0.33 2.64 0.66 4 1 0.33-0.66 0.66-1.32 1-2 2.47 0.495 2.47 0.495 5 1-2.82 4.23-6.39 5.16-11 7-1.58 0.65-1.58 0.65-3.19 1.31-3.27 0.799-5.56 0.461-8.81-0.312-0.33-0.99-0.66-1.98-1-3 1.31-2.19 1.31-2.19 3-4h2c0.33-0.99 0.66-1.98 1-3 3.29-1.1 4.71-0.8 8 0z" fill="#F90807"/>
<path transform="translate(616,1356)" d="m0 0c2.1 0.141 4.21 0.288 6.31 0.438 1.76 0.122 1.76 0.122 3.55 0.246 3.14 0.316 3.14 0.316 6.14 1.32v3c1.65 0.66 3.3 1.32 5 2v2h-2v4h-5v-2c-2.31-0.33-4.62-0.66-7-1 0.33-0.99 0.66-1.98 1-3-4.46-0.99-4.46-0.99-9-2v-2c0.66-0.33 1.32-0.66 2-1-0.33-0.66-0.66-1.32-1-2z" fill="#F90807"/>
<path transform="translate(1379,1201)" d="m0 0h5c2.67 4.55 3.32 7.74 3 13-3.82 1.42-6.91 2.24-11 2-2.09-4.43-2.09-4.43-1.62-7.31 0.206-0.557 0.412-1.11 0.625-1.69 1.32-0.33 2.64-0.66 4-1v-5z" fill="#F90807"/>
<path transform="translate(260,474)" d="m0 0h11c0.293 4.97 0.165 8.04-3 12-2.19 1.31-2.19 1.31-4 2-0.371-0.897-0.371-0.897-0.75-1.81-1.41-2.48-2.98-3.52-5.25-5.19v-2c-0.66-0.33-1.32-0.66-2-1h2c0.66-1.32 1.32-2.64 2-4z" fill="#F90908"/>
<path transform="translate(504,1337)" d="m0 0h7c0 4 0 4-1 6-0.33 0.33-0.66 0.66-1 1 1.42-0.0309 1.42-0.0309 2.88-0.0625 3.12 0.0625 3.12 0.0625 5.12 1.06v-4c3.31 0.125 3.31 0.125 7 1 1.88 2.94 1.88 2.94 3 6 0.33 0.66 0.66 1.32 1 2-4.46 0.495-4.46 0.495-9 1-0.33-0.99-0.66-1.98-1-3h-3c-0.99-0.66-1.98-1.32-3-2h-4c-1.04-1.3-2.04-2.64-3-4-2.08-1.25-2.08-1.25-4-2h4c-0.33-0.99-0.66-1.98-1-3z" fill="#F90807"/>
<path transform="translate(1295,1320)" d="m0 0h2v2h3c0.124 0.804 0.247 1.61 0.375 2.44 0.206 0.846 0.412 1.69 0.625 2.56 0.66 0.33 1.32 0.66 2 1-0.33 0.99-0.66 1.98-1 3-2.95 0.983-4.94 1-8 1-0.99 0.495-0.99 0.495-2 1v-3c-1.03 0.165-2.06 0.33-3.12 0.5-3.36 0.433-6.5 0.582-9.88 0.5v-3c6.62-1 6.62-1 10-1 1.61-1.54 1.61-1.54 3.06-3.5 1.54-1.97 1.54-1.97 2.94-3.5z" fill="#F90807"/>
<path transform="translate(236,1017)" d="m0 0h7c1.1 2.06 1.96 3.83 2.44 6.12 0.464 2.27 0.464 2.27 3.56 3.88 0.984 2.02 0.984 2.02 1.75 4.38 0.263 0.771 0.526 1.54 0.797 2.34 0.49 2.48 0.253 3.92-0.547 6.29h-5v-6c-0.99-0.33-1.98-0.66-3-1v-2c-0.66-0.33-1.32-0.66-2-1 0.99-1.98 1.98-3.96 3-6-0.99-0.33-1.98-0.66-3-1-0.33-1.65-0.66-3.3-1-5-1.32-0.33-2.64-0.66-4-1z" fill="#F90807"/>
<path transform="translate(1158,1402)" d="m0 0h5c0.33 1.98 0.66 3.96 1 6h11c-3.33 1.66-6.64 3.18-10.1 4.62-1.04 0.446-2.09 0.892-3.16 1.35-2.78 1.02-2.78 1.02-5.78 1.02v-4c-0.66-0.33-1.32-0.66-2-1 0.33-0.99 0.66-1.98 1-3h2c-0.33-0.99-0.66-1.98-1-3h2v-2z" fill="#F90908"/>
<path transform="translate(776,733)" d="m0 0c4.63 1.15 8.83 2.26 12.2 5.81 1.81 3.19 1.81 3.19 1.5 6.44-1.69 2.75-1.69 2.75-4.81 4.12-0.949 0.206-1.9 0.413-2.88 0.625v-4c-0.66-0.33-1.32-0.66-2-1 0.103-0.701 0.206-1.4 0.312-2.12-0.455-4.18-2.48-5.83-5.31-8.88l1-1z" fill="#F90807"/>
<path transform="translate(537,246)" d="m0 0h2v2h3c0.33 0.66 0.66 1.32 1 2 7.26 0.33 14.5 0.66 22 1v1c-0.759 0.049-1.52 0.098-2.3 0.148-1.49 0.112-1.49 0.112-3.01 0.227-1.48 0.104-1.48 0.104-2.99 0.211-2.91 0.253-2.91 0.253-5.7 2.41-2.7 0.414-2.7 0.414-5.69 0.625-0.994 0.0748-1.99 0.15-3.01 0.227-0.759 0.049-1.52 0.098-2.3 0.148v2h-9c0.33-0.66 0.66-1.32 1-2 2.32-0.407 4.66-0.744 7-1-0.66-0.66-1.32-1.32-2-2-0.125-3.62-0.125-3.62 0-7z" fill="#F90807"/>
<path transform="translate(1020,1351)" d="m0 0v2c-2.64 0.66-5.28 1.32-8 2v2c-5.9 1.79-9.93 2.08-16 1v-2c0.99-0.33 1.98-0.66 3-1-0.99-0.33-1.98-0.66-3-1 3.42-2.05 6.36-2.37 10.3-2.62 1.14-0.0735 2.29-0.147 3.47-0.223 3.42-0.162 6.8-0.232 10.2-0.152z" fill="#F90807"/>
<path transform="translate(223,688)" d="m0 0c0.99 0.33 1.98 0.66 3 1-0.0722 1.1-0.144 2.19-0.219 3.32-0.0938 1.45-0.188 2.91-0.281 4.36-0.0477 0.721-0.0954 1.44-0.145 2.19-0.238 3.72-0.414 7.4-0.355 11.1-2 0.0425-4 0.0408-6 0-1-1-1-1-1.12-4.12 0.119-3.7 0.529-7.22 1.12-10.9h2c0.33 0.66 0.66 1.32 1 2-0.0206-1.3-0.0412-2.6-0.0625-3.94-0.0215-1.35-0.00898-2.71 0.0625-4.06 0.33-0.33 0.66-0.66 1-1z" fill="#F90807"/>
<path transform="translate(393,1285)" d="m0 0c5.75 1.75 5.75 1.75 8 4v3c1.32 0.66 2.64 1.32 4 2h-2c-0.33 0.99-0.66 1.98-1 3-1.88 0.812-1.88 0.812-4 1-0.99-0.66-1.98-1.32-3-2-1.66-0.385-3.32-0.728-5-1 0.0412-0.784 0.0825-1.57 0.125-2.38 0.162-2.79 0.162-2.79-2.12-4.62 2-1 2-1 5-1v-2z" fill="#F90807"/>
<path transform="translate(1080 1338)" d="m0 0c0.495 0.371 0.99 0.743 1.5 1.12v3c-3.75 2.35-7.7 2.55-12 3-1.33 0.181-2.67 0.368-4 0.562-1.48 0.217-1.48 0.217-3 0.438-0.66-1.32-1.32-2.64-2-4 15.7-5.45 15.7-5.45 19.5-4.12z" fill="#F90807"/>
<path transform="translate(556 520)" d="m0 0c1.22-0.0142 2.45-0.0284 3.71-0.043 3.31 0.219 5.52 0.804 8.48 2.23-0.33 1.32-0.66 2.64-1 4-6.42 0.103-12.6-0.255-19-1-0.33-1.32-0.66-2.64-1-4 2.93-1.46 5.55-1.17 8.81-1.19z" fill="#F90807"/>
<path transform="translate(273,1117)" d="m0 0c1.64 2.46 2.62 4.35 3.62 7.06 0.26 0.692 0.521 1.38 0.789 2.1 0.586 1.84 0.586 1.84 0.586 3.84-0.99-0.33-1.98-0.66-3-1-0.33 0.66-0.66 1.32-1 2-3 2-3 2-6 2-0.66-1.65-1.32-3.3-2-5 0.66-0.33 1.32-0.66 2-1 0.365-1.32 0.694-2.66 1-4 0.637-1.35 1.3-2.69 2-4h2v-2z" fill="#F90807"/>
<path transform="translate(1091,164)" d="m0 0c5.62 0.422 10.7 0.976 16 3 0.701 0.165 1.4 0.33 2.12 0.5 2.13 0.569 3.93 1.46 5.88 2.5-0.33 0.99-0.66 1.98-1 3-5.22 0.18-9.07-0.0291-14-2v-3h-10c0.33-1.32 0.66-2.64 1-4z" fill="#FC0803"/>
<path transform="translate(511,264)" d="m0 0v1c-1.04 0.291-2.08 0.583-3.16 0.883-8.37 2.38-16.6 4.99-24.7 8.15-3.03 1.18-5.99 2.29-9.18 2.97 2.19-2.41 4.26-3.8 7.19-5.19 0.715-0.344 1.43-0.688 2.17-1.04 0.543-0.254 1.09-0.508 1.64-0.77v-2c8.79-2.53 16.8-4.16 26-4z" fill="#F90908"/>
<path transform="translate(312,373)" d="m0 0c0.33 0.66 0.66 1.32 1 2 0.66 0.33 1.32 0.66 2 1-0.33 1.65-0.66 3.3-1 5 1.65-0.99 3.3-1.98 5-3-0.33 1.65-0.66 3.3-1 5h-2c-0.392 0.516-0.784 1.03-1.19 1.56-1.81 1.44-1.81 1.44-5.5 1.12-1.09-0.227-2.19-0.454-3.31-0.688 0.0709-3.07 0.248-6.01 1-9 2.56-2.06 2.56-2.06 5-3z" fill="#F90807"/>
<path transform="translate(347,338)" d="m0 0c0.598 0.351 1.2 0.701 1.81 1.06 2.3 1.27 2.3 1.27 5.19-0.0625-0.33 1.65-0.66 3.3-1 5-3 1-3 1-7 1 0.33 0.99 0.66 1.98 1 3-0.438 2.19-0.438 2.19-1 4-1.32-0.33-2.64-0.66-4-1-1.34-6.34-1.34-6.34 0.25-9.44 1.75-1.56 1.75-1.56 4.75-1.56v-2z" fill="#F90807"/>
<path transform="translate(529,163)" d="m0 0c-2.96 2.51-5.25 3.52-9.06 4.19-1.29 0.238-1.29 0.238-2.6 0.48-4.1 0.582-6.59-0.0447-10.3-1.67v-3c2.35-0.59 4.7-1.15 7.06-1.69 0.985-0.252 0.985-0.252 1.99-0.51 5.45-1.21 8.19-0.306 12.9 2.2z" fill="#F90807"/>
<path transform="translate(772 1367)" d="m0 0c6.65 0.587 13.4 0.362 20 0.325 1.55-0.00502 3.1-0.00959 4.65-0.0137 3.76-0.0109 7.53-0.0281 11.3-0.0488-0.33 0.66-0.66 1.32-1 2-5.62 0.0495-11.2 0.0857-16.9 0.11-1.91 0.0101-3.83 0.0237-5.74 0.041-2.75 0.0243-5.5 0.0356-8.25 0.0444-0.854 0.0103-1.71 0.0206-2.59 0.0313-1.2 2.27e-4 -1.2 2.27e-4 -2.43 4.58e-4 -1.05 0.00666-1.05 0.00666-2.13 0.0135-2.34-0.281-3.96-1.09-6-2.24 3.36-1.12 5.58-0.697 9.03-0.262z" fill="#FA0806"/>
<path transform="translate(856,1365)" d="m0 0c2.75 0.0871 5.5 0.194 8.25 0.312 0.777 0.0226 1.55 0.0451 2.36 0.0684 4.33 0.204 7.17 0.391 10.4 3.62-5.46 2.18-10.7 3.29-16.3 1.1-1.95-0.971-3.84-1.99-5.71-3.1 0.33-0.66 0.66-1.32 1-2z" fill="#F90908"/>
<path transform="translate(929,1363)" d="m0 0v1c-3.3 0.33-6.6 0.66-10 1v3c-6.26 0.932-11 1.21-17-1v-2c8.9-4.12 17.5-2.85 27-2z" fill="#F90807"/>
<path transform="translate(1072,559)" d="m0 0c2 2 2 2 2.2 4.16-0.0232 0.812-0.0464 1.62-0.0703 2.46-0.018 0.817-0.0361 1.63-0.0547 2.48-0.0348 0.94-0.0348 0.94-0.0703 1.9-0.784-0.186-1.57-0.371-2.38-0.562-2.6-0.697-2.6-0.697-4.62 0.562v-2c-0.959-0.155-0.959-0.155-1.94-0.312-0.681-0.227-1.36-0.454-2.06-0.688-0.33-0.99-0.66-1.98-1-3 0.804-0.289 1.61-0.577 2.44-0.875 2.7-0.858 2.7-0.858 3.56-3.12 1.94-0.75 1.94-0.75 4-1z" fill="#F90807"/>
<path transform="translate(179,455)" d="m0 0h3c0.25 5.62 0.25 5.62-2 9-0.441 1.88-0.811 3.78-1.12 5.69-0.251 1.49-0.251 1.49-0.508 3.01-0.121 0.759-0.242 1.52-0.367 2.3h-3c-1.51-3.01-1.18-5.68-1-9 0.66-0.66 1.32-1.32 2-2 0.598-1.52 1.14-3.07 1.62-4.62 0.26-0.817 0.521-1.63 0.789-2.48 0.193-0.626 0.387-1.25 0.586-1.9z" fill="#F90807"/>
<path transform="translate(1436,541)" d="m0 0h4v4h2c0.33-0.66 0.66-1.32 1-2 2.43 7.43 2.43 7.43 1 11-2.92-0.315-4.57-0.601-6.75-2.62-1.64-3.11-1.99-5.89-2.25-9.38 0.33-0.33 0.66-0.66 1-1z" fill="#F90807"/>
<path transform="translate(1410,454)" d="m0 0c3.31 0.0625 3.31 0.0625 7 1 1.59 2.28 2.17 4.3 3 7-1.65 0.33-3.3 0.66-5 1-0.33 1.32-0.66 2.64-1 4-0.66-0.33-1.32-0.66-2-1-0.99 0.495-0.99 0.495-2 1-0.625-2.88-0.625-2.88-1-6 0.66-0.66 1.32-1.32 2-2-0.32-2.6-0.32-2.6-1-5z" fill="#F90807"/>
<path transform="translate(225,641)" d="m0 0c1.31 2.96 2.45 5.8 3 9-1.81 3.06-1.81 3.06-4 5-0.99-0.33-1.98-0.66-3-1v-4c-0.66-0.33-1.32-0.66-2-1 0.256-2.34 0.593-4.68 1-7 2-1 2-1 5-1z" fill="#F90908"/>
<path transform="translate(853,772)" d="m0 0v5h2v9c-2.31-0.33-4.62-0.66-7-1v-3c-0.626-1.68-1.29-3.35-2-5 1.32-0.66 2.64-1.32 4-2v-2c2-1 2-1 3-1z" fill="#F90908"/>
<path transform="translate(160,521)" d="m0 0h2c1.22 6.46 0.935 10.1-2 16v3h-2v2h-2c-0.376-7.34 1.54-14.1 4-21zm-1 6 1 4z" fill="#F90807"/>
<path transform="translate(591,1352)" d="m0 0c6.17-0.402 11.2 1.03 17 3v2c-1.65 0.33-3.3 0.66-5 1 0.99 0.66 1.98 1.32 3 2-5.23 0.383-8.38-0.781-13-3 0.33-1.32 0.66-2.64 1-4-0.99-0.33-1.98-0.66-3-1z" fill="#F90807"/>
<path transform="translate(543,158)" d="m0 0c0.99 0.33 1.98 0.66 3 1-0.33 0.99-0.66 1.98-1 3-3.63 0.33-7.26 0.66-11 1-0.99-1.65-1.98-3.3-3-5 8.41-2.52 8.41-2.52 12 0z" fill="#F90807"/>
<path transform="translate(837,231)" d="m0 0c1.92 0.149 3.84 0.248 5.76 0.316 1.68 0.0628 1.68 0.0628 3.39 0.127 1.17 0.0393 2.33 0.0786 3.54 0.119 1.18 0.0432 2.36 0.0864 3.57 0.131 2.91 0.106 5.83 0.208 8.74 0.307v1c-4.38 0.0247-8.76 0.0429-13.1 0.0549-1.49 0.00503-2.98 0.0119-4.47 0.0205-2.14 0.0121-4.28 0.0178-6.42 0.0222-1.29 0.00524-2.58 0.0105-3.9 0.0159-3.07-0.114-3.07-0.114-5.07-1.11-1.54-0.225-3.08-0.408-4.62-0.562-0.817-0.0838-1.63-0.168-2.48-0.254-0.626-0.0606-1.25-0.121-1.9-0.184v-1c6.27-0.887 10.9-1.02 17 1z" fill="#F90908"/>
<path transform="translate(256,1061)" d="m0 0c0.66 0.33 1.32 0.66 2 1 0.668 2.62 0.668 2.62 1.19 5.88 0.269 1.6 0.269 1.6 0.543 3.24 0.27 2.88 0.27 2.88-0.73 5.88-2.06 1.19-2.06 1.19-4 2-0.66-0.99-1.32-1.98-2-3h3c-0.33-1.65-0.66-3.3-1-5h-5v-2c0.99-0.33 1.98-0.66 3-1 1.72-3.5 1.72-3.5 3-7z" fill="#F90807"/>
<path transform="translate(1072,1045)" d="m0 0c2.43 3.64 2.16 5.71 2 10-1.46 0.081-2.92 0.139-4.38 0.188-0.812 0.0348-1.62 0.0696-2.46 0.105-0.714-0.0967-1.43-0.193-2.16-0.293-0.66-0.99-1.32-1.98-2-3 0.99-0.33 1.98-0.66 3-1 0.733-2.02 0.733-2.02 1-4h5v-2z" fill="#F90908"/>
<path transform="translate(695,1364)" d="m0 0c9.9 0.33 19.8 0.66 30 1v2h-30v-3z" fill="#FA0805"/>
<path transform="translate(1449 956)" d="m0 0c2.92 1.56 3.62 4.04 4.88 7-0.99 0.66-1.98 1.32-3 2v-2h-2c-0.33 0.99-0.66 1.98-1 3-1.06-1.88-1.06-1.88-2-4 0.33-0.66 0.66-1.32 1-2h-2v6c-1.41-2.64-2.37-5.07-3-8 2.45-1.16 4.39-2 7.12-2z" fill="#F90908"/>
<path transform="translate(173,473)" d="m0 0c0.66 0.66 1.32 1.32 2 2-0.928 13.4-0.928 13.4-4.62 18-0.454 0.33-0.907 0.66-1.38 1-1.62-8.11 0.266-13.8 4-21zm-2 9 1 2z" fill="#FA0806"/>
<path transform="translate(628 1453)" d="m0 0c3.56 0.25 3.56 0.25 6.56 2.25 3.51 0.906 6.91 1.18 10.5 1.32 1.02 0.0419 2.04 0.0838 3.1 0.127 1.58 0.059 1.58 0.059 3.2 0.119 1.61 0.0648 1.61 0.0648 3.26 0.131 2.64 0.106 5.29 0.208 7.93 0.307v1c-4.09 0.0247-8.19 0.0429-12.3 0.0549-1.39 0.00503-2.79 0.0119-4.18 0.0205-2 0.0121-4 0.0173-6 0.0222-1.2 0.00524-2.41 0.0105-3.65 0.0159-2.89-0.114-2.89-0.114-4.89-1.11v-2h-9c2-2 2-2 5.44-2.25z" fill="#F90908"/>
<path transform="translate(1335,1084)" d="m0 0c0.66 0.33 1.32 0.66 2 1-0.114 2.44-0.241 4.88-0.375 7.31-0.0309 0.69-0.0619 1.38-0.0938 2.09-0.212 3.67-0.451 5.47-2.53 8.6h-2c-1.03-4.59-0.853-7.79 0.375-12.3 0.414-1.57 0.414-1.57 0.836-3.18 0.789-2.51 0.789-2.51 1.79-3.51zm-1 8c-0.33 0.66-0.66 1.32-1 2h2c-0.33-0.66-0.66-1.32-1-2z" fill="#F90807"/>
<path transform="translate(633,589)" d="m0 0c1.65 0.33 3.3 0.66 5 1 0.981 3.05 0.981 4.95 0 8h-7c0.875-6.75 0.875-6.75 2-9z" fill="#F90807"/>
<path transform="translate(1447,709)" d="m0 0h6c0.862 2.41 1.09 3.69 0.375 6.19-1.38 1.81-1.38 1.81-4 2.56-0.784 0.0825-1.57 0.165-2.38 0.25-1.16-3.48-0.708-5.46 0-9z" fill="#F90807"/>
<path transform="translate(1443,580)" d="m0 0c2.06 0.438 2.06 0.438 4 1 0.33 1.65 0.66 3.3 1 5h3v5l-2-1c-0.66 0.66-1.32 1.32-2 2v-5h-5c-0.0425-2-0.0408-4 0-6 0.33-0.33 0.66-0.66 1-1z" fill="#F90908"/>
<path transform="translate(238,563)" d="m0 0c2.31 0.33 4.62 0.66 7 1 0.625 2.88 0.625 2.88 1 6-0.66 0.66-1.32 1.32-2 2-2.12-0.375-2.12-0.375-4-1-2-6.88-2-6.88-2-8z" fill="#F90908"/>
<path transform="translate(1070,1029)" d="m0 0c0.99 0.33 1.98 0.66 3 1 0.33 4.62 0.66 9.24 1 14-2.96-1.48-3.72-2.95-5-6-0.75-3.62-0.75-3.62-1-7l2-2z" fill="#F90807"/>
<path transform="translate(1449,753)" d="m0 0h2c0.193 4.82-0.243 8.5-2 13h-2c-1.2-2.41-1.1-3.95-1.06-6.62 0.00902-0.817 0.018-1.63 0.0273-2.48 0.0116-0.626 0.0232-1.25 0.0352-1.9 0.99-0.33 1.98-0.66 3-1v-1z" fill="#F90807"/>
<path transform="translate(942,1457)" d="m0 0c-0.33 0.66-0.66 1.32-1 2-2.51 0.633-2.51 0.633-5.69 1.12-1.04 0.168-2.07 0.335-3.14 0.508-3.09 0.357-6.07 0.432-9.18 0.367 2-2 2-2 5.12-2.12 0.949 0.0412 1.9 0.0825 2.88 0.125v-2c4.34-2.3 6.53-1.87 11 0z" fill="#F90908"/>
<path transform="translate(993,636)" d="m0 0c-0.99 0.66-1.98 1.32-3 2-0.25 2.58-0.25 2.58 0 5h-3v2h-2c-0.33-2.64-0.66-5.28-1-8 5.62-2.12 5.62-2.12 9-1z" fill="#F90908"/>
<path transform="translate(1412,1156)" d="m0 0c1.48 4.64 0.435 8.45-1 13-1.5 2.56-1.5 2.56-3 4h-2c0.313-1.67 0.653-3.34 1-5 0.134-0.651 0.268-1.3 0.406-1.97 0.897-4 1.75-6.93 4.59-10z" fill="#FC0803"/>
<path transform="translate(1433,502)" d="m0 0h1c0.391 1.75 0.763 3.5 1.12 5.25 0.209 0.975 0.418 1.95 0.633 2.95 0.262 3.03-0.138 4.28-1.76 6.8h-2c-0.33-0.99-0.66-1.98-1-3-0.99 0.495-0.99 0.495-2 1v-6c1.32 0.33 2.64 0.66 4 1v-8z" fill="#F90908"/>
<path transform="translate(1110,1329)" d="m0 0v1c1.65 0.33 3.3 0.66 5 1v2c-3.69 1.18-7.15 1.21-11 1-0.99-0.66-1.98-1.32-3-2v-2c3.07-0.911 5.8-1.09 9-1z" fill="#F90807"/>
<path transform="translate(282,444)" d="m0 0 4 1c0.286 7.43 0.286 7.43-2 11h-2c-1.16-4.26-0.762-7.68 0-12z" fill="#FC0803"/>
<path transform="translate(1144,1402)" d="m0 0c0.66 0.33 1.32 0.66 2 1v2c0.66 0.66 1.32 1.32 2 2-0.33 0.99-0.66 1.98-1 3h-8c0.33-1.65 0.66-3.3 1-5h2v-2c0.66-0.33 1.32-0.66 2-1z" fill="#F90807"/>
<path transform="translate(685,938)" d="m0 0c0.66 0.33 1.32 0.66 2 1-0.25 3.38-0.25 3.38-1 7-2.06 1.44-2.06 1.44-4 2-1-1-1-1-1.06-4.56 0.0206-1.13 0.0412-2.27 0.0625-3.44h3c0.33-0.66 0.66-1.32 1-2z" fill="#F90908"/>
<path transform="translate(1438,1049)" d="m0 0c0.99 0.66 1.98 1.32 3 2 0.188 3.12 0.188 3.12 0 6-1.65 0.33-3.3 0.66-5 1-0.144-0.598-0.289-1.2-0.438-1.81-0.45-1.75-0.991-3.47-1.56-5.19h4v-2z" fill="#FC0803"/>
<path transform="translate(1449,734)" d="m0 0c2.35 2.35 2.39 3.27 2.75 6.5 0.098 0.794 0.196 1.59 0.297 2.41-0.0469 2.09-0.0469 2.09-2.05 4.09-1.56-1.25-1.56-1.25-3-3 0.375-1.88 0.375-1.88 1-4-0.386-2.68-0.386-2.68-1-5 0.66-0.33 1.32-0.66 2-1z" fill="#F90807"/>
<path transform="translate(207,387)" d="m0 0c0.99 0.33 1.98 0.66 3 1-0.33 2.31-0.66 4.62-1 7-1.32 0.33-2.64 0.66-4 1-0.33 1.32-0.66 2.64-1 4-0.66-0.66-1.32-1.32-2-2 1.75-4.88 1.75-4.88 4-6 0.656-2.53 0.656-2.53 1-5z" fill="#F90807"/>
<path transform="translate(1149,1316)" d="m0 0c-0.33 0.99-0.66 1.98-1 3-2.64 0.33-5.28 0.66-8 1-0.33-1.32-0.66-2.64-1-4 4.08-2.1 5.92-2.1 10 0z" fill="#F90908"/>
<path transform="translate(213,810)" d="m0 0h4c1.25 6.62 1.25 6.62-1 10h-2c-2.43-6.29-2.43-6.29-1-10z" fill="#F90807"/>
<path transform="translate(961,660)" d="m0 0c2.97 0.495 2.97 0.495 6 1 0.33 1.32 0.66 2.64 1 4-2.48 1.49-2.48 1.49-5 3-2-2-2-2-2.12-5.12 0.0412-0.949 0.0825-1.9 0.125-2.88z" fill="#F90908"/>
<path transform="translate(440,186)" d="m0 0c1.34 0.651 2.68 1.32 4 2-0.33 0.66-0.66 1.32-1 2-3.31 0.875-3.31 0.875-7 1-2.44-1.94-2.44-1.94-4-4 4.62-2.12 4.62-2.12 8-1z" fill="#F90807"/>
<path transform="translate(533,1340)" d="m0 0c3.63 0.66 7.26 1.32 11 2-0.99 0.66-1.98 1.32-3 2v2h-8c0.66-0.99 1.32-1.98 2-3-0.66-0.99-1.32-1.98-2-3z" fill="#F20807"/>
<path transform="translate(373 318)" d="m0 0c2.05 0.0326 4.1 0.0651 6.15 0.0977v5h-4v-2c-1.65 0.66-3.3 1.32-5 2 0-4.95 0-4.95 2.85-5.1z" fill="#F90908"/>
<path transform="translate(308,1203)" d="m0 0c1.88 0.312 1.88 0.312 4 1 2.15 3.23 2.2 4.28 2 8h-2v-2h-4c-0.934-3.01-1.04-3.87 0-7z" fill="#F90908"/>
<path transform="translate(302,1191)" d="m0 0h2c0.33 1.65 0.66 3.3 1 5 1.32 0.33 2.64 0.66 4 1v3h-2v-2c-1.65 0.66-3.3 1.32-5 2-0.66-1.98-1.32-3.96-2-6h2v-3z" fill="#F90908"/>
<path transform="translate(794,847)" d="m0 0c0.33 1.98 0.66 3.96 1 6-3.05 0.981-4.95 0.981-8 0 0.75-2.44 0.75-2.44 2-5 1.8-0.71 3.08-1 5-1z" fill="#F90908"/>
<path transform="translate(1036,520)" d="m0 0h12c0.33 1.98 0.66 3.96 1 6-2.97-0.33-5.94-0.66-9-1 0.33-0.66 0.66-1.32 1-2-2.47-0.99-2.47-0.99-5-2v-1z" fill="#F90807"/>
<path transform="translate(1452,923)" d="m0 0c1.65 0.33 3.3 0.66 5 1 0.0425 2 0.0408 4 0 6-1 1-1 1-3.56 1.06-0.804-0.0206-1.61-0.0412-2.44-0.0625 0.33-2.64 0.66-5.28 1-8z" fill="#F90807"/>
<path transform="translate(1363,904)" d="m0 0c2.3 3.46 2.24 4.81 2.19 8.88-0.00645 1.03-0.0129 2.06-0.0195 3.12-0.155 2.77-0.545 5.31-1.17 8.01h-1c-0.197-2.21-0.382-4.42-0.562-6.62-0.104-1.23-0.209-2.46-0.316-3.73-0.113-3.4 0.188-6.32 0.879-9.65z" fill="#F90807"/>
<path transform="translate(1272,1337)" d="m0 0c0.66 0.33 1.32 0.66 2 1 0.549 3.02 1 5.93 1 9-1.65-0.33-3.3-0.66-5-1 0.66-2.97 1.32-5.94 2-9z" fill="#F90807"/>
<path transform="translate(135,716)" d="m0 0c2.51 3.77 2.03 6.39 1.62 10.7-0.0567 0.702-0.113 1.4-0.172 2.13-0.141 1.73-0.296 3.46-0.453 5.19h-1c-1.52-5.89-1.67-12.1 0-18z" fill="#FA0806"/>
<path transform="translate(1374,364)" d="m0 0h2c2 3 2 3 1.62 6.19-0.206 0.928-0.412 1.86-0.625 2.81-1.32-0.33-2.64-0.66-4-1-0.0424-2.33-0.0409-4.67 0-7 0.33-0.33 0.66-0.66 1-1z" fill="#F90908"/>
<path transform="translate(200,399)" d="m0 0c1.32 0.66 2.64 1.32 4 2-0.312 2.38-0.312 2.38-1 5-0.99 0.66-1.98 1.32-3 2-1.12-6.75-1.12-6.75 0-9z" fill="#F90807"/>
<path transform="translate(471,176)" d="m0 0c3.33-0.227 5.42-0.322 8.38 1.31 1.62 1.69 1.62 1.69 1.62 4.69-3.88-0.875-3.88-0.875-5-2-0.66 0.66-1.32 1.32-2 2-0.99-1.98-1.98-3.96-3-6z" fill="#FD0803"/>
<path transform="translate(704,917)" d="m0 0h5c0.33 1.65 0.66 3.3 1 5h-3v3h-2c-0.33-2.64-0.66-5.28-1-8z" fill="#F90908"/>
<path transform="translate(905,865)" d="m0 0h6c-0.33 1.65-0.66 3.3-1 5-3.75 1.12-3.75 1.12-6 0 0.33-1.65 0.66-3.3 1-5z" fill="#F90807"/>
<path transform="translate(142,632)" d="m0 0h2c0.212 5.19-0.409 9.13-2 14h-1c-0.222-1.77-0.427-3.54-0.625-5.31-0.116-0.986-0.232-1.97-0.352-2.99-0.0234-2.7-0.0234-2.7 1.98-5.7z" fill="#F90807"/>
<path transform="translate(150,567)" d="m0 0h2c1.02 5.79 0.963 9.46-1 15h-1c-1.33-10.6-1.33-10.6 0-15z" fill="#FA0806"/>
<path transform="translate(1342,1057)" d="m0 0c2.68 4.02 2.16 6.24 2 11h-2c-0.33 0.66-0.66 1.32-1 2-1.43-8.43-1.43-8.43 1-13z" fill="#F90807"/>
<path transform="translate(1358,967)" d="m0 0c2 2 2 2 2.05 4.53-0.147 1.47-0.147 1.47-0.297 2.97-0.131 1.47-0.131 1.47-0.266 2.97-0.484 2.53-0.484 2.53-2.48 4.53-1.4-5.46-0.427-9.69 1-15zm0 5 1 2z" fill="#FA0806"/>
<path transform="translate(173,484)" d="m0 0c-0.615 6.52-0.615 6.52-2.56 8.94-0.474 0.351-0.949 0.701-1.44 1.06-0.33-2.64-0.66-5.28-1-8 3.88-2 3.88-2 5-2z" fill="#F90908"/>
<path transform="translate(320,372)" d="m0 0h5c-0.33 1.98-0.66 3.96-1 6h-4c-1.12-3.75-1.12-3.75 0-6z" fill="#F90807"/>
<path transform="translate(1362,946)" d="m0 0c0.054 1.62 0.0928 3.25 0.125 4.88 0.0232 0.905 0.0464 1.81 0.0703 2.74-0.195 2.38-0.195 2.38-2.2 4.38-0.33-3.63-0.66-7.26-1-11 2-1 2-1 3-1z" fill="#F90908"/>
<path transform="translate(937,685)" d="m0 0h6c-0.66 1.65-1.32 3.3-2 5h-2c-0.33 0.66-0.66 1.32-1 2-0.33-2.31-0.66-4.62-1-7z" fill="#F90807"/>
<path transform="translate(154,550)" d="m0 0h2v8h-3c-0.625-2.88-0.625-2.88-1-6 0.66-0.66 1.32-1.32 2-2z" fill="#F90807"/>
<path transform="translate(1366,357)" d="m0 0c1.65 0.33 3.3 0.66 5 1v2h-2c-0.33 1.65-0.66 3.3-1 5-1.56-1.19-1.56-1.19-3-3 0.312-2.69 0.312-2.69 1-5z" fill="#F90908"/>
<path transform="translate(517,259)" d="m0 0h11c-2.52 2.52-4.14 2.56-7.62 3.12-1 0.168-2.01 0.335-3.04 0.508-0.771 0.121-1.54 0.242-2.34 0.367 0.66-1.32 1.32-2.64 2-4z" fill="#F90908"/>
<path transform="translate(377,1269)" d="m0 0c1.32 1.32 2.64 2.64 4 4-2.64 0.66-5.28 1.32-8 2-0.33-0.66-0.66-1.32-1-2 0.33-0.66 0.66-1.32 1-2h4v-2z" fill="#F90908"/>
<path transform="translate(1464,778)" d="m0 0h1v14h-1v-14z"/>
<path transform="translate(869,1464)" d="m0 0h12v1h-12v-1z"/>
<path transform="translate(719,1464)" d="m0 0h10v1h-10v-1z"/>
<path transform="translate(1461,919)" d="m0 0h1v9h-1v-9z"/>
<path transform="translate(1366,773)" d="m0 0h1v9h-1v-9z" fill="#FD0803"/>
<path transform="translate(1464,729)" d="m0 0h1v9h-1v-9z"/>
<path transform="translate(948,239)" d="m0 0h9v1h-9v-1z"/>
<path transform="translate(958,1458)" d="m0 0h8v1h-8v-1z"/>
<path transform="translate(1464,867)" d="m0 0h1v6h-1v-6z"/>
<path transform="translate(1433,496)" d="m0 0h1v5h-1v-5z"/>
<path transform="translate(1034,151)" d="m0 0h5v1h-5v-1z" fill="#F90908"/>
<path transform="translate(771,1366)" d="m0 0 4 1z" fill="#FC0804"/>
<path transform="translate(1449,572)" d="m0 0 1 4z"/>
<path transform="translate(581,148)" d="m0 0 4 1z" fill="#FD0803"/>
<path transform="translate(1042,519)" d="m0 0c3 1 3 1 3 1z" fill="#FD0803"/>
<path transform="translate(1085,264)" d="m0 0c3 1 3 1 3 1z"/>
<path transform="translate(975,242)" d="m0 0c3 1 3 1 3 1z"/>
<path transform="translate(624,242)" d="m0 0c3 1 3 1 3 1z"/>
<path transform="translate(683,236)" d="m0 0c3 1 3 1 3 1z"/>
<path transform="translate(909,235)" d="m0 0c3 1 3 1 3 1z"/>
<path transform="translate(1063,1442)" d="m0 0 2 1z"/>
<path transform="translate(1102,1433)" d="m0 0 2 1z"/>
<path transform="translate(447,1417)" d="m0 0 2 1z"/>
<path transform="translate(1210,1392)" d="m0 0 2 1z"/>
<path transform="translate(466,280)" d="m0 0 2 1z"/>
<path transform="translate(504,267)" d="m0 0 2 1z"/>
<path transform="translate(513,264)" d="m0 0 2 1z"/>
<path transform="translate(1075,261)" d="m0 0 2 1z"/>
</svg>
