<?xml version="1.0" encoding="UTF-8"?>
<svg version="1.1" viewBox="0 0 1600 1600" width="1280" height="1280" xmlns="http://www.w3.org/2000/svg">
<path transform="translate(766,69)" d="m0 0h68v3h16v3h12v3c1.67-0.0309 1.67-0.0309 3.38-0.0625 3.62 0.0625 3.62 0.0625 5.62 1.06v2c2.31 0.33 4.62 0.66 7 1v2c0.638 0.049 1.28 0.098 1.93 0.148 0.826 0.0748 1.65 0.15 2.5 0.227 0.824 0.0696 1.65 0.139 2.5 0.211 0.682 0.137 1.36 0.273 2.07 0.414 0.33 0.66 0.66 1.32 1 2 0.825 0.165 1.65 0.33 2.5 0.5 0.825 0.165 1.65 0.33 2.5 0.5 0.33 0.66 0.66 1.32 1 2 3.03 0.658 3.03 0.658 6 1v3h6v3h6v3h7v3h6v3c1.98 0.33 3.96 0.66 6 1v2c0.969 0.124 1.94 0.248 2.94 0.375 1.01 0.206 2.02 0.412 3.06 0.625 0.33 0.66 0.66 1.32 1 2 3.03 0.658 3.03 0.658 6 1v3h6v3h6v3h6v3h7v3h6v3c1.98 0.33 3.96 0.66 6 1v2c2.31 0.33 4.62 0.66 7 1v2c1.98 0.33 3.96 0.66 6 1v2c1.98 0.33 3.96 0.66 6 1v3h6c0.33 0.66 0.66 1.32 1 2 3.03 0.658 3.03 0.658 6 1v3h6v3h6v3h6c0.33 0.99 0.66 1.98 1 3 1.98 0.33 3.96 0.66 6 1v2c1.98 0.33 3.96 0.66 6 1v2c1.98 0.33 3.96 0.66 6 1v2c2.97 0.33 5.94 0.66 9 1v3h6v3h6v3c2.31 0.33 4.62 0.66 7 1v2c0.969 0.124 1.94 0.248 2.94 0.375 1.01 0.206 2.02 0.412 3.06 0.625 0.33 0.66 0.66 1.32 1 2 0.825 0.165 1.65 0.33 2.5 0.5 0.825 0.165 1.65 0.33 2.5 0.5 0.33 0.66 0.66 1.32 1 2 3.03 0.658 3.03 0.658 6 1v3h6v3h6v3h6v3h7v3h6v3c1.98 0.33 3.96 0.66 6 1v2c2.31 0.33 4.62 0.66 7 1v3h6v3h6v3h6v3h7v3h6v3h6v3c1.98 0.33 3.96 0.66 6 1v2c2.31 0.33 4.62 0.66 7 1v2c1.98 0.33 3.96 0.66 6 1v2c1.98 0.33 3.96 0.66 6 1v3h7v3h6v3h6v3h6v3h6c0.33 0.99 0.66 1.98 1 3 1.98 0.33 3.96 0.66 6 1v2c1.98 0.33 3.96 0.66 6 1v2c2.31 0.33 4.62 0.66 7 1v2c1.98 0.33 3.96 0.66 6 1v2c3.96 0.495 3.96 0.495 8 1v3h7v3c1.98 0.33 3.96 0.66 6 1v2c0.969 0.124 1.94 0.248 2.94 0.375 1.01 0.206 2.02 0.413 3.06 0.625 0.33 0.66 0.66 1.32 1 2 0.825 0.165 1.65 0.33 2.5 0.5 0.825 0.165 1.65 0.33 2.5 0.5 0.33 0.66 0.66 1.32 1 2 3.03 0.658 3.03 0.658 6 1v3h6v3h6v3h7v3h6v3h6v3c1.98 0.33 3.96 0.66 6 1v2c2.31 0.33 4.62 0.66 7 1v3h6v3h6v3h6c0.33 0.66 0.66 1.32 1 2 3.03 0.658 3.03 0.658 6 1v3h6v3h6v3c2.31 0.33 4.62 0.66 7 1v2c1.98 0.33 3.96 0.66 6 1v2c1.98 0.33 3.96 0.66 6 1v2c0.969 0.124 1.94 0.248 2.94 0.375 1.01 0.206 2.02 0.412 3.06 0.625 0.33 0.66 0.66 1.32 1 2 3.03 0.658 3.03 0.658 6 1v3h6v3h6v3h6c0.33 0.99 0.66 1.98 1 3h5c0.33 0.99 0.66 1.98 1 3 1.98 0.33 3.96 0.66 6 1v2c1.98 0.33 3.96 0.66 6 1v2c2.31 0.33 4.62 0.66 7 1v2c1.98 0.33 3.96 0.66 6 1v2c2.64 0.33 5.28 0.66 8 1v3h7v3c1.32 0.33 2.64 0.66 4 1v2c1.65 0.33 3.3 0.66 5 1v2c1.32 0.33 2.64 0.66 4 1v2c1.98 0.33 3.96 0.66 6 1v3h3v3h3v3h3v3h3v3h3c0.33 1.98 0.66 3.96 1 6h2c0.33 0.99 0.66 1.98 1 3l1.56 1.44c1.44 1.56 1.44 1.56 1.44 5.56h3v6h3v9h3v10h3v46h-3v10h-3v9h-3v6h-3l-0.375 2.94c-0.206 1.01-0.412 2.02-0.625 3.06-0.66 0.33-1.32 0.66-2 1-0.33 0.99-0.66 1.98-1 3h-3v3h-2c-0.33 1.98-0.66 3.96-1 6h-3v3h-3v3h-3v3c-1.98 0.33-3.96 0.66-6 1v3h-4v3h-5v3h-4v3h-6v3h-6v3c-0.969 0.124-1.94 0.247-2.94 0.375-1.01 0.206-2.02 0.412-3.06 0.625-0.33 0.66-0.66 1.32-1 2-3.06 0.625-3.06 0.625-6 1v2c-1.98 0.33-3.96 0.66-6 1v2c-2.31 0.33-4.62 0.66-7 1v3h-6v3h-6v3h-6v3l-2.94 0.375c-1.01 0.206-2.02 0.412-3.06 0.625-0.33 0.66-0.66 1.32-1 2-1.67 0.333-3.33 0.667-5 1-0.33 0.66-0.66 1.32-1 2-1.67 0.333-3.33 0.667-5 1-0.33 0.66-0.66 1.32-1 2-3.06 0.625-3.06 0.625-6 1v2c-2.97 0.33-5.94 0.66-9 1v3h-6v3c-1.98 0.33-3.96 0.66-6 1v2c-2.31 0.33-4.62 0.66-7 1v2c-1.98 0.33-3.96 0.66-6 1v2c-1.98 0.33-3.96 0.66-6 1v2c-2.31 0.33-4.62 0.66-7 1v3h-6v3h-6v3h-6v3h-7v3h-6v3h-6v3c-2.31 0.33-4.62 0.66-7 1v2c-1.98 0.33-3.96 0.66-6 1v2c-1.98 0.33-3.96 0.66-6 1v3h-6v3h-7v3h-6v3h-6v3c-1.45 0.186-1.45 0.186-2.94 0.375-1.01 0.206-2.02 0.412-3.06 0.625-0.33 0.66-0.66 1.32-1 2-1.67 0.333-3.33 0.667-5 1-0.33 0.66-0.66 1.32-1 2-3.06 0.625-3.06 0.625-6 1v2c-1.98 0.33-3.96 0.66-6 1v2c-2.31 0.33-4.62 0.66-7 1v3h-6v3h-6v3c-1.45 0.186-1.45 0.186-2.94 0.375-1.01 0.206-2.02 0.412-3.06 0.625-0.33 0.66-0.66 1.32-1 2-1.67 0.333-3.33 0.667-5 1-0.33 0.66-0.66 1.32-1 2h-6v3h-6v3c-2.31 0.33-4.62 0.66-7 1v2c-2.71 1.35-5.01 1.07-8 1v3h-6v3h-7v3c-1.98 0.33-3.96 0.66-6 1v2c-1.98 0.33-3.96 0.66-6 1v2c-1.98 0.33-3.96 0.66-6 1v2c-2.31 0.33-4.62 0.66-7 1v3h-6v3h-6v3h-7v3h-6v3h-6v3c-1.45 0.186-1.45 0.186-2.94 0.375-1.01 0.206-2.02 0.412-3.06 0.625-0.33 0.66-0.66 1.32-1 2-3.06 0.625-3.06 0.625-6 1v2c-1.98 0.33-3.96 0.66-6 1v2c-1.98 0.33-3.96 0.66-6 1-0.33 0.99-0.66 1.98-1 3h-6v3h-6v3h-6v3h-6v3c-1.45 0.186-1.45 0.186-2.94 0.375-1.01 0.206-2.02 0.412-3.06 0.625-0.33 0.66-0.66 1.32-1 2-1.67 0.333-3.33 0.667-5 1-0.33 0.66-0.66 1.32-1 2-3.06 0.625-3.06 0.625-6 1v2c-2.31 0.33-4.62 0.66-7 1v2c-1.98 0.33-3.96 0.66-6 1v3h-6v3h-6v3c-1.45 0.186-1.45 0.186-2.94 0.375-1.01 0.206-2.02 0.412-3.06 0.625-0.33 0.66-0.66 1.32-1 2h-6v3h-6v3h-6v3c-2.31 0.33-4.62 0.66-7 1v2c-2.71 1.35-5.01 1.07-8 1v3h-6v3c-2.31 0.33-4.62 0.66-7 1v2c-1.98 0.33-3.96 0.66-6 1v2c-1.98 0.33-3.96 0.66-6 1v2c-2.31 0.33-4.62 0.66-7 1v2c-1.98 0.33-3.96 0.66-6 1-0.33 0.99-0.66 1.98-1 3h-5v3h-6v3h-7v3h-6v3h-6v3c-1.45 0.186-1.45 0.186-2.94 0.375-1.01 0.206-2.02 0.412-3.06 0.625-0.33 0.66-0.66 1.32-1 2-3.06 0.625-3.06 0.625-6 1v2c-1.98 0.33-3.96 0.66-6 1v2c-1.98 0.33-3.96 0.66-6 1-0.33 0.99-0.66 1.98-1 3h-6v3h-9v3h-7v3c-3.63 0.33-7.26 0.66-11 1v2c-4.29 0.33-8.58 0.66-13 1v2c-6.27 0.33-12.5 0.66-19 1v2h-50v-2c-6.27-0.33-12.5-0.66-19-1v-2c-4.29-0.33-8.58-0.66-13-1v-2c-3.63-0.33-7.26-0.66-11-1v-3h-7v-3h-9v-3h-6c-0.33-0.99-0.66-1.98-1-3-1.98-0.33-3.96-0.66-6-1v-2c-1.98-0.33-3.96-0.66-6-1v-2c-0.969-0.124-1.94-0.248-2.94-0.375-1.01-0.206-2.02-0.412-3.06-0.625-0.33-0.66-0.66-1.32-1-2-3.03-0.658-3.03-0.658-6-1v-3h-6v-3h-6v-3h-6v-3h-6c-0.33-0.99-0.66-1.98-1-3h-5c-0.33-0.99-0.66-1.98-1-3-1.98-0.33-3.96-0.66-6-1v-2c-2.31-0.33-4.62-0.66-7-1v-2c-1.98-0.33-3.96-0.66-6-1v-3h-6v-3h-6v-3h-7v-3h-6v-3c-2.97-0.33-5.94-0.66-9-1v-3h-6v-3h-6v-3h-6v-3h-7v-3h-6v-3h-6v-3c-1.98-0.33-3.96-0.66-6-1v-2c-2.31-0.33-4.62-0.66-7-1v-3h-6v-3h-6c-0.33-0.66-0.66-1.32-1-2-3.03-0.658-3.03-0.658-6-1v-3h-6v-3h-6v-3h-6v-3h-6l-1-3c-1.98-0.33-3.96-0.66-6-1v-2l-2.94-0.375c-1.01-0.206-2.02-0.412-3.06-0.625l-1-2-5-1-1-2c-3.03-0.658-3.03-0.658-6-1v-3h-6v-3h-6v-3h-7v-3h-6v-3h-6v-3c-1.98-0.33-3.96-0.66-6-1v-2c-2.31-0.33-4.62-0.66-7-1v-2c-1.98-0.33-3.96-0.66-6-1v-2c-1.98-0.33-3.96-0.66-6-1v-3h-6v-3h-7v-3h-6v-3c-2.97-0.33-5.94-0.66-9-1v-3h-6v-3h-6v-3h-6l-1-2c-3.03-0.658-3.03-0.658-6-1v-3h-6v-3h-6v-3c-2.31-0.33-4.62-0.66-7-1v-2l-2.94-0.375c-1.01-0.206-2.02-0.412-3.06-0.625l-1-2-5-1-1-2-5-1-1-2c-3.03-0.658-3.03-0.658-6-1v-3h-6v-3h-6v-3h-6v-3h-7v-3c-1.98-0.33-3.96-0.66-6-1v-2l-2.94-0.375c-1.01-0.206-2.02-0.412-3.06-0.625-0.33-0.66-0.66-1.32-1-2-3.03-0.658-3.03-0.658-6-1v-3h-6v-3h-6v-3h-6v-3h-7v-3h-6v-3h-6v-3c-2.31-0.33-4.62-0.66-7-1v-2c-1.98-0.33-3.96-0.66-6-1v-2c-1.98-0.33-3.96-0.66-6-1v-3h-6v-3h-7v-3h-6v-3h-6v-3c-2.97-0.33-5.94-0.66-9-1v-3h-6v-3h-6c-0.33-0.66-0.66-1.32-1-2-3.03-0.658-3.03-0.658-6-1v-3h-6v-3h-6v-3h-6v-3c-2.31-0.33-4.62-0.66-7-1v-2c-0.969-0.124-1.94-0.247-2.94-0.375-1.52-0.309-1.52-0.309-3.06-0.625-0.33-0.66-0.66-1.32-1-2-0.825-0.165-1.65-0.33-2.5-0.5-0.825-0.165-1.65-0.33-2.5-0.5-0.33-0.66-0.66-1.32-1-2-3.03-0.658-3.03-0.658-6-1v-2c-1.98-0.33-3.96-0.66-6-1v-3h-6v-3h-4v-3h-5v-3h-4v-3c-1.98-0.33-3.96-0.66-6-1v-3h-3v-3h-3v-3h-3c-0.33-1.98-0.66-3.96-1-6h-2v-3h-3c-0.33-1.98-0.66-3.96-1-6h-3v-4h-3v-6h-3v-9h-3v-10h-3v-46h3v-10h3v-9h3v-6h3l0.375-2.94 0.625-3.06c0.66-0.33 1.32-0.66 2-1l1-3h2l1-6h3v-3h3v-3h3v-3h3v-3h3v-3c1.98-0.33 3.96-0.66 6-1l1-3h3v-2l5-1 1-3h3v-3h7v-3h8v-3c1.98-0.33 3.96-0.66 6-1v-2c2.31-0.33 4.62-0.66 7-1v-2c1.98-0.33 3.96-0.66 6-1v-2c1.98-0.33 3.96-0.66 6-1 0.33-0.99 0.66-1.98 1-3h6v-3h6v-3h6v-3h6v-3h7v-3h6v-3c1.98-0.33 3.96-0.66 6-1v-2c2.31-0.33 4.62-0.66 7-1v-2c1.98-0.33 3.96-0.66 6-1v-3h6v-3h6v-3h7v-3h6v-3h6v-3h6v-3c2.31-0.33 4.62-0.66 7-1v-2c1.98-0.33 3.96-0.66 6-1v-3h6v-3h7v-3h6v-3h6v-3h6v-3c0.969-0.124 1.94-0.248 2.94-0.375 1.01-0.206 2.02-0.413 3.06-0.625 0.33-0.66 0.66-1.32 1-2 1.67-0.333 3.33-0.667 5-1 0.33-0.66 0.66-1.32 1-2 3.06-0.625 3.06-0.625 6-1v-2c1.98-0.33 3.96-0.66 6-1v-3h7v-3h8v-3c2.31-0.33 4.62-0.66 7-1v-2c1.98-0.33 3.96-0.66 6-1v-2c1.98-0.33 3.96-0.66 6-1v-2c1.98-0.33 3.96-0.66 6-1 0.33-0.99 0.66-1.98 1-3h6v-3h6v-3h6v-3c1.45-0.186 1.45-0.186 2.94-0.375 1.01-0.206 2.02-0.412 3.06-0.625l1-2h6v-3h6v-3c1.98-0.33 3.96-0.66 6-1v-2c2.31-0.33 4.62-0.66 7-1v-2c1.98-0.33 3.96-0.66 6-1v-3h6v-3h7v-3h6v-3h6v-3h6v-3c1.45-0.186 1.45-0.186 2.94-0.375 1.01-0.206 2.02-0.412 3.06-0.625l1-2c3.06-0.625 3.06-0.625 6-1v-2c1.98-0.33 3.96-0.66 6-1v-3h6v-3h7v-3h6v-3h6v-3h6v-3c1.45-0.186 1.45-0.186 2.94-0.375 1.52-0.309 1.52-0.309 3.06-0.625l1-2c1.67-0.333 3.33-0.667 5-1 0.33-0.66 0.66-1.32 1-2 3.06-0.625 3.06-0.625 6-1v-2c3.47-0.495 3.47-0.495 7-1v-3h6v-3c2.64-0.33 5.28-0.66 8-1v-2c3.47-0.495 3.47-0.495 7-1v-2c1.98-0.33 3.96-0.66 6-1v-2c1.98-0.33 3.96-0.66 6-1v-2c3.47-0.495 3.47-0.495 7-1v-3h6v-3h6v-3h6v-3h7v-3h6v-3h6v-3c2.31-0.33 4.62-0.66 7-1v-2c2.97-0.495 2.97-0.495 6-1v-2c2.97-0.495 2.97-0.495 6-1v-3h6v-3h7v-3h6v-3h6v-3h6v-3c1.45-0.186 1.45-0.186 2.94-0.375 1.01-0.206 2.02-0.412 3.06-0.625 0.33-0.66 0.66-1.32 1-2 3.06-0.625 3.06-0.625 6-1v-2c2.97-0.495 2.97-0.495 6-1v-3h7v-3h6v-3h6v-3h6v-3c1.45-0.186 1.45-0.186 2.94-0.375 1.01-0.206 2.02-0.412 3.06-0.625 0.33-0.66 0.66-1.32 1-2 2.65-0.594 5.29-0.742 8-1v-2c2.31-0.33 4.62-0.66 7-1v-2c2.31-0.33 4.62-0.66 7-1v-2c2.41-1.2 3.95-1.1 6.62-1.06 1.23 0.0135 1.23 0.0135 2.48 0.0273 0.626 0.0116 1.25 0.0232 1.9 0.0352v-3h10v-3h16v-3z" fill="#000002"/>
<path transform="translate(134,1038)" d="m0 0h16v3h7v2c2.64 0.33 5.28 0.66 8 1v3h6v3h7v3c2.97 0.495 2.97 0.495 6 1v2c0.969 0.124 1.94 0.247 2.94 0.375 1.01 0.206 2.02 0.412 3.06 0.625l1 2c3.03 0.658 3.03 0.658 6 1v3h6v3h6v3h6v3h7v3h6v3h6v3c2.97 0.495 2.97 0.495 6 1v2c2.31 0.33 4.62 0.66 7 1v3h6v3h6v3h7v3h6v3h6v3h6v3c2.31 0.33 4.62 0.66 7 1v2c2.97 0.495 2.97 0.495 6 1v2c2.97 0.495 2.97 0.495 6 1v2c2.31 0.33 4.62 0.66 7 1v3h6v3h6v3h6v3h6c0.33 0.99 0.66 1.98 1 3h5c0.33 0.99 0.66 1.98 1 3 1.98 0.33 3.96 0.66 6 1v2c2.31 0.33 4.62 0.66 7 1v2c1.98 0.33 3.96 0.66 6 1v2c3.96 0.495 3.96 0.495 8 1v3h7v3h6v3c1.98 0.33 3.96 0.66 6 1v2c0.969 0.124 1.94 0.247 2.94 0.375 1.01 0.206 2.02 0.412 3.06 0.625 0.33 0.66 0.66 1.32 1 2 3.03 0.658 3.03 0.658 6 1v3h6v3h6v3h6c0.33 0.66 0.66 1.32 1 2 3.03 0.658 3.03 0.658 6 1v3h6v3h6v3c2.31 0.33 4.62 0.66 7 1v2c1.98 0.33 3.96 0.66 6 1v3h6v3h6c0.33 0.66 0.66 1.32 1 2 3.03 0.658 3.03 0.658 6 1v3h6v3h6v3h6c0.33 0.99 0.66 1.98 1 3 1.98 0.33 3.96 0.66 6 1v2c1.98 0.33 3.96 0.66 6 1v2c1.98 0.33 3.96 0.66 6 1v2c2.31 0.33 4.62 0.66 7 1v3h6v3h6v3h7v3h5c0.33 0.99 0.66 1.98 1 3h5c0.33 0.99 0.66 1.98 1 3 1.98 0.33 3.96 0.66 6 1v2c2.31 0.33 4.62 0.66 7 1v2c1.98 0.33 3.96 0.66 6 1v2c1.95 0.186 1.95 0.186 3.94 0.375 2.21 0.211 2.21 0.211 4.06 0.625 0.33 0.66 0.66 1.32 1 2 3.03 0.658 3.03 0.658 6 1v3h6v3c1.98 0.33 3.96 0.66 6 1v2c2.31 0.33 4.62 0.66 7 1v3h6v3h6v3h6l1 2c3.03 0.658 3.03 0.658 6 1v3h6v3h6v3h6v3c2.31 0.33 4.62 0.66 7 1v2c0.969 0.124 1.94 0.247 2.94 0.375 1.01 0.206 2.02 0.412 3.06 0.625 0.33 0.66 0.66 1.32 1 2 0.825 0.165 1.65 0.33 2.5 0.5 0.825 0.165 1.65 0.33 2.5 0.5 0.33 0.66 0.66 1.32 1 2 3.03 0.658 3.03 0.658 6 1v3h6v3h6v3h6v3h6l1 3c1.98 0.33 3.96 0.66 6 1v2c1.98 0.33 3.96 0.66 6 1v2c2.31 0.33 4.62 0.66 7 1v2c1.98 0.33 3.96 0.66 6 1v2c2.97 0.33 5.94 0.66 9 1v3h9v3h10v3h12v3c0.869-0.0116 1.74-0.0232 2.63-0.0352 1.73-0.0135 1.73-0.0135 3.49-0.0273 1.14-0.0116 2.27-0.0232 3.45-0.0352 3.24 0.0923 6.25 0.484 9.43 1.1v2h50v-2c4.35-0.84 8.44-1.11 12.9-1.06l3.49 0.0273c1.3 0.0174 1.3 0.0174 2.63 0.0352v-3h12v-3h10v-3h9v-3c2.97-0.33 5.94-0.66 9-1v-2c0.969-0.124 1.94-0.247 2.94-0.375 1.01-0.206 2.02-0.412 3.06-0.625 0.33-0.66 0.66-1.32 1-2 3.06-0.625 3.06-0.625 6-1v-2c1.98-0.33 3.96-0.66 6-1v-2c1.98-0.33 3.96-0.66 6-1l1-3h6v-3h6v-3h6v-3c1.45-0.186 1.45-0.186 2.94-0.375 1.01-0.206 2.02-0.412 3.06-0.625 0.33-0.66 0.66-1.32 1-2h6v-3h6v-3c1.98-0.33 3.96-0.66 6-1v-2c2.31-0.33 4.62-0.66 7-1v-3h6v-3h6v-3h6v-3h7v-3h6v-3h6v-3c1.45-0.186 1.45-0.186 2.94-0.375 1.01-0.206 2.02-0.412 3.06-0.625 0.33-0.66 0.66-1.32 1-2 3.06-0.625 3.06-0.625 6-1v-2c1.98-0.33 3.96-0.66 6-1v-3h6v-3h7v-3c2.64-0.33 5.28-0.66 8-1v-2c1.98-0.33 3.96-0.66 6-1v-2c2.31-0.33 4.62-0.66 7-1v-2c1.98-0.33 3.96-0.66 6-1 0.33-0.99 0.66-1.98 1-3h5c0.33-0.99 0.66-1.98 1-3h6v-3h6v-3h6v-3h6v-3c1.45-0.186 1.45-0.186 2.94-0.375 1.01-0.206 2.02-0.412 3.06-0.625 0.33-0.66 0.66-1.32 1-2 3.06-0.625 3.06-0.625 6-1v-2c1.98-0.33 3.96-0.66 6-1v-2c2.31-0.33 4.62-0.66 7-1v-3h6v-3h6v-3h6v-3c0.969-0.124 1.94-0.247 2.94-0.375 1.01-0.206 2.02-0.412 3.06-0.625 0.33-0.66 0.66-1.32 1-2h6v-3h6v-3c1.98-0.33 3.96-0.66 6-1v-2c2.31-0.33 4.62-0.66 7-1v-3h6v-3h6v-3h7v-3h6v-3h6v-3h6v-3c0.969-0.124 1.94-0.247 2.94-0.375 1.01-0.206 2.02-0.412 3.06-0.625 0.33-0.66 0.66-1.32 1-2 3.06-0.625 3.06-0.625 6-1v-2c2.97-0.495 2.97-0.495 6-1v-3h6v-3h7v-3c2.64-0.33 5.28-0.66 8-1v-2c2.31-0.33 4.62-0.66 7-1v-2c2.97-0.495 2.97-0.495 6-1v-2c2.97-0.495 2.97-0.495 6-1 0.33-0.99 0.66-1.98 1-3h5c0.33-0.99 0.66-1.98 1-3h6v-3h6v-3h6v-3c0.969-0.124 1.94-0.247 2.94-0.375 1.01-0.206 2.02-0.412 3.06-0.625 0.33-0.66 0.66-1.32 1-2h6v-3c2.97-0.495 2.97-0.495 6-1v-2c2.97-0.495 2.97-0.495 6-1v-2c2.31-0.33 4.62-0.66 7-1v-3h6v-3h6v-3c0.969-0.124 1.94-0.247 2.94-0.375 1.01-0.206 2.02-0.412 3.06-0.625 0.33-0.66 0.66-1.32 1-2h6v-3h6v-3h6v-3c2.31-0.33 4.62-0.66 7-1v-2c2.97-0.495 2.97-0.495 6-1v-3h6v-3h6v-3h7v-3h6v-3h6v-3h6c0.33-0.99 0.66-1.98 1-3 0.804-0.124 1.61-0.247 2.44-0.375 0.846-0.206 1.69-0.412 2.56-0.625 0.33-0.66 0.66-1.32 1-2 3.06-0.625 3.06-0.625 6-1v-2c2.97-0.495 2.97-0.495 6-1v-3h7v-3h6v-3c2.64-0.33 5.28-0.66 8-1v-2h7v-3h16v2c2.97 0.33 5.94 0.66 9 1v3h6v3h4v3h5v3h4v3c1.98 0.33 3.96 0.66 6 1v3h3v3h3v3h3c0.33 1.98 0.66 3.96 1 6h2v3h3c0.33 0.99 0.66 1.98 1 3 0.516 0.474 1.03 0.949 1.56 1.44 1.44 1.56 1.44 1.56 1.44 5.56h3v6h3v9h3v10h3v46h-3v12h-3v7h-3v6h-3c-0.124 0.969-0.248 1.94-0.375 2.94-0.206 1.01-0.412 2.02-0.625 3.06-0.66 0.33-1.32 0.66-2 1-0.33 0.99-0.66 1.98-1 3h-2c-0.33 1.98-0.66 3.96-1 6h-3v3h-3v3h-3v3h-3v3h-3v3c-1.98 0.33-3.96 0.66-6 1-0.33 0.99-0.66 1.98-1 3h-3v2c-1.65 0.33-3.3 0.66-5 1-0.33 0.99-0.66 1.98-1 3h-3v3h-7v3c-2.64 0.33-5.28 0.66-8 1v2c-1.98 0.33-3.96 0.66-6 1v2c-2.31 0.33-4.62 0.66-7 1v2c-1.98 0.33-3.96 0.66-6 1v2c-1.98 0.33-3.96 0.66-6 1-0.33 0.99-0.66 1.98-1 3h-5c-0.33 0.99-0.66 1.98-1 3h-6v3h-6v3h-6v3c-0.969 0.124-1.94 0.247-2.94 0.375-1.01 0.206-2.02 0.412-3.06 0.625-0.33 0.66-0.66 1.32-1 2-3.06 0.625-3.06 0.625-6 1v2c-1.98 0.33-3.96 0.66-6 1v2c-1.98 0.33-3.96 0.66-6 1v2c-2.31 0.33-4.62 0.66-7 1v3h-6v3h-6v3c-0.969 0.124-1.94 0.247-2.94 0.375-1.01 0.206-2.02 0.412-3.06 0.625-0.33 0.66-0.66 1.32-1 2h-6v3h-6v3h-6v3c-2.31 0.33-4.62 0.66-7 1v2c-1.98 0.33-3.96 0.66-6 1v3h-6v3h-6v3h-7v3h-6v3h-6v3c-0.969 0.124-1.94 0.247-2.94 0.375-1.01 0.206-2.02 0.412-3.06 0.625-0.33 0.66-0.66 1.32-1 2-1.67 0.333-3.33 0.667-5 1-0.33 0.66-0.66 1.32-1 2-3.06 0.625-3.06 0.625-6 1v2c-1.98 0.33-3.96 0.66-6 1v3h-7v3c-2.64 0.33-5.28 0.66-8 1v2c-1.98 0.33-3.96 0.66-6 1v2c-2.31 0.33-4.62 0.66-7 1v2c-1.98 0.33-3.96 0.66-6 1v2c-1.98 0.33-3.96 0.66-6 1l-1 3h-6v3h-6v3h-6v3h-6v3h-7v3c-1.98 0.33-3.96 0.66-6 1v2c-1.98 0.33-3.96 0.66-6 1v2c-2.31 0.33-4.62 0.66-7 1v2c-1.98 0.33-3.96 0.66-6 1v3h-6v3h-6v3h-7v3h-6v3h-6v3h-6v3c-2.31 0.33-4.62 0.66-7 1v2c-1.98 0.33-3.96 0.66-6 1v3h-6v3h-7v3h-6v3h-6v3h-6v3c-0.969 0.124-1.94 0.247-2.94 0.375-1.01 0.206-2.02 0.412-3.06 0.625-0.33 0.66-0.66 1.32-1 2-1.67 0.333-3.33 0.667-5 1-0.33 0.66-0.66 1.32-1 2-3.06 0.625-3.06 0.625-6 1v2c-2.31 0.33-4.62 0.66-7 1v3h-6v3h-6v3c-2.97 0.33-5.94 0.66-9 1v2c-1.98 0.33-3.96 0.66-6 1v2c-1.98 0.33-3.96 0.66-6 1v2c-1.98 0.33-3.96 0.66-6 1-0.33 0.99-0.66 1.98-1 3h-6v3h-6v3h-6v3c-0.969 0.124-1.94 0.247-2.94 0.375-1.01 0.206-2.02 0.412-3.06 0.625-0.33 0.66-0.66 1.32-1 2h-6v3c-1.98 0.33-3.96 0.66-6 1v2c-1.98 0.33-3.96 0.66-6 1v2c-2.31 0.33-4.62 0.66-7 1v2c-1.98 0.33-3.96 0.66-6 1v3h-6v3h-7v3h-6v3h-6v3h-6v3c-0.969 0.124-1.94 0.247-2.94 0.375-1.01 0.206-2.02 0.412-3.06 0.625-0.33 0.66-0.66 1.32-1 2-3.06 0.625-3.06 0.625-6 1v2c-1.98 0.33-3.96 0.66-6 1v3h-6v3h-7v3h-6v3h-6v3c-0.969 0.124-1.94 0.247-2.94 0.375-1.01 0.206-2.02 0.412-3.06 0.625-0.33 0.66-0.66 1.32-1 2-1.67 0.333-3.33 0.667-5 1-0.33 0.66-0.66 1.32-1 2-2.07 0.414-2.07 0.414-4.56 0.625-1.24 0.112-1.24 0.112-2.5 0.227-0.638 0.049-1.28 0.098-1.93 0.148v2c-2.31 0.33-4.62 0.66-7 1v2c-2.41 1.2-3.95 1.1-6.62 1.06-0.817-0.00902-1.63-0.018-2.48-0.0273-0.94-0.0174-0.94-0.0174-1.9-0.0352v3h-10v3h-16v3h-68v-3h-16v-3h-10v-3c-0.626 0.0116-1.25 0.0232-1.9 0.0352-1.23 0.0135-1.23 0.0135-2.48 0.0273-0.812 0.0116-1.62 0.0232-2.46 0.0352-2.16-0.0977-2.16-0.0977-4.16-1.1v-2c-2.31-0.33-4.62-0.66-7-1v-2c-2.31-0.33-4.62-0.66-7-1v-2c-1.3-0.124-2.6-0.247-3.94-0.375-2.21-0.211-2.21-0.211-4.06-0.625-0.33-0.66-0.66-1.32-1-2-3.03-0.658-3.03-0.658-6-1v-3h-6v-3h-6v-3h-6v-3h-7v-3c-1.98-0.33-3.96-0.66-6-1v-2c-0.969-0.124-1.94-0.247-2.94-0.375-1.52-0.309-1.52-0.309-3.06-0.625-0.33-0.66-0.66-1.32-1-2-3.03-0.658-3.03-0.658-6-1v-3h-6v-3h-6v-3h-6v-3h-7v-3h-6v-3c-1.98-0.33-3.96-0.66-6-1v-2c-1.98-0.33-3.96-0.66-6-1v-2c-2.31-0.33-4.62-0.66-7-1v-3h-6v-3h-6v-3h-7v-3h-6v-3h-6v-3h-6v-3c-2.31-0.33-4.62-0.66-7-1v-2c-1.98-0.33-3.96-0.66-6-1v-2c-1.98-0.33-3.96-0.66-6-1v-2c-2.31-0.33-4.62-0.66-7-1v-2c-2.64-0.33-5.28-0.66-8-1v-3h-6v-3c-2.31-0.33-4.62-0.66-7-1v-2c-0.969-0.124-1.94-0.247-2.94-0.375-1.52-0.309-1.52-0.309-3.06-0.625-0.33-0.66-0.66-1.32-1-2-0.825-0.165-1.65-0.33-2.5-0.5-0.825-0.165-1.65-0.33-2.5-0.5-0.33-0.66-0.66-1.32-1-2-3.03-0.658-3.03-0.658-6-1v-3h-6v-3h-6v-3h-6v-3h-7v-3h-6v-3c-1.98-0.33-3.96-0.66-6-1v-2c-0.969-0.124-1.94-0.247-2.94-0.375-1.52-0.309-1.52-0.309-3.06-0.625-0.33-0.66-0.66-1.32-1-2-3.03-0.658-3.03-0.658-6-1v-3h-6v-3h-6v-3h-6v-3h-7v-3h-6v-3c-1.98-0.33-3.96-0.66-6-1v-2c-2.31-0.33-4.62-0.66-7-1v-2c-1.98-0.33-3.96-0.66-6-1v-3h-6v-3h-6c-0.33-0.66-0.66-1.32-1-2-3.03-0.658-3.03-0.658-6-1v-3h-6v-3h-6v-3h-6c-0.33-0.99-0.66-1.98-1-3-1.98-0.33-3.96-0.66-6-1v-2c-1.98-0.33-3.96-0.66-6-1v-2c-2.31-0.33-4.62-0.66-7-1v-2c-1.98-0.33-3.96-0.66-6-1v-2c-2.64-0.33-5.28-0.66-8-1v-3h-7v-3c-1.98-0.33-3.96-0.66-6-1v-2c-0.969-0.124-1.94-0.247-2.94-0.375-1.52-0.309-1.52-0.309-3.06-0.625-0.33-0.66-0.66-1.32-1-2-0.825-0.165-1.65-0.33-2.5-0.5-0.825-0.165-1.65-0.33-2.5-0.5-0.33-0.66-0.66-1.32-1-2-3.03-0.658-3.03-0.658-6-1v-3h-6v-3h-6v-3h-6v-3h-7v-3h-6v-3c-1.98-0.33-3.96-0.66-6-1v-2c-2.31-0.33-4.62-0.66-7-1v-3h-6v-3h-6v-3h-6v-3h-7v-3h-6v-3h-6v-3c-1.98-0.33-3.96-0.66-6-1v-2c-2.31-0.33-4.62-0.66-7-1v-2c-1.98-0.33-3.96-0.66-6-1v-3h-6v-3h-7v-3h-6v-3h-6v-3h-6v-3h-6c-0.33-0.99-0.66-1.98-1-3-1.98-0.33-3.96-0.66-6-1v-2c-1.98-0.33-3.96-0.66-6-1v-2c-2.31-0.33-4.62-0.66-7-1v-2c-1.98-0.33-3.96-0.66-6-1v-3h-8v-3h-7v-3c-1.32-0.33-2.64-0.66-4-1v-2c-1.65-0.33-3.3-0.66-5-1v-2c-1.32-0.33-2.64-0.66-4-1v-2c-1.98-0.33-3.96-0.66-6-1v-3h-3v-3h-3v-3h-3v-3h-3v-3h-3c-0.33-1.98-0.66-3.96-1-6h-2c-0.33-0.99-0.66-1.98-1-3-0.516-0.474-1.03-0.949-1.56-1.44-1.44-1.56-1.44-1.56-1.44-5.56h-3v-6h-3v-9h-3v-10h-3v-46h3v-10h3v-9h3v-6h3c0.124-0.969 0.248-1.94 0.375-2.94 0.206-1.01 0.412-2.02 0.625-3.06 0.99-0.495 0.99-0.495 2-1 0.33-0.99 0.66-1.98 1-3h3v-3h2c0.33-1.98 0.66-3.96 1-6h3v-3h3v-3h3v-3c1.98-0.33 3.96-0.66 6-1v-3h4v-3h5v-3h4v-3h6v-3c4.45-0.495 4.45-0.495 9-1v-2z" fill="#000002"/>
<path transform="translate(136 706)" d="m0 0c0.969-0.00129 1.94-0.00258 2.94-0.00391 1.52 0.0058 1.52 0.0058 3.06 0.0117 1.01-0.00387 2.02-0.00773 3.06-0.0117 0.969 0.00129 1.94 0.00258 2.94 0.00391 1.33 0.00169 1.33 0.00169 2.69 0.00342 2.31 0.129 2.31 0.129 5.31 1.13v2c0.969 0.124 1.94 0.247 2.94 0.375 1.01 0.206 2.02 0.413 3.06 0.625 0.495 0.99 0.495 0.99 1 2 3.03 0.658 3.03 0.658 6 1v3h6v3h6v3h6v3h7v3h6v3c1.98 0.33 3.96 0.66 6 1v2c1.98 0.33 3.96 0.66 6 1v2c2.31 0.33 4.62 0.66 7 1v3h6v3h6v3h7v3h6v3h6v3h6c0.33 0.99 0.66 1.98 1 3 2.97 0.495 2.97 0.495 6 1v2c2.97 0.495 2.97 0.495 6 1v2c2.97 0.495 2.97 0.495 6 1v2c2.31 0.33 4.62 0.66 7 1v2c2.97 0.495 2.97 0.495 6 1v3h8v3c2.31 0.33 4.62 0.66 7 1v2c0.969 0.124 1.94 0.247 2.94 0.375 1.01 0.206 2.02 0.413 3.06 0.625 0.33 0.66 0.66 1.32 1 2 0.825 0.165 1.65 0.33 2.5 0.5 0.825 0.165 1.65 0.33 2.5 0.5 0.33 0.66 0.66 1.32 1 2 0.825 0.165 1.65 0.33 2.5 0.5 0.825 0.165 1.65 0.33 2.5 0.5 0.33 0.66 0.66 1.32 1 2 3.03 0.658 3.03 0.658 6 1v3h6v3h6v3h7v3h6v3c1.98 0.33 3.96 0.66 6 1v2c0.969 0.124 1.94 0.247 2.94 0.375 1.01 0.206 2.02 0.413 3.06 0.625 0.33 0.66 0.66 1.32 1 2 3.03 0.658 3.03 0.658 6 1v3h6v3h6v3h7v3h6v3h6v3c1.98 0.33 3.96 0.66 6 1v2c2.31 0.33 4.62 0.66 7 1v2c1.98 0.33 3.96 0.66 6 1v3h6v3h6c0.33 0.66 0.66 1.32 1 2 3.03 0.658 3.03 0.658 6 1v3h6v3h6v3h6c0.33 0.99 0.66 1.98 1 3 1.98 0.33 3.96 0.66 6 1v2c1.98 0.33 3.96 0.66 6 1v2c1.98 0.33 3.96 0.66 6 1v2c2.31 0.33 4.62 0.66 7 1v3h6v3h9v3c1.98 0.33 3.96 0.66 6 1v2c0.969 0.124 1.94 0.247 2.94 0.375 1.01 0.206 2.02 0.413 3.06 0.625 0.33 0.66 0.66 1.32 1 2 0.825 0.165 1.65 0.33 2.5 0.5 0.825 0.165 1.65 0.33 2.5 0.5 0.33 0.66 0.66 1.32 1 2 3.03 0.658 3.03 0.658 6 1v3h6v3h6v3h6v3h7v3h6v3c1.98 0.33 3.96 0.66 6 1v2c2.31 0.33 4.62 0.66 7 1v3h6v3h6v3h6v3h7v3h6v3h6v3c2.31 0.33 4.62 0.66 7 1v2c1.98 0.33 3.96 0.66 6 1v2c1.98 0.33 3.96 0.66 6 1v3h6c0.33 0.66 0.66 1.32 1 2 3.03 0.658 3.03 0.658 6 1v3h6v3h6v3h6v3h6c0.33 0.99 0.66 1.98 1 3 1.98 0.33 3.96 0.66 6 1v2c1.98 0.33 3.96 0.66 6 1v2c2.31 0.33 4.62 0.66 7 1v2c1.98 0.33 3.96 0.66 6 1v2c1.98 0.33 3.96 0.66 6 1v3h6v3c2.97 0.33 5.94 0.66 9 1v2c1.98 0.33 3.96 0.66 6 1v2c2.31 0.33 4.62 0.66 7 1v2c2.97 0.33 5.94 0.66 9 1v3h10v3h12v3h16v3h62v-3h16v-3h12v-3h10v-3c2.97-0.33 5.94-0.66 9-1v-2c2.31-0.33 4.62-0.66 7-1v-2c1.98-0.33 3.96-0.66 6-1v-2c2.97-0.33 5.94-0.66 9-1v-3h6v-3h6v-3c0.969-0.124 1.94-0.247 2.94-0.375 1.01-0.206 2.02-0.412 3.06-0.625 0.33-0.66 0.66-1.32 1-2 3.06-0.625 3.06-0.625 6-1v-2c1.98-0.33 3.96-0.66 6-1v-2c1.98-0.33 3.96-0.66 6-1 0.33-0.99 0.66-1.98 1-3h6v-3h6v-3h6v-3h6v-3h7v-3h6v-3h6v-3c2.31-0.33 4.62-0.66 7-1v-2c1.98-0.33 3.96-0.66 6-1v-3h6v-3h6v-3h7v-3h6v-3h6v-3h6c0.33-0.99 0.66-1.98 1-3 0.804-0.124 1.61-0.247 2.44-0.375 0.846-0.206 1.69-0.413 2.56-0.625 0.33-0.66 0.66-1.32 1-2 3.06-0.625 3.06-0.625 6-1v-2c1.98-0.33 3.96-0.66 6-1v-3h7v-3h6v-3h6v-3h6v-3c1.45-0.186 1.45-0.186 2.94-0.375 1.01-0.206 2.02-0.413 3.06-0.625 0.33-0.66 0.66-1.32 1-2 1.67-0.333 3.33-0.667 5-1 0.33-0.66 0.66-1.32 1-2 3.06-0.625 3.06-0.625 6-1v-2c2.97-0.33 5.94-0.66 9-1v-3h6v-3h6v-3c2.31-0.33 4.62-0.66 7-1v-2c1.98-0.33 3.96-0.66 6-1v-2c1.98-0.33 3.96-0.66 6-1v-2c1.98-0.33 3.96-0.66 6-1 0.33-0.99 0.66-1.98 1-3h6v-3h6v-3h6v-3c0.969-0.124 1.94-0.247 2.94-0.375 1.01-0.206 2.02-0.413 3.06-0.625 0.33-0.66 0.66-1.32 1-2h6v-3h6v-3c1.98-0.33 3.96-0.66 6-1v-2c2.31-0.33 4.62-0.66 7-1v-2c2.97-0.495 2.97-0.495 6-1v-3h6v-3h7v-3h6v-3h6v-3h6v-3c0.969-0.124 1.94-0.247 2.94-0.375 1.01-0.206 2.02-0.413 3.06-0.625 0.33-0.66 0.66-1.32 1-2 1.67-0.333 3.33-0.667 5-1 0.33-0.66 0.66-1.32 1-2 3.06-0.625 3.06-0.625 6-1v-2c2.97-0.495 2.97-0.495 6-1v-3h7v-3h6v-3h6v-3c0.969-0.124 1.94-0.247 2.94-0.375 1.01-0.206 2.02-0.413 3.06-0.625 0.33-0.66 0.66-1.32 1-2 1.67-0.333 3.33-0.667 5-1 0.33-0.66 0.66-1.32 1-2 1.67-0.333 3.33-0.667 5-1 0.33-0.66 0.66-1.32 1-2 3.06-0.625 3.06-0.625 6-1v-2l9-1v-3h6v-3c0.969-0.124 1.94-0.247 2.94-0.375 1.01-0.206 2.02-0.413 3.06-0.625 0.33-0.66 0.66-1.32 1-2h6v-3c2.97-0.495 2.97-0.495 6-1v-2c2.97-0.495 2.97-0.495 6-1v-2c2.31-0.33 4.62-0.66 7-1v-3h6v-3h6v-3h6v-3h7v-3h6v-3h6v-3c3.46-0.495 3.46-0.495 7-1v-2c1.98-0.33 3.96-0.66 6-1v-2c1.98-0.33 3.96-0.66 6-1v-3h6v-3h7v-3h6v-3h6v-3h6v-3c0.969-0.124 1.94-0.247 2.94-0.375 1.01-0.206 2.02-0.413 3.06-0.625 0.33-0.66 0.66-1.32 1-2 3.06-0.625 3.06-0.625 6-1v-2c2.96-0.986 4.91-1.13 8-1.13 0.969-0.00129 1.94-0.00258 2.94-0.00391 1.52 0.0058 1.52 0.0058 3.06 0.0117 1.01-0.00387 2.02-0.00773 3.06-0.0117 0.969 0.00129 1.94 0.00258 2.94 0.00391 0.887 0.00113 1.77 0.00226 2.69 0.00342 2.31 0.129 2.31 0.129 5.31 1.13v2c1.98 0.33 3.96 0.66 6 1v2c1.98 0.33 3.96 0.66 6 1v3h6v3h4v3h3v3h3v3h3v3h3v3h3c0.33 0.99 0.66 1.98 1 3 0.66 0.33 1.32 0.66 2 1v3h3c0.33 1.98 0.66 3.96 1 6h3v6h3v6h3v7h3v12h3v44h-3v12h-3v7h-3v6h-3v6h-3c-0.33 1.98-0.66 3.96-1 6h-3v3c-0.66 0.33-1.32 0.66-2 1-0.33 0.99-0.66 1.98-1 3h-3v3h-3v3h-3v3h-3v3h-3v3h-4v3h-6v3c-1.98 0.33-3.96 0.66-6 1v2c-1.98 0.33-3.96 0.66-6 1v2c-1.98 0.33-3.96 0.66-6 1-0.33 0.99-0.66 1.98-1 3h-6v3h-6v3h-6v3h-6v3c-0.969 0.124-1.94 0.247-2.94 0.375-1.01 0.206-2.02 0.413-3.06 0.625-0.33 0.66-0.66 1.32-1 2-3.06 0.625-3.06 0.625-6 1v2c-1.98 0.33-3.96 0.66-6 1v2c-1.98 0.33-3.96 0.66-6 1-0.33 0.99-0.66 1.98-1 3h-6v3h-6v3h-6v3c-0.969 0.124-1.94 0.247-2.94 0.375-1.01 0.206-2.02 0.413-3.06 0.625-0.33 0.66-0.66 1.32-1 2h-6v3h-6v3c-1.98 0.33-3.96 0.66-6 1v2c-2.31 0.33-4.62 0.66-7 1v2c-1.98 0.33-3.96 0.66-6 1v3h-6v3c-0.969 0.124-1.94 0.247-2.94 0.375-1.01 0.206-2.02 0.413-3.06 0.625-0.33 0.66-0.66 1.32-1 2h-6v3h-6v3c-2.97 0.33-5.94 0.66-9 1v2c-1.98 0.33-3.96 0.66-6 1l-1 3h-5v3h-6v3h-7v3h-6v3h-6v3c-2.31 0.33-4.62 0.66-7 1v2c-1.98 0.33-3.96 0.66-6 1v2c-1.98 0.33-3.96 0.66-6 1v2c-1.98 0.33-3.96 0.66-6 1l-1 3h-6v3h-6v3h-6v3h-6v3c-0.969 0.124-1.94 0.247-2.94 0.375-1.01 0.206-2.02 0.412-3.06 0.625-0.33 0.66-0.66 1.32-1 2-3.06 0.625-3.06 0.625-6 1v2c-1.98 0.33-3.96 0.66-6 1v2c-2.31 0.33-4.62 0.66-7 1v3h-6v3h-6v3h-6v3h-7v3h-6v3h-6v3c-0.969 0.124-1.94 0.247-2.94 0.375-1.01 0.206-2.02 0.412-3.06 0.625-0.33 0.66-0.66 1.32-1 2-3.06 0.625-3.06 0.625-6 1v2c-1.98 0.33-3.96 0.66-6 1v3h-6v3h-7v3h-6v3h-6v3c-2.97 0.33-5.94 0.66-9 1v2c-1.98 0.33-3.96 0.66-6 1-0.33 0.99-0.66 1.98-1 3h-5c-0.33 0.99-0.66 1.98-1 3h-5v3h-7v3h-6v3h-6v3c-2.31 0.33-4.62 0.66-7 1v2c-1.98 0.33-3.96 0.66-6 1v2c-1.98 0.33-3.96 0.66-6 1v2c-2.31 0.33-4.62 0.66-7 1v3h-6v3h-6v3h-6v3c-0.969 0.124-1.94 0.247-2.94 0.375-1.01 0.206-2.02 0.412-3.06 0.625-0.33 0.66-0.66 1.32-1 2h-6v3c-1.98 0.33-3.96 0.66-6 1v2c-1.98 0.33-3.96 0.66-6 1v2c-2.31 0.33-4.62 0.66-7 1v3h-6v3h-6v3c-0.969 0.124-1.94 0.247-2.94 0.375-1.01 0.206-2.02 0.412-3.06 0.625-0.33 0.66-0.66 1.32-1 2h-6v3h-6v3h-6v3c-2.31 0.33-4.62 0.66-7 1v2c-1.98 0.33-3.96 0.66-6 1v2c-1.98 0.33-3.96 0.66-6 1v3h-7v3h-6v3h-6v3h-6v3c-2.97 0.33-5.94 0.66-9 1v2c-1.98 0.33-3.96 0.66-6 1l-1 3h-5l-1 3h-6v3h-6v3h-6v3h-7v3c-2.97 0.33-5.94 0.66-9 1v2c-2.97 0.33-5.94 0.66-9 1v2c-3.3 0.33-6.6 0.66-10 1v2c-3.01 1-5.04 1.1-8.19 1.06-0.901-0.00902-1.8-0.018-2.73-0.0273-1.03-0.0174-1.03-0.0174-2.08-0.0352v2c-2.94 0.98-4.83 1.12-7.89 1.1-0.938-0.00322-1.88-0.00645-2.84-0.00977-0.976-0.00838-1.95-0.0168-2.96-0.0254-0.988-0.00451-1.98-0.00902-2.99-0.0137-2.44-0.0118-4.88-0.0282-7.32-0.0488v3h-32v-3c-0.931 0.00786-0.931 0.00786-1.88 0.0159-2.81 0.0208-5.62 0.0338-8.43 0.0466-0.976 0.00838-1.95 0.0168-2.96 0.0254-0.938 0.00322-1.88 0.00645-2.84 0.00977-0.864 0.00524-1.73 0.0105-2.62 0.0159-2.27-0.114-2.27-0.114-5.27-1.11v-2c-0.687 0.0116-1.37 0.0232-2.08 0.0352-1.35 0.0135-1.35 0.0135-2.73 0.0273-1.34 0.0174-1.34 0.0174-2.71 0.0352-2.48-0.0977-2.48-0.0977-5.48-1.1v-2c-3.3-0.33-6.6-0.66-10-1v-2c-2.97-0.33-5.94-0.66-9-1v-2c-2.97-0.33-5.94-0.66-9-1v-3h-7v-3h-6v-3h-6v-3h-6v-3h-6l-1-3c-1.98-0.33-3.96-0.66-6-1v-2c-2.97-0.33-5.94-0.66-9-1v-3h-6v-3h-6v-3h-6v-3h-7v-3c-1.98-0.33-3.96-0.66-6-1v-2c-0.969-0.124-1.94-0.247-2.94-0.375-1.52-0.309-1.52-0.309-3.06-0.625-0.33-0.66-0.66-1.32-1-2-3.03-0.658-3.03-0.658-6-1v-3h-6v-3h-6v-3h-6v-3h-7v-3h-6v-3h-6v-3c-1.98-0.33-3.96-0.66-6-1v-2c-2.31-0.33-4.62-0.66-7-1v-3h-6v-3h-6c-0.33-0.66-0.66-1.32-1-2-3.03-0.658-3.03-0.658-6-1v-3h-6v-3h-6v-3h-6v-3c-2.31-0.33-4.62-0.66-7-1v-2c-1.98-0.33-3.96-0.66-6-1v-2c-1.98-0.33-3.96-0.66-6-1v-2c-0.969-0.124-1.94-0.247-2.94-0.375-1.52-0.309-1.52-0.309-3.06-0.625-0.33-0.66-0.66-1.32-1-2-3.03-0.658-3.03-0.658-6-1v-3h-6v-3h-6v-3h-6l-1-3h-5l-1-3c-1.98-0.33-3.96-0.66-6-1v-2c-2.97-0.33-5.94-0.66-9-1v-3h-6v-3h-6v-3h-7v-3h-6v-3c-1.98-0.33-3.96-0.66-6-1v-2c-0.969-0.124-1.94-0.247-2.94-0.375-1.52-0.309-1.52-0.309-3.06-0.625-0.33-0.66-0.66-1.32-1-2-3.03-0.658-3.03-0.658-6-1v-3h-6v-3h-6v-3h-7v-2c-1.98-0.33-3.96-0.66-6-1v-3h-6v-3h-6v-3c-2.31-0.33-4.62-0.66-7-1v-2c-1.98-0.33-3.96-0.66-6-1v-3h-6v-3h-6c-0.33-0.66-0.66-1.32-1-2-3.03-0.658-3.03-0.658-6-1v-3h-6v-3h-6v-3h-6c-0.33-0.99-0.66-1.98-1-3-1.98-0.33-3.96-0.66-6-1v-2c-1.98-0.33-3.96-0.66-6-1v-2c-0.969-0.124-1.94-0.247-2.94-0.375-1.52-0.309-1.52-0.309-3.06-0.625-0.33-0.66-0.66-1.32-1-2-3.03-0.658-3.03-0.658-6-1v-3h-6v-3h-6v-3h-6v-3h-6c-0.33-0.99-0.66-1.98-1-3h-5c-0.33-0.99-0.66-1.98-1-3-1.98-0.33-3.96-0.66-6-1v-2c-2.97-0.33-5.94-0.66-9-1v-3h-6v-3h-6v-3h-7v-3h-6v-3c-1.98-0.33-3.96-0.66-6-1v-2c-2.31-0.33-4.62-0.66-7-1v-3h-6v-3h-6v-3h-6v-3h-7v-3h-6v-3h-6v-3h-6v-3c-2.31-0.33-4.62-0.66-7-1v-2c-1.98-0.33-3.96-0.66-6-1v-3h-6c-0.33-0.66-0.66-1.32-1-2-3.03-0.658-3.03-0.658-6-1v-3h-6v-3h-6v-3h-6v-3h-6c-0.33-0.99-0.66-1.98-1-3-1.98-0.33-3.96-0.66-6-1v-2c-1.45-0.186-1.45-0.186-2.94-0.375-1.01-0.206-2.02-0.413-3.06-0.625-0.33-0.66-0.66-1.32-1-2-2.53-0.656-2.53-0.656-5-1v-3h-6v-3h-4v-3h-3v-3h-3v-3h-3v-3h-3v-3h-3c-0.33-0.99-0.66-1.98-1-3-0.66-0.33-1.32-0.66-2-1v-3h-3c-0.33-1.98-0.66-3.96-1-6h-3v-6h-3v-6h-3v-7h-3c-0.33-3.96-0.66-7.92-1-12h-2v-44h2c0.33-3.96 0.66-7.92 1-12h3v-7h3v-6h3v-6h3l1-6h3v-3c0.66-0.33 1.32-0.66 2-1 0.33-0.99 0.66-1.98 1-3h3v-3h3v-3h3v-3h3v-3h3v-3h4v-3h6v-3c1.98-0.33 3.96-0.66 6-1v-2c1.98-0.33 3.96-0.66 6-1v-2c2.96-0.986 4.91-1.13 8-1.13z" fill="#000002"/>
</svg>
