<?xml version="1.0" encoding="UTF-8"?>
<svg version="1.1" viewBox="0 0 1600 1600" width="1280" height="1280" xmlns="http://www.w3.org/2000/svg">
<path transform="translate(141,689)" d="m0 0h2c0.438 0.79 0.877 1.58 1.33 2.39 5.35 9.51 11.1 18.7 17 27.9 3.07 4.84 6.1 9.7 9.14 14.6 0.633 1.01 1.27 2.03 1.92 3.07 5.71 9.14 11.4 18.3 17.1 27.5 3.24 5.23 6.48 10.5 9.72 15.7 2.72 4.4 5.44 8.8 8.16 13.2 5.24 8.48 10.5 16.9 15.8 25.4 4.36 6.88 8.64 13.8 12.9 20.8 3.76 6.17 7.56 12.3 11.4 18.4 1.87 2.96 3.69 5.95 5.5 8.95 12.6 20.6 27.1 35.9 51.1 42.4 14.1 3.91 26.8 10.9 39.5 18.1 4.68 2.65 9.41 5.16 14.2 7.53 6.42 3.16 12.8 6.43 19.1 9.75 8.64 4.52 17.3 9.02 25.9 13.5 8.44 4.37 16.9 8.76 25.3 13.2 14.5 7.67 29.1 15.2 43.7 22.8 8.44 4.37 16.9 8.76 25.3 13.2 13.2 6.94 26.3 13.8 39.5 20.6 8.29 4.3 16.6 8.62 24.8 13 7.61 4.01 15.2 7.98 22.9 11.9 1.15 0.597 2.3 1.19 3.49 1.81 6.68 3.46 6.68 3.46 13.4 6.92 10.5 5.44 21 10.9 31.3 16.6 6.55 3.6 13.1 7.1 19.8 10.4 7.33 3.62 14.6 7.36 21.9 11.1 0.676 0.348 1.35 0.697 2.05 1.06 9.46 4.88 18.8 9.89 28.2 15 6.7 3.68 13.5 7.14 20.4 10.5 6.28 3.11 12.5 6.33 18.7 9.61 7.02 3.72 14.1 7.38 21.1 11 8.52 4.41 17 8.84 25.5 13.3 15.6 8.23 31.3 16.3 46.9 24.5 8.17 4.23 16.3 8.48 24.5 12.7 4.92 2.57 9.85 5.13 14.8 7.68 9.97 5.16 19.9 10.4 29.7 15.8 7.92 4.37 16 8.49 24.1 12.5 7.78 3.85 15.5 7.79 23.1 12 12.4 6.9 25.1 13.3 37.8 19.8 16.1 8.18 32.1 16.5 47.8 25.3 5.89 3.24 11.9 6.29 17.9 9.28 8.28 4.12 16.5 8.35 24.7 12.6 1.22 0.627 1.22 0.627 2.46 1.27 10.3 5.3 20.6 10.6 30.9 16.1 3.27 1.73 6.55 3.44 9.84 5.15 9.87 5.12 19.7 10.3 29.5 15.6 1.34 0.726 1.34 0.726 2.71 1.47 7.35 4.02 14.4 8.04 20.7 13.5 13.4 11 31.7 19.5 49.4 18.9 17.6-1.92 31.8-7.28 46.2-17.4 0.742-0.509 1.48-1.02 2.25-1.54 17.8-13.8 29.3-40.5 41-59.3 4.57-7.32 9.21-14.6 13.9-21.9 4.86-7.56 9.66-15.2 14.4-22.8 5.37-8.73 10.9-17.4 16.4-26 5.26-8.19 10.4-16.4 15.6-24.7 5.34-8.56 10.7-17.1 16.2-25.6 4.65-7.29 9.26-14.6 13.9-21.9 2.49-3.94 4.98-7.88 7.47-11.8 0.741-1.17 0.741-1.17 1.5-2.37 2.52-4 5.05-7.99 7.57-12 4.66-7.37 9.31-14.7 13.9-22.1 5.12-8.21 10.3-16.4 15.5-24.6 2.01-3.18 4.02-6.37 6.04-9.55 1.5-2.38 3-4.75 4.5-7.13 1.97-3.13 3.95-6.25 5.92-9.38 2.47-3.92 4.95-7.84 7.43-11.8 1.17-1.86 2.35-3.72 3.52-5.58 1.93-3.07 3.87-6.14 5.81-9.21 0.613-0.976 1.23-1.95 1.86-2.96 0.567-0.895 1.13-1.79 1.72-2.71 0.505-0.801 1.01-1.6 1.53-2.43 0.399-0.567 0.797-1.13 1.21-1.72h1c5.98 36.3 11.9 72.5 17.8 109 0.995 6.14 1.99 12.3 2.98 18.4 0.127 0.781 0.253 1.56 0.383 2.37 3.29 20.3 6.59 40.6 9.9 60.9 0.484 2.97 0.967 5.93 1.45 8.9 3.17 19.5 6.35 38.9 9.55 58.4 0.24 1.46 0.479 2.91 0.719 4.37 0.235 1.42 0.469 2.85 0.704 4.27 0.457 2.77 0.913 5.54 1.37 8.31 0.112 0.679 0.224 1.36 0.339 2.06 3.34 20.3 6.59 40.5 9.76 60.8 3.36 21.4 6.87 42.9 10.4 64.3 3.98 24.1 7.88 48.2 11.7 72.4 1.48 9.48 2.97 19 4.63 28.4 0.123 0.708 0.247 1.42 0.374 2.15 0.531 3.04 1.07 6.09 1.64 9.12 2.29 12.9 2.97 25.7-4.04 37.3-1.44 2.05-2.96 3.9-4.64 5.76-0.49 0.544-0.98 1.09-1.48 1.65-7.79 7.6-17.5 9.55-28 9.47-5.56-0.189-11-0.857-16.5-1.59-1.22-0.156-2.45-0.311-3.71-0.472-2.64-0.337-5.28-0.676-7.92-1.02-4.24-0.554-8.48-1.1-12.7-1.64-4.45-0.566-8.89-1.13-13.3-1.7-14.4-1.85-28.8-3.63-43.3-5.39-3.36-0.411-6.71-0.824-10.1-1.24-1.36-0.167-2.72-0.335-4.08-0.502-0.678-0.0833-1.36-0.167-2.05-0.252-3.45-0.424-6.91-0.848-10.4-1.27-14.9-1.82-29.7-3.65-44.6-5.48-0.759-0.0935-1.52-0.187-2.3-0.283-25.2-3.11-50.5-6.25-75.7-9.41-20.3-2.54-40.6-5.06-60.9-7.55-32.8-4.02-65.6-8.13-98.4-12.2-29.3-3.67-58.7-7.33-88-10.9-19.4-2.38-38.8-4.83-58.3-7.32-27.6-3.53-55.2-6.9-82.8-10.3-30.2-3.69-60.4-7.4-90.6-11.2-5.6-0.714-11.2-1.43-16.8-2.14-0.689-0.0877-1.38-0.175-2.09-0.266-18.3-2.33-36.6-4.59-54.9-6.84-0.843-0.104-1.69-0.208-2.55-0.315-9.4-1.16-18.8-2.32-28.2-3.47-16.5-2.02-32.9-4.05-49.4-6.08-2.55-0.315-5.1-0.629-7.65-0.943-17.6-2.17-35.2-4.35-52.7-6.55-0.732-0.0917-1.46-0.183-2.22-0.278-7.49-0.938-15-1.88-22.5-2.82-5.83-0.734-11.7-1.46-17.5-2.17-2.35-0.291-4.7-0.586-7.05-0.884-3.55-0.451-7.11-0.889-10.7-1.33-1.06-0.138-2.13-0.276-3.22-0.418-9.44-1.13-17.3 0.244-26.4 2.62-0.963 0.246-1.93 0.491-2.92 0.745-3.2 0.817-6.39 1.64-9.58 2.47-2.3 0.589-4.59 1.18-6.89 1.77-19.6 5.04-39.2 10.2-58.7 15.4-13.3 3.51-26.6 6.99-39.8 10.5-1.3 0.34-1.3 0.34-2.62 0.687-4.46 1.17-8.91 2.33-13.4 3.5-29 7.57-57.9 15.2-86.8 22.9-17.8 4.73-35.6 9.4-53.5 13.9-17.7 4.48-35.3 9.18-52.9 13.9-18.4 4.92-36.9 9.78-55.4 14.5-12.2 3.09-24.3 6.29-36.5 9.57-24.9 6.74-24.9 6.74-36.3 9.59-0.935 0.244-1.87 0.488-2.83 0.74-10.7 2.61-22.1 3.01-32-2.65-8.69-6.09-16-14.4-18.9-24.8-1.36-9.57 0.369-18.6 2.28-27.9 2.43-12.3 4.47-24.6 6.37-36.9 0.956-6.21 1.93-12.4 2.9-18.6 0.201-1.29 0.402-2.57 0.609-3.89 2.17-13.8 4.44-27.7 6.72-41.5 0.847-5.14 1.69-10.3 2.54-15.4 0.319-1.94 0.319-1.94 0.644-3.91 2.31-14.1 4.58-28.1 6.85-42.2 1.05-6.51 2.1-13 3.16-19.5 0.119-0.739 0.239-1.48 0.362-2.24 2.63-16.3 5.28-32.5 7.92-48.8 9.19-56.4 18.3-113 27.5-169 3.71-22.9 7.41-45.7 11.1-68.6 13.2-81.4 13.2-81.4 26.4-163 0.155-0.958 0.31-1.92 0.47-2.9 3.74-23.1 7.46-46.2 11.2-69.3 0.746-4.64 1.49-9.28 2.24-13.9 0.32-1.99 0.64-3.98 0.96-5.97 0.213-1.33 0.426-2.65 0.639-3.98 1.13-7.05 2.27-14.1 3.4-21.1 3.88-24.2 7.77-48.3 11.8-72.5 0.352-2.12 0.703-4.25 1.05-6.37 0.48-2.9 0.963-5.81 1.45-8.71 0.141-0.857 0.282-1.71 0.428-2.6 0.532-3.17 1.08-6.18 2.1-9.23z" fill="#000002"/>
<path transform="translate(1400,385)" d="m0 0c0.756 0.394 1.51 0.788 2.29 1.19 17.9 9.38 34.8 20.4 50.7 32.8 1.14 0.869 2.27 1.74 3.41 2.61 6.95 5.34 13.5 10.9 19.9 16.9 2.16 2.01 4.35 3.94 6.6 5.85 8.65 7.51 16.7 15.9 24.1 24.6 0.806 0.928 1.61 1.86 2.44 2.81 12.6 14.5 23.9 30.1 34 46.4 0.566 0.92 1.13 1.84 1.71 2.79 1.62 2.65 3.24 5.3 4.85 7.96 0.399 0.655 0.798 1.31 1.21 1.99 24.2 40.1 38.7 87 45.4 133 0.411 2.81 0.869 5.61 1.33 8.42 4.8 31.5 3.18 64.2-1.91 95.5-0.193 1.19-0.385 2.39-0.583 3.62-1.29 7.83-2.78 15.6-4.42 23.4-0.219 1.04-0.438 2.08-0.663 3.15-10.5 49-32.1 98.5-63.3 138-1.19 1.58-2.38 3.15-3.57 4.73-13.4 17.7-28.6 35.2-45.4 49.8-0.632 0.55-1.26 1.1-1.91 1.67-1.62 1.38-3.27 2.73-4.92 4.07-8.32 7.05-13.3 14.8-18.7 24.2-2.69 4.57-5.57 9.02-8.43 13.5-1.2 1.88-2.4 3.75-3.59 5.63-0.584 0.914-1.17 1.83-1.77 2.77-2.56 4.01-5.1 8.02-7.64 12-0.482 0.764-0.965 1.53-1.46 2.31-3.34 5.29-6.66 10.6-9.97 15.9-6.48 10.4-13 20.7-19.6 31-5.22 8.15-10.4 16.3-15.5 24.6-4.13 6.63-8.3 13.2-12.5 19.8-4.88 7.64-9.71 15.3-14.5 23-5.36 8.6-10.8 17.2-16.2 25.7-4.3 6.74-8.54 13.5-12.8 20.3-6 9.62-12.1 19.2-18.2 28.8-4.65 7.29-9.26 14.6-13.9 21.9-2.49 3.94-4.98 7.88-7.47 11.8-1 1.58-2 3.17-3 4.75-2 3.17-4 6.33-6 9.5-0.495 0.784-0.991 1.57-1.5 2.38-0.996 1.58-1.99 3.15-2.99 4.73-2.57 4.06-5.12 8.13-7.65 12.2-17.6 28.3-17.6 28.3-35.3 32.5-10.3 1.86-20.4-0.861-29.1-6.52-9.44-7.74-15.3-19.5-21.4-29.9-2.84-4.82-5.8-9.56-8.8-14.3-4.76-7.48-9.43-15-14.1-22.6-9.16-14.9-18.4-29.8-27.8-44.6-5.54-8.74-11-17.5-16.3-26.4-7.44-12.3-15.1-24.4-22.8-36.5-3.77-5.97-7.49-12-11.2-18-10.9-17.8-22-35.4-33-53.1-6.02-9.61-12-19.2-17.9-28.9-4.41-7.24-8.92-14.4-13.4-21.6-3.86-6.16-7.66-12.4-11.4-18.6-9.86-16.4-20-28.8-34.5-41.2-8.26-7.14-15.8-15.1-22.9-23.4-0.857-0.968-1.71-1.94-2.6-2.93-18.2-20.7-33.6-43.7-46.4-68.1-0.343-0.648-0.687-1.3-1.04-1.96-9.61-18.3-17.7-37.4-24-57-0.29-0.902-0.579-1.8-0.878-2.73-30.4-96.2-19.1-199 26.7-288 11.8-22.5 26.1-43.8 42.8-62.8 1.33-1.54 2.63-3.11 3.92-4.69 6.42-7.79 13.4-15 20.5-22.2 1.36-1.38 1.36-1.38 2.76-2.78 5.3-5.28 10.8-10.2 16.6-14.8 2.29-1.85 4.5-3.75 6.69-5.71 4.09-3.62 8.4-6.88 12.8-10.1 1.24-0.908 1.24-0.908 2.5-1.84 18.1-13.2 37.4-24.8 57.6-34.5 1.93-0.935 3.85-1.9 5.77-2.86 35.4-17.5 75-27.7 114-32.1 0.92-0.103 1.84-0.206 2.79-0.312 72.3-7.71 147 6.41 211 40.3zm-306 176c-1.64 1.49-3.29 2.97-4.96 4.42-39.3 34.3-61.8 85.3-65.6 137-2.51 47.9 10.7 99.7 42 137 0.957 1.21 0.957 1.21 1.93 2.45 4.61 5.79 9.48 11.3 14.5 16.7 0.616 0.672 1.23 1.34 1.87 2.04 0.579 0.621 1.16 1.24 1.76 1.88 0.519 0.558 1.04 1.12 1.57 1.69 1.32 1.42 1.32 1.42 3.37 1.2v2c37.3 35.1 91.2 54 142 53.2 39.9-1.32 80.7-13.3 113-37.2 0.522-0.384 1.04-0.767 1.58-1.16 6.78-5.01 13.2-10.3 19.4-16 2.02-1.81 2.02-1.81 5.02-3.81v-2c0.99-0.33 1.98-0.66 3-1 1.51-1.42 1.51-1.42 3-3.25 0.922-1.09 0.922-1.09 1.86-2.21 0.705-0.838 1.41-1.68 2.14-2.54 0.819-0.92 1.64-1.84 2.48-2.79 24.5-27.8 39.7-62 46.5-98.2 0.233-1.19 0.467-2.38 0.707-3.6 8.52-50.4-4.49-106-33.6-148-6.89-9.39-14.1-18.4-22.1-26.9-0.965-1.03-0.965-1.03-1.95-2.07-5.29-5.47-11.1-10.2-17.1-14.9-1.01-0.817-2.02-1.63-3.07-2.48-12.6-10.1-26.4-17.7-40.9-24.5-1.64-0.785-1.64-0.785-3.31-1.59-70.5-32-158-17.8-215 34.3z" fill="#000002"/>
<path transform="translate(324 3.69)" d="m0 0c0.98 0.00216 1.96 0.00431 2.97 0.00653 72.6 0.255 144 24.8 200 71 1.56 1.28 3.14 2.54 4.71 3.8 8.39 6.85 16 14.5 23.7 22.1 0.804 0.796 0.804 0.796 1.62 1.61 6.99 6.94 13.5 14.1 19.6 21.8 0.858 1.06 1.72 2.12 2.57 3.18 41.1 52.4 68.3 120 68.6 187 0.00701 1.02 0.014 2.05 0.0213 3.1 0.0174 3.29 0.0239 6.57 0.0256 9.86 0.00101 1.68 0.00101 1.68 0.00204 3.4-0.0157 16.4-0.383 32.4-3.25 48.5-0.172 1.01-0.343 2.02-0.52 3.06-7.94 45.9-24.9 92.1-52.5 130-0.435 0.6-0.87 1.2-1.32 1.82-6.42 8.83-13.1 17.4-20.3 25.6-0.978 1.12-1.95 2.25-2.92 3.39-4.83 5.62-9.97 10.9-15.2 16.1-0.888 0.894-1.78 1.79-2.69 2.71-4.34 4.32-8.6 8.33-13.6 11.9-7.05 5.47-11.1 13.5-15.6 21-2.08 3.5-4.25 6.95-6.42 10.4-0.819 1.31-1.64 2.62-2.46 3.94-3.23 5.16-6.48 10.3-9.74 15.4-3.41 5.4-6.8 10.8-10.2 16.2-6.55 10.5-13.2 21-19.9 31.4-9.13 14.2-18.1 28.5-27.1 42.9-4.77 7.64-9.6 15.2-14.4 22.8-4.25 6.67-8.46 13.4-12.6 20.1-5.81 9.32-11.7 18.6-17.6 27.8-5.22 8.14-10.4 16.3-15.5 24.5-4.77 7.65-9.58 15.3-14.4 22.9-2.82 4.4-5.61 8.82-8.33 13.3-8.03 13.1-14.4 22.3-29.6 27.3-9.53 1.74-19.8 1.19-28.2-3.87-8.75-6.12-14.4-14.6-19.9-23.6-0.958-1.55-0.958-1.55-1.94-3.14-2.05-3.32-4.09-6.66-6.13-9.99-1.39-2.26-2.79-4.53-4.18-6.79-2.73-4.43-5.46-8.86-8.18-13.3-4.06-6.6-8.16-13.2-12.3-19.7-2.86-4.56-5.71-9.12-8.56-13.7-3.88-6.21-7.77-12.4-11.7-18.6-8.62-13.8-17.2-27.6-25.7-41.4-6.28-10.2-12.6-20.3-18.9-30.4-7.42-11.9-14.8-23.7-22.1-35.6-6.28-10.2-12.6-20.3-19-30.4-3.8-6.01-7.52-12.1-11.2-18.2-4.01-6.59-8.13-13.1-12.3-19.6-0.478-0.752-0.956-1.5-1.45-2.28-0.422-0.66-0.844-1.32-1.28-2-1.15-1.91-1.15-1.91-2.19-4.09-1.26-2.37-2.57-2.72-4.97-3.82-1.64-1.48-1.64-1.48-3.25-3.19-2.41-2.49-4.86-4.82-7.5-7.06-8.04-6.95-15.4-14.6-22.2-22.8-0.797-0.908-1.59-1.82-2.41-2.75-39.1-44.9-62.2-100-72.6-158-0.298-1.57-0.298-1.57-0.603-3.18-6.83-36.7-4.99-74.5 2.6-111 0.207-1.01 0.207-1.01 0.417-2.03 11.9-57.7 39.1-112 79.7-155 1.99-2.1 3.88-4.17 5.58-6.52 0.425-0.541 0.851-1.08 1.29-1.64h2l0.789-1.81c1.3-2.35 2.52-3.55 4.59-5.25 3.01-2.54 5.94-5.15 8.81-7.85 6.6-6.18 13.5-11.7 20.8-17.1l1.65-1.23c9.07-6.76 18.5-12.8 28.3-18.5 1.82-1.08 3.63-2.19 5.43-3.3 47.5-28.4 104-41.5 159-41.3zm-97 190c-0.785 0.572-1.57 1.14-2.38 1.73-34.2 25.7-57.5 64.2-64 107-6.03 43.4 3.84 87 29.6 123 1.88 2.4 3.82 4.71 5.84 7 1.15 1.31 1.15 1.31 2.32 2.64 3.77 4.25 7.61 8.39 11.7 12.4 0.496 0.512 0.991 1.02 1.5 1.55 4.06 4.17 8.27 7.85 12.9 11.3 0.69 0.514 1.38 1.03 2.09 1.56 7.13 5.21 14.6 9.55 22.5 13.6l1.87 0.964c39.2 19.9 84.4 22.1 126 9.04 23.4-7.86 44.2-20.9 62-38 1.41-1.32 1.41-1.32 2.85-2.66 13.2-12.6 22.8-27.2 31.1-43.3 0.49-0.938 0.98-1.88 1.48-2.84 9.24-19 14.9-41.1 15.5-62.2 0.0205-0.661 0.0409-1.32 0.062-2 0.796-29.1-5.18-57.5-19.1-83.1-0.955-1.77-1.88-3.55-2.8-5.34-10.4-19.4-25.5-36.5-43.2-49.5-1.11-0.835-1.11-0.835-2.24-1.69-58.2-42.3-138-43.3-196-0.312z" fill="#000002"/>
<path transform="translate(686,361)" d="m0 0c1.5 0.15 3 0.383 4.49 0.646 0.969 0.168 1.94 0.337 2.94 0.51 1.07 0.192 2.14 0.384 3.24 0.582 1.12 0.196 2.23 0.392 3.38 0.594 3.71 0.654 7.42 1.32 11.1 1.98 2.6 0.46 5.19 0.919 7.79 1.38 19.1 3.39 38.2 6.89 57.3 10.5 14.6 2.74 29.3 5.39 43.9 8.03 1.06 0.191 2.12 0.382 3.22 0.579 4.43 0.796 8.85 1.59 13.3 2.39 18.3 3.29 36.6 6.59 54.9 9.91 5.82 1.06 11.6 2.11 17.5 3.16 5.78 1.04 11.6 2.09 17.3 3.14 2.17 0.394 4.34 0.786 6.52 1.18 2.99 0.536 5.97 1.08 8.96 1.63 0.883 0.156 1.77 0.313 2.68 0.474 0.807 0.15 1.61 0.299 2.45 0.453 0.699 0.127 1.4 0.253 2.12 0.384 1.85 0.518 1.85 0.518 4.85 2.52-0.525 0.452-1.05 0.905-1.59 1.37-11.6 10.2-22.9 21-32.5 33.2-1.92 2.41-3.96 4.63-6.07 6.88-18.3 20.2-32.6 44-45.9 67.6-0.434 0.767-0.869 1.53-1.32 2.32-25.2 44.8-40.2 96.8-45.7 148-0.103 0.893-0.206 1.79-0.312 2.71-10.3 91.9 12.9 189 87.7 298 4.7 5.82 9.63 11.4 14.6 17 0.466 0.524 0.932 1.05 1.41 1.59 5.54 6.21 11.3 12.2 17.1 18.1 0.608 0.613 1.22 1.23 1.84 1.86 3.01 3.1 3.01 3.1 6.59 5.45v2c0.57 0.254 1.14 0.508 1.73 0.77 11.9 6.42 18 20.2 24.6 31.3 2.47 4.16 5.05 8.25 7.65 12.3 0.973 1.53 1.95 3.06 2.92 4.6 0.501 0.789 1 1.58 1.52 2.39 3.14 4.97 6.26 9.96 9.38 14.9 0.602 0.962 1.2 1.92 1.82 2.92 5.81 9.3 11.5 18.6 17.3 28 6.49 10.6 13 21.1 19.6 31.6 8.89 14 17.7 28.1 26.3 42.3 5.67 9.3 11.5 18.5 17.2 27.7 8.95 14.3 17.9 28.6 26.7 42.9 2.24 3.62 4.48 7.24 6.73 10.9 0.582 0.936 1.16 1.87 1.76 2.84 1.1 1.77 2.21 3.55 3.31 5.32 3.3 5.31 6.42 10.7 9.4 16.2-4.88-1.82-9.48-4.16-14.1-6.5-0.885-0.444-1.77-0.887-2.68-1.34-7.45-3.75-14.8-7.62-22.2-11.5-5.48-2.9-11-5.77-16.5-8.63-7.01-3.65-14-7.31-21-11-14-7.37-28-14.7-42.1-22-8.29-4.3-16.6-8.62-24.8-13-8.76-4.62-17.6-9.18-26.4-13.7-15.1-7.8-30.1-15.6-45.1-23.5-14.6-7.7-29.3-15.3-43.9-22.9-8.44-4.37-16.9-8.76-25.3-13.2-14.5-7.67-29.1-15.2-43.7-22.8-8.44-4.37-16.9-8.76-25.3-13.2-13.2-6.94-26.3-13.8-39.5-20.6-8.29-4.3-16.6-8.62-24.8-13-8.76-4.62-17.6-9.18-26.4-13.7-15.1-7.8-30.1-15.6-45.1-23.5-14.6-7.7-29.3-15.3-43.9-22.9-8.43-4.37-16.9-8.76-25.3-13.2-6.16-3.25-12.3-6.47-18.5-9.69-6.93-3.61-13.8-7.23-20.8-10.9-8.9-4.7-17.8-9.33-26.8-14-6.46-3.35-12.9-6.71-19.3-10.1-8.65-4.57-17.3-9.06-26-13.6-8.11-4.19-16.2-8.4-24.3-12.7-7.25-3.83-14.5-7.59-21.8-11.3-30.3-15.6-30.3-15.6-44.5-23.5l2-2 1.39-1.41c1.1-1.08 2.22-2.14 3.37-3.17 6.71-6.24 11.4-13.7 16.2-21.4 0.454-0.711 0.907-1.42 1.37-2.15 6.72-10.5 13.3-21.1 19.9-31.7 4.77-7.63 9.59-15.2 14.4-22.8 4.98-7.82 9.9-15.7 14.8-23.5 8.68-13.9 17.5-27.7 26.3-41.6 7.57-11.9 15.1-23.8 22.6-35.8 6.52-10.5 13.1-20.9 19.8-31.3 4.18-6.51 8.29-13.1 12.3-19.6 5.44-8.83 11-17.6 16.6-26.3 3.14-4.89 6.27-9.78 9.33-14.7 0.797-1.28 0.797-1.28 1.61-2.59 0.968-1.56 1.93-3.13 2.89-4.7 4.56-7.34 10-13.5 16.5-19.2 10.6-9.5 20.9-19.4 29.6-30.6 1.78-2.24 3.65-4.32 5.61-6.41 9.56-10.6 17.9-22.8 25.3-35 0.874-1.4 1.75-2.8 2.62-4.2 12.7-20.5 23.2-42.1 31.4-64.8 0.381-1.06 0.763-2.12 1.16-3.21 8.83-24.8 14.1-49.6 17.9-75.5 0.121-0.807 0.242-1.61 0.367-2.44 0.228-1.53 0.453-3.06 0.673-4.59 0.764-5.13 0.764-5.13 1.87-6.24z" fill="#000002"/>
</svg>
