<?xml version="1.0" encoding="UTF-8"?>
<svg version="1.1" viewBox="0 0 1600 1600" width="1280" height="1280" xmlns="http://www.w3.org/2000/svg">
<path transform="translate(734 134)" d="m0 0c1.33-0.00218 1.33-0.00218 2.68-0.0044 2.96-0.00364 5.92-1.83e-4 8.88 0.00326 2.15-0.00115 4.29-0.00274 6.44-0.00473 5.89-0.00417 11.8-0.00211 17.7 9.86e-4 6.36 0.00226 12.7-0.00123 19.1-0.00398 11.7-0.00419 23.5-0.00383 35.2-0.00109 10.9 0.00252 21.7 0.00317 32.6 0.00198 1.08-1.15e-4 1.08-1.15e-4 2.18-2.31e-4 2.92-3.11e-4 5.85-6.3e-4 8.77-9.6e-4 27.4-0.00306 54.9-2.86e-4 82.3 0.0051 24.3 0.00474 48.7 0.00433 73-4.61e-4 27.4-0.00536 54.7-0.00747 82.1-0.00439 2.92 3.21e-4 5.84 6.34e-4 8.77 9.43e-4 0.719 7.91e-5 1.44 1.58e-4 2.18 2.4e-4 10.8 0.00113 21.7-1.87e-4 32.5-0.00272 12.3-0.00287 24.7-0.00203 37 0.00328 6.29 0.00262 12.6 0.00367 18.9 3.51e-4 5.77-3e-3 11.5-0.00131 17.3 0.00398 2.08 0.00111 4.15 5.68e-4 6.23-0.00188 12.7-0.0138 25.3 0.327 38 1.13v2c5.94 0.33 11.9 0.66 18 1 0.33 0.66 0.66 1.32 1 2 2.82 0.469 2.82 0.469 6.06 0.625 1.1 0.0748 2.21 0.15 3.35 0.227 0.855 0.049 1.71 0.098 2.59 0.148v3h9v3h9v3h7v3c2.97 0.33 5.94 0.66 9 1v2c1.45 0.186 1.45 0.186 2.94 0.375 1.01 0.206 2.02 0.412 3.06 0.625 0.33 0.66 0.66 1.32 1 2 0.825 0.165 1.65 0.33 2.5 0.5 0.825 0.165 1.65 0.33 2.5 0.5 0.33 0.66 0.66 1.32 1 2 3.03 0.658 3.03 0.658 6 1v3h3v3h6v3h4v3h5v3h4v3h3v3c1.98 0.33 3.96 0.66 6 1v3h3v3h3c0.33 0.66 0.66 1.32 1 2 0.99 0.33 1.98 0.66 3 1v3h3v3h3v3h3v3h3v3h3c0.33 0.99 0.66 1.98 1 3 0.66 0.33 1.32 0.66 2 1v3h3v3h3c0.33 1.98 0.66 3.96 1 6h3v3h3v4h3v5h3v4h3v6h3v3h3c0.186 1.45 0.186 1.45 0.375 2.94 0.206 1.01 0.412 2.02 0.625 3.06 0.66 0.33 1.32 0.66 2 1 0.625 3.06 0.625 3.06 1 6h2c0.33 1.98 0.66 3.96 1 6h2c0.33 1.98 0.66 3.96 1 6h3v9h3c0.049 0.638 0.098 1.28 0.148 1.93 0.0748 0.826 0.15 1.65 0.227 2.5 0.104 1.24 0.104 1.24 0.211 2.5 0.137 0.682 0.273 1.36 0.414 2.07 0.66 0.33 1.32 0.66 2 1v9h3c0.33 4.29 0.66 8.58 1 13h2c0.33 4.95 0.66 9.9 1 15h2c1.3 17.5 1.14 35.1 1.13 52.7-0.00256 4.61 7.31e-4 9.21 0.00324 13.8 0.0036 8.06 0.00351 16.1 9.53e-4 24.2-0.00379 12-0.00184 24 0.00121 36 0.00526 21.4 0.00481 42.8 0.00192 64.2-0.00252 18.7-0.00317 37.5-0.00198 56.2 1.15e-4 1.87 1.15e-4 1.87 2.31e-4 3.77 3.11e-4 5.05 6.3e-4 10.1 9.6e-4 15.1 0.00228 35.2 0.00268 70.4-0.00106 106-1.05e-4 0.995-1.05e-4 0.995-2.13e-4 2.01-0.00114 10.8-0.00236 21.5-0.00359 32.3-0.00486 42.7-0.00463 85.4 2.31e-4 128 0.00122 10.8 0.00243 21.5 0.00357 32.3 1.06e-4 0.994 1.06e-4 0.994 2.13e-4 2.01 0.00378 35.8 0.00294 71.6 6.02e-4 107-3.21e-4 5.04-6.34e-4 10.1-9.43e-4 15.1-7.91e-5 1.24-1.58e-4 2.48-2.4e-4 3.76-0.00114 18.7 1.91e-4 37.4 0.00272 56.2 0.00286 21.3 0.00214 42.6-0.00328 63.9-0.00293 11.9-0.00313 23.8 6.46e-4 35.7 0.00225 7.96 8.38e-4 15.9-0.0035 23.9-0.00237 4.53-0.00321 9.06 4.06e-4 13.6 0.0256 34.5 0.0256 34.5-1.13 50h-2c-0.33 4.95-0.66 9.9-1 15h-2c-0.33 4.29-0.66 8.58-1 13h-3v9h-3v10h-3v9h-3c-0.33 1.98-0.66 3.96-1 6h-2c-0.33 1.98-0.66 3.96-1 6h-2c-0.186 1.45-0.186 1.45-0.375 2.94-0.206 1.01-0.412 2.02-0.625 3.06-0.66 0.33-1.32 0.66-2 1-0.658 3.03-0.658 3.03-1 6h-3v3h-3v6h-3v4h-3v5h-3v4h-3v3h-3c-0.33 1.98-0.66 3.96-1 6h-3v3h-3v3c-0.66 0.33-1.32 0.66-2 1-0.33 0.99-0.66 1.98-1 3h-3v3h-3v3h-3v3h-3v3h-3v3h-4v3h-3v3h-3v3c-1.98 0.33-3.96 0.66-6 1v3h-3v3h-4v3h-5v3h-4v3h-6v3c-1.98 0.33-3.96 0.66-6 1v2c-0.99 0.33-1.98 0.66-3 1-0.33 0.66-0.66 1.32-1 2-1.67 0.333-3.33 0.667-5 1-0.33 0.66-0.66 1.32-1 2-3.06 0.625-3.06 0.625-6 1v2c-2.97 0.33-5.94 0.66-9 1v3h-7v3h-9v3c-0.638 0.049-1.28 0.098-1.93 0.148-0.826 0.0748-1.65 0.15-2.5 0.227-0.824 0.0696-1.65 0.139-2.5 0.211-0.682 0.137-1.36 0.273-2.07 0.414-0.33 0.66-0.66 1.32-1 2-2.84 0.396-5.66 0.508-8.53 0.656-0.815 0.113-1.63 0.227-2.47 0.344-0.33 0.66-0.66 1.32-1 2-5.94 0.33-11.9 0.66-18 1v2c-13.7 0.868-27.3 1.14-41 1.13-2.16 0.00115-4.33 0.00274-6.49 0.00473-5.89 0.00414-11.8 0.00213-17.7-9.86e-4 -6.37-0.00227-12.7 0.00124-19.1 0.00398-11.7 0.00418-23.5 0.00383-35.2 0.00109-10.8-0.00252-21.7-0.00317-32.5-0.00198-0.721 7.64e-5 -1.44 1.53e-4 -2.19 2.31e-4 -2.93 3.11e-4 -5.85 6.3e-4 -8.78 9.6e-4 -27.4 0.00305-54.8 2.93e-4 -82.2-0.0051-24.3-0.00475-48.7-0.00432-73 4.61e-4 -27.4 0.00536-54.8 0.00748-82.1 0.00439-2.92-3.21e-4 -5.84-6.34e-4 -8.76-9.43e-4 -1.08-1.19e-4 -1.08-1.19e-4 -2.18-2.4e-4 -10.8-0.00114-21.7 1.91e-4 -32.5 0.00272-12.3 0.00286-24.6 0.00205-37-0.00328-6.29-0.00263-12.6-0.00365-18.9-3.51e-4 -5.75 0.00298-11.5 0.00135-17.3-0.00398-2.08-0.00112-4.16-5.47e-4 -6.25 0.00188-2.83 0.00304-5.66-7.85e-5 -8.49-0.00472-0.808 0.00234-1.62 0.00468-2.45 0.00709-5.32-0.0174-10.5-0.471-15.8-1.13v-2c-0.638-0.049-1.28-0.098-1.93-0.148-1.24-0.112-1.24-0.112-2.5-0.227-1.24-0.104-1.24-0.104-2.5-0.211-0.682-0.137-1.36-0.273-2.07-0.414-0.33-0.66-0.66-1.32-1-2-3.03-0.658-3.03-0.658-6-1v-3h-3v-3h-6v-3h-3v-3h-3c-0.495-1.48-0.495-1.48-1-3-0.516-0.495-1.03-0.99-1.56-1.5-1.44-1.5-1.44-1.5-1.44-4.5-0.99-0.33-1.98-0.66-3-1v-3h-3v-6h-3v-9h-3v-37h3v-7h3v-6h3v-6h3c0.33-1.32 0.66-2.64 1-4h2c0.33-0.99 0.66-1.98 1-3h2c0.33-0.99 0.66-1.98 1-3h3v-3h3v-3h3v-3h6v-3c1.45-0.186 1.45-0.186 2.94-0.375 1.52-0.309 1.52-0.309 3.06-0.625 0.33-0.66 0.66-1.32 1-2 2.72-0.414 2.72-0.414 6.06-0.625 1.1-0.0748 2.21-0.15 3.35-0.227 0.855-0.049 1.71-0.098 2.59-0.148v-2c263-0.495 263-0.495 531-1v-2c3.98-1.33 7.85-1.07 12-1 0.33-0.99 0.66-1.98 1-3h6v-3h7v-3h6v-3c0.804-0.124 1.61-0.247 2.44-0.375 0.846-0.206 1.69-0.412 2.56-0.625 0.33-0.66 0.66-1.32 1-2h3v-3h3v-3c1.98-0.33 3.96-0.66 6-1v-3h3v-3h3c0.33-1.98 0.66-3.96 1-6h3v-3h3v-3c0.66-0.33 1.32-0.66 2-1 0.656-2.53 0.656-2.53 1-5h3v-4h3v-6h3v-9h3c-0.0206-1.05-0.0412-2.1-0.0625-3.19 0.0515-3.14 0.328-5.78 1.06-8.81h2v-908h-2c-0.982-4.05-1.08-7.84-1-12h-3v-9h-3v-6h-3v-4h-3v-6h-3v-3h-3v-3h-3c-0.33-1.98-0.66-3.96-1-6h-3v-3h-3v-3c-1.98-0.33-3.96-0.66-6-1v-3h-3v-3h-3c-0.33-0.66-0.66-1.32-1-2-2.53-0.656-2.53-0.656-5-1v-3h-6v-3h-7v-3h-6c-0.33-0.99-0.66-1.98-1-3-1.24 0.0206-2.47 0.0412-3.75 0.0625-2.91 0.00517-5.46-0.132-8.25-1.06v-2c-175-0.33-350-0.66-531-1v-2c-1.28-0.0735-1.28-0.0735-2.59-0.148-1.1-0.0748-2.21-0.15-3.35-0.227-1.1-0.0696-2.2-0.139-3.34-0.211-0.898-0.137-1.8-0.273-2.72-0.414-0.33-0.66-0.66-1.32-1-2-3.03-0.658-3.03-0.658-6-1v-3h-6v-3h-3v-3h-3v-3c-1.32-0.33-2.64-0.66-4-1v-2c-1.49-0.495-1.49-0.495-3-1v-2c-0.99-0.33-1.98-0.66-3-1v-3h-3v-6h-3v-6h-3v-7h-3v-37h3v-9h3v-6h3c0.33-1.32 0.66-2.64 1-4h2c0.124-0.804 0.247-1.61 0.375-2.44 0.206-0.846 0.413-1.69 0.625-2.56 0.66-0.33 1.32-0.66 2-1 0.33-0.99 0.66-1.98 1-3h3v-3h3v-3h6v-3h3v-3h6v-3c3.3-0.33 6.6-0.66 10-1v-2c6.11-0.766 12.1-1.14 18.2-1.13z" fill="#000002"/>
<path transform="translate(509 403)" d="m0 0c1.15-0.00387 1.15-0.00387 2.32-0.00781 2.12 0.133 2.12 0.133 5.12 1.13v2c0.831-0.0116 1.66-0.0232 2.52-0.0352 1.09-0.00902 2.17-0.018 3.29-0.0273 1.08-0.0116 2.16-0.0232 3.27-0.0352 2.92 0.0977 2.92 0.0977 5.92 1.1v2c2.31 0.33 4.62 0.66 7 1v2c1.98 0.33 3.96 0.66 6 1v3h3v2c1.98 0.33 3.96 0.66 6 1v3h3v3h3c0.33 0.99 0.66 1.98 1 3 0.66 0.33 1.32 0.66 2 1v5h3c0.33 1.98 0.66 3.96 1 6 0.99 0.33 1.98 0.66 3 1v6h3v12h3v22h-3v12c-1.49 0.495-1.49 0.495-3 1-0.33 1.98-0.66 3.96-1 6h-2c-0.33 1.98-0.66 3.96-1 6h-3v3c-0.66 0.33-1.32 0.66-2 1-0.33 0.99-0.66 1.98-1 3h-2c-0.33 1.65-0.66 3.3-1 5h-3v3h-3v4h-3v3c-1.49 0.495-1.49 0.495-3 1-0.33 0.66-0.66 1.32-1 2h-3v3h-3v3c-1.65 1.35-3.32 2.69-5 4-0.33 0.99-0.66 1.98-1 3h-3v3h-3v3h-3v3h-3c-0.33 1.32-0.66 2.64-1 4h-2c-0.33 0.99-0.66 1.98-1 3h-2c-0.33 1.65-0.66 3.3-1 5h-3v3h-3v4h-3v3h-3v3h-3v3h-3v3c-0.99 0.33-1.98 0.66-3 1-2.37 2-2.99 2.97-4 6h-3v3h-3v3h-3v3h-3v3h-3c-0.33 1.32-0.66 2.64-1 4h-2c-0.33 0.99-0.66 1.98-1 3h-2c-0.33 1.65-0.66 3.3-1 5h-3v3c-0.66 0.33-1.32 0.66-2 1-0.33 0.99-0.66 1.98-1 3h-3v3h-3v3h-3v3h-3v3h-3v3c-0.99 0.33-1.98 0.66-3 1-0.33 0.99-0.66 1.98-1 3h-3v3h-3v3h-3v3h-3v3h-3v4h-3c-0.0619 0.743-0.124 1.48-0.188 2.25-1.07 3.61-2.79 4.59-5.81 6.75-2.38 2.12-2.96 2.87-4 6h-3v3h-3v3h-3v3h-3v3h-3v3h-3c-0.33 1.32-0.66 2.64-1 4h-2c-0.33 0.99-0.66 1.98-1 3h-3v3h-3v3h-3v3c-0.66 0.33-1.32 0.66-2 1-0.33 0.99-0.66 1.98-1 3h-3v5c-0.99 0.33-1.98 0.66-3 1-1.36 1.65-2.69 3.31-4 5-0.66 0.33-1.32 0.66-2 1-0.33 0.99-0.66 1.98-1 3h-3v3h-3v3h-3v3h-3v3c217 0.33 435 0.66 659 1v2c3.3 0.33 6.6 0.66 10 1v3h6v3h6v3h4v3h3v3c1.65 0.33 3.3 0.66 5 1 0.33 1.65 0.66 3.3 1 5h3v4h3v3h3v6h3v9h3c0.779 12.8 1.19 25.2 0 38h-3v9h-3v6h-3v4h-3v5c-0.99 0.33-1.98 0.66-3 1-2.37 2-2.99 2.97-4 6h-5v3h-4v3c-1.65 0.33-3.3 0.66-5 1v2c-2.31 0.33-4.62 0.66-7 1v2c-2.97 0.33-5.94 0.66-9 1v2c-326 0.495-326 0.495-659 1-0.33 1.98-0.66 3.96-1 6h3v3h3v3h3v3h3c0.33 0.99 0.66 1.98 1 3 0.99 0.33 1.98 0.66 3 1v3h3v3h3v3h3v3h3v3h3c0.33 0.99 0.66 1.98 1 3 0.846 0.66 1.69 1.32 2.56 2 0.804 0.66 1.61 1.32 2.44 2v3h3c0.33 1.65 0.66 3.3 1 5 0.99 0.33 1.98 0.66 3 1v3h3v3h3v3h3v3h3v3h3c0.33 0.99 0.66 1.98 1 3 2 2.37 2.97 2.99 6 4v3h3v3h3v3h3v3h3c0.33 0.99 0.66 1.98 1 3 0.66 0.33 1.32 0.66 2 1v3h3c0.33 1.65 0.66 3.3 1 5 0.99 0.33 1.98 0.66 3 1v2c0.99 0.33 1.98 0.66 3 1v3h3v3h3v3h3v3h3v3h3c0.33 0.99 0.66 1.98 1 3 1.66 1.34 3.33 2.68 5 4 0.701 0.887 1.4 1.77 2.12 2.69 1.74 2.56 1.74 2.56 4.88 3.31v3h3v3h3c0.33 0.99 0.66 1.98 1 3 0.66 0.33 1.32 0.66 2 1v3h3c0.33 1.65 0.66 3.3 1 5 0.99 0.33 1.98 0.66 3 1v2c0.99 0.33 1.98 0.66 3 1v3h3v3h3v3h3v3h3v3h3c0.33 0.99 0.66 1.98 1 3 0.66 0.33 1.32 0.66 2 1v3h3v3h3v3h3v3h4v3h3v4h3v3h3c0.33 1.65 0.66 3.3 1 5 0.99 0.33 1.98 0.66 3 1v2c0.99 0.33 1.98 0.66 3 1v3h3v3h3v3h3v3h3v3h3v4h3v3h3v3h3c0.33 1.98 0.66 3.96 1 6h2v3h3c0.33 2.97 0.66 5.94 1 9 0.99 0.33 1.98 0.66 3 1v9h3v25h-3c0.0116 0.615 0.0232 1.23 0.0352 1.86 0.0135 1.21 0.0135 1.21 0.0273 2.45 0.0116 0.801 0.0232 1.6 0.0352 2.43-0.0977 2.26-0.0977 2.26-1.1 5.26h-2c-0.33 1.98-0.66 3.96-1 6h-2c-0.124 0.969-0.247 1.94-0.375 2.94-0.309 1.52-0.309 1.52-0.625 3.06-0.66 0.33-1.32 0.66-2 1-0.33 0.99-0.66 1.98-1 3h-3v3h-3v3h-3v3h-3v3h-3v3c-1.98 0.33-3.96 0.66-6 1v2c-1.98 0.33-3.96 0.66-6 1v2c-2.31 0.33-4.62 0.66-7 1v2c-3.57 1.19-6.45 1.13-10.2 1.13-0.701 9.57e-4 -1.4 0.00191-2.13 0.0029-1.48 6.8e-4 -2.96-0.00116-4.44-0.00534-2.27-0.00536-4.54-4.37e-5 -6.81 0.00635-1.44-6.61e-4 -2.88-0.00194-4.31-0.00391-1.31-0.00113-2.62-0.00226-3.97-0.00342-3.12-0.129-3.12-0.129-5.12-1.13v-2c-0.638-0.049-1.28-0.098-1.93-0.148-0.826-0.0748-1.65-0.15-2.5-0.227-0.824-0.0696-1.65-0.139-2.5-0.211-0.682-0.137-1.36-0.273-2.07-0.414-0.33-0.66-0.66-1.32-1-2-3.03-0.658-3.03-0.658-6-1v-3h-3c-0.33-0.66-0.66-1.32-1-2-2.53-0.656-2.53-0.656-5-1v-3h-3v-3h-3v-3h-3c-0.33-0.99-0.66-1.98-1-3-0.773-0.743-0.773-0.743-1.56-1.5-1.44-1.5-1.44-1.5-1.44-4.5h-3v-3h-3v-3h-3c-0.33-0.99-0.66-1.98-1-3-0.66-0.33-1.32-0.66-2-1v-3h-3v-3h-4v-3c-0.99-0.33-1.98-0.66-3-1v-2c-0.99-0.33-1.98-0.66-3-1v-3h-3v-3h-3v-3h-3v-3h-3v-3h-3v-3h-3c-0.33-0.99-0.66-1.98-1-3-0.773-0.743-0.773-0.743-1.56-1.5-1.44-1.5-1.44-1.5-1.44-4.5h-3v-3h-3v-3h-3v-4h-3v-3h-3v-3h-3v-3h-3v-3c-1.32-0.33-2.64-0.66-4-1v-3h-3v-3h-3v-3h-3v-3h-3v-3h-3v-3h-3c-0.33-0.99-0.66-1.98-1-3-0.773-0.743-0.773-0.743-1.56-1.5-1.44-1.5-1.44-1.5-1.44-4.5h-3v-3h-3v-3h-3v-4h-3v-3h-3v-3h-3v-3h-3v-3h-3c-0.33-0.99-0.66-1.98-1-3-0.99-0.33-1.98-0.66-3-1v-3h-3v-3h-3v-3h-3v-3h-3v-3h-3c-0.33-1.98-0.66-3.96-1-6-0.99-0.33-1.98-0.66-3-1v-2c-0.99-0.33-1.98-0.66-3-1v-2c-0.99-0.33-1.98-0.66-3-1v-3h-3v-3h-3v-3h-3v-3h-3v-3h-3v-3h-3c-0.33-0.99-0.66-1.98-1-3-1.65-1.36-3.31-2.69-5-4-0.33-0.66-0.66-1.32-1-2-0.99-0.33-1.98-0.66-3-1v-3h-3v-3h-3v-3h-3c-0.33-1.98-0.66-3.96-1-6-0.99-0.33-1.98-0.66-3-1v-2c-0.99-0.33-1.98-0.66-3-1v-2c-0.99-0.33-1.98-0.66-3-1v-3h-3v-3h-3v-3h-3v-3h-3v-3h-3v-3h-3l-1-3c-0.66-0.33-1.32-0.66-2-1v-3h-3v-3h-3v-3h-3c-0.33-0.66-0.66-1.32-1-2-0.99-0.33-1.98-0.66-3-1v-3h-3l-1-6h-2c-2.13-1.88-2.13-1.88-4-4v-2c-0.99-0.33-1.98-0.66-3-1v-3h-3v-3h-3v-3h-3v-3h-3v-3h-3v-3h-3v-4h-3v-3h-3v-3h-3v-3h-3v-3h-3v-3h-4v-6h-3v-3h-3v-3h-3c-0.33-0.99-0.66-1.98-1-3-2-2.37-2.97-2.99-6-4v-3h-3v-3h-3v-3h-3v-4h-3v-3h-3v-6h-3v-6h-3c-0.33-2.97-0.66-5.94-1-9h-2c-1.6-11.2-1.6-22.8 0-34h2c0.33-3.3 0.66-6.6 1-10h2c0.33-2.31 0.66-4.62 1-7h2c0.33-1.65 0.66-3.3 1-5h3v-4h3v-3h3v-3h3c0.33-1.98 0.66-3.96 1-6h3v-3h3v-3h3v-3h3v-3h3v-3h3v-4h3v-3h3v-3c0.99-0.33 1.98-0.66 3-1 1.36-1.65 2.69-3.31 4-5 0.66-0.33 1.32-0.66 2-1 0.33-0.99 0.66-1.98 1-3h3v-3h3v-3h3v-3h3c0.33-1.98 0.66-3.96 1-6h3v-3h3v-3h3v-3h3v-3h3v-3c0.66-0.33 1.32-0.66 2-1 0.33-0.99 0.66-1.98 1-3h3v-3h3v-3h3v-3h3v-3c0.99-0.33 1.98-0.66 3-1 0.33-0.99 0.66-1.98 1-3h3v-3h3v-3h3v-3h3v-6h4v-3h3v-3h3v-3h3v-3c1.65-1.35 3.32-2.69 5-4 0.33-0.99 0.66-1.98 1-3h3v-3h3v-3h3v-3h3v-3h3c0.33-1.32 0.66-2.64 1-4h2c0.33-0.99 0.66-1.98 1-3h2c0.33-0.99 0.66-1.98 1-3h2c0.33-0.99 0.66-1.98 1-3h2c0.33-1.98 0.66-3.96 1-6h3v-3c0.99-0.66 1.98-1.32 3-2 0.619-0.619 1.24-1.24 1.88-1.88 2.12-2.12 2.12-2.12 4.81-4.19 2.56-1.8 2.56-1.8 3.31-4.94h3v-3h3v-3h3v-3h3v-3h3v-3h3c0.33-1.32 0.66-2.64 1-4h2c0.33-0.99 0.66-1.98 1-3h2c0.33-0.99 0.66-1.98 1-3h2c0.33-0.99 0.66-1.98 1-3h2c0.33-1.98 0.66-3.96 1-6h3v-3h3v-3h3v-3c0.99-0.33 1.98-0.66 3-1 2.37-2 2.99-2.97 4-6h3v-3h3v-3h3v-3h3v-3h3v-3h3c0.33-1.32 0.66-2.64 1-4h2c0.33-0.99 0.66-1.98 1-3h2v-3h3c0.33-1.98 0.66-3.96 1-6h3v-3h3v-3h3v-3h3v-3h3v-3h3c0.33-1.32 0.66-2.64 1-4h3v-3h3v-3h3v-3h3v-3h3v-3h3v-4h3v-3h3v-3h3c0.33-1.98 0.66-3.96 1-6h3v-3h3v-3h3v-3h3v-3h3v-3h3c0.33-1.32 0.66-2.64 1-4h2c0.33-0.99 0.66-1.98 1-3h3v-3h3v-3h3v-3h3v-3c1.98-0.33 3.96-0.66 6-1v-2c1.49-0.495 1.49-0.495 3-1 0.33-0.66 0.66-1.32 1-2 2.65-0.594 5.29-0.742 8-1v-2c2.99-0.872 5.64-1.11 8.75-1.06 0.799 0.00902 1.6 0.018 2.42 0.0273 0.603 0.0116 1.21 0.0232 1.83 0.0352v-2c2.92-0.838 5.53-1.14 8.56-1.12z" fill="#000002"/>
</svg>
