<?xml version="1.0" encoding="UTF-8"?>
<svg version="1.1" viewBox="0 0 1600 1416" width="1280" height="1280" xmlns="http://www.w3.org/2000/svg">
<path transform="translate(263,28)" d="m0 0v2h15v4h8v3c2.31 0.33 4.62 0.66 7 1v3h4v4c2.31 0.33 4.62 0.66 7 1v3h4v4h3v3c0.619 0.0825 1.24 0.165 1.88 0.25 2.12 0.75 2.12 0.75 3.19 2.62 0.309 0.701 0.619 1.4 0.938 2.12 0.804 0.773 0.804 0.773 1.62 1.56 1.38 1.44 1.38 1.44 1.38 4.44h3v3c1.32 0.33 2.64 0.66 4 1v3h3c0.33 0.99 0.66 1.98 1 3 0.99 0.33 1.98 0.66 3 1v3h4v4c1.32 0.33 2.64 0.66 4 1v3h3v3h4v4h4v4h3c0.33 0.99 0.66 1.98 1 3 0.99 0.33 1.98 0.66 3 1 0.33 0.99 0.66 1.98 1 3 0.99 0.33 1.98 0.66 3 1v3h3c1.78 2.5 2.95 4.87 4 7.75 0.33 0.742 0.66 1.48 1 2.25 0.99 0.33 1.98 0.66 3 1 2.19 1.88 2.19 1.88 4 4v3c1.32 0.33 2.64 0.66 4 1v3h3c0.33 1.32 0.66 2.64 1 4h3v4h4v4c1.32 0.33 2.64 0.66 4 1v2h3v4h4v4h4v4h3c0.33 0.99 0.66 1.98 1 3 0.99 0.33 1.98 0.66 3 1v3h4v4h3c0.33 0.99 0.66 1.98 1 3 2.34-0.256 4.68-0.593 7-1 0.33-0.66 0.66-1.32 1-2 2.29-0.354 4.56-0.443 6.87-0.559 2.52-0.262 2.52-0.262 4.13-3.44 2.6-0.293 2.6-0.293 5.62-0.188 1 0.0271 2.01 0.0541 3.04 0.082 0.771 0.0348 1.54 0.0696 2.34 0.105v-3c2.75-0.917 4.36-1.11 7.19-1.06l3.81 0.0625v-3l11-1v-3h11c0.33-1.32 0.66-2.64 1-4h14v-3c3.98-1.33 7.85-1.07 12-1v-3c4.62-0.33 9.24-0.66 14-1v-3c4.95-0.33 9.9-0.66 15-1 0.33-0.99 0.66-1.98 1-3h14v-3c1.06-0.121 2.12-0.242 3.21-0.367 1.39-0.169 2.78-0.338 4.16-0.508 0.699-0.0786 1.4-0.157 2.12-0.238 4.2-0.439 4.2-0.439 7.51-2.89 2.86-0.344 2.86-0.344 6.31-0.5 6.88-0.188 6.88-0.188 12.7-3.5 2.86-0.0733 5.7-0.0924 8.56-0.0625 0.806 0.00451 1.61 0.00902 2.44 0.0137 2 0.0118 4 0.0298 5.99 0.0488v-2h3v-2h19v-2c8.14-2.71 17.5-2.15 26-2v-3c0.751-0.0146 1.5-0.0292 2.28-0.0442 3.43-0.0748 6.86-0.171 10.3-0.268 1.18-0.0226 2.36-0.0451 3.58-0.0684 1.15-0.0354 2.3-0.0709 3.49-0.107 1.05-0.0262 2.11-0.0524 3.19-0.0793 3.31-0.299 3.31-0.299 6.58-1.94 3.98-1.65 7.35-1.94 11.6-1.94 1.1-0.0198 1.1-0.0198 2.23-0.04 2.33-0.0406 4.65-0.0625 6.98-0.0811 2.34-0.0238 4.67-0.052 7.01-0.0918 1.45-0.0242 2.9-0.0392 4.34-0.0436 3.82-0.0372 3.82-0.0372 7.37-1.28 7.93-3.89 19.6-2.17 28.2-2.17 1.49-3e-3 2.98-0.0064 4.47-0.0102 4.02-0.00877 8.04-0.0112 12.1-0.0118 2.52-7.14e-4 5.03-0.00286 7.55-0.0055 8.8-0.00923 17.6-0.0133 26.4-0.0125 8.17 6.01e-4 16.3-0.00996 24.5-0.0257 7.04-0.0131 14.1-0.0184 21.1-0.0178 4.2 2.54e-4 8.39-0.00254 12.6-0.0132 3.95-0.00974 7.89-0.00972 11.8-0.00248 1.44 0.00104 2.88-0.00127 4.32-0.00736 8.23-0.0325 16 0.413 24 2.25v2h37l1 3c9.57 0.33 19.1 0.66 29 1l1 3 2.02-0.0352c17.8-0.174 17.8-0.174 21.8 2.04 3.17 1.47 6.18 1.4 9.65 1.56 8.11 0.391 8.11 0.391 11.5 1.44v2c1.23 0.0374 2.46 0.0748 3.73 0.113 1.63 0.0657 3.27 0.132 4.9 0.199 0.808 0.0226 1.62 0.0451 2.45 0.0684 5.12 0.229 8.34 1.2 12.9 3.62 3.42 0.567 3.42 0.567 6.88 0.688 1.15 0.0657 2.3 0.131 3.49 0.199 0.869 0.0374 1.74 0.0748 2.63 0.113v3c0.713-0.0116 1.43-0.0232 2.16-0.0352 5.4-0.0509 10.5 0.0891 15.8 1.04v3c0.904-0.0348 1.81-0.0696 2.74-0.105 1.18-0.0271 2.36-0.0541 3.57-0.082 1.17-0.0348 2.34-0.0696 3.55-0.105 3.64 0.34 3.72 0.875 6.14 3.29 3.42 0.582 3.42 0.582 7.19 0.688 1.27 0.0657 2.54 0.131 3.86 0.199l2.96 0.113v3c1.25 0.0735 1.25 0.0735 2.52 0.148l3.29 0.227c1.62 0.104 1.62 0.104 3.27 0.211 2.92 0.414 2.92 0.414 5.92 2.41 2.05 0.444 4.11 0.813 6.19 1.12 1.09 0.168 2.17 0.335 3.29 0.508 0.831 0.121 1.66 0.242 2.52 0.367v3h11v2h3v2h11v3c3.96 0.33 7.92 0.66 12 1v3c1.99-0.0326 3.97-0.0651 5.96-0.0977 2.04 0.0977 2.04 0.0977 5.04 1.1v3h11c0.33 0.99 0.66 1.98 1 3 2.97 0.33 5.94 0.66 9 1 0.33 0.99 0.66 1.98 1 3l8 1v3h11v4h11c0.33 0.99 0.66 1.98 1 3 2.31 0.33 4.62 0.66 7 1v3l3.25-0.0625c2.9 0.0483 5.04 0.194 7.75 1.06v3h7c0.33 1.32 0.66 2.64 1 4h7v3c3.63 0.33 7.26 0.66 11 1v3c2.31 0.33 4.62 0.66 7 1 0.33 0.99 0.66 1.98 1 3h7l1 3c2.31 0.33 4.62 0.66 7 1v3c2.31 0.33 4.62 0.66 7 1v2c1.61 0.186 1.61 0.186 3.25 0.375 3.13 0.521 5.08 1.03 7.75 2.62v2l2.88-0.188 3.12 0.188 2 3c3.56 1.22 3.56 1.22 7 2v2c0.897 0.186 0.897 0.186 1.81 0.375 2.19 0.625 2.19 0.625 5.19 2.62 1.66 0.385 3.32 0.728 5 1v2h3v2h4v3l3.44 0.375 3.56 0.625 1 2c2.31 0.731 4.65 1.4 7 2v3h7v4h7l1 3c2.02 0.733 2.02 0.733 4 1v3h6l1 4h7v4c1.02 0.155 1.02 0.155 2.06 0.312 3.57 0.835 6.6 2.18 9.94 3.69v3c2.31 0.33 4.62 0.66 7 1v3h4v3c2.31 0.33 4.62 0.66 7 1v3h4v2h3v2h4l1 3c0.99 0.33 1.98 0.66 3 1 0.99 0.33 1.98 0.66 3 1l1 3h4v3c1.98 0.33 3.96 0.66 6 1l1 3h4v4c2.31 0.33 4.62 0.66 7 1v3h4v3h4l1 3c1.98 0.33 3.96 0.66 6 1v4h4v3l2.38 0.438c2.62 0.562 2.62 0.562 4.62 1.56v2h4v4h4v3c0.763 0.103 1.53 0.206 2.31 0.312 2.93 0.75 3.7 1.52 5.69 3.69 0.99 0.33 1.98 0.66 3 1v3h4v4h4v2l7 2v3l4 1v3h4v4h4v2c1.98 0.66 3.96 1.32 6 2v3h4v4h4v4h4v3l4 1v3c2.31 0.33 4.62 0.66 7 1v3h4v4h3l1 2c0.99 0.33 1.98 0.66 3 1v4h4v4h4v4h3l1 7h3v7h4v60h-3l-1 8h-3l-1 7h-3l-1 4h-3v4h-3l-2 5h-2v2h-4v3c-0.639 0.103-1.28 0.206-1.94 0.312-0.681 0.227-1.36 0.454-2.06 0.688l-1 3h-3v2c-19.3 9.81-42.4 13-63.6 7.12-3.23-1.12-5.51-2.22-8.38-4.12-1.99-0.39-3.99-0.732-6-1v-3c-1.13-0.289-2.27-0.578-3.44-0.875-1.18-0.371-2.35-0.743-3.56-1.12-0.33-0.66-0.66-1.32-1-2-0.99-0.33-1.98-0.66-3-1v-3h-4c-2.25-1.88-2.25-1.88-4-4v-2h-3l-1-2c-0.99-0.33-1.98-0.66-3-1v-3l-4-1v-2h-3l-1-4h-3l-1-2c-0.99-0.33-1.98-0.66-3-1v-2h-2v-2h-2v-2h-3v-2l-4-1v-3h-4v-3l-1.88-0.438c-2.13-0.563-2.13-0.563-4.12-1.56v-2l-5-2v-2h-4v-4h-4c-1.37-1.29-2.71-2.63-4-4-0.99-0.33-1.98-0.66-3-1v-2l-4-2v-2l-1.56-0.25c-3.48-1.07-6.31-2.89-9.44-4.75v-2l-4-2v-2h-4v-2h-3v-2h-4v-3c-0.887-0.248-1.77-0.495-2.69-0.75-3.44-1.3-5.64-2.74-8.31-5.25v-2h-4v-2h-3v-2l-4-1v-2h-4v-2h-4v-2h-3l-2-3c-1.97-1.06-3.97-2.07-6-3v-2h-4v-2l-2.38-0.938c-2.63-1.06-2.63-1.06-4.62-2.06v-2l-2.31-0.438c-2.69-0.562-2.69-0.562-5.69-1.56v-2l-1.81-0.438c-1.75-0.45-3.47-0.991-5.19-1.56v-2h-4v-3h-4v-2h-3v-2l-2.31-0.438c-2.69-0.563-2.69-0.563-5.69-1.56v-2l-1.81-0.438c-1.75-0.45-3.47-0.991-5.19-1.56v-2c-0.825-0.0619-1.65-0.124-2.5-0.188-3.91-0.907-6.3-2.47-9.6-4.67-2.26-1.36-4.29-1.9-6.9-2.14v-2c-1.13-0.268-2.27-0.536-3.44-0.812-1.18-0.392-2.35-0.784-3.56-1.19-0.33-0.99-0.66-1.98-1-3-0.784-0.144-1.57-0.289-2.38-0.438-2.62-0.562-2.62-0.562-4.62-1.56v-2h-7v-2c-2.64-0.66-5.28-1.32-8-2v-2l-1.56-0.312c-4.74-1.34-9.09-3.49-13.4-5.75-3.6-1.83-7.09-2.96-11-3.94v-3c-1.61 0.0928-1.61 0.0928-3.25 0.188-3.75-0.188-3.75-0.188-5.54-1.54-2.92-2.18-5.89-3.06-9.34-4.21-6.66-2.22-6.66-2.22-8.88-4.44-1.59-0.473-3.18-0.938-4.78-1.36-4.49-1.3-8.84-3.01-13.2-4.64v-2l-3.25-0.438c-2.67-0.4-5.16-0.838-7.75-1.56v-2c-1.61 0.0619-1.61 0.0619-3.25 0.125-3.41-0.114-4.96-0.338-7.75-2.12v-2c-1.58 0.0928-1.58 0.0928-3.19 0.188-4.17-0.205-5.36-1.05-8.81-3.19-2.18-0.59-4.37-1.02-6.59-1.46-3.21-0.713-6.27-1.76-9.37-2.85-2-0.668-3.99-1.2-6.04-1.68v-2l-3.12 0.188c-4.23-0.205-6.17-1.26-9.88-3.19-2.27-0.619-4.54-1.11-6.85-1.57-2.07-0.414-4.11-0.903-6.15-1.43v-2l-3.25 0.0625c-2.9-0.0483-5.04-0.194-7.75-1.06v-2l-2.23-0.148-2.96-0.227c-0.963-0.0696-1.93-0.139-2.92-0.211-2.93-0.418-5.17-1.31-7.89-2.41-2.46-0.338-2.46-0.338-4.94-0.438-3.2-0.263-4.97-0.517-7.88-2-4.26-2.09-8.41-2.46-13.1-3.1-3.48-0.522-6.72-1.48-10.1-2.46-2.88-0.526-5.76-0.991-8.64-1.44-2.57-0.431-5.1-0.926-7.64-1.46-8.48-1.72-17.1-2.79-25.7-4-2.29-0.323-4.58-0.652-6.87-0.981-0.707-0.0979-1.41-0.196-2.14-0.297-4.93-0.711-4.93-0.711-6.04-1.82-1.5-0.204-3.01-0.347-4.52-0.465-0.94-0.078-1.88-0.156-2.85-0.236-1.96-0.154-3.93-0.308-5.89-0.461-4.77-0.397-9.42-0.916-14.1-1.84-6.32-1.22-12.6-1.64-19.1-2.06-2.29-0.154-4.58-0.312-6.87-0.473-1.5-0.0987-1.5-0.0987-3.03-0.199-2.67-0.265-2.67-0.265-4.61-0.777-2.88-0.685-5.66-0.693-8.62-0.77-1.29-0.0374-2.58-0.0748-3.91-0.113-1.36-0.0356-2.72-0.0707-4.08-0.105-2.65-0.0688-5.29-0.143-7.94-0.219-1.17-0.0303-2.35-0.0606-3.56-0.0918-2.95-0.142-5.81-0.383-8.74-0.699-8.26-0.777-16.5-0.635-24.8-0.624-1.8-6.75e-4 -3.59-0.00165-5.39-0.0029-3.75-0.00147-7.5 6.45e-4 -11.2 0.00534-4.78 0.0057-9.55 0.00241-14.3-0.00357-3.7-0.00363-7.41-0.00245-11.1 1.28e-4 -1.76 6.62e-4 -3.52-1.32e-4 -5.28-0.00248-8.29-0.00863-16.5 0.0129-24.7 0.9-3.29 0.342-6.57 0.433-9.87 0.517-1.31 0.0374-2.63 0.0748-3.98 0.113-2.04 0.0541-4.09 0.107-6.13 0.158-2.01 0.0515-4.01 0.109-6.02 0.167-1.77 0.0454-1.77 0.0454-3.58 0.0918-2.61-0.112-2.61-0.112-3.69 1.19-2.01 0.205-4.03 0.348-6.05 0.465-1.26 0.078-2.51 0.156-3.8 0.236-2.64 0.157-5.28 0.309-7.91 0.461-6.65 0.415-13 1.06-19.6 2.36-4.72 0.847-9.49 1.17-14.3 1.54-1.95 0.153-3.9 0.311-5.85 0.473-1.27 0.0987-1.27 0.0987-2.56 0.199-1.96 0.0641-1.96 0.0641-2.96 1.27-2.34 0.445-4.68 0.836-7.04 1.19-0.712 0.11-1.42 0.219-2.16 0.332-1.51 0.232-3.03 0.461-4.54 0.688-2.29 0.346-4.59 0.702-6.88 1.06-1.47 0.224-2.95 0.447-4.42 0.67-1.02 0.159-1.02 0.159-2.05 0.322-4.7 0.693-9.18 0.826-13.9 0.737v2c-0.549 0.0804-1.1 0.161-1.66 0.244-2.51 0.371-5.02 0.751-7.52 1.13-1.3 0.189-1.3 0.189-2.62 0.383-4.36 0.668-8.12 1.5-12.2 3.24-2.18 0.309-2.18 0.309-4.31 0.438-3.17 0.288-5.75 0.847-8.69 2.06-2.8 1.15-5.17 1.71-8.19 1.94-7.24 0.604-14.1 3.29-20.9 5.62-2.5 0.811-4.95 1.46-7.52 2-2.81 0.596-5.59 1.23-8.38 1.94v8c1.32 0.33 2.64 0.66 4 1v3h3c0.33 0.99 0.66 1.98 1 3 0.99 0.33 1.98 0.66 3 1v4h4v4h4v4h3v3h4v4h4v4h3c0.33 0.99 0.66 1.98 1 3 0.99 0.33 1.98 0.66 3 1 0.33 0.99 0.66 1.98 1 3 0.99 0.33 1.98 0.66 3 1 0.33 1.65 0.66 3.3 1 5 0.99 0.33 1.98 0.66 3 1v4c1.32 0.33 2.64 0.66 4 1v3h3c0.33 0.99 0.66 1.98 1 3 0.99 0.33 1.98 0.66 3 1v3c1.32 0.33 2.64 0.66 4 1v3h3c0.33 0.99 0.66 1.98 1 3 0.99 0.33 1.98 0.66 3 1v4h4v4h3c0.33 0.66 0.66 1.32 1 2 0.99 0.33 1.98 0.66 3 1v4h4v4c1.32 0.33 2.64 0.66 4 1v3h3c0.33 1.65 0.66 3.3 1 5h3c0.289 0.639 0.578 1.28 0.875 1.94 0.953 2.21 0.953 2.21 3.12 3.06v4h4v4h4v4h3v3h4v4c1.32 0.33 2.64 0.66 4 1v2h3v4h4v4h4v3h3c0.33 0.99 0.66 1.98 1 3 0.99 0.33 1.98 0.66 3 1v4h4v4c0.99 0.33 1.98 0.66 3 1 0.144 0.639 0.289 1.28 0.438 1.94 0.364 2.27 0.364 2.27 2.62 3.31 0.959 0.371 0.959 0.371 1.94 0.75v2h14v-2c0.781-0.0251 1.56-0.0501 2.37-0.0759 3.57-0.117 7.13-0.239 10.7-0.362l3.72-0.119c5.81-0.203 11.5-0.431 17.2-1.44v-2c0.699-0.0103 1.4-0.0206 2.12-0.0312 6.58-0.0978 13.2-0.2 19.7-0.308 3.38-0.0553 6.76-0.109 10.1-0.158 3.88-0.0567 7.77-0.121 11.7-0.186 1.83-0.0251 1.83-0.0251 3.7-0.0506 1.12-0.0199 2.24-0.0399 3.4-0.0604 0.993-0.0155 1.99-0.0311 3.01-0.0471 2.22 0.0906 2.22 0.0906 3.25-1.16 10.4-1.56 21.6-1.74 32 0l1 1c1.96 0.124 3.93 0.178 5.9 0.205 1.26 0.0199 2.52 0.0399 3.82 0.0604 1.39 0.017 2.77 0.0339 4.16 0.0506 1.41 0.0206 2.82 0.0416 4.23 0.063 3.72 0.0553 7.44 0.105 11.2 0.153 3.79 0.0502 7.59 0.106 11.4 0.161 7.45 0.108 14.9 0.209 22.3 0.307v2c7.64 1.11 15.2 1.32 23 1.52l3.01 0.104c0.897 0.0251 1.79 0.0501 2.72 0.0759 2.32 0.303 2.32 0.303 5.32 2.3 2.58 0.443 2.58 0.443 5.47 0.598l3.22 0.24 3.37 0.225c2.2 0.154 4.4 0.311 6.6 0.473 0.976 0.0658 1.95 0.132 2.96 0.199 2.38 0.265 2.38 0.265 4.38 1.27v2l3.14-0.0703c1.37-0.0188 2.74-0.037 4.11-0.0547l2.07-0.0508c3.74-0.0364 6.51 0.0963 9.68 2.18v2h18v3l3.25 0.148c1.4 0.075 2.79 0.151 4.19 0.227 0.707 0.0309 1.41 0.0619 2.14 0.0938 1.81 0.104 3.62 0.31 5.42 0.531l1 2c2.3 0.418 4.62 0.736 6.94 1 6.84 0.78 6.84 0.78 9.06 3 2.19 0.457 4.41 0.82 6.62 1.12 1.19 0.168 2.38 0.335 3.6 0.508 0.915 0.121 1.83 0.242 2.77 0.367v3h12v2h3v2h11v3l3.25-0.0625c2.9 0.0483 5.04 0.194 7.75 1.06v3c1.99-0.0326 3.97-0.0651 5.96-0.0977 2.04 0.0977 2.04 0.0977 5.04 1.1 0.33 0.66 0.66 1.32 1 2 2.29 0.314 4.56 0.379 6.87 0.461 2.13 0.539 2.13 0.539 3.41 2.58 0.236 0.647 0.472 1.29 0.715 1.96h8v3c1.61-0.0619 1.61-0.0619 3.25-0.125 3.41 0.114 4.96 0.338 7.75 2.12v2h7v3c3.63 0.33 7.26 0.66 11 1v3c2.64 0.33 5.28 0.66 8 1v3c1.64-0.0928 1.64-0.0928 3.31-0.188 4.17 0.212 4.06 0.451 6.69 3.19 3.61 0.73 3.61 0.73 7 1 0.33 1.32 0.66 2.64 1 4h7c0.33 0.99 0.66 1.98 1 3 2.31 0.33 4.62 0.66 7 1v3h7c0.33 1.32 0.66 2.64 1 4h7c0.33 0.99 0.66 1.98 1 3 0.969 0.124 1.94 0.248 2.94 0.375 1.01 0.206 2.02 0.412 3.06 0.625 0.33 0.66 0.66 1.32 1 2 2.31 0.731 4.65 1.4 7 2v3c1.98 0.33 3.96 0.66 6 1 0.33 0.99 0.66 1.98 1 3h5v3c2.31 0.33 4.62 0.66 7 1v3c2.31 0.33 4.62 0.66 7 1v3c0.681 0.103 1.36 0.206 2.06 0.312 3.57 0.835 6.6 2.18 9.94 3.69v3c2.31 0.33 4.62 0.66 7 1v3h4v2c2.31 0.66 4.62 1.32 7 2v4h4v2c2.31 0.66 4.62 1.32 7 2v3c0.784 0.124 1.57 0.248 2.38 0.375 2.62 0.625 2.62 0.625 4.62 2.62 2.07 0.643 2.07 0.643 4 1 0.33 1.32 0.66 2.64 1 4h4v3c1.98 0.33 3.96 0.66 6 1l1 3c2.02 0.733 2.02 0.733 4 1v3h4v2h3v2l4 1v2h3l1 4 2.38 0.438c2.62 0.562 2.62 0.562 4.62 1.56v2h3l1 3c0.99 0.33 1.98 0.66 3 1v3h4v4h4v2h3v2h4l1 3c0.99 0.33 1.98 0.66 3 1v3h4v4h4v3l4 1v3l1.88 0.438c2.12 0.562 2.12 0.562 4.12 1.56v2h4v4h4v4h4v3h3l1 4h3l1 3c0.99 0.33 1.98 0.66 3 1v3l4 1v3l4 1v3h3l1 3c0.99 0.33 1.98 0.66 3 1v3l4 1v3h3l1 4h3l1 3c0.99 0.33 1.98 0.66 3 1v3l4 1v3h3l1 7h3l0.875 3.44 1.12 3.56 2 1v8h3c0.885 3.92 1.25 7.74 1.5 11.8 0.274 4.21 0.601 8.38 1.12 12.6l0.375 3.69-1 1c-0.212 2.44-0.376 4.87-0.5 7.31-0.421 8.19-0.421 8.19-1.5 11.7h-3v9l-4 2v6h-3l-1 5h-3v4c-0.99 0.33-1.98 0.66-3 1l-1 4c-0.99 0.33-1.98 0.66-3 1l-2 3h-2v2h-4v4h-4v2c-2.65 1.46-3.89 2-7 2l-1 3-2.94 0.375c-1.01 0.206-2.02 0.412-3.06 0.625l-1 2c-2.75 0.917-4.36 1.11-7.19 1.06l-3.81-0.0625v2c-11 1.42-22 1.52-33 0v-2c-1.86 0.0619-1.86 0.0619-3.75 0.125-3.27 0.0116-5.46-0.268-8.25-2.12v-2l-2.62 0.25c-4.16-0.308-6.05-1.81-9.38-4.25-0.99-0.33-1.98-0.66-3-1v-2h-3c-1.71-1.62-3.37-3.29-5-5l-3-2v-2l-4-2v-2h-3l-1-4h-3v-3l-4-2v-2l-4-2v-2h-3c-0.33-1.32-0.66-2.64-1-4h-3v-3c-1.32-0.66-2.64-1.32-4-2v-2h-3c-2.19-1.87-2.19-1.87-4-4v-2c-1.32-0.33-2.64-0.66-4-1v-3h-3c-0.33-1.32-0.66-2.64-1-4h-3v-3h-4c-0.33-0.99-0.66-1.98-1-3-0.99-0.33-1.98-0.66-3-1v-2c-0.598-0.289-1.2-0.578-1.81-0.875-2.19-1.12-2.19-1.12-5.19-3.12v-2c-1.32-0.33-2.64-0.66-4-1v-2c-1.32-0.33-2.64-0.66-4-1v-3c-1.32-0.33-2.64-0.66-4-1v-2c-0.784-0.309-1.57-0.619-2.38-0.938-2.62-1.06-2.62-1.06-4.62-2.06v-2c-1.32-0.33-2.64-0.66-4-1v-2h-3c-0.33-1.32-0.66-2.64-1-4l-1.81-0.438c-1.75-0.45-3.47-0.991-5.19-1.56v-2c-1.32-0.33-2.64-0.66-4-1v-2h-3c-0.33-1.32-0.66-2.64-1-4-0.784-0.144-1.57-0.289-2.38-0.438-2.62-0.562-2.62-0.562-4.62-1.56v-2c-1.32-0.33-2.64-0.66-4-1v-2l-1.81-0.438c-1.75-0.45-3.47-0.991-5.19-1.56v-2c-1.32-0.33-2.64-0.66-4-1v-3c-0.784-0.144-1.57-0.289-2.38-0.438-2.62-0.562-2.62-0.562-4.62-1.56v-2h-4c-0.33-0.66-0.66-1.32-1-2-1.66-0.934-3.35-1.8-5.06-2.62-0.919-0.446-1.84-0.892-2.79-1.35-0.71-0.338-1.42-0.675-2.15-1.02v-2h-4v-2c-1.32-0.33-2.64-0.66-4-1v-2c-0.784-0.144-1.57-0.289-2.38-0.438-2.62-0.562-2.62-0.562-4.62-1.56v-2h-4v-2h-4v-2l-1.81-0.438c-1.75-0.45-3.47-0.991-5.19-1.56v-2c-1.05-0.155-1.05-0.155-2.12-0.312-3.27-0.782-5.89-2.16-8.88-3.69-2.24-0.686-2.24-0.686-4-1v-2l-1.81-0.438c-1.75-0.45-3.47-0.991-5.19-1.56v-2c-0.763-0.144-1.53-0.289-2.31-0.438-2.69-0.562-2.69-0.562-5.69-1.56v-2c-2.31-0.33-4.62-0.66-7-1v-2c-2.64-0.66-5.28-1.32-8-2v-2c-0.887 0.0619-1.77 0.124-2.69 0.188-3.79-0.215-5.16-1.16-8.31-3.19-2.64-1.09-5.31-2.04-8-3v-2c-0.928-0.0825-1.86-0.165-2.81-0.25-5.31-0.732-10.2-2.82-15.2-4.75v-2h-8v-2c-0.736-0.11-1.47-0.219-2.23-0.332-5.35-0.87-9.14-1.82-13.8-4.67-3.31-0.837-6.64-1.44-10-2v-2l-1.83-0.148-2.42-0.227-2.39-0.211c-2.46-0.432-4.14-1.3-6.36-2.41-2.16-0.341-2.16-0.341-4.38-0.438-3.03-0.275-4.62-0.562-7.38-2-5.13-2.47-10.6-2.85-16.2-3.56v-2l-2.82-0.113c-8.7-0.449-16.7-1.67-25.2-3.89-6.39-1.67-12.5-2.31-19.1-2.56-3.36-0.379-6.24-1.02-9.49-1.91-6.8-1.77-13.5-2.27-20.5-2.66-2.39-0.145-4.77-0.293-7.16-0.445-1.04-0.0595-2.08-0.119-3.15-0.18-2.63-0.25-2.63-0.25-5.63-1.25-8.54-1.04-17.2-1.27-25.8-1.56-1.19-0.0432-2.37-0.0864-3.59-0.131-2.89-0.105-5.77-0.207-8.66-0.307v4l4 1v4l4 2v3l4 1v3h3v4h4v4h4v4h3v3h4v4h4v4h3l1 3c0.99 0.33 1.98 0.66 3 1l1 3c0.99 0.33 1.98 0.66 3 1v3h3l1 4h3v4c0.639 0.103 1.28 0.206 1.94 0.312l2.06 0.688 1 3c0.99 0.33 1.98 0.66 3 1v5l4 1v3l4 1v3h3v4h4v4h4v3h3v4h4v4h4v4h3l1 3c0.99 0.33 1.98 0.66 3 1v3h4v4h3l1 3c1.31 1.36 2.65 2.69 4 4 4 4.67 4 4.67 4 7h3v4l4 1v3h3l1 4h3l1 3c0.99 0.33 1.98 0.66 3 1v3l4 1v3h3v4h4v4h4v4h3v3h4v4h4c0.155 0.928 0.155 0.928 0.312 1.88 0.563 2.49 0.563 2.49 3.69 4.12v3l4 1v3h3l1 3c0.99 0.33 1.98 0.66 3 1v4h4v4h3l1 4h3v3h4v4h3c0.33 1.32 0.66 2.64 1 4h3c0.33 0.99 0.66 1.98 1 3 0.99 0.33 1.98 0.66 3 1 0.33 0.99 0.66 1.98 1 3 0.99 0.33 1.98 0.66 3 1v3h3v4h4c0.155 0.959 0.155 0.959 0.312 1.94 0.227 0.681 0.454 1.36 0.688 2.06 0.99 0.33 1.98 0.66 3 1 0.343 1.33 0.676 2.66 1 4l3 2v3c1.32 0.33 2.64 0.66 4 1v3h3v4h4v4h4v4h3v3h4v4h4v4h3c0.33 1.32 0.66 2.64 1 4h3v3c1.32 0.33 2.64 0.66 4 1v3c1.32 0.33 2.64 0.66 4 1v3h3c0.33 1.65 0.66 3.3 1 5h3c0.289 0.639 0.577 1.28 0.875 1.94 0.953 2.21 0.953 2.21 3.12 3.06v4c1.32 0.33 2.64 0.66 4 1v3c1.32 0.33 2.64 0.66 4 1v3h3c0.33 0.99 0.66 1.98 1 3 0.99 0.33 1.98 0.66 3 1 0.33 0.99 0.66 1.98 1 3 0.99 0.33 1.98 0.66 3 1v3h3v4h4v4h4v4h3v3c1.32 0.33 2.64 0.66 4 1v3h4v4h3c0.33 1.65 0.66 3.3 1 5h3c0.268 0.619 0.536 1.24 0.812 1.88 1.14 2.42 1.14 2.42 4.19 4.12v3h3v4h4v4h4v4h3c0.33 0.99 0.66 1.98 1 3 0.99 0.33 1.98 0.66 3 1v3c1.32 0.33 2.64 0.66 4 1v3h3c0.33 0.99 0.66 1.98 1 3 0.99 0.33 1.98 0.66 3 1v4h4v3c0.99 0.33 1.98 0.66 3 1v3h4v4h4c0.103 0.598 0.206 1.2 0.312 1.81 0.804 2.56 1.7 3.42 3.69 5.19 2.19 2 2.19 2 4 4v3h3c0.33 1.32 0.66 2.64 1 4h3v4h4v4h4c0.33 0.99 0.66 1.98 1 3 0.99 0.495 0.99 0.495 2 1v3h4v4h4v4h3c0.33 0.99 0.66 1.98 1 3 0.99 0.33 1.98 0.66 3 1v3h4v4h3c0.33 0.99 0.66 1.98 1 3 0.99 0.33 1.98 0.66 3 1 0.333 1.33 0.667 2.67 1 4 0.99 0.33 1.98 0.66 3 1 0.699 1.32 1.37 2.65 2 4 0.66 0.33 1.32 0.66 2 1v4c1.32 0.33 2.64 0.66 4 1v3h3c0.33 1.32 0.66 2.64 1 4h3v4h4v3c1.32 0.66 2.64 1.32 4 2v2h3v4h4v4h4v4h3v3h4v4h4v4c0.99 0.33 1.98 0.66 3 1 0.688 2.06 0.688 2.06 1 4h3c0.289 0.639 0.578 1.28 0.875 1.94 0.953 2.21 0.953 2.21 3.12 3.06l1 3c0.99 0.33 1.98 0.66 3 1v4l4 1v2h3v4h4l1 3c0.99 0.33 1.98 0.66 3 1v3h3l1 3c0.99 0.33 1.98 0.66 3 1v4h4v4l4 1v2h3v4h4v4l4 1v4h3c0.402 0.928 0.402 0.928 0.812 1.88 1.14 2.42 1.14 2.42 4.19 4.12v3h3v4h4v4h4v4h3v3h4v4h4v4h3l1 3c0.99 0.33 1.98 0.66 3 1l1 3c0.99 0.33 1.98 0.66 3 1v3h3l1 4h3v4c0.639 0.103 1.28 0.206 1.94 0.312l2.06 0.688 1 3c0.99 0.33 1.98 0.66 3 1 0.343 1.33 0.676 2.66 1 4l3 2v3h3l1 4h3v4h4v7h3c1.35 2.71 1.07 5.01 1 8h3l1 9c0.99 0.33 1.98 0.66 3 1v43h-3l-1 10c-0.99 0.33-1.98 0.66-3 1l-1 6h-3v5c-0.99 0.33-1.98 0.66-3 1l-0.375 1.75c-0.934 3.36-3.05 4.99-5.62 7.25h-2l-2 4h-2v2c-5.41 4-5.41 4-8 4v2h-3v2l-8 2v2c-0.996 0.29-0.996 0.29-2.01 0.586l-2.68 0.789c-0.87 0.255-1.74 0.51-2.64 0.773-2.64 0.775-2.64 0.775-4.88 1.89-5.39 1.86-11.2 1.3-16.9 1.28-2.27-0.00315-4.54 0.0203-6.81 0.0457-1.46 0.00227-2.92 0.00298-4.38 0.00195-1.31 0.00298-2.63 0.00596-3.98 0.00903-4.27-0.424-6.91-1.53-10.7-3.37-1.47-0.44-2.94-0.847-4.44-1.19-1.76-0.402-1.76-0.402-3.56-0.812v-2c-0.701-0.103-1.4-0.206-2.12-0.312-3.27-0.781-5.92-2.11-8.88-3.69v-2h-4v-2l-4-2v-2h-3l-1-3c-0.99-0.33-1.98-0.66-3-1v-3h-4v-4h-3l-1-4h-3l-1-3c-0.99-0.33-1.98-0.66-3-1-2.19-1.88-2.19-1.88-4-4v-3c-0.99-0.33-1.98-0.66-3-1-0.33-0.66-0.66-1.32-1-2-0.99-0.33-1.98-0.66-3-1-0.33-0.99-0.66-1.98-1-3l-3-2v-3c-0.578-0.227-1.16-0.454-1.75-0.688-2.85-1.66-4.37-3.63-6.25-6.31v-2h-3c-0.33-1.32-0.66-2.64-1-4h-3c-0.33-0.99-0.66-1.98-1-3l-3-2v-2c-0.99-0.33-1.98-0.66-3-1v-3h-4v-4h-4v-4h-3c-0.33-0.99-0.66-1.98-1-3l-3-2v-2c-0.578-0.248-1.16-0.495-1.75-0.75-2.6-1.44-4.33-2.99-6.25-5.25v-3c-1.32-0.66-2.64-1.32-4-2v-2h-3c-0.289-0.639-0.578-1.28-0.875-1.94-0.953-2.21-0.953-2.21-3.12-3.06v-3c-1.32-0.66-2.64-1.32-4-2v-3h-3c-0.33-1.32-0.66-2.64-1-4h-3c-0.33-0.99-0.66-1.98-1-3-0.99-0.33-1.98-0.66-3-1v-3c-1.32-0.66-2.64-1.32-4-2v-2h-3v-4h-4v-4h-4v-4c-0.99-0.33-1.98-0.66-3-1v-2c-0.577-0.248-1.16-0.495-1.75-0.75-2.6-1.44-4.33-2.99-6.25-5.25v-3h-3c-0.33-1.32-0.66-2.64-1-4h-3c-0.155-0.959-0.155-0.959-0.312-1.94-0.227-0.681-0.454-1.36-0.688-2.06-0.99-0.33-1.98-0.66-3-1-2.64-2.33-3.87-3.62-5-7-0.99-0.33-1.98-0.66-3-1v-4h-3c-2.19-1.81-2.19-1.81-4-4v-3c-1.32-0.33-2.64-0.66-4-1v-3h-3c-0.33-1.32-0.66-2.64-1-4h-3c-0.33-0.99-0.66-1.98-1-3-0.99-0.33-1.98-0.66-3-1-0.699-1.32-1.37-2.65-2-4-0.66-0.33-1.32-0.66-2-1v-2h-2c-0.268-0.804-0.536-1.61-0.812-2.44-0.392-0.846-0.784-1.69-1.19-2.56-0.99-0.33-1.98-0.66-3-1-2.19-1.88-2.19-1.88-4-4v-3h-3l-0.25-1.88c-0.996-2.82-2.11-2.84-4.75-4.12-4-4.44-4-4.44-4-7h-3c-0.33-0.99-0.66-1.98-1-3-0.99-0.33-1.98-0.66-3-1-0.33-0.99-0.66-1.98-1-3-1.52-1.24-1.52-1.24-3.06-2.5-1.45-1.24-1.45-1.24-2.94-2.5v-3h-4v-4h-3c-0.33-1.32-0.66-2.64-1-4h-3c-0.33-0.99-0.66-1.98-1-3l-3-2v-2c-1.32-0.66-2.64-1.32-4-2v-3c-1.32-0.66-2.64-1.32-4-2v-2h-3c-0.33-0.99-0.66-1.98-1-3-0.99-0.33-1.98-0.66-3-1v-4c-1.32-0.33-2.64-0.66-4-1v-3c-1.32-0.66-2.64-1.32-4-2v-3h-3c-0.33-1.32-0.66-2.64-1-4h-3v-3c-1.32-0.33-2.64-0.66-4-1v-3c-1.32-0.66-2.64-1.32-4-2v-2h-3v-4h-4v-4c-1.32-0.33-2.64-0.66-4-1v-3c-0.99-0.33-1.98-0.66-3-1v-2c-0.577-0.248-1.16-0.495-1.75-0.75-2.6-1.44-4.33-2.99-6.25-5.25v-3h-3c-0.33-1.32-0.66-2.64-1-4h-3c-0.155-0.959-0.155-0.959-0.312-1.94-0.227-0.681-0.454-1.36-0.688-2.06-0.99-0.33-1.98-0.66-3-1-2.19-1.81-2.19-1.81-4-4v-4c-1.32-0.33-2.64-0.66-4-1v-3h-3c-2.19-1.81-2.19-1.81-4-4v-3l-4-1v-3h-3l-1-3c-0.99-0.33-1.98-0.66-3-1v-4h-4c-0.227-0.557-0.454-1.11-0.688-1.69-1.68-2.96-3.88-4.94-6.31-7.31-0.885-1.07-1.76-2.16-2.62-3.25-2.14-2.96-2.14-2.96-5.38-3.75l-1-3c-2.44-2.64-4.88-4.91-7.75-7.06-2.35-2.03-2.93-2.91-3.25-5.94h-3v-4l-1.81-0.312c-2.52-0.793-3.58-1.6-5.19-3.69v-3h-4v-4l-4-1v-3h-3l-1-3c-0.99-0.33-1.98-0.66-3-1v-3l-4-2v-2h-2l-2-5h-3l-1-3c-0.99-0.33-1.98-0.66-3-1l-1-3c-0.99-0.33-1.98-0.66-3-1v-4l-1.75-0.688c-2.85-1.66-4.37-3.63-6.25-6.31v-2h-3v-3l-4-1v-3l-4-2v-2h-3v-4h-4v-4l-4-1v-3h-3v-3l-4-2v-2c-0.639-0.103-1.28-0.206-1.94-0.312l-2.06-0.688-1-3-3-3v-2h-3l-1-4h-3c-0.289-0.639-0.578-1.28-0.875-1.94-0.953-2.21-0.953-2.21-3.12-3.06v-3l-4-2v-3h-3c-2.19-1.81-2.19-1.81-4-4v-3l-4-1v-3h-3l-1-4h-3l-1-3c-0.99-0.33-1.98-0.66-3-1v-4l-4-1v-2h-2l-1-4c-0.639-0.103-1.28-0.206-1.94-0.312l-2.06-0.688-1-3c-0.99-0.33-1.98-0.66-3-1v-4h-3l-1-4h-3c-0.155-0.959-0.155-0.959-0.312-1.94l-0.688-2.06c-0.99-0.33-1.98-0.66-3-1-2.64-2.33-3.87-3.62-5-7-0.99-0.33-1.98-0.66-3-1l-1-3-3.06-2.5-2.94-2.5v-3h-4v-4h-3l-1-4h-3l-1-3c-0.99-0.33-1.98-0.66-3-1v-3c-1.32-0.66-2.64-1.32-4-2v-2c-0.99-0.33-1.98-0.66-3-1-0.688-2.06-0.688-2.06-1-4h-3c-0.33-0.99-0.66-1.98-1-3-0.99-0.33-1.98-0.66-3-1v-4h-3c-0.124-0.928-0.124-0.928-0.25-1.88-0.523-2.26-0.523-2.26-2.5-3-2.37-1.18-3.25-2.16-4.88-4.19-2.05-2.95-2.05-2.95-4.38-3.94v-3c-1.32-0.33-2.64-0.66-4-1v-3c-0.99-0.33-1.98-0.66-3-1-0.33-0.66-0.66-1.32-1-2-0.99-0.33-1.98-0.66-3-1v-4h-4v-4h-3c-0.33-1.32-0.66-2.64-1-4h-3v-3h-3c-0.124-0.928-0.124-0.928-0.25-1.88-0.563-2.31-0.563-2.31-2.81-3.38-0.639-0.248-1.28-0.495-1.94-0.75v-3h-3c-0.33-1.32-0.66-2.64-1-4h-3c-0.33-1.32-0.66-2.64-1-4h-3c-0.289-0.639-0.578-1.28-0.875-1.94-0.953-2.21-0.953-2.21-3.12-3.06v-3c-0.99-0.33-1.98-0.66-3-1-1.54-1.59-1.54-1.59-3.06-3.5-2.11-2.68-2.11-2.68-4.94-4.5v-3c-1.32-0.33-2.64-0.66-4-1v-3h-3c-0.33-0.99-0.66-1.98-1-3-0.99-0.33-1.98-0.66-3-1v-4h-4v-4h-3v-3c-1.32-0.33-2.64-0.66-4-1v-3c-0.959-0.155-0.959-0.155-1.94-0.312-0.681-0.227-1.36-0.454-2.06-0.688-0.33-0.99-0.66-1.98-1-3-0.99-0.33-1.98-0.66-3-1v-4h-3c-0.33-1.32-0.66-2.64-1-4h-3c-0.206-0.557-0.412-1.11-0.625-1.69-1.36-2.29-2.43-3.27-4.5-4.88-0.949-0.804-1.9-1.61-2.88-2.44v-3l-1.75-0.688c-2.82-1.64-4.26-3.75-6.25-6.31l-3-2v-2c-1.32-0.66-2.64-1.32-4-2v-2h-3c-0.33-0.99-0.66-1.98-1-3-0.99-0.33-1.98-0.66-3-1-0.33-0.99-0.66-1.98-1-3-0.99-0.33-1.98-0.66-3-1v-3c-0.99-0.33-1.98-0.66-3-1-2.64-2.33-3.87-3.62-5-7-0.99-0.33-1.98-0.66-3-1v-4h-4v-4h-3c-0.103-0.639-0.206-1.28-0.312-1.94-0.227-0.681-0.454-1.36-0.688-2.06-0.99-0.33-1.98-0.66-3-1-1.54-1.59-1.54-1.59-3.06-3.5-2.11-2.68-2.11-2.68-4.94-4.5v-3c-1.32-0.66-2.64-1.32-4-2v-2c-0.99-0.33-1.98-0.66-3-1v-3h-4v-4c-1.32-0.33-2.64-0.66-4-1v-3h-3c-0.33-0.99-0.66-1.98-1-3-0.99-0.33-1.98-0.66-3-1v-3c-1.32-0.33-2.64-0.66-4-1v-3c-0.99-0.33-1.98-0.66-3-1-0.688-2.06-0.688-2.06-1-4h-3c-0.33-1.32-0.66-2.64-1-4h-3c-0.33-0.99-0.66-1.98-1-3-0.99-0.33-1.98-0.66-3-1v-4c-0.835-0.309-0.835-0.309-1.69-0.625-2.26-1.34-3.31-2.43-4.94-4.44-2.05-2.95-2.05-2.95-4.38-3.94v-3c-1.32-0.33-2.64-0.66-4-1v-3h-3c-0.33-1.32-0.66-2.64-1-4h-3v-4h-4v-4c-1.32-0.33-2.64-0.66-4-1v-3h-3v-3c-1.32-0.33-2.64-0.66-4-1v-3l-4-1v-4h-3c-0.33-1.32-0.66-2.64-1-4h-3c-0.33-1.32-0.66-2.64-1-4h-3c-0.289-0.639-0.578-1.28-0.875-1.94-0.953-2.21-0.953-2.21-3.12-3.06v-3c-0.639-0.103-1.28-0.206-1.94-0.312l-2.06-0.688c-0.33-0.99-0.66-1.98-1-3l-3.06-2.5c-0.969-0.825-1.94-1.65-2.94-2.5v-3l-4-1v-3h-3c-0.33-1.32-0.66-2.64-1-4h-3c-0.33-0.99-0.66-1.98-1-3-0.99-0.33-1.98-0.66-3-1-0.33-0.99-0.66-1.98-1-3-0.99-0.66-1.98-1.32-3-2v-2c-0.99-0.33-1.98-0.66-3-1v-3c-0.639-0.103-1.28-0.206-1.94-0.312l-2.06-0.688c-0.33-0.99-0.66-1.98-1-3-0.99-0.33-1.98-0.66-3-1v-4h-3c-0.33-1.32-0.66-2.64-1-4h-3c-0.103-0.639-0.206-1.28-0.312-1.94-0.34-1.02-0.34-1.02-0.688-2.06-0.99-0.33-1.98-0.66-3-1v-2h-2v-2h-2v-3l-4-1v-3c-0.99-0.33-1.98-0.66-3-1-0.33-0.66-0.66-1.32-1-2-0.99-0.33-1.98-0.66-3-1v-4h-4v-4h-3c-0.33-1.32-0.66-2.64-1-4h-3v-3l-4-1v-3l-4-2v-2c-0.99-0.33-1.98-0.66-3-1-0.688-2.06-0.688-2.06-1-4h-3c-0.33-0.99-0.66-1.98-1-3-0.99-0.33-1.98-0.66-3-1v-4h-3c-0.103-0.639-0.206-1.28-0.312-1.94-0.34-1.02-0.34-1.02-0.688-2.06-0.99-0.33-1.98-0.66-3-1v-2h-2v-2h-2c-2.13-1.81-2.13-1.81-4-4v-3c-1.32-0.66-2.64-1.32-4-2v-2h-3v-4h-4v-4h-4v-4h-3v-3c-1.32-0.33-2.64-0.66-4-1v-3c-1.32-0.33-2.64-0.66-4-1v-3c-1.32-0.66-2.64-1.32-4-2v-3h-3c-0.33-1.32-0.66-2.64-1-4h-3c-0.33-0.99-0.66-1.98-1-3-0.99-0.33-1.98-0.66-3-1-0.702-1.32-1.37-2.65-2-4-0.536-0.536-1.07-1.07-1.62-1.62-0.454-0.454-0.908-0.908-1.38-1.38v-2h-2c-1.44-1.5-1.44-1.5-3-3.44-2.15-2.71-2.15-2.71-5-4.56v-3h-3c-0.33-1.32-0.66-2.64-1-4h-3c-0.33-0.99-0.66-1.98-1-3-0.99-0.33-1.98-0.66-3-1v-4c-1.32-0.33-2.64-0.66-4-1v-2c-0.99-0.33-1.98-0.66-3-1-1.19-1.42-2.38-2.85-3.53-4.31-2.12-2.42-4.58-4.33-7.12-6.29-1.36-1.39-1.36-1.39-1.36-4.39h-3c-0.33-1.32-0.66-2.64-1-4h-3c-0.289-0.639-0.577-1.28-0.875-1.94-0.953-2.21-0.953-2.21-3.12-3.06v-2h-2v-2h-2v-3c-1.98-0.99-1.98-0.99-4-2v-2c-0.99-0.33-1.98-0.66-3-1v-3h-4v-4h-3c-0.33-1.32-0.66-2.64-1-4h-3c-0.33-0.99-0.66-1.98-1-3-0.99-0.33-1.98-0.66-3-1v-3c-1.98-0.99-1.98-0.99-4-2v-2c-0.99-0.33-1.98-0.66-3-1-2.64-2.33-3.87-3.62-5-7-0.99-0.33-1.98-0.66-3-1-0.33-0.99-0.66-1.98-1-3-1.49-0.99-1.49-0.99-3-2v-3h-3c-4-4.34-4-4.34-4-7h-2v-2h-2c-2.13-1.81-2.13-1.81-4-4v-3c-1.32-0.66-2.64-1.32-4-2v-2h-3v-4h-4v-4h-3c-0.33-1.32-0.66-2.64-1-4h-3v-3c-1.32-0.33-2.64-0.66-4-1v-3c-1.32-0.33-2.64-0.66-4-1v-3c-0.99-0.33-1.98-0.66-3-1-0.688-2.06-0.688-2.06-1-4h-3c-0.289-0.804-0.577-1.61-0.875-2.44-0.858-2.7-0.858-2.7-3.12-3.56v-4c-0.99-0.33-1.98-0.66-3-1l-1-6h-2c-0.193-0.771-0.387-1.54-0.586-2.34-0.26-1-0.521-2.01-0.789-3.04-0.255-0.998-0.51-2-0.773-3.02-0.676-2.73-0.676-2.73-2.85-4.6-0.175-3.01-0.231-5.93-0.195-8.95 0.00283-0.885 0.00566-1.77 0.00858-2.68 0.0112-2.83 0.0363-5.67 0.0617-8.5 0.01-1.92 0.0192-3.84 0.0273-5.75 0.0221-4.71 0.0566-9.41 0.0977-14.1l2-1c0.599-2.31 0.957-4.62 1.34-6.97 0.218-0.67 0.436-1.34 0.66-2.03 1.49-0.495 1.49-0.495 3-1v-6c1.98-0.495 1.98-0.495 4-1v-7h4v-4h3c0.33-1.32 0.66-2.64 1-4h3v-3c1.32-0.33 2.64-0.66 4-1v-3c0.99-0.33 1.98-0.66 3-1 0.33-0.99 0.66-1.98 1-3h4c0.33-0.99 0.66-1.98 1-3 1.98-0.33 3.96-0.66 6-1v-3c1.07-0.103 2.15-0.206 3.25-0.312 3.65-0.365 3.65-0.365 5.65-2.2 2.61-1.85 4.24-1.88 7.41-1.99 3.66-0.227 5.73-0.518 9.12-2.06 7.27-2.93 15.3-2.08 22.6 0.562z" fill="#000100"/>
<path transform="translate(688,817)" d="m0 0c2.71 0.232 5.41 0.419 8.12 0.562 1.13 0.0648 1.13 0.0648 2.29 0.131 1.86 0.106 3.73 0.207 5.59 0.307v3c5.44 0.495 5.44 0.495 11 1 0.33 0.99 0.66 1.98 1 3 1.98 0.33 3.96 0.66 6 1v3h4v4h4v3c1.32 0.33 2.64 0.66 4 1v2h3c0.33 1.65 0.66 3.3 1 5h3v4h4v4h3c0.33 2.31 0.66 4.62 1 7h3c0.33 3.63 0.66 7.26 1 11h3c0.33 6.27 0.66 12.5 1 19h2c0.0542 1.92 0.0929 3.83 0.125 5.75 0.0348 1.6 0.0348 1.6 0.0703 3.23-0.195 3.02-0.195 3.02-1.16 4.92-1.55 3.15-1.5 6.4-1.66 9.84-0.0387 0.697-0.0773 1.39-0.117 2.11-0.0938 1.71-0.177 3.42-0.258 5.14h-3c-0.33 3.63-0.66 7.26-1 11h-3c-0.124 0.969-0.247 1.94-0.375 2.94-0.309 1.52-0.309 1.52-0.625 3.06-0.66 0.33-1.32 0.66-2 1-0.652 2.02-0.652 2.02-1 4h-4c-0.33 1.65-0.66 3.3-1 5h-2c-0.0825 0.578-0.165 1.15-0.25 1.75-0.976 2.93-2.39 4.3-4.75 6.25h-3v2c-0.99 0.33-1.98 0.66-3 1l-1.56 1.56c-0.474 0.474-0.949 0.949-1.44 1.44h-2v2c-3.47 0.99-3.47 0.99-7 2v2c-2.64 0.33-5.28 0.66-8 1v2c-3.63 2.33-6.77 2.16-11 2v2c-2.31 0.33-4.62 0.66-7 1v2c-3.09 1.76-4.23 2-8 2v2c-3.47 0.99-3.47 0.99-7 2v2c-0.928 0.371-1.86 0.743-2.81 1.12-3.43 1.48-6.75 3.14-10.1 4.88-0.946 0.495-1.89 0.99-2.87 1.5-2.55 1.36-2.55 1.36-3.26 4.5h-4v2h-3v2h-4v3c-0.99 0.33-1.98 0.66-3 1l-1.56 1.56c-0.474 0.474-0.949 0.949-1.44 1.44h-2v2h-3v2c-0.99 0.33-1.98 0.66-3 1-0.33 0.99-0.66 1.98-1 3h-4v3c-0.99 0.33-1.98 0.66-3 1-0.66 0.825-1.32 1.65-2 2.5-2 2.5-2 2.5-5 3.5-0.825 0.846-1.65 1.69-2.5 2.56-2.5 2.44-2.5 2.44-5.5 2.44v3h-4v4h-4v4h-4v3h-3c-0.33 1.32-0.66 2.64-1 4h-3c-0.33 1.32-0.66 2.64-1 4h-3c-0.33 0.99-0.66 1.98-1 3-0.66 0.33-1.32 0.66-2 1-0.33 0.99-0.66 1.98-1 3h-3c-0.33 1.32-0.66 2.64-1 4h-3v4h-4v3c-0.99 0.33-1.98 0.66-3 1-0.33 0.99-0.66 1.98-1 3h-3v3c-1.32 0.33-2.64 0.66-4 1v2h-3v2h-4c-0.33 0.99-0.66 1.98-1 3-3.56 1.19-3.56 1.19-7 2v2c-1.07 0.289-2.14 0.577-3.25 0.875-3.53 0.907-3.53 0.907-5.62 2.19-2.74 1.21-4.9 1.13-7.88 1.06-0.985-0.018-1.97-0.0361-2.98-0.0547-1.12-0.0348-1.12-0.0348-2.27-0.0703v2h-22v-2c-0.736 0.0348-1.47 0.0696-2.23 0.105-9.12 0.253-9.12 0.253-13.8-3.11-2.32-0.722-4.65-1.4-7-2v-2c-0.598-0.144-1.2-0.289-1.81-0.438-1.75-0.45-3.47-0.991-5.19-1.56v-2h-4v-2h-2v-2c-0.804-0.289-1.61-0.577-2.44-0.875-2.56-1.12-2.56-1.12-3.56-3.12-0.99-0.33-1.98-0.66-3-1-0.33-0.99-0.66-1.98-1-3-0.99-0.33-1.98-0.66-3-1v-4h-3c-0.33-1.65-0.66-3.3-1-5-0.99-0.33-1.98-0.66-3-1-0.699-1.32-1.37-2.65-2-4-0.66-0.33-1.32-0.66-2-1v-6h-2c-2.68-4.02-2.16-6.24-2-11h-2c-4.28-12.9-1.98-27.9 0-41h2v-8h2v-3h2c0.124-1.13 0.248-2.27 0.375-3.44 0.206-1.18 0.413-2.35 0.625-3.56 0.66-0.33 1.32-0.66 2-1 0.33-0.99 0.66-1.98 1-3 0.66-0.33 1.32-0.66 2-1 1.05-1.98 2.05-3.97 3-6h2v-4h4v-4h4v-4h3c0.33-0.99 0.66-1.98 1-3 0.66-0.33 1.32-0.66 2-1 0.33-0.99 0.66-1.98 1-3h4v-4h4c0.495-1.98 0.495-1.98 1-4h2v-3h4v-4h4v-4h4v-3h3c0.495-1.98 0.495-1.98 1-4h3v-2h2v-2c0.639-0.289 1.28-0.577 1.94-0.875 2.21-0.953 2.21-0.953 3.06-3.12h4v-4h4v-3h3c0.495-1.98 0.495-1.98 1-4h3c0.99-1.98 0.99-1.98 2-4h2v-2c2.65-1.46 3.89-2 7-2v-3h4v-4h4c0.495-1.98 0.495-1.98 1-4h3c0.495-1.49 0.495-1.49 1-3 1.98-0.33 3.96-0.66 6-1v-3h4v-4c0.784-0.289 1.57-0.577 2.38-0.875 2.72-0.974 2.72-0.974 4.62-3.12h4v-3h4v-4h7v-4h4v-3c3.47-0.495 3.47-0.495 7-1v-3c0.969-0.289 1.94-0.577 2.94-0.875 3.17-0.767 3.17-0.767 4.06-3.12h5v-3c2.31-0.33 4.62-0.66 7-1v-3c1.7-0.433 1.7-0.433 3.44-0.875 1.18-0.371 2.35-0.742 3.56-1.12 0.33-0.66 0.66-1.32 1-2h7v-4h7c0.33-0.99 0.66-1.98 1-3 3.47-0.495 3.47-0.495 7-1v-2c3.88-1.19 6.92-2 11-2v-3l10-1c0.33-0.99 0.66-1.98 1-3h19v-2c4.39-1.65 9.85-1.07 14 1z" fill="#000100"/>
<path transform="translate(445 554)" d="m0 0c0.985 0.018 1.97 0.0361 2.98 0.0547 1.12 0.0348 1.12 0.0348 2.27 0.0703v2c3.85 1.18 7.76 1.33 11.8 1.56 0.697 0.0432 1.39 0.0864 2.11 0.131 1.71 0.106 3.42 0.207 5.14 0.307v3c0.58 0.11 1.16 0.219 1.76 0.332 4.84 0.982 8.9 2.22 13.2 4.67v3h7v4h4v3c0.99 0.33 1.98 0.66 3 1v3h4v4h4v4h3c0.33 2.97 0.66 5.94 1 9h3c0.33 2.97 0.66 5.94 1 9h3v12c0.99 0.33 1.98 0.66 3 1 2.11 4.23 1.23 9.79 1.25 14.4 0.0309 1.74 0.0309 1.74 0.0625 3.51 0.00516 1.11 0.0103 2.22 0.0156 3.36 0.00935 1.02 0.0187 2.04 0.0283 3.09-0.414 3.03-1.14 3.64-3.36 5.6-0.581 3.19-0.581 3.19-0.688 6.69-0.0986 1.77-0.0986 1.77-0.199 3.57-0.0374 0.904-0.0748 1.81-0.113 2.74-1.49 0.495-1.49 0.495-3 1-1.23 3.51-1.23 3.51-2 7h-2c-0.33 1.98-0.66 3.96-1 6-1.49 0.495-1.49 0.495-3 1v4h-4v4h-3c-0.33 1.32-0.66 2.64-1 4h-3v3h-4v4h-4c-0.33 0.99-0.66 1.98-1 3-3.06 1.19-3.06 1.19-6 2v2h-4v2c-3 2-3 2-7 2-0.33 0.99-0.66 1.98-1 3-2.21 1.28-2.21 1.28-4.94 2.5-4.21 1.88-4.21 1.88-7.06 5.5-3.13 1.19-3.13 1.19-6 2v2h-4v2c-4.38 3-4.38 3-7 3v2h-4v4h-4v2c-2.65 1.46-3.89 2-7 2-0.33 0.99-0.66 1.98-1 3h-3v3c-1.32 0.33-2.64 0.66-4 1v2h-3v2h-4v3c-1.32 0.33-2.64 0.66-4 1v2c-0.639 0.103-1.28 0.206-1.94 0.312-0.681 0.227-1.36 0.454-2.06 0.688-0.33 0.99-0.66 1.98-1 3-3 2-3 2-6 2v3h-4v3c-0.99 0.33-1.98 0.66-3 1-0.33 0.99-0.66 1.98-1 3-0.99 0.33-1.98 0.66-3 1-0.33 0.66-0.66 1.32-1 2h-3v3c-4.22 3-4.22 3-7 3-0.33 0.99-0.66 1.98-1 3h-3v3h-4v4h-4v4c-0.99 0.33-1.98 0.66-3 1-0.33 0.66-0.66 1.32-1 2h-3c-0.33 1.32-0.66 2.64-1 4h-3v4h-4v3c-0.99 0.33-1.98 0.66-3 1-0.33 0.99-0.66 1.98-1 3h-3c-0.33 1.32-0.66 2.64-1 4h-3c-0.33 1.32-0.66 2.64-1 4h-3v2h-3v2h-4v3h-4v2c-3 2-3 2-7 2v2h-4v2h-8v2c-6.72 1.24-13.4 1.15-20.2 1.12-1.17 0.00387-2.35 0.00773-3.56 0.0117l-3.42-0.00391c-1.02-0.00113-2.05-0.00226-3.1-0.00342-2.41-0.114-4.43-0.438-6.73-1.13v-2c-1.55 0.0928-1.55 0.0928-3.12 0.188-4.17-0.202-6.25-1.22-9.88-3.19-2.74-0.699-2.74-0.699-5-1v-2c-1.42-0.464-1.42-0.464-2.88-0.938-3.13-1.06-3.13-1.06-5.12-2.06v-2c-1.65-0.66-3.3-1.32-5-2v-2c-1.98-0.66-3.96-1.32-6-2v-3c-0.866-0.309-0.866-0.309-1.75-0.625-3.09-1.89-4.44-4.28-6.25-7.38v-2h-3c-0.289-0.784-0.578-1.57-0.875-2.38-0.974-2.72-0.974-2.72-3.12-4.62-0.125-3.12-0.125-3.12 0-6h-2c-0.193-0.687-0.387-1.37-0.586-2.08-0.26-0.901-0.521-1.8-0.789-2.73-0.255-0.893-0.51-1.79-0.773-2.71-0.804-2.69-0.804-2.69-2.85-5.48-0.196-2.81-0.28-5.51-0.266-8.32-0.00191-0.812-0.00383-1.62-0.0058-2.46-0.00136-1.72 0.00232-3.43 0.0107-5.15 0.0107-2.63 9.2e-5 -5.26-0.0127-7.89 0.00132-1.67 0.00388-3.33 0.00781-5-0.00405-0.79-0.0081-1.58-0.0123-2.39 0.048-5.56 0.048-5.56 2.28-7.79 0.679-2.43 0.679-2.43 1.12-5.12 0.168-0.91 0.335-1.82 0.508-2.76 0.121-0.699 0.242-1.4 0.367-2.12h3v-7h3c0.33-2.31 0.66-4.62 1-7 0.99-0.33 1.98-0.66 3-1 0.33-0.99 0.66-1.98 1-3h3v-4h4v-4h3c0.33-1.32 0.66-2.64 1-4h3v-3h4v-4h4v-4h3c0.33-0.99 0.66-1.98 1-3 0.66-0.33 1.32-0.66 2-1 0.33-0.99 0.66-1.98 1-3h4v-4h4v-3c0.99-0.33 1.98-0.66 3-1 0.495-1.49 0.495-1.49 1-3h3c0.495-1.98 0.495-1.98 1-4h3v-3l3-1c0.99-1.49 0.99-1.49 2-3 3.12-1.19 3.12-1.19 6-2v-2c0.99-0.33 1.98-0.66 3-1 0.495-1.49 0.495-1.49 1-3h4c0.495-1.98 0.495-1.98 1-4h3v-3h3c0.0206-0.577 0.0412-1.15 0.0625-1.75 1.3-3.12 3.26-3.92 6.15-5.52 1.79-0.734 1.79-0.734 4.79-0.734v-3c1.32-0.33 2.64-0.66 4-1v-3h4v-4h7v-4h4v-3h4v-4c3.47-0.495 3.47-0.495 7-1v-3h4v-3c1.07-0.489 1.07-0.489 2.15-0.988 0.919-0.437 1.84-0.874 2.79-1.32 0.917-0.429 1.83-0.859 2.78-1.3 2.59-1.24 2.59-1.24 3.29-4.39h4c0.66-1.32 1.32-2.64 2-4h5v-3h4v-2h2v-2c2.48-0.495 2.48-0.495 5-1 0.33-0.99 0.66-1.98 1-3h4v-2h3v-2h4v-3c2.31-0.33 4.62-0.66 7-1v-3h4v-2h2v-2h6v-3c3.47-0.495 3.47-0.495 7-1v-3c1.07-0.103 2.14-0.206 3.25-0.312 3.64-0.349 3.64-0.349 5.52-2.16 3.15-2.15 5.97-2.2 9.73-2.59 6.14-0.635 11.1-3.21 17.2-3.06z" fill="#000100"/>
<path transform="translate(203 301)" d="m0 0c1.31 0.00193 2.63 0.00387 3.98 0.00586 0.674 0.0062 1.35 0.0124 2.04 0.0188 2.07 0.0184 4.13 0.0205 6.2 0.0203 11 0.0488 11 0.0488 14.7 1.19v3h11v4h7v3c2.31 0.33 4.62 0.66 7 1 0.33 0.99 0.66 1.98 1 3h3c0.33 1.32 0.66 2.64 1 4h3c2.19 1.81 2.19 1.81 4 4v3c1.32 0.33 2.64 0.66 4 1v3h3v4h4v7h4v6c0.99 0.33 1.98 0.66 3 1 0.982 4.05 1.08 7.84 1 12h3v35c-0.66 0.33-1.32 0.66-2 1-0.691 2.58-0.691 2.58-1.12 5.56-0.168 1.01-0.335 2.02-0.508 3.07-0.121 0.782-0.242 1.56-0.367 2.37-1.49 0.495-1.49 0.495-3 1 0.0309 1.42 0.0309 1.42 0.0625 2.88-0.0625 3.12-0.0625 3.12-1.06 5.12h-3v5h-3c-0.33 1.98-0.66 3.96-1 6h-3c-0.33 1.32-0.66 2.64-1 4h-3v3c-0.99 0.33-1.98 0.66-3 1-0.33 0.99-0.66 1.98-1 3h-4v3c-1.32 0.33-2.64 0.66-4 1v2l-7 2v2c-1.39 0.402-1.39 0.402-2.81 0.812-3.15 0.91-3.15 0.91-4.75 2.81-1.44 1.38-1.44 1.38-4.12 1.56-0.763-0.0619-1.53-0.124-2.31-0.188-0.33 1.32-0.66 2.64-1 4h-4v2c-2.65 1.46-3.89 2-7 2v3h-4v2h-3v2h-4v4h-4v2c-4.38 3-4.38 3-7 3v2h-4v4h-4v3c-0.99 0.33-1.98 0.66-3 1-0.33 0.66-0.66 1.32-1 2h-3c-0.33 0.99-0.66 1.98-1 3h-3c-0.33 0.99-0.66 1.98-1 3-1.37 1.69-1.37 1.69-3 3h-3c-0.66 1.32-1.32 2.64-2 4h-2c-0.33 0.99-0.66 1.98-1 3h-3v3c-1.32 0.33-2.64 0.66-4 1v2h-3c-0.33 1.32-0.66 2.64-1 4h-3c-0.33 0.99-0.66 1.98-1 3-1.37 1.69-1.37 1.69-3 3h-3c-0.33 0.99-0.66 1.98-1 3h-3c-0.33 1.32-0.66 2.64-1 4h-3v2c-1.64 1.29-1.64 1.29-3.81 2.62-0.708 0.446-1.42 0.892-2.14 1.35-2.04 1.02-2.04 1.02-5.04 1.02v2h-4v2c-12.5 4.59-12.5 4.59-19 4v2c-28.5 0.801-28.5 0.801-41-4-2.32-0.705-4.66-1.35-7-2v-2c-0.516-0.0825-1.03-0.165-1.56-0.25-2.87-0.883-5.18-2.24-7.75-3.76-1.85-1.09-3.75-2.06-5.68-2.99v-2c-1.32-0.66-2.64-1.32-4-2v-2h-3c-0.33-0.99-0.66-1.98-1-3-0.99-0.33-1.98-0.66-3-1-0.33-0.99-0.66-1.98-1-3-0.99-0.33-1.98-0.66-3-1v-5h-3c-0.33-1.98-0.66-3.96-1-6h-3v-7h-3c-1.2-2.41-1.1-3.95-1.06-6.62l0.0273-2.48c0.0116-0.626 0.0232-1.25 0.0352-1.9h-2c-3.33-5.25-2.33-11.8-2.32-17.8 0.00316-2.24-0.0203-4.48-0.0457-6.71-0.00227-1.43-0.00298-2.85-0.00195-4.28-0.00298-1.29-0.00596-2.59-0.00903-3.92 0.395-3.53 1.06-4.74 3.37-7.33 0.567-2.35 0.567-2.35 0.688-4.75 0.0986-1.2 0.0986-1.2 0.199-2.42 0.0374-0.603 0.0748-1.21 0.113-1.83 0.99-0.33 1.98-0.66 3-1 0.33-2.31 0.66-4.62 1-7h3c0.33-1.98 0.66-3.96 1-6h3v-4c1.88-2.25 1.88-2.25 4-4h2c0.248-0.577 0.495-1.15 0.75-1.75 1.44-2.6 2.99-4.33 5.25-6.25h3v-3l3-1c0.495-1.49 0.495-1.49 1-3h3c0.66-1.32 1.32-2.64 2-4h2v-3h4v-4h4c0.495-1.98 0.495-1.98 1-4h3v-3c0.598-0.268 1.2-0.536 1.81-0.812 2.23-1.07 2.23-1.07 3.75-2.81 1.44-1.38 1.44-1.38 4.44-1.38v-3h4c0.495-1.98 0.495-1.98 1-4h3v-3h4v-4h4v-2c3-2 3-2 7-2v-4h4v-3c0.99-0.33 1.98-0.66 3-1 0.66-0.99 1.32-1.98 2-3 3.12-0.688 3.12-0.688 6-1v-3h4v-3c0.639-0.289 1.28-0.577 1.94-0.875 2.21-0.953 2.21-0.953 3.06-3.12 2.56-0.625 2.56-0.625 5-1 0.33-0.99 0.66-1.98 1-3h4c0.33-0.99 0.66-1.98 1-3 1.98-0.33 3.96-0.66 6-1v-3h4v-2c3-2 3-2 7-2 0.33-1.32 0.66-2.64 1-4h6c0.33-1.32 0.66-2.64 1-4h7v-3h4v-2c3.69-2.46 6.7-3.01 11-4v-2h8v-2c4.87-1.57 8.94-2.25 14.1-2.23z" fill="#000100"/>
<path transform="translate(798 1175)" d="m0 0c0.806-9.57e-4 1.61-0.00191 2.44-0.0029 1.7-6.79e-4 3.4 0.00116 5.1 0.00534 2.6 0.00535 5.2 4.66e-5 7.8-0.00635 1.65 6.61e-4 3.31 0.00194 4.96 0.00391 0.776-0.00202 1.55-0.00405 2.35-0.00613 6.71 0.0291 6.71 0.0291 9.99 1.14 0.495 0.99 0.495 0.99 1 2 2.49 0.358 4.95 0.444 7.46 0.559 2.95 0.512 4.22 1.61 6.54 3.44 3.65 0.725 3.65 0.725 7 1v3c2.31 0.33 4.62 0.66 7 1v3h4c0.33 1.32 0.66 2.64 1 4 0.784-0.0619 1.57-0.124 2.38-0.188 1.3 0.0928 1.3 0.0928 2.62 0.188 0.99 1.48 0.99 1.48 2 3 0.99 0.33 1.98 0.66 3 1 0.33 0.99 0.66 1.98 1 3 0.99 0.33 1.98 0.66 3 1v3h4v4h3c0.33 2.31 0.66 4.62 1 7h3v4h4c0.33 2.31 0.66 4.62 1 7 0.99 0.33 1.98 0.66 3 1v7h3c0.121 0.782 0.242 1.56 0.367 2.37 0.168 1.01 0.335 2.02 0.508 3.07 0.162 1.01 0.325 2.02 0.492 3.06 0.313 1.24 0.313 1.24 0.633 2.5 0.66 0.33 1.32 0.66 2 1 2.67 16.8 1.47 35.1 0 52h-3c0.0309 1.89 0.0309 1.89 0.0625 3.81 0.0464 2.83-0.146 4.44-1.06 7.19h-3v8h-4v7c-0.99 0.33-1.98 0.66-3 1-0.733 2.02-0.733 2.02-1 4h-3c-0.33 1.65-0.66 3.3-1 5h-3v4c-0.99 0.33-1.98 0.66-3 1-0.33 0.99-0.66 1.98-1 3-0.99 0.33-1.98 0.66-3 1-0.66 0.99-1.32 1.98-2 3h-2v2c-0.99 0.33-1.98 0.66-3 1l-1 2c-2.63 1.58-3.87 2-7 2-0.34 0.959-0.34 0.959-0.688 1.94-1.31 2.06-1.31 2.06-3.88 2.69-0.804 0.124-1.61 0.247-2.44 0.375l-1 2c-2.32 0.407-4.66 0.744-7 1v2c-1.12 0.29-1.12 0.29-2.27 0.586-0.985 0.26-1.97 0.521-2.98 0.789-0.975 0.255-1.95 0.51-2.95 0.773-2.72 0.718-2.72 0.718-4.69 1.92-3.16 1.4-6.18 1.34-9.61 1.5-3.99 0.192-7.65 0.382-11.5 1.44-6.19 0.221-6.19 0.221-8.78-0.488-3.09-0.711-6.12-0.71-9.29-0.824-6-0.298-11.1-1.43-16.7-3.75-2.08-0.86-4.07-1.45-6.27-1.94v-2c-0.763-0.144-1.53-0.289-2.31-0.438-2.69-0.562-2.69-0.562-5.69-1.56v-2c-1.18-0.217-1.18-0.217-2.38-0.438-2.62-0.562-2.62-0.562-4.62-1.56v-2c-1.32-0.33-2.64-0.66-4-1v-2c-0.598-0.144-1.2-0.289-1.81-0.438-4.77-1.23-6.18-2.71-9.19-6.56-1.49-0.99-1.49-0.99-3-2v-3c-1.32-0.33-2.64-0.66-4-1v-3c-1.32-0.33-2.64-0.66-4-1v-4c-0.99-0.33-1.98-0.66-3-1-0.333-1.33-0.667-2.67-1-4-0.99-0.33-1.98-0.66-3-1-0.33-1.65-0.66-3.3-1-5-0.99-0.33-1.98-0.66-3-1-0.103-1.07-0.206-2.14-0.312-3.25-0.363-3.66-0.363-3.66-2.25-5.69-2.26-3.24-1.63-6.18-1.44-10.1h-2c-2.72-8.17-2.16-17.5-2.12-26-0.00387-1-0.00773-2.01-0.0117-3.04 0.0215-16.6 0.0215-16.6 2.14-23h2c-0.0412-1.24-0.0825-2.47-0.125-3.75-0.0116-3.27 0.268-5.46 2.12-8.25h2v-7c1.49-0.495 1.49-0.495 3-1 0.72-1.98 1.38-3.99 2-6 1.44-2.88 1.44-2.88 3-5h3c0.217-1.18 0.217-1.18 0.438-2.38 0.562-2.62 0.562-2.62 1.56-4.62h2c0.33-0.99 0.66-1.98 1-3 0.66-0.33 1.32-0.66 2-1 0.33-0.99 0.66-1.98 1-3 0.99-0.33 1.98-0.66 3-1 0.846-0.846 1.69-1.69 2.56-2.56 0.804-0.804 1.61-1.61 2.44-2.44h2v-2h4c0.33-1.32 0.66-2.64 1-4 0.639-0.124 1.28-0.247 1.94-0.375 0.681-0.206 1.36-0.412 2.06-0.625 0.33-0.66 0.66-1.32 1-2 3.06-0.625 3.06-0.625 6-1v-3c1.09-0.144 2.19-0.289 3.31-0.438 3.62-0.445 3.62-0.445 6.69-1.56v-2h12v-3c4.12-1.15 8.1-1.14 12.3-1.13z" fill="#000100"/>
</svg>
