<svg width="12" height="14" viewBox="0 0 12 14" fill="none" xmlns="http://www.w3.org/2000/svg">
<path d="M6.70785 11.859C7.05307 11.8692 7.392 11.9534 7.70143 12.1058H7.72005C7.97857 12.3167 8.0225 12.6932 7.81941 12.9573C7.44962 13.4865 6.85794 13.8202 6.21107 13.8643C5.54648 13.9436 4.87721 13.7596 4.34812 13.3522C4.07602 13.1656 3.89919 12.8705 3.86376 12.5439C3.86376 12.1984 4.18667 12.038 4.48474 11.9701C4.83386 11.8965 5.18974 11.8593 5.54662 11.859H6.70785ZM5.92542 0C8.07401 0 10.2909 1.55488 10.5207 3.80698C10.5579 4.26974 10.5207 4.75101 10.5579 5.21994C10.6799 5.82467 10.9605 6.38663 11.3714 6.84886C11.6269 7.22874 11.7749 7.66988 11.8 8.12608V8.268C11.8037 8.88359 11.5831 9.47974 11.1789 9.94628C10.6666 10.4941 9.97147 10.8383 9.22283 10.915C7.01097 11.1988 4.77156 11.1988 2.5597 10.915C1.80224 10.8441 1.09733 10.4994 0.578766 9.94628C0.187223 9.47527 -0.0180978 8.8786 0.00125311 8.268V8.12608C0.0254866 7.67158 0.168917 7.23127 0.417311 6.84886C0.830061 6.3862 1.11467 5.82487 1.24322 5.21994C1.28048 4.75101 1.24322 4.27591 1.28048 3.80698C1.51645 1.55488 3.68988 0 5.86332 0H5.92542Z" fill="black"/>
<path d="M7.59095 12.3301L7.59887 12.334C7.71931 12.463 7.73131 12.6618 7.62124 12.8049L7.62103 12.8047L7.61449 12.8141C7.28825 13.281 6.76582 13.5759 6.19405 13.6149L6.19403 13.6146L6.18147 13.6161C5.58164 13.6876 4.97779 13.5215 4.50065 13.1541L4.50088 13.1538L4.48951 13.146C4.28136 13.0033 4.14516 12.7795 4.11402 12.5316C4.11721 12.4566 4.15015 12.4014 4.21597 12.3502C4.29299 12.2903 4.40771 12.2442 4.53832 12.2143C4.8699 12.1446 5.20789 12.1093 5.54683 12.109H6.70406C7.01228 12.1186 7.31477 12.194 7.59095 12.3301ZM10.3087 5.23975L10.3099 5.25467L10.3129 5.26935C10.4424 5.91183 10.739 6.5091 11.1729 7.00179C11.3966 7.33945 11.5266 7.72969 11.55 8.13311L11.5499 8.268L11.55 8.26953C11.5533 8.82271 11.3557 9.35871 10.9931 9.779C10.5225 10.2805 9.88457 10.5959 9.19736 10.6663L9.19735 10.6662L9.19101 10.667C7.00028 10.9481 4.78225 10.9481 2.59151 10.667L2.59153 10.6669L2.58298 10.6661C1.88856 10.6011 1.24246 10.286 0.766284 9.78075C0.416769 9.35749 0.233796 8.8228 0.251128 8.27592L0.251253 8.27592V8.268V8.13291C0.273821 7.73061 0.399752 7.34072 0.617072 7.0004C1.05157 6.50823 1.35152 5.91302 1.48776 5.27191L1.49114 5.25598L1.49243 5.23975C1.51185 4.99537 1.51185 4.75105 1.51185 4.51813V4.51346C1.51185 4.27688 1.51198 4.05183 1.52944 3.82992C1.75095 1.73359 3.78997 0.25 5.86332 0.25H5.92542C7.97645 0.25 10.0564 1.7357 10.2717 3.82971C10.2892 4.04852 10.2893 4.27352 10.2893 4.51115V4.51587C10.2893 4.74951 10.2893 4.99537 10.3087 5.23975Z" stroke="black" stroke-opacity="0.2" stroke-width="0.5"/>
</svg>
