<?xml version="1.0" encoding="UTF-8"?>
<svg version="1.1" viewBox="0 0 1600 1600" width="1280" height="1280" xmlns="http://www.w3.org/2000/svg">
<path transform="translate(767 134)" d="m0 0c2.23-7.2e-4 4.46-0.00287 6.69-0.0055 7.81-0.00918 15.6-0.0133 23.4-0.0125 7.24 6.04e-4 14.5-0.01 21.7-0.0257 6.26-0.0131 12.5-0.0184 18.8-0.0178 3.72 2.54e-4 7.45-0.00252 11.2-0.0132 4.14-0.0115 8.28-0.00692 12.4-8.95e-4 1.22-0.00562 2.43-0.0112 3.68-0.017 5.8 0.0214 11.1 0.302 16.7 1.82 3.1 0.741 6.13 0.59 9.3 0.507 7.8-0.122 15.6 0.0813 23.4 0.375 1.71 0.0591 1.71 0.0591 3.45 0.119 1.61 0.0627 1.61 0.0627 3.25 0.127 0.96 0.0367 1.92 0.0733 2.91 0.111 2.32 0.185 4.33 0.616 6.57 1.21 3.44 0.254 6.88 0.441 10.3 0.605 5.46 0.293 5.46 0.293 7.67 1.39 2.48 0.207 4.95 0.374 7.44 0.5 7.16 0.366 7.16 0.366 10.6 1.5 1.48 0.124 2.97 0.201 4.46 0.246 1.3 0.0493 1.3 0.0493 2.62 0.0996 1.81 0.0608 3.62 0.118 5.43 0.172 4.91 0.193 8.83 0.82 13.5 2.48 2.29 0.233 4.58 0.398 6.88 0.5 4.47 0.265 8.47 0.697 12.8 1.96 4.2 0.969 8.51 1.36 12.8 1.84 3 0.343 5.67 0.74 8.55 1.7 2.77 0.266 5.53 0.444 8.31 0.621 2.72 0.383 4.28 1.14 6.69 2.38 2.07 0.495 4.16 0.923 6.25 1.31 1.33 0.256 2.66 0.512 3.98 0.77 0.743 0.143 1.49 0.285 2.25 0.432 5.01 0.968 10 1.97 15 2.99 1.03 0.201 2.05 0.403 3.11 0.611 8.24 1.68 8.24 1.68 12.2 3.45 3.53 1.57 6.76 2.26 10.6 2.94 6.94 1.29 13.7 2.85 20.2 5.56 2.24 0.861 4.22 1.3 6.56 1.75 4.74 0.99 8.78 2.9 13.1 4.96 3.25 1.45 6.5 2.44 9.92 3.41 3.57 1.03 7.1 2.16 10.6 3.31 1.24 0.402 2.49 0.804 3.77 1.22 3.11 1.16 5.61 2.55 8.42 4.28 1.48 0.548 2.98 1.05 4.5 1.5 3.54 1.12 6.32 2.56 9.5 4.5 2.5 1.05 5.03 2.03 7.55 3.02 8.07 3.22 8.07 3.22 9.45 5.98 1.32 0.376 2.66 0.704 4 1 2.55 1.17 5.06 2.36 7.56 3.62 0.715 0.36 1.43 0.719 2.17 1.09 6.01 3.07 11.7 6.54 17.3 10.3 1.66 1.06 3.32 2.13 4.99 3.19 7.52 4.79 14.9 9.71 22.3 14.7 1.14 0.757 2.29 1.5 3.45 2.23 1.44 0.914 2.84 1.9 4.23 2.89v2c0.7 0.227 1.4 0.454 2.12 0.688 3.48 1.59 6.1 3.81 8.94 6.31 3.17 2.77 6.15 5.12 9.94 7 1.56 1.62 1.56 1.62 3 3.44 2.15 2.62 4.26 4.56 7 6.56v2c0.815 0.329 0.815 0.329 1.65 0.664 3.13 1.78 5.48 4.18 7.99 6.71 0.791 0.788 0.791 0.788 1.6 1.59 1.11 1.11 2.21 2.22 3.32 3.33 1.7 1.71 3.4 3.4 5.11 5.1 1.08 1.08 2.15 2.16 3.23 3.23 0.512 0.508 1.02 1.02 1.55 1.54 3.56 3.6 3.56 3.6 3.56 5.83 0.99 0.33 1.98 0.66 3 1 1.95 2.08 1.95 2.08 4.12 4.81 0.79 0.989 1.58 1.98 2.39 3 3.21 4.11 6.34 8.27 9.44 12.5 1.33 1.77 2.69 3.52 4.08 5.24 2.01 2.54 3.81 5.15 5.59 7.86 0.688 1.04 1.38 2.08 2.09 3.16 0.367 0.557 0.734 1.11 1.11 1.69 2.13 3.23 4.28 6.44 6.43 9.66 1.21 1.81 2.41 3.62 3.61 5.43 1.12 1.67 2.28 3.31 3.44 4.95 1.7 2.74 1.7 2.74 1.7 5.74h2c0.779 1.58 0.779 1.58 1.57 3.18 4.03 8.13 8.13 16.2 12.7 24 3.12 5.44 5.5 11 7.73 16.8 0.704 1.81 1.41 3.63 2.12 5.44 0.468 1.2 0.468 1.2 0.945 2.43 0.955 2.36 0.955 2.36 2.93 5.13 0.668 2.03 1.29 4.07 1.88 6.12 1.14 3.82 2.29 7.47 4 11.1 2.53 5.35 4.23 11 6.02 16.6 0.366 1.13 0.366 1.13 0.739 2.29 0.215 0.681 0.431 1.36 0.653 2.06 0.747 2.14 0.747 2.14 2.71 4.85 0.527 1.91 0.527 1.91 0.938 4.06 1.29 8.57 1.29 8.57 5.06 15.9 0.225 2 0.448 3.99 0.621 5.99 0.301 2.31 0.301 2.31 2.38 5.01 0.344 2.12 0.344 2.12 0.5 4.44 0.23 3.4 0.944 5.56 2.5 8.56 0.562 2.12 0.562 2.12 1 4.44 0.248 1.3 0.248 1.3 0.5 2.62 0.744 4.37 1.35 8.76 1.94 13.2 0.419 2.98 0.419 2.98 2.56 5.79 0.401 2.13 0.726 4.28 1 6.44 0.514 4.04 1.2 6.96 3 10.6 0.273 2.39 0.273 2.39 0.375 5.25 0.426 6.89 1.48 13.6 2.62 20.4 0.178 1.08 0.357 2.15 0.541 3.26 0.734 5.18 0.734 5.18 2.46 10.1 0.318 3.6 0.512 7.2 0.719 10.8 0.0755 3.08 0.0755 3.08 1.28 5.19 0.209 1.73 0.368 3.46 0.5 5.19 0.124 1.54 0.124 1.54 0.25 3.11 0.167 2.18 0.334 4.35 0.5 6.53 0.124 1.54 0.124 1.54 0.25 3.11 0.0722 0.946 0.144 1.89 0.219 2.87 0.0507 2.17 0.0507 2.17 1.28 3.19 0.789 5.3 1.22 10.6 1.5 15.9 0.0832 1.47 0.167 2.94 0.25 4.41 0.127 2.28 0.252 4.57 0.375 6.85 0.121 2.23 0.248 4.45 0.375 6.68 0.0354 0.686 0.0709 1.37 0.107 2.08 0.18 3.65 0.18 3.65 1.39 7.05 0.143 2.1 0.227 4.2 0.281 6.3 0.0374 1.29 0.0748 2.58 0.113 3.9 0.0356 1.37 0.0707 2.74 0.105 4.11 0.07 2.64 0.143 5.28 0.219 7.93 0.0303 1.18 0.0606 2.35 0.0918 3.56 0.117 3.33 0.4 6.62 0.693 9.94 0.611 7.89 0.637 15.8 0.626 23.7 0.00136 1.6 0.00314 3.21 0.00531 4.81 0.00452 4.32 0.00281 8.64-3.79e-4 13-0.00255 4.54-1.79e-4 9.07 0.00139 13.6 0.00181 7.61-5.63e-4 15.2-0.00534 22.8-0.00545 8.78-0.00367 17.6 0.00183 26.4 0.00454 7.56 0.00518 15.1 0.00256 22.7-0.00155 4.51-0.00178 9.02 0.00154 13.5 0.0029 4.23 8.69e-4 8.47-0.00489 12.7-0.00132 1.55-9.51e-4 3.1 0.00126 4.65 0.00937 7.23-0.038 14.3-1.13 21.5-0.0926 1.49-0.162 2.98-0.189 4.47-0.0167 0.777-0.0334 1.55-0.0507 2.35-0.0136 0.809-0.0272 1.62-0.0411 2.45-0.0377 1.75-0.0755 3.49-0.113 5.24-0.0539 2.73-0.106 5.46-0.158 8.18-0.0515 2.65-0.109 5.3-0.167 7.95-0.0136 0.823-0.0272 1.65-0.0411 2.49-0.127 5.74-0.127 5.74-1.24 6.85-0.817 4.67-1.15 9.22-1.25 14-0.0329 1.28-0.0657 2.55-0.0996 3.87-0.0462 2.01-0.0923 4.01-0.131 6.02-0.0396 1.95-0.0917 3.91-0.144 5.86-0.0376 1.74-0.0376 1.74-0.0759 3.51-0.303 2.78-0.303 2.78-2.3 4.78-0.448 2.5-0.448 2.5-0.598 5.41-0.0793 1.07-0.159 2.14-0.24 3.25-0.0741 1.12-0.148 2.25-0.225 3.4-0.154 2.22-0.311 4.44-0.473 6.66-0.0658 0.988-0.132 1.98-0.199 2.99-0.265 2.28-0.265 2.28-1.27 3.28-0.238 3.77-0.396 7.53-0.518 11.3-0.0342 0.795-0.0683 1.59-0.104 2.41-0.0251 0.727-0.0501 1.45-0.0759 2.2-0.343 2.37-1.22 3.97-2.3 6.09-0.429 1.99-0.429 1.99-0.598 4.04-0.0793 0.745-0.159 1.49-0.24 2.26-0.0741 0.768-0.148 1.54-0.225 2.33-0.818 8.14-0.818 8.14-1.94 10.4-0.438 3.35-0.816 6.7-1.16 10.1-0.427 3.77-1.09 6.61-2.84 9.94-0.38 2.68-0.38 2.68-0.5 5.5-0.208 3.79-0.798 6.15-2.5 9.5-0.451 2.59-0.451 2.59-0.625 5.25-0.0748 0.892-0.15 1.78-0.227 2.7-0.049 0.675-0.098 1.35-0.148 2.05h-2c-0.049 0.831-0.098 1.66-0.148 2.52-0.112 1.63-0.112 1.63-0.227 3.29-0.0696 1.08-0.139 2.16-0.211 3.27-0.414 2.92-0.414 2.92-2.41 5.92-0.381 2.18-0.381 2.18-0.5 4.5-0.232 3.48-0.47 4.46-2.5 7.5-0.451 2.05-0.451 2.05-0.625 4.19-0.186 1.89-0.186 1.89-0.375 3.81h-2c-0.049 0.699-0.098 1.4-0.148 2.12-0.112 1.37-0.112 1.37-0.227 2.76-0.104 1.36-0.104 1.36-0.211 2.74-0.414 2.38-0.414 2.38-2.41 4.38-0.384 1.91-0.384 1.91-0.5 4-0.278 3.78-0.278 3.78-2.5 6-0.144 1.13-0.289 2.27-0.438 3.44-0.615 3.9-1 4-3.56 6.56-0.368 2.33-0.702 4.66-1 7-0.66 0.66-1.32 1.32-2 2-0.499 1.66-0.992 3.33-1.44 5.01-0.965 3.41-2.29 6.68-3.56 9.99-1.76 4.64-3.47 9.28-5 14h-2c-0.124 1.13-0.247 2.27-0.375 3.44-0.206 1.18-0.412 2.35-0.625 3.56-0.66 0.33-1.32 0.66-2 1-0.407 2.32-0.744 4.66-1 7-0.99 0.33-1.98 0.66-3 1-0.625 1.84-0.625 1.84-1 4-1.95 4.91-4.23 9.5-7 14-2.05 3.88-3.94 7.79-5.56 11.9-1.44 3.12-1.44 3.12-4.44 5.12-0.674 1.66-1.34 3.33-2 5-1.32 1.68-2.66 3.34-4 5-1.85 2.97-3.55 6-5 9.19-1.3 2.35-3.1 3.92-5 5.81-1.43 2.21-2.71 4.46-3.97 6.77-1.76 3.17-3.43 5.73-6.03 8.23-0.681 1.05-1.36 2.1-2.06 3.19-0.639 0.928-1.28 1.86-1.94 2.81h-2v2h-2c-0.259 0.726-0.518 1.45-0.785 2.2-1.26 2.9-2.72 5.11-4.65 7.61-0.597 0.79-1.19 1.58-1.81 2.39-0.868 0.888-0.868 0.888-1.75 1.79h-3c-0.289 0.763-0.578 1.53-0.875 2.31-1.12 2.69-1.12 2.69-3.12 5.69-2.62 0.687-2.62 0.687-5 1-0.227 0.949-0.454 1.9-0.688 2.88l-1.31 3.12c-1.66 0.674-3.33 1.34-5 2-1.38 1.74-2.55 3.53-3.69 5.44-1.64 1.96-2.87 2.01-5.31 2.56-1.12 2.34-1.12 2.34-2 5-2.02 3.22-3.67 4.33-7 6l-2.44 2.44c-2.42 2.42-4.64 3.84-7.56 5.56l-2.19 2.19c-0.598 0.598-1.2 1.2-1.81 1.81h-2c-0.206 0.619-0.412 1.24-0.625 1.88-1.92 2.97-4.04 3.26-7.38 4.12v2h-2v2c-1.18 0.124-1.18 0.124-2.38 0.25-1.3 0.371-1.3 0.371-2.62 0.75-0.429 0.92-0.429 0.92-0.867 1.86-1.48 2.8-3.13 3.61-5.88 5.14-2.91 1.66-5.72 3.31-8.5 5.19-2.75 1.81-2.75 1.81-5.94 3.38-2.77 1.23-2.77 1.23-4.38 3-1.89 1.89-3.97 2.45-6.44 3.44-0.44 0.455-0.879 0.91-1.33 1.38-2.09 2.03-4.29 3.19-6.86 4.56-0.978 0.522-1.96 1.04-2.96 1.58-2.99 1.55-5.99 3.06-9.01 4.54-1.88 0.963-3.66 2.03-5.46 3.13-3.27 1.76-5.71 2.45-9.38 2.81-0.33 0.99-0.66 1.98-1 3-2.64 0.33-5.28 0.66-8 1v2c-1.79 0.671-3.58 1.34-5.38 2-0.998 0.371-2 0.742-3.02 1.12-2.6 0.875-2.6 0.875-4.6 0.875v2c-0.701 0.17-1.4 0.34-2.12 0.516-6.49 1.64-6.49 1.64-12.6 4.36-4.66 2.54-9.69 3.9-14.8 5.37-3.24 0.96-5.71 1.86-8.55 3.75-3.3 1.26-6.55 2.13-10 2.81-5.39 1.13-10.4 3.1-15.6 5.07-3.49 1.14-6.79 1.66-10.4 2.12-1.67 0.653-3.34 1.32-5 2-2 0.352-4 0.688-6 1-0.66 0.33-1.32 0.66-2 1-2.04 0.229-4.08 0.41-6.12 0.562-1.1 0.0838-2.19 0.168-3.32 0.254-0.843 0.0606-1.69 0.121-2.55 0.184v2c-0.675 0.049-1.35 0.098-2.05 0.148-0.892 0.0748-1.78 0.15-2.7 0.227-0.882 0.0696-1.76 0.139-2.67 0.211-2.54 0.271-2.54 0.271-4.47 1.39-2.95 1.43-5.8 1.64-9.04 2.02-4.4 0.528-7.98 1.32-12.1 3-2.39 0.344-2.39 0.344-4.81 0.5-3.14 0.259-6.03 0.639-9.06 1.5-4.41 1.22-8.83 1.42-13.4 1.66-2.68 0.171-2.68 0.171-4.59 1.34-2.5 1.17-4.37 1.32-7.12 1.42-0.935 0.0387-1.87 0.0773-2.83 0.117-0.968 0.0309-1.94 0.0619-2.93 0.0938-0.984 0.0387-1.97 0.0773-2.98 0.117-2.42 0.0941-4.85 0.18-7.27 0.258v2c-0.686 0.0198-1.37 0.0396-2.08 0.0601-3.1 0.0951-6.2 0.205-9.3 0.315-1.08 0.0309-2.16 0.0619-3.27 0.0938-1.03 0.0387-2.06 0.0773-3.12 0.117-0.953 0.0314-1.91 0.0628-2.89 0.0952-2.53 0.104-2.53 0.104-4.34 2.32-2.53 0.287-2.53 0.287-5.71 0.344-1.16 0.0296-2.32 0.0593-3.52 0.0898-1.83 0.0329-1.83 0.0329-3.7 0.0664-9.84 0.151-9.84 0.151-19.6 1.5-6.48 1.31-12.9 1.38-19.5 1.5-7.19 0.136-14.3 0.33-21.5 0.963-18.3 1.61-36.5 1.82-54.9 1.77-4.18-0.00896-8.36-0.00702-12.5-0.00664-6.99-9.27e-4 -14-0.00949-21-0.0233-8.07-0.0159-16.1-0.021-24.2-0.0203-8.64 6.74e-4 -17.3-0.00624-25.9-0.0154-2.48-0.00213-4.96-0.00284-7.44-0.00324-3.88-1e-3 -7.75-0.00708-11.6-0.0172-1.42-0.00293-2.85-0.00415-4.27-0.00357-1.94 4.88e-4 -3.87-0.00577-5.81-0.0124-1.08-0.00168-2.17-0.00335-3.28-0.00508-2.54-0.129-2.54-0.129-4.54-1.13-10.6-1.45-21.4-1.3-32-1.48-15-0.262-15-0.262-21.7-2.07-6.42-1.3-13.2-0.905-19.8-1.02-1.16-0.0296-2.33-0.0593-3.53-0.0898-1.05-0.0187-2.11-0.0374-3.19-0.0566-2.82-0.29-4.32-1.01-6.79-2.29-2.36-0.33-2.36-0.33-4.88-0.344-0.921-0.0296-1.84-0.0593-2.79-0.0898-1.93-0.0444-3.86-0.0886-5.8-0.133-0.92-0.0296-1.84-0.0593-2.79-0.0898-0.839-0.0187-1.68-0.0374-2.54-0.0566-2.2-0.287-2.2-0.287-5.2-2.29-2.24-0.248-4.5-0.403-6.75-0.5-3.81-0.165-7.07-0.447-10.7-1.5-3.74-1.07-7.07-1.34-10.9-1.5-5.53-0.309-10.2-1.02-15.6-2.5-3.05-0.518-6.11-0.988-9.17-1.44-2.81-0.559-5.18-1.5-7.83-2.56-2.2-0.372-2.2-0.372-4.38-0.5-4.06-0.377-7.71-1.34-11.6-2.5-1.24-0.165-2.48-0.33-3.75-0.5-3.25-0.5-3.25-0.5-6.25-2.5-2.41-0.383-2.41-0.383-5-0.5-3.67-0.218-4.83-0.389-8-2.5-2.38-0.383-2.38-0.383-4.94-0.5-3.58-0.216-5.93-0.779-9.06-2.5-5.58-1.79-11.2-2.91-17-4v-2c-1.24-0.0619-2.48-0.124-3.75-0.188-5.18-0.568-9.45-2.39-14.2-4.48-5.6-2.44-11.4-4.47-17.2-6.34-2.57-0.895-4.96-1.93-7.44-3.06-3.14-1.43-5.99-2.49-9.44-2.94v-2h-6v-2c-2.31-0.33-4.62-0.66-7-1l-1-3c-0.626-0.0258-1.25-0.0516-1.9-0.0781-0.817-0.0567-1.63-0.113-2.48-0.172-0.812-0.0464-1.62-0.0928-2.46-0.141-2.16-0.609-2.16-0.609-3.31-2.62-0.282-0.657-0.565-1.31-0.855-1.99-2.35-0.688-2.35-0.688-5-1-4.03-1.31-7.32-3.42-10.9-5.69-3.27-2-6.68-3.64-10.1-5.31v-2c-1.98-0.33-3.96-0.66-6-1v-2c-0.878-0.26-1.76-0.521-2.66-0.789-3.31-1.2-5.85-2.64-8.78-4.59-3.12-2.05-6.22-4.04-9.5-5.81-3.06-1.81-3.06-1.81-4.94-3.73-2.25-2.2-4.45-3.59-7.19-5.14-3.09-1.75-5.49-3.38-7.94-5.94-1.3-1.02-2.61-2.02-3.94-3-0.669-0.495-1.34-0.99-2.03-1.5-1.41-1.04-2.85-2.06-4.29-3.06-0.864-0.712-0.864-0.712-1.75-1.44v-2c-1.65-0.66-3.3-1.32-5-2v-2c-0.569-0.252-1.14-0.504-1.72-0.763-9.09-4.94-16.8-14.6-24.1-21.8-1.76-1.76-3.53-3.51-5.3-5.26-6.77-6.73-13-13.6-18.9-21.1-0.92-1.11-1.84-2.21-2.78-3.3-1.07-1.27-1.07-1.27-2.16-2.57-0.731-0.864-1.46-1.73-2.21-2.62-1.8-2.45-2.87-4.64-3.85-7.51h-2c-1.51-1.95-2.89-3.89-4.25-5.94-0.403-0.595-0.807-1.19-1.22-1.8-1.18-1.75-2.36-3.5-3.53-5.26-0.554-0.819-1.11-1.64-1.68-2.48-1.46-2.16-2.89-4.34-4.32-6.52-0.934-1.4-0.934-1.4-1.89-2.82-0.636-0.967-1.27-1.93-1.93-2.93-0.584-0.882-1.17-1.76-1.77-2.67-1.42-2.58-2.02-4.67-2.42-7.58-0.99-0.33-1.98-0.66-3-1-3-5.22-3-5.22-3-8h-2c-0.84-1.77-1.67-3.54-2.5-5.31-0.696-1.48-0.696-1.48-1.41-2.99-1.09-2.7-1.09-2.7-1.09-5.7h-2v-4h-2c-0.66-2.31-1.32-4.62-2-7h-2c-1.69-2.53-2.45-4.07-3.31-6.88-2.42-7.48-4.96-15.1-8.69-22-3.15-6.01-4.94-12.7-7-19.1-0.518-1.58-1.04-3.17-1.56-4.75-0.226-0.681-0.451-1.36-0.684-2.06-1.23-3.56-2.56-7.08-3.89-10.6-0.846-2.52-1.41-4.97-1.87-7.58h-1c-2.2-7.65-4.38-15.3-6.39-23-0.434-1.99-0.434-1.99-1.61-3.01-0.5-2.03-0.949-4.08-1.38-6.12-0.262-1.25-0.523-2.51-0.793-3.8-1.3-6.35-2.58-12.7-3.83-19.1h-1c-0.166-1.01-0.166-1.01-0.335-2.05-0.507-3.07-1.02-6.14-1.54-9.2-0.174-1.06-0.348-2.13-0.527-3.22-0.261-1.54-0.261-1.54-0.527-3.11l-0.476-2.86c-0.573-2.47-1.44-4.33-2.59-6.57-0.241-2.12-0.401-4.25-0.5-6.38-0.16-3.41-0.373-6.25-1.46-9.49-1.31-3.96-1.69-7.81-2.1-11.9-0.0732-5-0.0732-5-1.94-9.19-0.186-2.4-0.33-4.78-0.438-7.19-0.232-5.04-0.925-9.07-2.56-13.8-0.16-2.42-0.16-2.42-0.0625-4.75 0.253-8.99 0.253-8.99-1.94-17.6-1.02-2.72-1.27-4.71-1.34-7.59-0.0284-0.949-0.0569-1.9-0.0862-2.88-0.0347-1.52-0.0347-1.52-0.0701-3.07-0.295-9.47-0.901-18.9-1.84-28.3-0.5-5.19-0.687-10.3-0.629-15.5-0.047-3.51-0.56-6.88-1.03-10.4-0.272-3.57-0.431-7.15-0.605-10.7-0.0374-0.708-0.0748-1.42-0.113-2.15-0.0303-0.625-0.0606-1.25-0.0918-1.89-0.168-2.35-0.168-2.35-0.693-5.14-0.747-5.21-0.636-10.4-0.626-15.7-0.00263-1.73-0.00263-1.73-0.00531-3.49-0.0044-3.81-0.00148-7.61 0.00189-11.4-6.75e-4 -2.67-0.00165-5.35-0.0029-8.02-0.00182-5.62 5.71e-4 -11.2 0.00534-16.9 0.00538-6.41 0.00373-12.8-0.00183-19.2-0.00462-5.56-0.00514-11.1-0.00256-16.7 0.00153-3.29 0.00145-6.59-0.00154-9.88-0.0101-14.4 0.147-28.7 0.582-43.1 0.0291-1.02 0.0291-1.02 0.0588-2.07 0.0559-1.92 0.12-3.84 0.184-5.77 0.0358-1.1 0.0716-2.2 0.109-3.33 0.203-2.6 0.203-2.6 1.2-4.6 0.155-1.98 0.25-3.96 0.316-5.94 0.0628-1.82 0.0628-1.82 0.127-3.69 0.0393-1.3 0.0786-2.6 0.119-3.93 0.0432-1.31 0.0864-2.62 0.131-3.97 0.265-8.53 0.38-17 0.244-25.6 0.0625-2.89 0.0625-2.89 1.06-4.89 1.18-8.43 1.32-16.9 1.52-25.4 0.0342-1.08 0.0683-2.16 0.104-3.28 0.0376-1.47 0.0376-1.47 0.0759-2.97 0.303-2.38 0.303-2.38 2.3-4.38 0.448-2.5 0.448-2.5 0.598-5.41 0.0793-1.07 0.159-2.14 0.24-3.25 0.0741-1.12 0.148-2.25 0.225-3.4 0.154-2.22 0.311-4.44 0.473-6.66 0.0658-0.988 0.132-1.98 0.199-2.99 0.265-2.28 0.265-2.28 1.27-3.28 0.238-3.49 0.395-6.98 0.518-10.5 0.21-4.56 0.973-8.18 2.48-12.5 0.487-3.39 0.87-6.76 1.21-10.2 0.332-3.01 0.719-5.66 1.86-8.48 1.42-3.59 0.927-6.93 0.711-10.7 0.223-2.62 0.223-2.62 1.69-4.55 2.13-2.88 1.97-5.16 2.09-8.7 0.229-6.17 0.229-6.17 2.44-8.38 0.389-2.79 0.389-2.79 0.5-5.94 0.279-5.73 0.279-5.73 2.5-9.06 0.345-2.11 0.345-2.11 0.438-4.38 0.269-3.09 0.476-4.48 2.12-7.19 1.57-2.66 1.59-3.63 1.5-6.62-0.0206-1.26-0.0412-2.52-0.0625-3.81 0.66-0.66 1.32-1.32 2-2 0.386-2.14 0.386-2.14 0.5-4.5 0.278-4.28 0.278-4.28 2.5-6.5 0.384-1.91 0.384-1.91 0.5-4 0.278-3.78 0.278-3.78 2.5-6 0.144-1.13 0.289-2.27 0.438-3.44 0.615-3.9 1-4 3.56-6.56 0.352-2.33 0.683-4.66 1-7l3-6c0.51-1.74 0.986-3.49 1.44-5.25 1.19-4.62 2.75-8.91 4.58-13.3 1.51-3.75 2.76-7.59 3.98-11.4h2c0.33-1.98 0.66-3.96 1-6h2l-0.125-2.38c0.125-2.62 0.125-2.62 2.12-4.62 0.526-1.91 0.526-1.91 0.875-4 0.856-3.81 0.856-3.81 3.25-5.5 0.619-0.165 1.24-0.33 1.88-0.5v-4c0.66-0.33 1.32-0.66 2-1 0.443-1.64 0.884-3.27 1.31-4.91 1.31-3.98 3.58-7.48 5.69-11.1 0.899-1.62 1.79-3.25 2.69-4.88 1.36-2.47 2.75-4.78 4.31-7.12h2c0.133-1.32 0.133-1.32 0.27-2.67 0.822-3.75 2.08-5.63 4.42-8.64 2.6-3.43 5.17-6.85 7.56-10.4 0.657-0.982 0.657-0.982 1.33-1.98 1.16-1.85 2.25-3.75 3.31-5.66 1.94-3.43 4.18-6.5 6.61-9.61 0.426-0.546 0.852-1.09 1.29-1.66 1.4-1.79 2.8-3.57 4.21-5.34 0.502-0.636 1-1.27 1.52-1.93 14.3-18.1 14.3-18.1 17.5-21.1h2c0.268-0.639 0.536-1.28 0.812-1.94 1.19-2.06 1.19-2.06 4.19-3.06 0.309-0.825 0.619-1.65 0.938-2.5 0.351-0.825 0.701-1.65 1.06-2.5 2.13-0.812 2.13-0.812 4-1 0.33-1.32 0.66-2.64 1-4 0.619-0.0825 1.24-0.165 1.88-0.25 2.26-0.523 2.26-0.523 3-2.5 1.35-2.7 3.21-4.11 5.55-5.96 1.81-1.43 1.81-1.43 4.14-3.85 2.36-2.36 4.83-4.37 7.44-6.44 0.722-0.742 1.44-1.49 2.19-2.25 1.81-1.75 1.81-1.75 3.81-1.75 0.33-0.99 0.66-1.98 1-3 2.97-2.19 5.49-3.83 9-5 0.33-0.99 0.66-1.98 1-3 2.48-0.495 2.48-0.495 5-1v-2c5.41-4 5.41-4 8-4v-2c3.02-2.3 5.6-3.88 9.25-5 3.35-1.22 3.27-1.95 4.75-5 1.96-1.08 3.97-2.06 6-3 2.53-1.54 5.04-3.11 7.54-4.7 2.52-1.34 4.65-1.89 7.46-2.3v-2c2.48-0.495 2.48-0.495 5-1v-2c0.687-0.254 1.37-0.508 2.08-0.77l2.73-1.04c0.893-0.336 1.79-0.673 2.71-1.02 2.51-1 2.51-1 4.05-2.8 1.43-1.36 1.43-1.36 5.43-1.36v-2c3.47-0.495 3.47-0.495 7-1 0.33-1.32 0.66-2.64 1-4 0.592-0.121 1.18-0.242 1.79-0.367 7.76-1.43 7.76-1.43 14.2-5.63 2.62-0.125 2.62-0.125 5 0v-2c0.818-0.255 0.818-0.255 1.65-0.516 3.92-1.26 7.69-2.59 11.4-4.36 4.99-2.3 10.2-3.83 15.4-5.37 3.22-0.961 5.67-1.87 8.5-3.75 2-0.679 4-1.35 6-2 0.33-0.33 0.66-0.66 1-1 1.95-0.155 1.95-0.155 3.94-0.312 4.53-0.457 8.16-1.79 12.3-3.57 6.7-2.73 13.6-5.07 20.9-5.74 3.93-0.073 3.93-0.073 6.88-2.38 2.54-0.368 5.06-0.504 7.62-0.656 2.64-0.208 2.64-0.208 5.38-2.34 2.05-0.344 2.05-0.344 4.31-0.5 2.74-0.25 4.88-0.563 7.5-1.44 4.1-1.37 8.21-1.9 12.5-2.5 2.91-0.429 2.91-0.429 5.71-2.56 2.57-0.344 2.57-0.344 5.56-0.5 4.8-0.323 9.31-1.01 14-2.03 2.55-0.489 5.05-0.751 7.63-0.969 2.93-0.254 5.22-0.626 8.06-1.5 4.81-1.28 9.48-1.44 14.4-1.66 3.22-0.174 3.22-0.174 5.68-1.34 2.79-1.06 4.88-1.28 7.85-1.34 0.967-0.0296 1.93-0.0593 2.93-0.0898 2.03-0.0445 4.06-0.0888 6.09-0.133 0.964-0.0296 1.93-0.0593 2.92-0.0898 0.879-0.0187 1.76-0.0374 2.66-0.0566 2.38-0.0914 2.38-0.0914 4.17-2.29 2.59-0.303 2.59-0.303 5.86-0.379 1.18-0.0342 2.36-0.0683 3.58-0.104 1.24-0.0264 2.48-0.0529 3.76-0.0801 2.43-0.0604 4.86-0.124 7.29-0.191 1.08-0.0239 2.16-0.0479 3.28-0.0725 3.46-0.185 6.81-0.667 10.2-1.17 4.77-0.434 9.54-0.744 14.3-1.06 0.664-0.0449 1.33-0.0897 2.01-0.136 10.6-0.706 21.1-1.06 31.7-0.802v-1c16.8-1.03 33.6-1.16 50.5-1.17zm171 6.17v1h9v-1h-9zm-168 91.5c-3.32 0.541-6.46 0.649-9.82 0.676-0.645 0.00669-1.29 0.0134-1.95 0.0203-1.39 0.014-2.78 0.0259-4.17 0.0359-2.21 0.0166-4.43 0.0398-6.64 0.0649-6.29 0.0703-12.6 0.131-18.9 0.182-3.86 0.0321-7.72 0.0734-11.6 0.12-1.46 0.0158-2.92 0.0282-4.37 0.0369-7.81 0.0471-15.4 0.392-23 1.9-4.66 0.815-9.35 0.889-14.1 1.02-1.89 0.0602-3.79 0.124-5.68 0.191-0.819 0.0239-1.64 0.0479-2.48 0.0725-2.53 0.183-4.91 0.665-7.4 1.17h-5c-0.33 0.33-0.66 0.66-1 1-1.42 0.133-2.84 0.203-4.26 0.246-0.872 0.0329-1.74 0.0657-2.64 0.0996-1.84 0.0606-3.67 0.118-5.51 0.172-4.96 0.193-8.87 0.87-13.6 2.48-2.93 0.306-5.87 0.364-8.81 0.438-5.73 0.22-10.5 0.672-15.8 2.87-4.48 1.32-9.25 1.23-13.9 1.38-3.3 0.295-5.44 1.04-8.45 2.31-1.81 0.231-3.62 0.397-5.44 0.5-4.2 0.313-7.58 1.14-11.6 2.5-2.58 0.293-5.14 0.497-7.73 0.656-2.55 0.222-2.55 0.222-5.27 2.34-2.58 0.367-5.13 0.504-7.72 0.656-2.47 0.143-2.47 0.143-4.28 2.34-2.4 0.527-2.4 0.527-5.38 0.938-8.68 1.33-17 3.41-25.3 6.31-3.62 1.19-7.32 2.09-11 3.01-2.45 0.609-2.45 0.609-4.29 2.75-1.95 0.527-1.95 0.527-4.25 0.938-4 0.816-7.12 2.17-10.8 4.06-1.39 0.479-2.79 0.936-4.19 1.38-3.42 1.1-6.62 2.41-9.88 3.94-5.35 2.5-10.8 4.56-16.4 6.54-4.64 1.68-8.66 3.6-12.5 6.71-2.55 1.78-5.1 2.56-8.06 3.44v2c-2.48 0.495-2.48 0.495-5 1v2h-5c-0.371 0.959-0.371 0.959-0.75 1.94-1.25 2.06-1.25 2.06-3.06 2.69-0.722 0.124-1.44 0.248-2.19 0.375-2.67 0.802-2.67 0.802-5 2-0.33 0.99-0.66 1.98-1 3-1.75 0.562-1.75 0.562-4 1-4.49 1.38-6.75 3.67-10 7-2.31 1.31-2.31 1.31-4 2v2c-0.639 0.103-1.28 0.206-1.94 0.312-0.681 0.227-1.36 0.454-2.06 0.688-0.33 0.99-0.66 1.98-1 3-1.33 0.345-2.66 0.675-4 1-3.26 1.78-3.26 1.78-6 4v3c-0.722 0.227-1.44 0.454-2.19 0.688-3.39 1.58-5.35 3.51-7.81 6.31-0.33 0.99-0.66 1.98-1 3h-2v2c-0.619 0.0825-1.24 0.165-1.88 0.25-2.8 0.988-2.87 2.15-4.12 4.75-0.897 0.402-0.897 0.402-1.81 0.812-2.79 1.52-3.96 3.66-5.69 6.25-1.69 2.19-3.55 3.8-5.68 5.56-3.14 2.61-4.47 4.47-5.81 8.38-0.959 0.433-0.959 0.433-1.94 0.875-3.25 1.77-3.73 4.8-5.06 8.12-0.66 0.33-1.32 0.66-2 1v2c-0.639 0.248-1.28 0.495-1.94 0.75-0.681 0.413-1.36 0.825-2.06 1.25-0.144 0.598-0.289 1.2-0.438 1.81-0.688 2.68-2.06 3.66-4.03 5.5-4.1 4.51-7.05 10.2-10.1 15.4-1.41 2.29-1.41 2.29-3.35 4.48-2.31 3.15-3.42 6.14-4.78 9.78-1.89 4.46-4.25 8.65-6.64 12.9-1.9 3.43-2.64 5.16-2.64 9.18-0.626 0.217-1.25 0.433-1.9 0.656-2.33 1.2-2.33 1.2-3.08 3.88-0.321 1.47-0.321 1.47-0.648 2.97-1.19 5.31-1.19 5.31-3.38 7.5-0.696 1.99-1.35 3.99-2 6-0.658 1.65-1.33 3.3-2 4.94-1.23 3.02-2.33 5.98-3.19 9.12-0.812 2.94-0.812 2.94-1.81 3.94-0.144 1.11-0.289 2.23-0.438 3.38-0.562 3.62-0.562 3.62-2.56 6.62-2.24 5.49-3.51 11.1-4.47 16.9-0.527 2.07-0.527 2.07-2.53 4.07-0.643 2.39-0.643 2.39-1.06 5.06-0.84 4.84-0.84 4.84-1.94 5.94-0.283 2.55-0.448 5.1-0.621 7.65-0.379 2.35-0.379 2.35-2.38 4.35-0.388 2.6-0.388 2.6-0.5 5.5-0.278 5.28-0.278 5.28-2.5 7.5-0.389 2.53-0.389 2.53-0.5 5.38-0.281 5.21-0.281 5.21-1.46 7.46-1.57 3.29-1.73 6.77-2.1 10.3-0.814 7.69-0.814 7.69-1.94 8.81-0.237 3.37-0.396 6.73-0.518 10.1-0.182 3.77-0.345 5.7-2.48 8.9-1.36 4.98-1.33 10.2-1.52 15.3-0.184 3.71-0.374 5.54-2.48 8.71-0.444 2.79-0.444 2.79-0.598 5.95-0.0793 1.18-0.159 2.35-0.24 3.57-0.0741 1.23-0.148 2.46-0.225 3.73-0.155 2.42-0.313 4.84-0.473 7.27-0.0755 1.15-0.151 2.29-0.229 3.47-0.174 2.22-0.444 4.43-0.767 6.64-0.841 6.06-0.829 12.2-0.986 18.3-0.0342 1.02-0.0683 2.04-0.104 3.09-0.0251 0.909-0.0501 1.82-0.0759 2.75-0.251 2.68-0.699 5.01-1.3 7.61-1.47 7.07-1.34 14.2-1.38 21.4-0.0162 1.51-0.0334 3.01-0.0515 4.52-0.0453 3.93-0.0803 7.86-0.112 11.8-0.0522 6.32-0.117 12.6-0.188 19-0.0228 2.2-0.0391 4.41-0.0547 6.61-0.0134 1.34-0.027 2.68-0.0409 4.03-0.00951 1.17-0.019 2.35-0.0288 3.56-0.145 2.75-0.145 2.75-1.14 4.75-0.0971 2.21-0.128 4.41-0.129 6.62-0.00175 0.68-0.0035 1.36-0.00531 2.06-0.00441 2.25-0.00148 4.5 0.00189 6.76-6.73e-4 1.56-0.00164 3.12-0.0029 4.69-0.00148 3.28 6.74e-4 6.55 0.00534 9.83 0.0057 4.2 0.00242 8.41-0.00357 12.6-0.00361 3.23-0.00247 6.45 1.28e-4 9.68 6.68e-4 1.55-1.56e-4 3.1-0.00248 4.65-0.00253 2.16 0.00132 4.33 0.0069 6.49 7.96e-4 1.23 0.00159 2.47 0.00241 3.74-0.0718 2.83-0.0718 2.83 1.13 4.88 0.115 2 0.167 4 0.189 6 0.0167 1.26 0.0334 2.52 0.0507 3.83 0.01 1.02 0.01 1.02 0.0202 2.05 0.0211 2.13 0.0481 4.26 0.0767 6.39 0.0597 4.54 0.112 9.07 0.163 13.6 0.0596 5.22 0.122 10.4 0.192 15.7 0.0262 2.08 0.0472 4.16 0.068 6.23-0.572 12.9-0.572 12.9 2.24 25.2 0.166 2.88 0.282 5.74 0.375 8.62 0.365 9.08 1.04 18.1 1.87 27.2 0.13 1.43 0.258 2.85 0.383 4.28 0.179 2.03 0.368 4.06 0.56 6.09 0.109 1.18 0.218 2.35 0.33 3.56 0.488 3.29 1.41 6.14 2.49 9.29 0.379 2.45 0.379 2.45 0.562 4.82 0.112 1.3 0.112 1.3 0.227 2.62 0.141 1.8 0.282 3.59 0.422 5.39 0.0748 0.862 0.15 1.72 0.227 2.61 0.0606 0.779 0.121 1.56 0.184 2.36 0.411 2.38 1.28 4.06 2.38 6.19 0.244 2.18 0.402 4.37 0.5 6.56 0.372 6.29 1.23 12.3 2.5 18.4 0.155 0.807 0.309 1.61 0.469 2.45 1.11 5.75 2.4 11.5 3.74 17.2 0.55 2.36 1.09 4.72 1.62 7.09 0.264 1.18 0.529 2.35 0.801 3.57l0.727 3.27c0.405 2.41 0.405 2.41 1.65 3.48 0.304 1.58 0.567 3.16 0.812 4.75 0.963 5.57 2.53 10.8 4.25 16.2 0.772 2.52 1.37 4.97 1.87 7.55 1.01 4.89 2.91 9.37 4.76 14 1.79 4.82 3.1 9.72 4.41 14.7 0.691 2.9 0.691 2.9 2.89 4.8 0.848 2.15 1.63 4.32 2.38 6.5 0.448 1.28 0.897 2.57 1.35 3.85l1.28 3.65c4.53 12.6 11 24.3 17.4 36 1.76 3.25 3.32 6.49 4.61 9.96h2c0.33 1.65 0.66 3.3 1 5h2c0.202 0.984 0.405 1.97 0.613 2.98 1.41 4.91 4.41 8.41 7.57 12.3 1.18 1.5 2.36 3 3.54 4.5 0.849 1.08 0.849 1.08 1.72 2.18 2.54 3.27 4.87 6.67 7.22 10.1 1.67 2.41 3.45 4.68 5.34 6.93 0.512 0.615 1.02 1.23 1.55 1.86 3.32 3.91 6.73 7.31 10.7 10.6 2.63 2.35 4.85 5 7.13 7.68 2.09 2.42 4.33 4.65 6.62 6.88 0.719 0.748 1.44 1.5 2.18 2.27 3.27 3.17 6.74 5.98 10.3 8.8 0.651 0.516 1.3 1.03 1.97 1.56 1.26 1 2.53 2 3.8 3 1.54 1.23 3.06 2.48 4.57 3.75 1.97 1.83 1.97 1.83 4.16 1.63v2c1.63 1.06 3.31 2.04 5 3 2.74 1.81 5.46 3.63 8.17 5.48 4.18 2.83 8.29 5.29 12.8 7.52 1.13 0.72 2.26 1.45 3.38 2.19 4.77 3.05 9.83 5.48 14.9 7.96 3.69 1.81 7.2 3.74 10.7 5.85 1.85 0.695 3.71 1.39 5.57 2.05 3.01 1.18 5.89 2.56 8.8 3.95 4.65 2.18 9.13 3.82 14.1 5.16 2.99 0.978 5.68 2.31 8.5 3.71 6.25 2.99 12.5 4.77 19.3 6.39 4.45 1.08 8.66 2.36 12.9 4.02 8.21 3.13 16.8 5.07 25.5 6.22 2.43 0.492 2.43 0.492 5.43 2.49 1.98 0.416 1.98 0.416 4.06 0.562 3.94 0.438 3.94 0.438 5.94 1.44 1.99 0.345 4 0.652 6 0.938 7.01 1.04 13.9 2.19 20.8 4.12 3.7 0.974 7.31 1.17 11.1 1.38 5.31 0.312 9.81 1.18 14.8 2.87 3.71 1.13 7.43 1.41 11.3 1.7 5.73 0.459 11.3 1.02 17 2.06 4.97 0.882 9.68 1.08 14.7 0.91 2.28 0.0273 2.28 0.0273 5.28 1.03 2.57 0.198 5.13 0.351 7.7 0.465 1.55 0.0786 3.11 0.157 4.66 0.236 2.44 0.119 4.88 0.236 7.32 0.348 2.36 0.11 4.72 0.231 7.08 0.353 1.08 0.0454 1.08 0.0454 2.18 0.0918 3.32 0.176 6.22 0.558 9.41 1.52 4.75 1.29 9.2 1.32 14.1 1.37 1.52 0.0255 1.52 0.0255 3.07 0.0515 3.24 0.0529 6.48 0.0931 9.73 0.132 4.21 0.0595 8.43 0.125 12.6 0.191 1.07 0.016 2.14 0.032 3.24 0.0485 7.73 0.128 15.4 0.398 23.2 0.717 13 0.523 26 0.633 39 0.611 3.66-0.00537 7.33-4.58e-6 11 0.00635 12.9 0.00362 25.8-0.223 38.7-0.756 7.7-0.314 15.4-0.512 23.1-0.627 1.58-0.025 1.58-0.025 3.19-0.0505 4.25-0.0661 8.51-0.129 12.8-0.18 3.18-0.0396 6.37-0.091 9.55-0.144 0.956-0.00841 1.91-0.0168 2.9-0.0255 4.93-0.0918 8.79-0.628 13.5-2.35 2.79-0.303 2.79-0.303 5.63-0.379 1.58-0.0512 1.58-0.0512 3.2-0.104 1.09-0.0264 2.18-0.0529 3.3-0.0801 13.8 0.844 13.8 0.844 25.9-2.44 1.49-0.133 2.99-0.203 4.48-0.246 0.917-0.0329 1.83-0.0657 2.78-0.0996 1.93-0.0606 3.86-0.118 5.8-0.172 5.08-0.188 9.12-0.782 13.9-2.48 3.37-0.299 6.7-0.458 10.1-0.566 6.98-0.205 6.98-0.205 12.9-3.43 2.67-0.188 5.33-0.327 8-0.438 5.51-0.27 10.7-0.682 16.1-2.09 2.08-0.507 4.11-0.751 6.23-0.969 3.49-0.261 3.49-0.261 5.59-1.49 2.51-1.2 4.59-1.41 7.35-1.63 0.892-0.0748 1.78-0.15 2.7-0.227 0.675-0.049 1.35-0.098 2.05-0.148v-2c0.915-0.049 1.83-0.098 2.77-0.148 1.78-0.112 1.78-0.112 3.6-0.227 1.18-0.0696 2.37-0.139 3.59-0.211 3.14-0.116 3.14-0.116 5.04-2.41 2.82-0.383 5.62-0.507 8.47-0.656 2.7-0.106 2.7-0.106 4.53-2.34 2.1-0.507 4.19-1 6.3-1.44 14-2.66 14-2.66 26.7-8.56 2.08-0.436 4.16-0.872 6.25-1.3 9.64-2.41 9.64-2.41 17.8-7.7 1.64-0.469 3.28-0.932 4.93-1.36 2.34-0.72 4.47-1.67 6.69-2.7 3.12-1.43 5.94-2.49 9.38-2.94v-2c1.11-0.103 2.23-0.206 3.38-0.312 1.2-0.227 2.39-0.454 3.62-0.688 0.66-0.99 1.32-1.98 2-3 2.17-1.06 2.17-1.06 4.75-2 7.64-2.6 7.64-2.6 13.2-8 1.77-0.844 1.77-0.844 3.81-1.5 3.34-1.16 6.29-2.42 9.19-4.5v-2c1.98-0.33 3.96-0.66 6-1v-2c1.32-0.66 2.64-1.32 4-2v-2c2.53-1.01 5.04-2.01 7.62-2.88 2.47-0.938 2.47-0.938 3.75-3 1.89-2.47 3.96-3.48 6.66-4.93 4.85-2.94 8.9-6.88 12.5-11.3 2.16-2.54 3.95-4.09 6.62-6 3.26-2.33 4.92-4.41 6.88-7.94 0.891-0.4 0.891-0.4 1.8-0.809 3-1.63 4.54-3.82 6.64-6.5 3-3.82 6.1-7.29 9.56-10.7 2.41-2.67 2.41-2.67 3-6 0.99-0.33 1.98-0.66 3-1 0.685-1.32 1.35-2.66 2-4 0.62-0.602 1.24-1.2 1.88-1.82 2.2-2.26 3.58-4.43 5.12-7.18 2-3.56 4.12-6.12 7-9 0.797-2.64 0.797-2.64 1-5 0.99-0.33 1.98-0.66 3-1 1.33-2.12 1.33-2.12 2.44-4.69 1.33-2.88 2.67-5.48 4.44-8.12 2.47-3.72 4.55-7.55 6.62-11.5 0.397-0.756 0.795-1.51 1.2-2.29 4.1-7.87 7.51-15.7 10.4-24.1 0.93-2.29 0.93-2.29 2.93-4.29 0.684-2.19 1.3-4.4 1.88-6.62 1.14-4.17 2.25-8.01 4.31-11.8 1.87-3.68 2.28-6.51 2.81-10.6 0.495-0.784 0.99-1.57 1.5-2.38 2.13-3.73 2.23-7.4 2.5-11.6h2c0.186-1.92 0.186-1.92 0.375-3.88 0.375-3.88 0.375-3.88 2.62-6.12 0.35-2.04 0.35-2.04 0.438-4.31 0.268-3.11 0.467-4.53 2.12-7.25 1.58-2.68 1.56-3.61 1.44-6.62v-3.81c0.99-0.66 1.98-1.32 3-2 0.289-2.83 0.289-2.83 0.0625-6-0.152-3.25-0.152-3.25-0.0625-6 0.66-0.66 1.32-1.32 2-2 0.58-2.71 0.58-2.71 0.938-5.88 0.778-5.55 1.93-10.9 3.33-16.3 1.88-7.29 2.97-13.7 2.51-21.3 0.223-2.54 0.223-2.54 1.66-4.77 2.25-4.01 2.3-7.87 2.62-12.4 0.904-10.8 0.904-10.8 2.06-16.1 1.12-5.43 0.988-10.8 0.801-16.3-0.0784-3.2-0.0046-5.79 1.06-8.83 1.11-3.5 1.3-6.39 1.36-10.1 0.0296-1.3 0.0593-2.6 0.0898-3.93 0.0232-1.36 0.0453-2.72 0.0664-4.07 0.232-14.9 0.232-14.9 1.47-19.3 2.59-9.57 2.16-19.8 2.09-29.6-0.00568-1.9-0.00568-1.9-0.0115-3.84-0.0121-4-0.0306-8-0.051-12-0.0268-5.3-0.0465-10.6-0.0625-15.9-0.0083-1.22-0.0166-2.44-0.0251-3.7-0.0033-1.12-0.00661-2.24-0.01-3.4-0.00524-0.99-0.0105-1.98-0.0159-3 0.114-2.36 0.114-2.36 1.11-4.36 0.17-2.39 0.283-4.76 0.352-7.16 0.0347-1.1 0.0347-1.1 0.0702-2.23 0.0478-1.57 0.093-3.15 0.136-4.72 0.0648-2.3 0.144-4.61 0.224-6.91 0.311-10.1 0.0738-20.1-0.37-30.1-0.408-9.66-0.578-19.3-0.692-29-0.0143-1.17-0.0143-1.17-0.0288-2.37-0.0778-6.44-0.148-12.9-0.216-19.3-0.0511-4.86-0.106-9.72-0.166-14.6-0.0263-2.25-0.0472-4.49-0.068-6.74-0.0166-1.37-0.0335-2.74-0.0507-4.11-0.0125-1.19-0.0251-2.38-0.038-3.6-0.175-3.65-0.449-6.85-2.19-10.1-1.29-2.77-1.25-5.08-1.3-8.12-0.0296-1.19-0.0593-2.38-0.0898-3.61-0.0329-1.86-0.0329-1.86-0.0664-3.77-0.152-8.36-0.649-16.4-2.04-24.6-0.719-4.6-0.877-9.18-1.03-13.8-0.155-3.56-0.532-6.79-1.46-10.2-0.896-3.57-1.16-6.35-1.04-10 0.095-5.81-5.23e-6 -10.7-2.94-15.9-1.15-2.3-1.28-3.98-1.5-6.54-0.0825-0.891-0.165-1.78-0.25-2.7-0.167-1.89-0.334-3.78-0.5-5.66-0.0825-0.89-0.165-1.78-0.25-2.7-0.0722-0.82-0.144-1.64-0.219-2.48-0.087-1.92-0.087-1.92-1.28-2.92-0.357-1.74-0.659-3.49-0.938-5.25-0.171-1.07-0.343-2.14-0.52-3.25l-0.543-3.5-0.574-3.69c-0.48-3.1-0.955-6.21-1.43-9.31h-2c-0.049-0.724-0.098-1.45-0.148-2.2-0.0748-0.967-0.15-1.93-0.227-2.93-0.0696-0.951-0.139-1.9-0.211-2.88-0.443-3.2-1.36-5.94-2.41-8.99-0.529-2.31-1.03-4.62-1.5-6.94-1.14-5.51-1.14-5.51-2.62-10.9-0.727-2.6-1.1-4.84-1.38-7.5-0.165-1.2-0.33-2.39-0.5-3.62-0.66-0.33-1.32-0.66-2-1-0.578-1.94-1.06-3.9-1.5-5.88-0.819-3.69-1.38-5.95-3.5-9.12-0.492-1.98-0.492-1.98-0.875-4.19-0.656-3.21-1.5-5.81-3.06-8.69-2.19-4.04-3.23-8.15-4.25-12.6-0.669-2.55-0.669-2.55-2.27-4.47-1.91-2.55-2.61-5.01-3.54-8.05-3.55-9.44-8.15-18.2-13-27-0.467-0.859-0.933-1.72-1.41-2.6-2.58-4.71-5.32-9.3-8.09-13.9-2.25-3.79-4.38-7.64-6.49-11.5h-2c-0.309-0.99-0.309-0.99-0.625-2-1.87-4.07-4.35-7.69-7.38-11h-2v-3h-2v-2h-2c-0.0619-0.722-0.124-1.44-0.188-2.19-1.08-3.73-2.98-5.17-5.81-7.81-1.49-1.7-2.93-3.42-4.38-5.16-1.61-1.83-3.31-3.55-5.04-5.27-2-1.98-3.97-3.99-5.94-6-1.61-1.63-3.22-3.26-4.83-4.89-0.819-0.836-1.64-1.67-2.48-2.53-0.783-0.79-1.57-1.58-2.37-2.39-0.712-0.722-1.42-1.44-2.16-2.19-1.65-1.79-1.65-1.79-3.8-1.57v-2h-2v-2c-0.959-0.433-0.959-0.433-1.94-0.875-2.06-1.12-2.06-1.12-3.06-3.12-1.58-1.12-1.58-1.12-3.44-2.12-0.617-0.353-1.23-0.706-1.87-1.07-1.68-0.948-1.68-0.948-3.69-0.805v-2c-2.18-2.82-5.09-4.2-8.17-5.89-1.83-1.11-3.35-2.32-4.96-3.73-2.68-2.21-4.68-3.17-7.88-4.38-1.02-0.979-2.02-1.98-3-3-2.68-1.59-3.82-2-7-2-0.227-0.619-0.454-1.24-0.688-1.88-1.74-2.81-3.23-2.96-6.31-4.12-2.35-1.13-4.68-2.27-7-3.44-0.603-0.3-1.21-0.599-1.83-0.908-9.05-4.54-9.05-4.54-11.2-6.65-1.67-0.0406-3.33-0.0427-5 0v-2c-5.76-2.8-11.4-4.76-17.6-6.19-2.58-0.877-3.55-1.85-5.38-3.81-1.63-0.498-3.26-0.986-4.91-1.39-2.47-0.714-4.74-1.71-7.09-2.73-4.28-1.77-7.4-2.27-12-1.88v-2c-5.3-1.83-10.6-3.48-16-5-15.3-4.34-15.3-4.34-17-6-2.78-0.285-5.55-0.448-8.34-0.621-2.66-0.379-2.66-0.379-5.66-2.38-2.58-0.367-5.13-0.504-7.72-0.656-2.28-0.344-2.28-0.344-4.28-2.34-2.72-0.39-2.72-0.39-5.81-0.5-3.18-0.158-5.7-0.305-8.66-1.5-4.04-1.6-8.16-1.46-12.5-1.66-3.06-0.344-3.06-0.344-5.04-1.35-2.9-1.43-5.55-1.32-8.77-1.43-7.61-0.43-7.61-0.43-11.1-2.06-4.51-2.02-9.28-1.98-14.1-2.12-3.44-0.122-6.54-0.449-9.86-1.37-4.66-1.27-9.25-1.42-14.1-1.57-8.94-0.314-8.94-0.314-10.1-1.44-7.42-1.02-14.8-1.29-22.3-1.52-5.25-0.198-10.3-0.695-15.5-1.48-8.24-1.16-16.4-1.33-24.7-1.38-1.53-0.0162-3.07-0.0334-4.6-0.0515-3.99-0.0451-7.97-0.0802-12-0.112-6.41-0.0524-12.8-0.117-19.2-0.188-2.22-0.0226-4.45-0.039-6.67-0.0547-1.37-0.0134-2.73-0.027-4.1-0.0409-1.18-0.00951-2.37-0.019-3.59-0.0288-3.18-0.14-6.15-0.609-9.28-1.14-1.78-0.0854-3.57-0.128-5.36-0.129-1.02-0.00315-2.04-0.0063-3.09-0.00955-1.63 0.00304-1.63 0.00304-3.3 0.00613-1.13-9.57e-4 -2.26-0.00191-3.43-0.0029-2.39-6.79e-4 -4.77 0.00116-7.16 0.00534-3.65 0.00535-7.29 4.57e-5 -10.9-0.00635-2.32 6.61e-4 -4.65 0.00194-6.97 0.00391-1.09-0.00202-2.18-0.00405-3.3-0.00613-1.53 0.00473-1.53 0.00473-3.09 0.00955-1.34 0.00119-1.34 0.00119-2.7 0.00241-2.71 0.076-2.71 0.076-5.57 0.624zm-598 245 1 2zm-32 184 1 3zm1224 245 1 2z" fill="#008C01"/>
<path transform="translate(1036 592)" d="m0 0c0.997-0.00645 1.99-0.0129 3.02-0.0195 6.93 0.166 12.4 1.76 18.6 4.71 1.18 0.516 2.35 1.03 3.56 1.56 2.44 1.44 2.44 1.44 3.44 4.44 1.32 0.702 2.65 1.37 4 2 1.75 1.5 1.75 1.5 3 3v2c0.866 0.371 0.866 0.371 1.75 0.75 4.98 2.77 6.83 5.98 8.38 11.4 4.22 14.8 4.22 14.8 3.88 21.9-0.33 0.33-0.66 0.66-1 1-0.539 3.58-0.967 7.18-1.4 10.8-0.598 3.22-0.598 3.22-2.6 5.22-0.719 2.32-1.39 4.65-2 7h-2c-0.247 0.743-0.495 1.49-0.75 2.25-1.35 2.98-2.76 4.65-5.25 6.75h-2c-0.0928 0.897-0.0928 0.897-0.188 1.81-0.812 2.19-0.812 2.19-3.11 3.5-3.91 2.44-6.05 5.83-8.74 9.5-2.1 2.33-2.98 2.65-5.96 3.18-0.699 1.32-1.37 2.65-2 4-1.49 0.495-1.49 0.495-3 1-1.21 2-1.21 2-2 4h-2c-0.33 0.99-0.66 1.98-1 3-1.95 1.84-4.01 3.49-6.09 5.18-1.94 1.85-2.76 3.43-3.91 5.82-0.66 0.144-1.32 0.289-2 0.438-0.66 0.186-1.32 0.371-2 0.562-0.268 0.743-0.536 1.48-0.812 2.25-1.49 3.45-3.34 4.55-6.43 6.54-1.82 1.17-1.82 1.17-3.35 2.86-1.4 1.35-1.4 1.35-3.4 1.35-0.0928 0.866-0.0928 0.866-0.188 1.75-1.15 3.17-3.07 4.38-5.81 6.25h-2c-0.33 1.32-0.66 2.64-1 4h-2c-0.33 0.99-0.66 1.98-1 3-1.49 0.99-1.49 0.99-3 2-0.33 0.99-0.66 1.98-1 3-0.763 0.454-1.53 0.908-2.31 1.38-2.84 1.5-2.84 1.5-4.75 4.25-2.02 2.48-2.83 3.04-5.94 3.38-0.0619 0.784-0.124 1.57-0.188 2.38-0.268 0.866-0.536 1.73-0.812 2.62-2.56 1.31-2.56 1.31-5 2v3c-0.619 0.0825-1.24 0.165-1.88 0.25-2.26 0.529-2.26 0.529-3.06 2.5-0.351 0.743-0.701 1.48-1.06 2.25-1.65 1.69-3.31 3.36-5 5-0.33 0.66-0.66 1.32-1 2l-4 2c-0.33 0.66-0.66 1.32-1 2h-2c-0.268 0.639-0.536 1.28-0.812 1.94-1.19 2.06-1.19 2.06-4.19 3.06-0.144 0.639-0.289 1.28-0.438 1.94-0.186 0.681-0.371 1.36-0.562 2.06l-4 2c-1.19 1.42-2.37 2.84-3.51 4.29-2.29 2.63-4.97 4.78-7.63 7.04-2.24 2.02-4.02 4.29-5.86 6.67-1.49 0.99-1.49 0.99-3 2-0.268 0.598-0.536 1.2-0.812 1.81-1.78 3.28-4.2 4.95-7.19 7.19h-2c-0.268 0.639-0.536 1.28-0.812 1.94-1.19 2.06-1.19 2.06-4.19 3.06-0.33 0.99-0.66 1.98-1 3-1.95 1.84-4.01 3.49-6.09 5.18-1.94 1.85-2.76 3.43-3.91 5.82-1.33 0.333-2.67 0.667-4 1-1.13 1.83-1.13 1.83-2 4-1.38 2.25-1.38 2.25-3 4h-4c-0.33 1.32-0.66 2.64-1 4-1.32 0.33-2.64 0.66-4 1-0.103 0.619-0.206 1.24-0.312 1.88-0.688 2.12-0.688 2.12-3.69 4.12-0.33 0.99-0.66 1.98-1 3-1.33 0.667-2.67 1.33-4 2-1.01 1.32-2.01 2.66-3 4h-2c-0.247 0.639-0.495 1.28-0.75 1.94-1.58 2.61-2.42 2.35-5.25 3.06-0.704 1.31-1.36 2.65-2 4l-5 5c-1.02 1.36-2.02 2.74-3 4.12-2.35 3.23-4.46 4.96-8 6.88-1.02 1.32-2.02 2.65-3 4h-2c-0.33 0.99-0.66 1.98-1 3-1.95 1.84-4.01 3.49-6.09 5.18-1.94 1.85-2.76 3.43-3.91 5.82-1.33 0.333-2.67 0.667-4 1-0.289 0.578-0.578 1.16-0.875 1.75-1.63 3.26-4.35 4.95-7.12 7.25-0.33 0.99-0.66 1.98-1 3-1.33 0.667-2.67 1.33-4 2-1.69 1.65-3.35 3.31-5 5-1.11 0.804-1.11 0.804-2.25 1.62-2.05 1.35-2.05 1.35-2.75 4.38h-2c-0.33 0.99-0.66 1.98-1 3-0.99 0.66-1.98 1.32-3 2-0.33 0.99-0.66 1.98-1 3-1.33 0.333-2.67 0.667-4 1-0.33 0.99-0.66 1.98-1 3-1.69 1.59-3.48 2.97-5.31 4.4-1.83 1.73-2.59 3.36-3.69 5.6-2.12 0.75-2.12 0.75-4 1-0.33 1.32-0.66 2.64-1 4-0.619 0.0825-1.24 0.165-1.88 0.25-2.3 0.544-2.3 0.544-3.19 2.75-0.309 0.66-0.619 1.32-0.938 2-0.99 0.33-1.98 0.66-3 1-0.289 0.578-0.578 1.16-0.875 1.75-2.61 5.22-7.87 8.76-12.2 12.5-2.09 1.83-2.09 1.83-4.01 4.82-5.09 6.03-12.6 8.56-20.2 9.23-22.8 0.957-22.8 0.957-27.7-2.29-2.33-0.694-4.66-1.36-7-2-0.66-0.33-1.32-0.66-2-1v-2c-1.36-0.34-1.36-0.34-2.75-0.688-3.8-1.54-4.88-3.03-7.25-6.31-2.5-2.62-4.95-4.96-7.81-7.19-0.722-0.598-1.44-1.2-2.19-1.81v-2c-0.557-0.227-1.11-0.454-1.69-0.688-2.96-1.68-4.97-3.85-7.31-6.31-0.598-0.557-1.2-1.11-1.81-1.69-1.19-1.31-1.19-1.31-1.19-3.31l-1.81-0.785c-2.35-1.31-3.53-2.56-5.19-4.65-2.15-2.62-4.26-4.56-7-6.56v-2c-0.639-0.268-1.28-0.536-1.94-0.812-2.06-1.19-2.06-1.19-3.06-4.19-0.66-0.33-1.32-0.66-2-1-2-1-2-1-3-4-0.578-0.289-1.16-0.578-1.75-0.875-4.06-2.03-6.82-4.83-8.25-9.12-0.66-0.33-1.32-0.66-2-1-2-1-2-1-3-4-0.66-0.33-1.32-0.66-2-1-2-1-2-1-3-4-0.99-0.33-1.98-0.66-3-1-3.05-2.75-5.44-5.17-7-9h-2v-2c-0.843-0.356-0.843-0.356-1.7-0.719-2.82-1.57-4.78-3.5-7.05-5.78-0.799-0.794-1.6-1.59-2.42-2.41-1.83-2.09-1.83-2.09-1.83-4.09-0.583-0.244-1.17-0.487-1.77-0.738-2.62-1.48-4.06-3.14-5.98-5.45-3.3-3.84-6.75-7.12-10.7-10.3-1.57-1.51-1.57-1.51-2.57-4.51-0.66-0.33-1.32-0.66-2-1-2-1-2-1-3-4-0.66-0.33-1.32-0.66-2-1-2-1-2-1-3-4-0.99-0.33-1.98-0.66-3-1-2.49-2.25-4.59-4.15-6.06-7.19-1.22-2.35-2.61-2.68-4.94-3.81l-1-3c-1.33-0.681-2.66-1.34-4-2-1.63-1.45-3.21-2.95-4.75-4.5-0.799-0.794-1.6-1.59-2.42-2.41-1.83-2.09-1.83-2.09-1.83-4.09-0.835-0.371-0.835-0.371-1.69-0.75-5.56-3.01-8.57-6.79-11.9-12-1.11-1.74-2.31-3.43-3.54-5.09-4.78-7.96-6.25-15-6.31-24.2-0.00999-0.835-0.02-1.67-0.0303-2.53 0.0788-5.72 0.824-11.2 3.47-16.3l3-2c0.342-1.67 0.674-3.33 1-5 1.44-1.56 1.44-1.56 3-3 0.289-0.619 0.578-1.24 0.875-1.88 1.58-2.99 3.57-4.93 6.12-7.12h4c0.247-0.639 0.495-1.28 0.75-1.94 1.25-2.06 1.25-2.06 3.38-2.81 0.619-0.0825 1.24-0.165 1.88-0.25v-2c0.626-0.121 1.25-0.242 1.9-0.367 1.23-0.251 1.23-0.251 2.48-0.508 0.812-0.162 1.62-0.325 2.46-0.492 2.35-0.499 2.35-0.499 4.16-2.63 2.02-0.259 2.02-0.259 4.46-0.266 0.882-0.00258 1.76-0.00516 2.67-0.00781 0.924 0.00773 1.85 0.0155 2.8 0.0234 0.92-0.00773 1.84-0.0155 2.79-0.0234 1.33 0.00387 1.33 0.00387 2.68 0.00781 1.21 0.00338 1.21 0.00338 2.45 0.00684 2.14 0.259 2.14 0.259 5.14 2.26 1.16 0.206 2.31 0.413 3.5 0.625 8.93 2.15 15.9 9.6 22.6 15.6 0.56 0.507 1.12 1.01 1.7 1.54 2.77 2.58 4.62 4.83 6.24 8.21 0.99 0.33 1.98 0.66 3 1v2c0.835 0.34 0.835 0.34 1.69 0.688 2.98 1.69 4.95 3.84 7.31 6.31 0.545 0.525 1.09 1.05 1.65 1.59 1.49 1.43 2.92 2.92 4.35 4.41v2c0.639 0.268 1.28 0.536 1.94 0.812 2.06 1.19 2.06 1.19 3.06 4.19 0.99 0.33 1.98 0.66 3 1 1.51 1.57 1.51 1.57 3.12 3.56 2.63 3.11 5.35 5.84 8.44 8.5 3.32 2.87 6.14 5.84 8.91 9.23 1.69 1.9 3.52 3.5 5.46 5.15 2.78 2.36 5.21 4.78 7.56 7.56 2.34 2.76 4.74 5.16 7.5 7.5 3.45 2.92 6.3 6.09 9.22 9.53 1.81 2 3.72 3.72 5.78 5.47 3.45 2.92 6.3 6.09 9.22 9.53 2.4 2.65 5.07 4.88 7.81 7.17 2.08 1.9 3.77 3.92 5.54 6.11 2.29 2.64 3.75 3.86 6.88 5.62 4.07 0.0715 4.68-0.408 7.69-2.94 2.39-2.33 4.55-4.76 6.62-7.38 2.41-2.81 2.93-2.82 6.25-3.62 0.674-1.66 1.34-3.33 2-5 2.31-2 2.31-2 5-4 2.48-2.35 4.74-4.66 6.81-7.38 2.51-3.02 5.33-5.39 8.31-7.94 2.01-1.72 2.01-1.72 3.88-4.19 2.4-3 5.14-5.31 8.05-7.8 2.44-2.12 4.7-4.38 6.95-6.7 5-5 5-5 7.44-7.38 1.97-2.02 3.76-4.03 5.56-6.19 1.75-2.07 3.3-3.67 5.44-5.38 2.3-1.85 3.98-3.63 5.88-5.88 2.4-2.82 4.86-5.3 7.69-7.69 2.76-2.34 5.16-4.74 7.5-7.5 2.92-3.45 6.09-6.3 9.53-9.22 2-1.81 3.72-3.72 5.47-5.78 2.96-3.49 6.17-6.45 9.65-9.41 2.41-2.08 4.63-4.31 6.85-6.59 10-10 10-10 12.7-12.6 2.43-2.35 2.43-2.35 4.31-5.38 0.99-0.33 1.98-0.66 3-1 0.413-0.722 0.825-1.44 1.25-2.19 2.59-4.16 6.34-7.61 10.8-9.81 0.33-0.99 0.66-1.98 1-3 1.45-1.43 1.45-1.43 3.25-2.88 4.98-4.13 9.23-8.59 13.2-13.7 1.8-1.71 3.15-1.9 5.53-2.45 0.268-0.722 0.536-1.44 0.812-2.19 1.47-3.48 3.37-4.82 6.26-7.14 2.05-1.78 3.74-3.67 5.49-5.73 2.91-3.42 5.83-6.26 9.44-8.94h2c0.131-0.884 0.131-0.884 0.266-1.79 0.932-2.81 2.2-3.79 4.48-5.65 0.726-0.608 1.45-1.22 2.2-1.84 0.677-0.567 1.35-1.13 2.05-1.72 2.96-2.82 5.66-5.76 8.31-8.88 2.99-3.47 6.23-6.39 9.72-9.34 2-1.81 3.72-3.72 5.47-5.78 2.92-3.45 6.08-6.35 9.52-9.28 3.16-2.75 6.05-5.74 8.98-8.72 0.846-0.825 1.69-1.65 2.56-2.5 1.88-1.93 3.59-3.87 5.31-5.94 2.58-3.06 5.38-5.6 8.46-8.15 2.36-2 4.51-4.19 6.67-6.41l3-3 2 1c-0.33-0.99-0.66-1.98-1-3 9.34-5.38 17.5-7.69 28.4-7.69zm-521 189 1 3z" fill="#008C01"/>
<path transform="translate(767 134)" d="m0 0c2.23-7.2e-4 4.46-0.00287 6.69-0.0055 7.81-0.00918 15.6-0.0133 23.4-0.0125 7.24 6.04e-4 14.5-0.01 21.7-0.0257 6.26-0.0131 12.5-0.0184 18.8-0.0178 3.72 2.54e-4 7.45-0.00252 11.2-0.0132 4.14-0.0115 8.28-0.00692 12.4-8.95e-4 1.22-0.00562 2.43-0.0112 3.68-0.017 5.8 0.0214 11.1 0.302 16.7 1.82 3.1 0.741 6.13 0.59 9.3 0.507 7.8-0.122 15.6 0.0813 23.4 0.375 1.71 0.0591 1.71 0.0591 3.45 0.119 1.61 0.0627 1.61 0.0627 3.25 0.127 0.96 0.0367 1.92 0.0733 2.91 0.111 2.32 0.185 4.33 0.616 6.57 1.21 3.44 0.254 6.88 0.441 10.3 0.605 5.46 0.293 5.46 0.293 7.67 1.39 2.48 0.207 4.95 0.374 7.44 0.5 7.16 0.366 7.16 0.366 10.6 1.5 1.48 0.124 2.97 0.201 4.46 0.246 1.3 0.0493 1.3 0.0493 2.62 0.0996 1.81 0.0608 3.62 0.118 5.43 0.172 4.91 0.193 8.83 0.82 13.5 2.48 2.29 0.233 4.58 0.398 6.88 0.5 4.47 0.265 8.47 0.697 12.8 1.96 4.2 0.969 8.51 1.36 12.8 1.84 3 0.343 5.67 0.74 8.55 1.7 2.77 0.266 5.53 0.444 8.31 0.621 2.72 0.383 4.28 1.14 6.69 2.38 2.07 0.495 4.16 0.923 6.25 1.31 1.33 0.256 2.66 0.512 3.98 0.77 0.743 0.143 1.49 0.285 2.25 0.432 5.01 0.968 10 1.97 15 2.99 1.03 0.201 2.05 0.403 3.11 0.611 5.48 1.12 10.3 2.45 15.4 4.89v2c0.66 0.66 1.32 1.32 2 2-0.812 1.94-0.812 1.94-2 4-3.8 1.27-5.32 0.381-9-1-0.99-0.33-1.98-0.66-3-1-0.66-0.66-1.32-1.32-2-2-1.92 0.0331-3.84 0.0697-5.77 0.133-2.48-0.148-4.31-0.763-6.61-1.7-1.2-0.474-2.39-0.949-3.62-1.44-0.66 0.33-1.32 0.66-2 1 0.33 0.66 0.66 1.32 1 2h-11v-1h8c-2.96-0.78-5.92-1.35-8.94-1.88-3.95-0.775-6.69-1.88-10.1-4.12-4.73-1.94-8.66-2.19-13.8-2.06-7.06 0.159-7.06 0.159-9.25-0.938-2.41-0.208-4.83-0.367-7.25-0.5-5.55-0.307-10.8-0.848-16.3-2.07-3.7-0.647-7.31-0.4-11.1-0.273-2.43-0.16-2.43-0.16-4.43-2.16-1.01-0.165-2.02-0.33-3.06-0.5-0.969-0.165-1.94-0.33-2.94-0.5-0.33-0.66-0.66-1.32-1-2-2.36-1.26-2.36-1.26-5-2-3.12 0.646-3.12 0.646-4 3-1.44 0.0271-2.87 0.0465-4.31 0.0625-1.2 0.0174-1.2 0.0174-2.43 0.0352-2.26-0.0977-2.26-0.0977-5.26-1.1v-2h-3c0.33 0.66 0.66 1.32 1 2-0.892 0.0606-1.78 0.121-2.7 0.184-1.17 0.0838-2.34 0.168-3.55 0.254-1.16 0.0812-2.32 0.162-3.52 0.246-3.09 0.214-3.09 0.214-5.47 0.914-1.77 0.402-1.77 0.402-4.77-0.598-2.23-0.225-4.46-0.408-6.69-0.562-1.18-0.0838-2.36-0.168-3.57-0.254-0.904-0.0606-1.81-0.121-2.74-0.184v-3h-3v-2c-9.03-0.165-9.03-0.165-18 0.688-4 0.53-5.62-0.435-9-2.69-6.02-1.27-11.5-0.827-17.6-0.156-0.806 0.0516-1.61 0.103-2.44 0.156-0.33-0.33-0.66-0.66-1-1-7.01-1.02-13.9-1.15-21-1.16-1.17-0.00496-2.34-0.00993-3.54-0.015-3.84-0.0145-7.68-0.0214-11.5-0.0269-2-0.0043-4.01-0.0086-6.01-0.013-5.57-0.0118-11.1-0.0193-16.7-0.0228-7.18-0.00449-14.4-0.0221-21.5-0.051-5.57-0.0217-11.1-0.0317-16.7-0.033-3.32-0.00104-6.64-0.00834-9.96-0.0248-3.7-0.0171-7.4-0.0152-11.1-0.00869-1.09-0.00921-2.18-0.0184-3.3-0.0279-6.27 0.0344-10.8 0.861-16.6 3.38-2.95 0.54-2.95 0.54-5.68 0.766-1.01 0.0851-2.02 0.17-3.07 0.258-1.55 0.112-1.55 0.112-3.13 0.227-1.02 0.0902-2.05 0.18-3.11 0.273-5.75 0.453-11.1 0.403-16.8-0.292-2.73-0.291-5.32-0.19-8.05 0.0815-1.33 0.118-1.33 0.118-2.68 0.238-2.5 0.458-4.25 1.21-6.45 2.45-1.33 0.667-2.67 1.33-4 2v-2c-5.02 0.33-5.02 0.33-9 3-3.29 1.1-5.74 1.1-9.19 1.06-1.63-0.0135-1.63-0.0135-3.29-0.0273-0.831-0.0116-1.66-0.0232-2.52-0.0352-0.286-0.645-0.572-1.29-0.867-1.95-0.947-2.25-0.947-2.25-3.26-2.8-0.619-0.0825-1.24-0.165-1.88-0.25-0.33 1.65-0.66 3.3-1 5-0.71-0.0838-1.42-0.168-2.15-0.254-0.919-0.102-1.84-0.204-2.79-0.309-0.917-0.104-1.83-0.209-2.78-0.316-0.754-0.04-1.51-0.0799-2.29-0.121-0.33 0.33-0.66 0.66-1 1-3.1 0.324-6.2 0.513-9.31 0.719-2.6-0.0127-2.6-0.0127-3.69 1.28-1.39 0.144-2.79 0.227-4.18 0.281-0.845 0.0374-1.69 0.0748-2.56 0.113-0.889 0.0348-1.78 0.0696-2.69 0.105-1.75 0.0688-3.5 0.142-5.25 0.219-0.779 0.0303-1.56 0.0606-2.36 0.0918-2.03 0.079-2.03 0.079-3.96 1.19-2.14 0.184-4.29 0.322-6.44 0.438-5.43 0.349-10.6 1.03-15.9 2.1-2.7 0.475-5.34 0.711-8.08 0.902-6.77 0.535-13.2 2.25-19.7 4.22-1.84 0.344-1.84 0.344-4.84-0.656v2h-8v3c-2.57 0.89-3.98 1-6.69 0.438-7.11-0.939-13.5 1.91-20 4.62-3.06 1.23-6.18 2.07-9.36 2.95-1.68 0.642-3.35 1.3-5 2v2c-0.949-0.0619-1.9-0.124-2.88-0.188-4.19-0.0255-7.77 1.18-11.7 2.53-2.58 0.696-4.77 0.77-7.43 0.656-0.33 0.66-0.66 1.32-1 2h-5v2h-11c-0.33 0.66-0.66 1.32-1 2-1.8 1.8-4.73 1.41-7.19 1.62-0.598 0.125-1.2 0.25-1.81 0.379-0.33 0.66-0.66 1.32-1 2-1.86 0.641-1.86 0.641-4.31 1.25-5.46 1.52-10.2 3.9-15.2 6.54-2.47 1.21-2.47 1.21-4.47 1.21v2c-0.915 0.098-1.83 0.196-2.77 0.297-1.19 0.15-2.38 0.299-3.6 0.453-1.18 0.139-2.37 0.278-3.59 0.422-1.5 0.41-1.5 0.41-3.04 0.828-0.679 1.33-1.35 2.66-2 4-2.97 1.05-2.97 1.05-6.5 1.75-1.17 0.242-2.33 0.485-3.53 0.734-2.97 0.516-2.97 0.516-4.97 0.516-0.33 0.99-0.66 1.98-1 3-2.83 1.56-5.69 2.9-8.63 4.22-4.29 2.01-7.07 4.31-10.4 7.78-3.25 1.36-5.48 2-9 2v2c-5.75 3-5.75 3-8 3-0.33 0.66-0.66 1.32-1 2-5.22 2-5.22 2-8 2v2c-1.8 1.19-1.8 1.19-4.31 2.56-5.1 2.95-9.5 6.41-14 10.2-4.46 3.74-9.01 7.48-13.9 10.7-2.23 1.62-2.23 1.62-2.81 5.55-4.46 0.99-4.46 0.99-9 2 0.33 0.66 0.66 1.32 1 2-0.949 0.0619-1.9 0.124-2.88 0.188-1.55 0.402-1.55 0.402-3.12 0.812-1.42 2.33-1.42 2.33-2 5-1 3-1 3-2.88 3.98-0.7 0.336-1.4 0.673-2.12 1.02-1.56 1.54-1.56 1.54-2.94 3.31-2.53 3.08-5.2 5.9-8.06 8.69-0.557 0.598-1.11 1.2-1.69 1.81-1.31 1.19-1.31 1.19-3.31 1.19-0.33 1.65-0.66 3.3-1 5-0.99-0.33-1.98-0.66-3-1-0.33 0.99-0.66 1.98-1 3-0.495 0.474-0.99 0.949-1.5 1.44-1.67 1.46-1.67 1.46-1.94 3.62-0.562 1.94-0.562 1.94-2.44 3.19-2.12 0.75-2.12 0.75-5.12 0.75v-2c-0.66-0.33-1.32-0.66-2-1 1.39-1.9 2.79-3.79 4.19-5.69 0.777-1.06 1.55-2.11 2.36-3.2 6.03-7.64 6.03-7.64 10.5-9.11 0.33-0.66 0.66-1.32 1-2 1-2 1-2 4-3 0.309-0.825 0.619-1.65 0.938-2.5 0.351-0.825 0.701-1.65 1.06-2.5 2.12-0.812 2.12-0.812 4-1 0.33-1.32 0.66-2.64 1-4 0.619-0.0825 1.24-0.165 1.88-0.25 2.26-0.523 2.26-0.523 3-2.5 1.35-2.7 3.21-4.11 5.55-5.96 1.81-1.43 1.81-1.43 4.14-3.85 2.36-2.36 4.83-4.37 7.44-6.44 0.722-0.742 1.44-1.49 2.19-2.25 1.81-1.75 1.81-1.75 3.81-1.75 0.495-1.49 0.495-1.49 1-3 2.97-2.19 5.49-3.83 9-5 0.495-1.49 0.495-1.49 1-3 1.65-0.33 3.3-0.66 5-1v-2c5.41-4 5.41-4 8-4v-2c3.02-2.3 5.6-3.88 9.25-5 3.35-1.22 3.27-1.95 4.75-5 1.96-1.08 3.97-2.06 6-3 2.53-1.54 5.04-3.11 7.54-4.7 2.52-1.34 4.65-1.89 7.46-2.3v-2c1.65-0.33 3.3-0.66 5-1v-2c0.687-0.254 1.37-0.508 2.08-0.77l2.73-1.04c0.893-0.336 1.79-0.673 2.71-1.02 2.51-1 2.51-1 4.05-2.8 1.43-1.36 1.43-1.36 5.43-1.36v-2c3.47-0.495 3.47-0.495 7-1 0.33-1.32 0.66-2.64 1-4 0.592-0.121 1.18-0.242 1.79-0.367 7.76-1.43 7.76-1.43 14.2-5.63 2.62-0.125 2.62-0.125 5 0v-2c0.545-0.17 1.09-0.34 1.65-0.516 3.92-1.26 7.69-2.59 11.4-4.36 4.99-2.3 10.2-3.83 15.4-5.37 3.22-0.961 5.67-1.87 8.5-3.75 2-0.679 4-1.35 6-2 0.33-0.33 0.66-0.66 1-1 1.95-0.155 1.95-0.155 3.94-0.312 4.53-0.457 8.16-1.79 12.3-3.57 6.7-2.73 13.6-5.07 20.9-5.74 3.93-0.073 3.93-0.073 6.88-2.38 2.54-0.368 5.06-0.504 7.62-0.656 2.64-0.208 2.64-0.208 5.38-2.34 2.05-0.344 2.05-0.344 4.31-0.5 2.74-0.25 4.88-0.563 7.5-1.44 4.1-1.37 8.21-1.9 12.5-2.5 2.91-0.429 2.91-0.429 5.71-2.56 2.57-0.344 2.57-0.344 5.56-0.5 4.8-0.323 9.31-1.01 14-2.03 2.55-0.489 5.05-0.751 7.63-0.969 2.93-0.254 5.22-0.626 8.06-1.5 4.81-1.28 9.48-1.44 14.4-1.66 3.22-0.174 3.22-0.174 5.68-1.34 2.79-1.06 4.88-1.28 7.85-1.34 0.967-0.0296 1.93-0.0593 2.93-0.0898 2.03-0.0445 4.06-0.0888 6.09-0.133 0.964-0.0296 1.93-0.0593 2.92-0.0898 0.879-0.0187 1.76-0.0374 2.66-0.0566 2.38-0.0914 2.38-0.0914 4.17-2.29 2.59-0.303 2.59-0.303 5.86-0.379 1.18-0.0342 2.36-0.0683 3.58-0.104 1.24-0.0264 2.48-0.0529 3.76-0.0801 2.43-0.0604 4.86-0.124 7.29-0.191 1.08-0.0239 2.16-0.0479 3.28-0.0725 3.46-0.185 6.81-0.667 10.2-1.17 4.77-0.434 9.54-0.744 14.3-1.06 0.664-0.0449 1.33-0.0897 2.01-0.136 10.6-0.706 21.1-1.06 31.7-0.802v-1c16.8-1.03 33.6-1.16 50.5-1.17zm171 6.17v1h9v-1h-9z" fill="#080"/>
<path transform="translate(1294,1184)" d="m0 0c0.99 0.33 1.98 0.66 3 1-0.975 5.52-1.89 10.1-6 14-0.588 1.3-0.588 1.3-1.19 2.62-2.54 4.72-5.94 8.67-9.81 12.4h-2c-0.33 2.97-0.66 5.94-1 9-1.32 0.33-2.64 0.66-4 1-0.124 0.639-0.247 1.28-0.375 1.94-0.206 0.681-0.412 1.36-0.625 2.06-0.66 0.33-1.32 0.66-2 1-1.01 1.66-2.01 3.33-3 5-1.56 1.81-1.56 1.81-3 3h-2c-0.227 0.722-0.454 1.44-0.688 2.19-1.58 3.38-3.52 5.37-6.31 7.81h-2c-0.22 0.549-0.441 1.1-0.668 1.66-1.75 3.06-4.12 5.3-6.64 7.71-4.32 4.17-4.32 4.17-8.19 8.75-3.28 3.77-7.06 6.72-11 9.82-2.45 1.91-2.45 1.91-4.17 3.76-1.35 1.29-1.35 1.29-4.35 2.29-1.36 0.882-2.71 1.77-4.04 2.69-3.49 2.34-7.09 4.52-10.7 6.73-2.39 1.38-2.39 1.38-3.29 3.59-1.74 0.721-3.47 1.44-5.22 2.14-2.41 1.17-3.97 2.92-5.78 4.86h-2c-0.247 0.639-0.495 1.28-0.75 1.94-1.25 2.06-1.25 2.06-3 2.69-0.742 0.124-1.49 0.247-2.25 0.375-3.16 0.804-3.16 0.804-6 2-0.33 0.99-0.66 1.98-1 3-1.81 0.562-1.81 0.562-4 1-1.35 0.63-2.68 1.3-4 2-4.96 2.6-10.1 4.63-15.3 6.62-2.79 1.17-2.79 1.17-4.27 3.48-1.44 1.9-1.44 1.9-3.71 2.59-0.839 0.103-1.68 0.206-2.54 0.312-3.57 0.57-5.09 0.934-8.12 3.06-4.46 2.82-8.88 2.75-14.1 2.94-0.33 0.99-0.66 1.98-1 3-1.86 0.844-1.86 0.844-4.31 1.5-0.9 0.247-1.8 0.495-2.73 0.75-3.04 0.771-6.1 1.51-9.15 2.25-3.33 0.808-6.4 1.65-9.5 3.12-3.61 1.5-6.62 1.85-10.5 2.07-0.901 0.153-0.901 0.153-1.82 0.309-0.33 0.66-0.66 1.32-1 2h-4v2h-4c-0.33 0.66-0.66 1.32-1 2-1.45-0.155-1.45-0.155-2.94-0.312-5.11-0.0417-8.85 2.7-13.1 5.31-2.4 1.2-4.27 1.28-6.94 1.5-2.95 0.244-5.23 0.556-8.06 1.5-3.34 0.345-6.7 0.465-10.1 0.625-0.924 0.0516-1.85 0.103-2.8 0.156-0.882 0.0438-1.76 0.0877-2.67 0.133-1.21 0.0611-1.21 0.0611-2.45 0.124-2.02-0.0376-2.02-0.0376-4.02-1.04-0.66 0.33-1.32 0.66-2 1-1.54 0.0695-3.08 0.0845-4.62 0.0625-0.817-0.00902-1.63-0.018-2.48-0.0273-0.94-0.0174-0.94-0.0174-1.9-0.0352v2c-2.64 0.33-5.28 0.66-8 1v1c-1.65 0.33-3.3 0.66-5 1-0.33 0.99-0.66 1.98-1 3-2.14 0.361-4.29 0.714-6.44 1.06-1.19 0.197-2.39 0.394-3.62 0.598-0.971 0.112-1.94 0.224-2.94 0.34-0.33-0.33-0.66-0.66-1-1-1.93-0.0875-3.86-0.107-5.79-0.0977-1.17 0.00322-2.34 0.00645-3.54 0.00977-1.23 0.00838-2.46 0.0168-3.73 0.0254-1.24 0.00451-2.47 0.00902-3.74 0.0137-3.06 0.0118-6.13 0.0283-9.19 0.0488v2c-2.64 0.33-5.28 0.66-8 1v1h-6c0.33-0.66 0.66-1.32 1-2-3.77 0-7.54 0.207-11.3 0.375-1.28 0.0464-1.28 0.0464-2.59 0.0938-4.5 0.209-7.94 0.671-12.1 2.53h-8c-1.68 0.639-3.35 1.3-5 2h-6c-0.66 0.66-1.32 1.32-2 2-2.38 0.195-2.38 0.195-5.12 0.125-0.91-0.018-1.82-0.0361-2.76-0.0547-0.699-0.0232-1.4-0.0464-2.12-0.0703v-3c-0.915 0.0232-1.83 0.0464-2.77 0.0703-1.19 0.018-2.38 0.0361-3.6 0.0547-1.18 0.0232-2.37 0.0464-3.59 0.0703-3.47-0.223-3.71-0.871-6.04-3.2-2.67-0.141-5.32-0.0425-8 0 0.33 0.33 0.66 0.66 1 1h3v5h-2v-2h-8c-0.33-1.32-0.66-2.64-1-4h-10v1h-15v2c-5.71 0.993-11.2 1.1-17 1 1.32-0.66 2.64-1.32 4-2-12.6-0.427-12.6-0.427-25 1.7-3.41 0.508-6.5-0.513-9.76-1.48-2.38-0.466-2.38-0.466-4.43 1.23-0.605 0.514-1.21 1.03-1.83 1.56h-2c-0.33 0.33-0.66 0.66-1 1-1.52 0.0718-3.04 0.0839-4.56 0.0625-0.826-0.00902-1.65-0.018-2.5-0.0273-0.638-0.0116-1.28-0.0232-1.93-0.0352-0.33-0.99-0.66-1.98-1-3-2.23-0.922-3.54-1.12-5.88-0.5-2.87 0.676-5.25 0.0117-8.12-0.5-0.33 0.33-0.66 0.66-1 1-2.67 0.141-5.32 0.0425-8 0v2c-0.33 0.33-0.66 0.66-1 1h5c-2.96 1.65-5.63 2.56-9 3-0.66-0.33-1.32-0.66-2-1v-2h-5v-2c-1.65-0.33-3.3-0.66-5-1v-1h5v-2c-4.59 0.262-9.18 0.529-13.8 0.8-1.56 0.0913-3.12 0.182-4.68 0.271-2.25 0.129-4.5 0.261-6.75 0.395-0.691 0.0386-1.38 0.0772-2.09 0.117-3.96 0.24-7.81 0.694-11.7 1.42-0.66-0.99-1.32-1.98-2-3-3.34-0.591-3.34-0.591-7.19-0.688-1.94-0.0986-1.94-0.0986-3.92-0.199-2.58-0.0752-5.17-0.0991-7.76-0.0703-3.14-0.043-3.14-0.043-5.14-1.04v-2c-0.969 0.33-1.94 0.66-2.94 1-5.39 1.53-10.7 1.7-16.1 0.125-2-1.12-2-1.12-3-3.12h-8c-0.33 0.99-0.66 1.98-1 3-2 0.75-2 0.75-4 1-0.33-0.33-0.66-0.66-1-1v1h-6c-0.33-0.66-0.66-1.32-1-2h3c-5.3-3.08-8.77-4.12-15-4-1.69-1.44-1.69-1.44-3-3-2.1-0.714-2.1-0.714-4-1v-3c-2.08-0.0542-4.17-0.0929-6.25-0.125-1.16-0.0232-2.32-0.0464-3.52-0.0703-3.15 0.19-4.54 0.733-7.23 2.2h-4v-2c-1.21 0.143-1.21 0.143-2.45 0.289-1.07 0.111-2.14 0.222-3.24 0.336-1.06 0.116-2.11 0.232-3.2 0.352-3.27 0.0246-5.17-0.628-8.11-1.98h-2c-0.33-1.65-0.66-3.3-1-5-1.98 0.33-3.96 0.66-6 1-0.625-2.38-0.625-2.38-1-5 2-2 2-2 4.39-2.27 0.944 0.00516 1.89 0.0103 2.86 0.0156 0.933-0.00516 1.87-0.0103 2.83-0.0156 3.24 0.295 5.85 1.2 8.92 2.27 7.77 1.77 15.4 3.07 23.4 3.5 5.14 0.28 9.47 1.17 14.3 2.8 3.71 1.13 7.43 1.41 11.3 1.7 5.73 0.459 11.3 1.02 17 2.06 4.97 0.882 9.68 1.08 14.7 0.91 2.28 0.0273 2.28 0.0273 5.28 1.03 2.57 0.198 5.13 0.351 7.7 0.465 1.55 0.0786 3.11 0.157 4.66 0.236 2.44 0.119 4.88 0.236 7.32 0.348 2.36 0.11 4.72 0.231 7.08 0.353 0.72 0.0303 1.44 0.0606 2.18 0.0918 3.32 0.176 6.22 0.558 9.41 1.52 4.75 1.29 9.2 1.32 14.1 1.37 1.52 0.0255 1.52 0.0255 3.07 0.0515 3.24 0.0529 6.48 0.0931 9.73 0.132 4.21 0.0595 8.43 0.125 12.6 0.191 1.6 0.024 1.6 0.024 3.24 0.0485 7.73 0.128 15.4 0.398 23.2 0.717 13 0.523 26 0.633 39 0.611 3.66-0.00537 7.33-4.58e-6 11 0.00635 12.9 0.00362 25.8-0.223 38.7-0.756 7.7-0.314 15.4-0.512 23.1-0.627 1.05-0.0167 2.11-0.0333 3.19-0.0505 4.25-0.0661 8.51-0.129 12.8-0.18 3.18-0.0396 6.37-0.091 9.55-0.144 0.956-0.00841 1.91-0.0168 2.9-0.0255 4.93-0.0918 8.79-0.628 13.5-2.35 2.79-0.303 2.79-0.303 5.63-0.379 1.05-0.0342 2.11-0.0683 3.2-0.104 1.63-0.0396 1.63-0.0396 3.3-0.0801 13.8 0.844 13.8 0.844 25.9-2.44 1.49-0.133 2.99-0.203 4.48-0.246 0.917-0.0329 1.83-0.0657 2.78-0.0996 1.93-0.0606 3.86-0.118 5.8-0.172 5.08-0.188 9.12-0.782 13.9-2.48 3.37-0.299 6.7-0.458 10.1-0.566 6.98-0.205 6.98-0.205 12.9-3.43 2.67-0.188 5.33-0.327 8-0.438 5.51-0.27 10.7-0.682 16.1-2.09 2.08-0.507 4.11-0.751 6.23-0.969 3.5-0.255 3.5-0.255 5.59-1.52 2.59-1.21 4.5-1.18 7.35-1.1 0.892 0.018 1.78 0.0361 2.7 0.0547 0.675 0.0232 1.35 0.0464 2.05 0.0703v-2c3.27-1.63 6.86-1.4 10.5-1.62 2.7-0.147 2.7-0.147 4.53-2.38 2.82-0.383 5.62-0.507 8.47-0.656 2.7-0.106 2.7-0.106 4.53-2.34 2.1-0.507 4.19-1 6.3-1.44 14-2.66 14-2.66 26.7-8.56 2.08-0.436 4.16-0.872 6.25-1.3 9.64-2.41 9.64-2.41 17.8-7.7 1.64-0.469 3.28-0.932 4.93-1.36 2.35-0.728 4.47-1.71 6.69-2.77 3.27-1.51 5.71-2.35 9.38-1.88v-2c1.11-0.0825 2.23-0.165 3.38-0.25 1.2-0.247 2.39-0.495 3.62-0.75 0.306-0.632 0.611-1.26 0.926-1.91 1.46-2.84 2.93-3.15 5.89-4.21 1.28-0.468 1.28-0.468 2.58-0.945 0.86-0.307 1.72-0.614 2.61-0.93 3.74-1.21 3.74-1.21 6.31-3.94 2.57-3.14 5.91-3.82 9.69-5.06 1.67-0.661 3.34-1.32 5-2v-2c2.97-0.495 2.97-0.495 6-1v-2c8.82-8 8.82-8 14-8 0.242-0.599 0.485-1.2 0.734-1.82 1.51-2.61 2.96-3.55 5.52-5.12 5.98-3.83 10.7-7.88 15.2-13.3 2.29-2.59 4.75-4.64 7.52-6.71h2c0.247-0.784 0.495-1.57 0.75-2.38 1.25-2.62 1.25-2.62 3.05-3.46 3.02-1.6 4.54-3.8 6.64-6.48 3-3.82 6.13-7.26 9.56-10.7 1.34-1.99 2.68-3.99 4-6 0.66-0.33 1.32-0.66 2-1 0.743-1.27 0.743-1.27 1.5-2.56 0.743-1.21 0.743-1.21 1.5-2.44h2c0.269-0.73 0.539-1.46 0.816-2.21 1.15-2.72 2.47-4.97 4.12-7.41 0.504-0.755 1.01-1.51 1.53-2.29 1.54-2.09 1.54-2.09 3.16-3.7 1.85-1.87 2.42-3.97 3.38-6.39 0.66-0.33 1.32-0.66 2-1 1.12-1.88 1.12-1.88 2.12-4.06 0.353-0.733 0.706-1.47 1.07-2.22 0.266-0.566 0.531-1.13 0.805-1.71z" fill="#080"/>
<path transform="translate(1036 592)" d="m0 0c1.5-0.00967 1.5-0.00967 3.02-0.0195 6.93 0.166 12.4 1.76 18.6 4.71 1.76 0.773 1.76 0.773 3.56 1.56 2.44 1.44 2.44 1.44 3.44 4.44 1.32 0.702 2.65 1.37 4 2 1.75 1.5 1.75 1.5 3 3v2l4 2c-0.188 2.88-0.188 2.88-1 6-2.56 1.38-2.56 1.38-5 2-0.124-0.664-0.247-1.33-0.375-2.01-1.23-5.47-1.23-5.47-4.61-9.77-1.97-1.2-3.92-2.27-6.02-3.22-0.365 0.5-0.73 1-1.11 1.52-2.8 2.19-4.73 1.6-8.21 1.23-1.25-0.115-2.5-0.229-3.79-0.348-1.29-0.133-2.57-0.266-3.89-0.402-16.7-1.75-16.7-1.75-32 4-0.474 0.846-0.949 1.69-1.44 2.56-1.56 2.44-1.56 2.44-5.12 3.69-1.13 0.247-2.27 0.495-3.44 0.75-0.66 0.33-1.32 0.66-2 1v3c-0.619 0.247-1.24 0.495-1.88 0.75-2.26 1.06-2.26 1.06-3 3.19-1.63 2.99-4.14 3.57-7.12 5.06-1.11 1.88-1.11 1.88-2 4-2.5 2.75-2.5 2.75-5 5h-2c-0.254 0.614-0.508 1.23-0.77 1.86-1.41 2.46-2.44 3.09-4.92 4.39-5.64 3.32-9.73 7.94-12.9 13.6-1.75 2.71-3.45 2.97-6.38 4.12-0.184 0.909-0.184 0.909-0.371 1.84-0.882 3.04-2.53 3.91-5.07 5.73-2.91 2.1-4.55 3.41-6.56 6.44-1.44 1.18-2.89 2.36-4.34 3.53-2.41 2.14-4.36 4.6-6.36 7.12-0.428 0.447-0.856 0.895-1.3 1.36h-2c-0.0928 1.18-0.0928 1.18-0.188 2.38-0.402 1.3-0.402 1.3-0.812 2.62-0.784 0.309-1.57 0.619-2.38 0.938-3.62 1.46-3.96 3.65-5.62 7.06-2 0.812-2 0.812-4 1-1.49 0.495-1.49 0.495-3 1-0.0825 0.784-0.165 1.57-0.25 2.38-0.247 0.866-0.495 1.73-0.75 2.62-1.32 0.685-2.66 1.35-4 2-0.619 0.949-1.24 1.9-1.88 2.88-2.12 3.12-2.12 3.12-5.25 5.19-3.14 2.12-3.88 3.35-4.88 6.94h-2c-0.33 0.66-0.66 1.32-1 2l-1-1c-0.33 1.65-0.66 3.3-1 5-0.574 0.0838-1.15 0.168-1.74 0.254-2.93 0.966-4.32 2.47-6.45 4.68-0.695 0.71-1.39 1.42-2.11 2.15-1.76 1.81-1.76 1.81-2.71 3.91-1.32-0.33-2.64-0.66-4-1-0.0825 0.557-0.165 1.11-0.25 1.69-1.39 4.28-4.07 6.86-7.75 9.31-0.724 2.06-0.724 2.06-1 4-0.578 0.0619-1.15 0.124-1.75 0.188-3.2 1.15-4.39 3.03-6.25 5.81v3c-0.722 0.0825-1.44 0.165-2.19 0.25-3.42 0.913-5.28 2.29-7.81 4.75v3c-0.578 0.0412-1.15 0.0825-1.75 0.125-2.58 0.752-2.58 0.752-4.19 3.81-2.06 3.06-2.06 3.06-4.62 4.06-2.76 0.819-2.76 0.819-3.94 4-1.8 3.6-2.88 3.67-6.5 5-0.343 1.33-0.676 2.66-1 4-4.18 3-4.18 3-7 3v-3c-0.66-0.33-1.32-0.66-2-1 0.671-0.563 0.671-0.563 1.36-1.14 3.72-3.15 7.24-6.37 10.6-9.86 0.763-0.743 1.53-1.48 2.31-2.25 2.26-2.32 4.38-4.68 6.5-7.12 3.24-3.68 6.64-6.91 10.4-10.1 2.4-2.06 4.61-4.29 6.81-6.55 10-10 10-10 12.7-12.6 2.43-2.35 2.43-2.35 4.31-5.38 0.99-0.33 1.98-0.66 3-1 0.413-0.722 0.825-1.44 1.25-2.19 2.59-4.16 6.34-7.61 10.8-9.81 0.33-0.99 0.66-1.98 1-3 1.45-1.43 1.45-1.43 3.25-2.88 4.98-4.13 9.23-8.59 13.2-13.7 1.8-1.71 3.15-1.9 5.53-2.45 0.268-0.722 0.536-1.44 0.812-2.19 1.47-3.48 3.37-4.82 6.26-7.14 2.05-1.78 3.74-3.67 5.49-5.73 2.91-3.42 5.83-6.26 9.44-8.94h2c0.0877-0.589 0.175-1.18 0.266-1.79 0.932-2.81 2.2-3.79 4.48-5.65 0.726-0.608 1.45-1.22 2.2-1.84 0.677-0.567 1.35-1.13 2.05-1.72 2.96-2.82 5.66-5.76 8.31-8.88 2.99-3.47 6.23-6.39 9.72-9.34 2-1.81 3.72-3.72 5.47-5.78 2.92-3.45 6.08-6.35 9.52-9.28 3.16-2.75 6.05-5.74 8.98-8.72 0.846-0.825 1.69-1.65 2.56-2.5 1.88-1.93 3.59-3.87 5.31-5.94 2.58-3.06 5.38-5.6 8.46-8.15 2.36-2 4.51-4.19 6.67-6.41l3-3 2 1c-0.33-0.99-0.66-1.98-1-3 9.34-5.38 17.5-7.69 28.4-7.69z" fill="#080"/>
<path transform="translate(144,980)" d="m0 0c0.33 0.66 0.66 1.32 1 2h3c1.69 1.31 1.69 1.31 3 3v3h2c2.79 4.39 2.7 9.5 3.12 14.5 0.372 3.78 0.875 6.46 2.44 9.98 1.74 4.22 1.7 7.38 1.5 11.9-0.131 5.47-0.0385 10.4 1.43 15.7 0.863 3.27 1.15 6.58 1.51 9.94h2c0.944 3.78 1.01 7.09 0.742 10.9 0.128 2.21 0.128 2.21 1.69 4.34 1.66 2.89 2.26 5.14 2.85 8.4 0.202 1.08 0.405 2.15 0.613 3.26 0.2 1.11 0.4 2.23 0.605 3.38 1.42 8.5 1.42 8.5 4.03 16.7 2.21 5.41 2.73 11.2 3.54 17 0.316 2.26 0.64 4.52 0.973 6.78 0.138 0.991 0.276 1.98 0.418 3 0.18 0.753 0.361 1.51 0.547 2.28 0.66 0.33 1.32 0.66 2 1 0.144 0.928 0.289 1.86 0.438 2.81 0.287 3.16 0.287 3.16 2.06 5 2.03 2.96 1.95 5.54 2.09 9.07 0.501 2.62 1.5 3.33 3.41 5.12 0.683 2.33 1.35 4.66 2 7 0.66 0.33 1.32 0.66 2 1 0.638 2.3 1.02 4.61 1.44 6.97 0.186 0.67 0.371 1.34 0.562 2.03 0.66 0.33 1.32 0.66 2 1-0.144 1.26-0.289 2.52-0.438 3.81-0.0355 7.49 4.95 13.3 9.61 18.7 1.85 2.47 2.4 3.82 2.83 6.82 0.596 3.25 1.41 5.67 3.12 8.5 1.88 3.12 1.88 3.12 1.88 6.12 0.99 0.33 1.98 0.66 3 1 0.163 2.02 0.326 4.04 0.488 6.05 0.386 2.34 0.386 2.34 3.51 3.95v3c-0.66 0.33-1.32 0.66-2 1v1h-5v-2h-2c-0.84-1.77-1.67-3.54-2.5-5.31-0.464-0.986-0.928-1.97-1.41-2.99-1.09-2.7-1.09-2.7-1.09-5.7h-2v-4h-2c-0.66-2.31-1.32-4.62-2-7h-2c-1.69-2.53-2.45-4.07-3.31-6.88-2.42-7.48-4.96-15.1-8.69-22-3.15-6.01-4.94-12.7-7-19.1-0.518-1.58-1.04-3.17-1.56-4.75-0.226-0.681-0.451-1.36-0.684-2.06-1.23-3.56-2.56-7.08-3.89-10.6-0.846-2.52-1.41-4.97-1.87-7.58h-1c-2.2-7.65-4.38-15.3-6.39-23-0.434-1.99-0.434-1.99-1.61-3.01-0.5-2.03-0.949-4.08-1.38-6.12-0.262-1.25-0.523-2.51-0.793-3.8-1.3-6.35-2.58-12.7-3.83-19.1h-1c-0.111-0.676-0.221-1.35-0.335-2.05-0.507-3.07-1.02-6.14-1.54-9.2-0.174-1.06-0.348-2.13-0.527-3.22-0.174-1.02-0.348-2.05-0.527-3.11l-0.476-2.86c-0.573-2.47-1.44-4.33-2.59-6.57-0.241-2.12-0.401-4.25-0.5-6.38-0.16-3.41-0.373-6.25-1.46-9.49-1.31-3.96-1.69-7.81-2.1-11.9-0.0732-5-0.0732-5-1.94-9.19-0.186-2.4-0.33-4.78-0.438-7.19-0.232-5.04-0.939-9.06-2.56-13.8 0.375-3.88 0.375-3.88 1-7z" fill="#080"/>
<path transform="translate(1310,438)" d="m0 0c1.32 0.66 2.64 1.32 4 2v8c0.99 0.33 1.98 0.66 3 1 0.144 0.619 0.289 1.24 0.438 1.88 0.37 2.31 0.37 2.31 2.56 3.56 2 1.56 2 1.56 2.44 3.88 0.902 4.31 3.88 7.32 7.25 10.1 1.91 2.36 2.17 4.93 2.69 7.88 0.206 0.575 0.412 1.15 0.625 1.74 1.48 0.495 1.48 0.495 3 1 0.947 2.45 1.67 4.72 2.31 7.25 0.291 1 0.291 1 0.588 2.03 1.14 4.3 1.18 6.79-0.9 10.7-0.359 1.33-0.702 2.66-1 4 1.48 0.495 1.48 0.495 3 1 1.13 2.84 1.13 2.84 2.12 6.38 0.333 1.16 0.665 2.33 1.01 3.52 0.286 1.02 0.572 2.05 0.867 3.1 0.33 0.99 0.66 1.98 1 3h2c1.8 3.83 2.2 6.78 2 11h2c0.155 1.3 0.155 1.3 0.312 2.62 0.516 3.38 0.516 3.38 2.19 6.12 1.72 3.74 2 6.59 2.19 10.7 0.0986 1.89 0.0986 1.89 0.199 3.81 0.0752 2.49 0.0784 4.99 0.00781 7.48 0.105 3.26 0.665 4.48 2.11 7.28-0.0938 2.47-0.0938 2.47-0.5 5.06-0.706 4.2-0.706 4.2 1.5 7.94v4h2c0.507 2.54 1.01 5.08 1.5 7.62 0.143 0.713 0.286 1.43 0.434 2.16 2.06 10.7 2.06 10.7-0.934 15.2-0.243 3.43-0.243 3.43-0.125 7.19 0.018 1.27 0.0361 2.54 0.0547 3.86 0.0232 0.976 0.0464 1.95 0.0703 2.96h2c0.75 1.75 0.75 1.75 1 4-1.94 2.25-1.94 2.25-4 4-3.06-2.22-3.85-4.95-4.66-8.55-0.531-3.88-0.426-7.72-0.309-11.6-0.0266-2.75-0.397-5.16-1.03-7.83h-1c-1.89-5.77-2.56-11.3-3.06-17.4-0.154-1.8-0.311-3.6-0.473-5.4-0.0658-0.788-0.132-1.58-0.199-2.39-0.0802-1.85-0.0802-1.85-1.27-2.84-0.374-1.93-0.699-3.87-1-5.81-0.632-4.17-0.632-4.17-1.56-8.28-0.524-2.27-0.538-4.33-0.504-6.66 0.00902-0.799 0.018-1.6 0.0273-2.42 0.0116-0.603 0.0232-1.21 0.0352-1.83h-2c-1.17-2.33-1.38-4.22-1.75-6.81-0.973-6.07-2.32-12-3.75-18-0.214-0.895-0.427-1.79-0.647-2.71-1.18-4.86-2.44-9.68-3.85-14.5h-1c-0.182-0.941-0.364-1.88-0.551-2.85-0.251-1.25-0.503-2.49-0.762-3.77-0.365-1.84-0.365-1.84-0.738-3.73-0.927-3.56-2.27-6.39-3.95-9.65-0.59-2.27-0.59-2.27-0.938-4.38-0.799-4.06-2.29-7.21-4.24-10.8-1.07-2.33-1.14-4.27-0.82-6.8-0.66-0.33-1.32-0.66-2-1-2.57-4.76-4.33-9.87-6-15-1.09-2.55-2.18-5.1-3.29-7.63-0.777-2.6-0.618-3.85 0.293-6.37z" fill="#008700"/>
<path transform="translate(902,837)" d="m0 0c0.99 0.33 1.98 0.66 3 1 1 3 1 3-0.188 5.62-2.06 2.7-2.68 2.67-5.81 3.38-1.13 1.83-1.13 1.83-2 4-1.38 2.25-1.38 2.25-3 4h-4c-0.33 1.32-0.66 2.64-1 4-1.98 0.495-1.98 0.495-4 1-0.103 0.619-0.206 1.24-0.312 1.88-0.688 2.12-0.688 2.12-3.69 4.12-0.33 0.99-0.66 1.98-1 3-1.33 0.667-2.67 1.33-4 2-1.01 1.32-2.01 2.66-3 4h-2c-0.371 0.959-0.371 0.959-0.75 1.94-1.58 2.61-2.42 2.35-5.25 3.06-0.704 1.31-1.36 2.65-2 4l-5 5c-1.02 1.36-2.02 2.74-3 4.12-2.35 3.23-4.46 4.96-8 6.88-1.02 1.32-2.02 2.65-3 4h-2c-0.495 1.49-0.495 1.49-1 3-1.95 1.84-4.01 3.49-6.09 5.18-1.94 1.85-2.76 3.43-3.91 5.82-1.33 0.333-2.67 0.667-4 1-0.289 0.577-0.577 1.15-0.875 1.75-1.63 3.26-4.35 4.95-7.12 7.25-0.495 1.49-0.495 1.49-1 3-1.33 0.667-2.67 1.33-4 2-1.69 1.65-3.35 3.31-5 5-0.743 0.536-1.49 1.07-2.25 1.62-2.05 1.35-2.05 1.35-2.75 4.38h-2c-0.495 1.49-0.495 1.49-1 3-0.99 0.66-1.98 1.32-3 2-0.495 1.49-0.495 1.49-1 3-1.33 0.333-2.67 0.667-4 1-0.495 1.49-0.495 1.49-1 3-1.69 1.59-3.48 2.97-5.31 4.4-1.83 1.73-2.59 3.36-3.69 5.6-2.12 0.75-2.12 0.75-4 1-0.33 1.32-0.66 2.64-1 4-0.619 0.0825-1.24 0.165-1.88 0.25-2.3 0.544-2.3 0.544-3.19 2.75-0.464 0.99-0.464 0.99-0.938 2-0.99 0.33-1.98 0.66-3 1-0.289 0.578-0.578 1.15-0.875 1.75-2.24 4.48-6.37 7.47-10.1 10.7-2.5 2.15-4.67 4.26-6.69 6.88-2.39 2.78-3.78 3.85-7.31 4.69-0.99-0.33-1.98-0.66-3-1 1.38-2 1.38-2 3-4h2v-9c1.64-0.588 1.64-0.588 3.31-1.19 3.65-1.55 4.9-3.23 6.69-6.81 2.92-3.45 6.57-5.45 10.8-7.06 2.41-0.717 2.41-0.717 3.25-2.94h2c1.69-1.64 3.35-3.31 5-5 0.99-0.66 1.98-1.32 3-2 0.148-0.63 0.296-1.26 0.449-1.91 0.744-2.82 2.11-3.72 4.36-5.53 3.17-2.63 5.64-5.33 8.19-8.56h2c0.33-1.98 0.66-3.96 1-6h3c0.33-2.64 0.66-5.28 1-8 0.99-0.33 1.98-0.66 3-1 0.33-2.31 0.66-4.62 1-7 0.652-0.242 1.3-0.485 1.98-0.734 5.14-1.97 9.5-4.09 14-7.27 1.49-0.824 2.99-1.64 4.5-2.44 7.34-4.04 7.34-4.04 11.9-10.9 0.206-0.887 0.413-1.77 0.625-2.69 0.681-0.0412 1.36-0.0825 2.06-0.125 5.48-1.63 8.99-5.33 11.9-10.1 0.3-0.579 0.601-1.16 0.91-1.75 3.28-6 7.21-12.3 13.1-16h2c0.66-1.32 1.32-2.64 2-4h4c0.34-1.11 0.34-1.11 0.688-2.25 1.58-3.31 3.38-4.59 6.31-6.75 2.75-2.58 4.95-5.24 7.12-8.31 3.37-4.44 7.16-7.29 11.8-10.3 2.16-1.25 2.16-1.25 3.04-3.41z" fill="#080"/>
<path transform="translate(554 749)" d="m0 0c0.882-0.00258 1.76-0.00516 2.67-0.00781 0.924 0.00773 1.85 0.0155 2.8 0.0234 0.92-0.00773 1.84-0.0155 2.79-0.0234 1.33 0.00387 1.33 0.00387 2.68 0.00781 1.21 0.00338 1.21 0.00338 2.45 0.00684 2.14 0.259 2.14 0.259 5.14 2.26 1.28 0.268 2.56 0.536 3.88 0.812 4.21 0.955 6.33 2.87 9.12 6.19-1 2-1 2-3 2.69-0.66 0.103-1.32 0.206-2 0.312l-1-1c-10.6-0.542-20.8 0.191-31 3-2.1 0.548-4.21 1.09-6.31 1.62-1.51 0.391-1.51 0.391-3.05 0.789-2.64 0.586-2.64 0.586-5.64 0.586-0.433 1.21-0.433 1.21-0.875 2.44-1.12 2.56-1.12 2.56-3.12 3.56-0.33 0.99-0.66 1.98-1 3-1.32 0.372-2.66 0.706-4 1-1.22 2.43-1.32 4.42-1.56 7.12-0.0838 0.91-0.168 1.82-0.254 2.76-0.0606 0.699-0.121 1.4-0.184 2.12h-2c0.153 9.55 1.6 16.6 6 25 0.509 1.33 0.509 1.33 1.03 2.69 0.85 2.47 0.85 2.47 3.1 4.25 1.88 2.06 1.88 2.06 2.12 5.31-0.0825 0.908-0.165 1.82-0.25 2.75 1.32 0.33 2.64 0.66 4 1 0.0374 0.626 0.0748 1.25 0.113 1.9 0.0657 0.817 0.131 1.63 0.199 2.48 0.058 0.812 0.116 1.62 0.176 2.46 0.342 2.54 0.342 2.54 3.51 4.16v3c-1.98 0.495-1.98 0.495-4 1-0.247-0.619-0.495-1.24-0.75-1.88-1.51-2.56-2.58-2.91-5.25-4.12-4.39-2.89-6.82-6.42-9.59-10.8-1.11-1.74-2.31-3.43-3.54-5.09-4.78-7.96-6.25-15-6.31-24.2-0.00999-0.835-0.02-1.67-0.0303-2.53 0.0788-5.72 0.824-11.2 3.47-16.3 0.99-0.66 1.98-1.32 3-2 0.342-1.67 0.674-3.33 1-5 1.44-1.56 1.44-1.56 3-3 0.289-0.619 0.577-1.24 0.875-1.88 1.58-2.99 3.57-4.93 6.12-7.12h4c0.247-0.639 0.495-1.28 0.75-1.94 1.25-2.06 1.25-2.06 3.38-2.81 0.619-0.0825 1.24-0.165 1.88-0.25v-2c0.626-0.121 1.25-0.242 1.9-0.367 0.817-0.168 1.63-0.335 2.48-0.508 0.812-0.162 1.62-0.325 2.46-0.492 3.68-1.08 4.46-2.89 8.63-2.9zm-39.5 32.3 1 3z" fill="#080"/>
<path transform="translate(1379,1227)" d="m0 0c0.99 0.495 0.99 0.495 2 1 0.188 2.38 0.188 2.38 0 5-0.99 0.66-1.98 1.32-3 2-0.674 1.66-1.34 3.33-2 5-1.32 1.68-2.66 3.34-4 5-1.85 2.97-3.55 6-5 9.19-1.3 2.35-3.1 3.92-5 5.81-1.43 2.21-2.71 4.46-3.97 6.77-1.76 3.17-3.43 5.73-6.03 8.23-0.681 1.05-1.36 2.1-2.06 3.19-0.959 1.39-0.959 1.39-1.94 2.81h-2v2h-2c-0.259 0.726-0.518 1.45-0.785 2.2-1.26 2.9-2.72 5.11-4.65 7.61-0.597 0.79-1.19 1.58-1.81 2.39-0.579 0.592-1.16 1.18-1.75 1.79h-3c-0.289 0.763-0.578 1.53-0.875 2.31-1.12 2.69-1.12 2.69-3.12 5.69-2.62 0.688-2.62 0.688-5 1-0.227 0.949-0.454 1.9-0.688 2.88-0.433 1.03-0.866 2.06-1.31 3.12-1.66 0.674-3.33 1.34-5 2-1.38 1.74-2.55 3.53-3.69 5.44-1.64 1.96-2.87 2.01-5.31 2.56-1.12 2.34-1.12 2.34-2 5-2.02 3.22-3.67 4.33-7 6l-2.44 2.44c-2.42 2.42-4.64 3.84-7.56 5.56l-4 4h-2c-0.227 0.619-0.454 1.24-0.688 1.88-1.31 2.12-1.31 2.12-6.31 4.12 0.33-3.63 0.66-7.26 1-11h3v-3c1.48-0.495 1.48-0.495 3-1 0.66 0.33 1.32 0.66 2 1v-5c2.38-0.625 2.38-0.625 5-1l2 2c6.99-3.13 8.48-8.11 11.3-15 1.88-3.37 3.34-4.28 6.7-6.03 1.01-1.66 2.01-3.33 3-5 0.66-0.289 1.32-0.578 2-0.875 2.4-1.06 2.4-1.06 3.19-4.56 1.81-3.56 1.81-3.56 4-4.69 2.26-0.734 4.49-1.36 6.81-1.88v-2c6.75-4 6.75-4 9-4-0.00902-0.678-0.018-1.36-0.0273-2.05 0.255-7.99 2.72-13 8.03-18.9 0.66-0.33 1.32-0.66 2-1 0.247-0.66 0.495-1.32 0.75-2 0.412-0.66 0.825-1.32 1.25-2 3-0.688 3-0.688 6-1 0.66-0.33 1.32-0.66 2-1 0.262-2 0.519-3.99 0.73-5.99 0.323-2.4 0.794-4.07 2.27-6.01 1.33-0.333 2.67-0.667 4-1 1.89-2.78 2.55-5.69 3-9l-1-1c-0.0408-2-0.0425-4 0-6 2.78-1.23 5.17-2.03 8.19-2.5 2.94-0.246 2.94-0.246 4.81-2.5z" fill="#080"/>
<path transform="translate(409,292)" d="m0 0h12v3c2.97-0.495 2.97-0.495 6-1v5c-1.65 0.33-3.3 0.66-5 1v2c-0.969 0.289-1.94 0.577-2.94 0.875-3.17 0.767-3.17 0.767-4.06 3.12-2.28 1.12-4.61 2.05-6.97 3-2.2 0.827-2.2 0.827-3.03 3-1.39 0.659-2.81 1.25-4.25 1.81-4.16 1.75-6.63 3.89-9.75 7.19-2.31 0.812-2.31 0.812-4 1v2c-0.959 0.433-0.959 0.433-1.94 0.875-2.21 0.953-2.21 0.953-3.06 3.12-2.28 1.33-4.62 2.5-6.97 3.68-2.35 1.22-2.35 1.22-3.03 4.32-0.908 0.598-1.82 1.2-2.75 1.81-2.7 1.82-4.06 2.99-6 5.44-1.11 1.36-1.11 1.36-2.25 2.75h-2v2c-0.619 0.248-1.24 0.495-1.88 0.75-2.28 1.07-2.28 1.07-3.12 3.31-0.33 0.639-0.66 1.28-1 1.94-1.33 0.333-2.67 0.667-4 1-1.18 1.87-1.18 1.87-2 4-0.66 0.99-1.32 1.98-2 3-1.32-0.33-2.64-0.66-4-1-0.495-2.48-0.495-2.48-1-5h5c0.227-1.05 0.454-2.1 0.688-3.19 1.16-4.03 3.2-5.98 6.31-8.81 3.25-3.55 6.24-7.27 9.12-11.1 0.501-0.668 1-1.34 1.52-2.02 1.1-1.5 2.14-3.05 3.17-4.6 2.32-2.39 3.68-2.89 6.75-4 3.51-1.35 3.51-1.35 5.44-4.43 0.409-1.61 0.806-3.22 1.19-4.84 0.266-0.655 0.531-1.31 0.805-1.98 3.5-1.38 3.5-1.38 7-2 0.536-0.536 1.07-1.07 1.62-1.62 1.38-1.38 1.38-1.38 4.06-1.56 0.763 0.0619 1.53 0.124 2.31 0.188v-3c2.97-0.66 5.94-1.32 9-2v-7h5v-2z" fill="#080"/>
<path transform="translate(1077 660)" d="m0 0c0.557 0.268 1.11 0.536 1.69 0.812v7h-2c-0.371 1.11-0.371 1.11-0.75 2.25-1.35 2.98-2.76 4.65-5.25 6.75h-2c-0.0928 0.897-0.0928 0.897-0.188 1.81-0.812 2.19-0.812 2.19-3.11 3.5-3.91 2.44-6.05 5.83-8.74 9.5-2.1 2.33-2.98 2.65-5.96 3.18-0.699 1.32-1.37 2.65-2 4-1.48 0.495-1.48 0.495-3 1-1.21 2-1.21 2-2 4h-2c-0.33 0.99-0.66 1.98-1 3-1.95 1.84-4.01 3.49-6.09 5.18-1.94 1.85-2.76 3.43-3.91 5.82-0.66 0.144-1.32 0.289-2 0.438-0.66 0.186-1.32 0.371-2 0.562-0.268 0.742-0.536 1.49-0.812 2.25-1.49 3.45-3.34 4.55-6.43 6.54-1.82 1.17-1.82 1.17-3.35 2.86-1.4 1.35-1.4 1.35-3.4 1.35-0.0928 0.866-0.0928 0.866-0.188 1.75-1.15 3.17-3.07 4.38-5.81 6.25h-2c-0.33 1.32-0.66 2.64-1 4h-2c-0.33 0.99-0.66 1.98-1 3-1.49 0.99-1.49 0.99-3 2-0.33 0.99-0.66 1.98-1 3-1.14 0.681-1.14 0.681-2.31 1.38-2.84 1.5-2.84 1.5-4.75 4.25-2.02 2.48-2.83 3.04-5.94 3.38v2c-1.49 0.495-1.49 0.495-3 1 0.42-4.9 2.53-6.69 6-10 0.495-0.825 0.99-1.65 1.5-2.5 1.78-2.97 4.02-5.09 6.5-7.5 0.495-0.99 0.495-0.99 1-2 1.49-0.495 1.49-0.495 3-1 0.674-1.66 1.34-3.33 2-5 1.31-1.35 2.65-2.69 4-4 1.24-2.13 1.24-2.13 2-4h2v-4c0.557-0.227 1.11-0.454 1.69-0.688 2.51-1.27 2.51-1.27 4.69-3.81 2.86-2.72 4.96-3.28 8.62-4.5 1.07-1.8 1.07-1.8 2-4 1.86-2.15 3.8-4.2 6-6h2v-5c0.699-0.098 1.4-0.196 2.12-0.297 0.91-0.15 1.82-0.299 2.76-0.453 0.905-0.139 1.81-0.278 2.74-0.422 2.51-0.588 2.51-0.588 3.52-2.68 0.286-0.709 0.572-1.42 0.867-2.15 0.962-1.24 1.96-2.45 3-3.62 0.516-0.59 1.03-1.18 1.56-1.79 2.19-2.41 3.27-3.53 6.44-4.59 0.66-0.825 1.32-1.65 2-2.5 2-2.5 2-2.5 5-3.5 0.733-2.02 0.733-2.02 1-4h3c-0.227-0.557-0.454-1.11-0.688-1.69-0.452-3.35 0.717-4.62 2.69-7.31 4.29-5.06 4.29-5.06 7.31-4.81z" fill="#080"/>
<path transform="translate(810,799)" d="m0 0c1.32 0.99 2.64 1.98 4 3-0.33 0.66-0.66 1.32-1 2l2 1c-0.814 0.489-0.814 0.489-1.64 0.988-0.715 0.437-1.43 0.874-2.17 1.32-0.708 0.429-1.42 0.859-2.14 1.3-3.13 2.12-4.94 4.23-7.04 7.39-1.49-0.495-1.49-0.495-3-1-0.0825 0.742-0.165 1.49-0.25 2.25-0.898 3.29-2.13 4.61-4.75 6.75h-2v3c-0.66 0.33-1.32 0.66-2 1-0.652 2.02-0.652 2.02-1 4-1.65-0.33-3.3-0.66-5-1-0.557 0.887-1.11 1.77-1.69 2.69-1.54 2.34-2.95 3.93-5 5.94-2.22 2.28-2.97 3.28-3.31 6.38h-4c-0.33 0.99-0.66 1.98-1 3-0.99 0.33-1.98 0.66-3 1v2c-1.71 1.57-3.53 2.95-5.37 4.37-1.87 1.88-2.06 3.11-2.63 5.63-0.763 0.289-1.53 0.577-2.31 0.875-3.62 1.52-4.64 3.87-6.69 7.12h-2v2h-2c-0.33 0.99-0.66 1.98-1 3-0.866 0.536-1.73 1.07-2.62 1.62-5.94 3.72-10 9.88-12.4 16.4-2.66 0.392-4.39 0.406-6.67-1.11-1.48-1.25-2.91-2.57-4.33-3.89 2-2 2-2 4.37-2.88 2.95-1.26 4.49-2.68 6.69-4.99 0.651-0.678 1.3-1.36 1.97-2.05 1.37-1.44 2.73-2.88 4.09-4.33 1.88-1.74 1.88-1.74 3.88-1.74 0.227-0.743 0.454-1.49 0.688-2.25 1.59-3.33 3.37-4.56 6.31-6.75 2.48-2.35 4.74-4.66 6.81-7.38 2.51-3.02 5.33-5.39 8.31-7.94 2.01-1.72 2.01-1.72 3.88-4.19 2.4-3 5.14-5.31 8.05-7.8 2.44-2.12 4.7-4.38 6.95-6.7 5-5 5-5 7.44-7.38 1.97-2.02 3.76-4.03 5.56-6.19 1.75-2.07 3.3-3.67 5.44-5.38 3.09-2.48 5.47-5.32 8.01-8.36 1.55-1.71 1.55-1.71 3.55-2.71z" fill="#080"/>
<path transform="translate(1359,636)" d="m0 0c0.99 0.33 1.98 0.66 3 1v2h2c0.164 1.01 0.164 1.01 0.332 2.05 0.159 0.892 0.317 1.78 0.48 2.7 0.151 0.882 0.302 1.76 0.457 2.67 0.793 2.8 1.97 4.3 3.73 6.58 0.66 2.04 0.66 2.04 1.06 4.19 0.649 3.43 0.649 3.43 1.54 6.8 2.43 8.36 2.34 19-0.789 27.1-1.16 2.09-2.35 4.01-3.81 5.9-0.99-0.33-1.98-0.66-3-1-1.59-4.77-2.13-9.13-2.25-14.2-0.0329-1.19-0.0657-2.38-0.0996-3.6-0.0604-2.46-0.118-4.93-0.172-7.39-0.202-7.09-0.804-13.9-2.05-20.9-0.677-4.65-0.599-9.26-0.43-14z" fill="#080"/>
<path transform="translate(138,766)" d="m0 0h1c3.01 15.3 3.01 15.3 3.81 21.5 0.133 1.04 0.133 1.04 0.27 2.09-0.082 2.41-0.082 2.41-1.07 5.74-1.89 7.07-1.08 14.6-0.891 21.8 0.0485 1.99 0.0776 3.98 0.106 5.96 0.0284 1.17 0.0569 2.35 0.0862 3.56-0.346 3.71-1.46 6.11-3.31 9.31-1.32-0.33-2.64-0.66-4-1v-57c0.99 1.49 0.99 1.49 2 3 0.66-4.95 1.32-9.9 2-15z" fill="#080"/>
<path transform="translate(332 371)" d="m0 0c1.24 0.681 1.24 0.681 2.5 1.38v2c-0.99 0.66-1.98 1.32-3 2-1.21 1.95-1.21 1.95-2.19 4.12-0.344 0.724-0.688 1.45-1.04 2.2-0.381 0.831-0.381 0.831-0.77 1.68h-2v2c-0.99 0.66-1.98 1.32-3 2-0.309 0.784-0.619 1.57-0.938 2.38-1.06 2.62-1.06 2.62-2.91 4.45-2.35 2.37-3.96 4.78-5.72 7.61-0.579 0.927-1.16 1.85-1.75 2.81-1.12 1.83-2.21 3.68-3.27 5.54-1.41 2.21-1.41 2.21-3.41 3.21-2.26-5.36-3.36-9.2-3-15 0.928-0.206 1.86-0.413 2.81-0.625 3.36-1.12 3.36-1.12 5.06-4.06 1.34-3.31 1.34-3.31 1-7 0.0412-1.09 0.0825-2.19 0.125-3.31 2.19-1.62 2.19-1.62 5-3l2.31-2.31c8.99-8.99 8.99-8.99 14.2-8.06z" fill="#080"/>
<path transform="translate(971,772)" d="m0 0c0.812 1.69 0.812 1.69 1 4-2.38 2.62-2.38 2.62-5 5-0.33 0.66-0.66 1.32-1 2-1.33 0.667-2.67 1.33-4 2-0.33 0.66-0.66 1.32-1 2h-2c-0.268 0.639-0.536 1.28-0.812 1.94-1.19 2.06-1.19 2.06-4.19 3.06-0.144 0.639-0.289 1.28-0.438 1.94-0.278 1.02-0.278 1.02-0.562 2.06-1.33 0.667-2.67 1.33-4 2-1.19 1.42-2.37 2.84-3.51 4.29-2.29 2.63-4.97 4.78-7.63 7.04-2.24 2.02-4.02 4.29-5.86 6.67-0.99 0.66-1.98 1.32-3 2-0.402 0.897-0.402 0.897-0.812 1.81-1.78 3.28-4.2 4.95-7.19 7.19h-2c-0.268 0.639-0.536 1.28-0.812 1.94-1.19 2.06-1.19 2.06-4.19 3.06-0.33 0.99-0.66 1.98-1 3h-4c-0.33-1.98-0.66-3.96-1-6 1.11-0.392 2.23-0.784 3.38-1.19 3.19-1.32 3.19-1.32 4.81-4.44 0.268-0.784 0.536-1.57 0.812-2.38 0.619-0.144 1.24-0.289 1.88-0.438 2.49-0.407 2.49-0.407 4.06-3.5 2.24-3.33 3.3-4 7.06-5.06 1.49-0.495 1.49-0.495 3-1 0.33-1.65 0.66-3.3 1-5h2v-3c0.959-0.34 0.959-0.34 1.94-0.688 2.33-1.17 2.33-1.17 2.81-3.94 0.0825-0.784 0.165-1.57 0.25-2.38 0.619-0.124 1.24-0.247 1.88-0.375 2.32-0.497 2.32-0.497 4.12-2.62 0.643-2.07 0.643-2.07 1-4h5c0.268-0.742 0.536-1.49 0.812-2.25 2.23-5.16 4.05-6.7 9.19-8.75 0.495-0.66 0.99-1.32 1.5-2 1.87-2.49 3.59-3.06 6.5-4z" fill="#080"/>
<path transform="translate(1175,191)" d="m0 0c5.08 1.56 9.45 3.23 14 6 2.5 1.05 5.03 2.03 7.55 3.02 8.07 3.22 8.07 3.22 9.45 5.98 1.33 0.347 2.66 0.676 4 1 2.41 1.04 4.76 2.11 7.12 3.25 0.633 0.287 1.27 0.575 1.92 0.871 3.12 1.52 4.76 2.49 6.39 5.61 0.188 0.748 0.376 1.5 0.57 2.27-3.28 1.05-4.74 1.1-8.01-0.145-1.03-0.55-2.06-1.1-3.12-1.67-1.03-0.543-2.07-1.09-3.13-1.64-2.74-1.54-2.74-1.54-5.74-3.54-0.949 0.0412-1.9 0.0825-2.88 0.125-3.97-0.159-5.19-1.57-8.12-4.12-3.26-1.32-5.63-0.842-9 0-0.701-1.09-1.4-2.19-2.12-3.31-2-2.85-2.89-3.69-6.12-5.31-2.75-1.38-2.75-1.38-3.69-3.94-0.0625-2.44-0.0625-2.44 0.938-4.44z" fill="#008700"/>
<path transform="translate(1415,1151)" d="m0 0c-0.114 1.63-0.242 3.25-0.375 4.88-0.0696 0.905-0.139 1.81-0.211 2.74-0.414 2.38-0.414 2.38-2.41 4.38-0.499 1.66-0.991 3.33-1.43 5-0.781 2.75-1.81 5.39-2.84 8.06-0.989 2.62-1.87 5.27-2.73 7.93h-2c-0.124 1.13-0.247 2.27-0.375 3.44-0.206 1.18-0.412 2.35-0.625 3.56-0.99 0.495-0.99 0.495-2 1-0.407 2.32-0.744 4.66-1 7-1.48 0.495-1.48 0.495-3 1-0.733 2.02-0.733 2.02-1 4h-1c-0.33-2.97-0.66-5.94-1-9-0.99-0.33-1.98-0.66-3-1-0.495-1.48-0.495-1.48-1-3 2-3 2-3 4.94-3.88 3.75-1.38 4.16-2.75 6.06-6.12 2.09-0.652 2.09-0.652 4-1 0.0735-1.19 0.0735-1.19 0.148-2.41 0.39-5.53 0.881-10.4 2.85-15.6 0.481-2.34 0.927-4.69 1.34-7.05 1.18-3.49 3.21-3.95 6.66-3.95z" fill="#080"/>
<path transform="translate(411 1390)" d="m0 0c1.88 2.57 3.61 5.23 5.38 7.88 0.979 1.02 1.98 2.02 3 3 1.35 1.66 2.68 3.32 4 5h-6v-2c-2.31-0.33-4.62-0.66-7-1-0.33-0.99-0.66-1.98-1-3-0.626-0.0258-1.25-0.0516-1.9-0.0781-1.23-0.0851-1.23-0.0851-2.48-0.172-1.22-0.0696-1.22-0.0696-2.46-0.141-2.16-0.609-2.16-0.609-3.3-2.61-0.284-0.659-0.567-1.32-0.859-2-2.39-0.761-2.39-0.761-5-1-1.34-0.325-2.67-0.655-4-1v-3c2.21-0.169 4.42-0.335 6.62-0.5 1.23-0.0928 2.46-0.186 3.73-0.281 9.17-0.55 9.17-0.55 11.3 0.906z" fill="#080"/>
<path transform="translate(1352,1020)" d="m0 0c1.28 4.05 0.712 7.42 0.156 11.6-0.158 2.46 0.202 4.09 0.844 6.44 0.0893 1.54 0.13 3.08 0.125 4.62 0.00258 0.776 0.00516 1.55 0.00781 2.35-0.133 2.02-0.133 2.02-1.13 4.02-0.228 1.87-0.41 3.75-0.562 5.62-0.0838 1-0.168 2.01-0.254 3.04-0.0606 0.771-0.121 1.54-0.184 2.34-2.31 0.688-2.31 0.688-5 1-1.79-1.12-1.79-1.12-3-3-0.363-2.41-0.363-2.41-0.312-5.06 0.00387-0.878 0.00773-1.76 0.0117-2.66 0.301-2.28 0.301-2.28 2.3-4.28 0.58-2.71 0.58-2.71 0.938-5.88 0.912-6.45 1.93-12.9 4.06-19.1 0.66-0.33 1.32-0.66 2-1z" fill="#080"/>
<path transform="translate(492,1329)" d="m0 0c13 2.79 13 2.79 18.8 5.18 4.05 1.52 8.26 2.59 12.4 3.75 2.76 1.06 2.76 1.06 4.76 4.06 2.05 1.19 2.05 1.19 4 2-0.66 0.99-1.32 1.98-2 3-1.65-0.33-3.3-0.66-5-1v-2c-3.33-1.11-6.42-0.961-9.89-0.902-3.25-0.151-6.03-1.07-9.11-2.1v-2c-0.959-0.433-0.959-0.433-1.94-0.875-2.06-1.12-2.06-1.12-3.06-3.12h4c-2.97-0.495-2.97-0.495-6-1-0.33 0.66-0.66 1.32-1 2-0.33-0.33-0.66-0.66-1-1-0.99 1.48-0.99 1.48-2 3h-4c-0.625-2.81-0.625-2.81-1-6 0.66-0.99 1.32-1.98 2-3z" fill="#080"/>
<path transform="translate(293,429)" d="m0 0c0.99 0.66 1.98 1.32 3 2-0.422 0.82-0.843 1.64-1.28 2.48-0.548 1.08-1.1 2.16-1.66 3.27-0.545 1.07-1.09 2.13-1.65 3.23-1.45 2.82-1.45 2.82-1.91 5.28-0.496 1.73-0.496 1.73-3.5 3.73-0.945 2.58-0.945 2.58-1.56 5.5-1.23 5.3-1.23 5.3-3.44 7.5-0.714 1.98-1.39 3.98-2 6-2.75-2.37-3.71-4.65-5-8l-2-2c0.577-0.28 1.15-0.559 1.75-0.848 2.3-1.24 4.29-2.43 6.25-4.15 0.5-3.46 0.5-3.46 0-7 0.562-3.31 0.562-3.31 2-6 2.32-0.705 4.66-1.37 7-2 1.42-2.33 1.42-2.33 2-5 0.652-1.34 1.31-2.68 2-4z" fill="#080"/>
<path transform="translate(141,634)" d="m0 0h2c2.16 3.25 2.2 4.27 2 8 0 1.05 0.018 2.1 0.0352 3.14 0.0135 1.32 0.0135 1.32 0.0273 2.67 0.0116 0.873 0.0232 1.75 0.0352 2.64-0.0977 2.54-0.0977 2.54-0.664 4.8-0.143 0.574-0.286 1.15-0.434 1.74 0.33 0.33 0.66 0.66 1 1 0.314 1.76 0.552 3.54 0.75 5.31 0.119 0.966 0.237 1.93 0.359 2.93-0.13 3.29-0.98 4.33-3.11 6.76-0.712 1.65-1.39 3.31-2 5-1.32-0.99-2.64-1.98-4-3 0.144-0.804 0.289-1.61 0.438-2.44 1.53-9.67 1.87-19.3 2.17-29 0.0374-1.08 0.0748-2.17 0.113-3.29 0.0454-1.48 0.0454-1.48 0.0918-2.98 0.189-2.27 0.189-2.27 1.19-3.27zm-1 26 1 3z" fill="#080"/>
<path transform="translate(1379,366)" d="m0 0c2.45 3.05 4.17 6.17 5.88 9.69 1.87 3.8 3.76 7.55 5.81 11.2 0.397 0.715 0.794 1.43 1.2 2.17 1.18 2.08 1.18 2.08 3.05 4.64 1.06 2.25 1.06 2.25 0.438 5-1.38 2.25-1.38 2.25-4.38 3.25-0.124-0.804-0.247-1.61-0.375-2.44-0.206-0.846-0.412-1.69-0.625-2.56-0.66-0.33-1.32-0.66-2-1v-5h-3c-0.412-1.22-0.825-2.43-1.25-3.69-1.73-4.63-4.27-7.83-7.75-11.3 0.388-3.59 1.59-6.7 3-10z" fill="#080"/>
<path transform="translate(1215,1380)" d="m0 0c6.93 0.495 6.93 0.495 14 1v2c-1.73 0.866-1.73 0.866-3.5 1.75-0.731 0.366-1.46 0.732-2.21 1.11-1.45 0.723-2.9 1.44-4.35 2.16-3.27 1.61-6.44 3.27-9.56 5.17-3.27 1.76-5.71 2.45-9.38 2.81-0.33 0.99-0.66 1.98-1 3-1.32-0.33-2.64-0.66-4-1-1.12-3.75-1.12-3.75 0-6-1.32-0.33-2.64-0.66-4-1 3.86-1.29 7.27-1.03 11.3-0.938 3.45-0.0675 3.45-0.0675 6.69-1.06 1.78-2.06 1.78-2.06 3.25-4.56 0.908-1.46 1.82-2.93 2.75-4.44z" fill="#080"/>
<path transform="translate(151,578)" d="m0 0c1.56 1.5 1.56 1.5 3 4-0.0318 2.77-0.496 5.25-1 8h2c-0.622 2.54-1.25 5.08-1.88 7.62-0.174 0.713-0.348 1.43-0.527 2.16-1.03 4.14-2.19 8.18-3.6 12.2h-2c-0.33-0.66-0.66-1.32-1-2-0.66-0.33-1.32-0.66-2-1 0.33-0.33 0.66-0.66 1-1 0.238-3.49 0.395-6.98 0.518-10.5 0.208-4.53 0.874-8.23 2.48-12.5 0.165-1.09 0.33-2.19 0.5-3.31 0.165-0.887 0.33-1.77 0.5-2.69 0.66-0.33 1.32-0.66 2-1z" fill="#080"/>
<path transform="translate(385,1277)" d="m0 0c4.84 1.21 7.94 3.33 11.8 6.34 4.66 3.48 9.69 6.82 15.2 8.66-1.02 3.05-1.72 3.9-4 6-0.66 0.66-1.32 1.32-2 2-2.44-0.75-2.44-0.75-5-2-0.688-2-0.688-2-1-4-0.66-0.66-1.32-1.32-2-2v-2c-0.603-0.147-1.21-0.294-1.83-0.445-4.36-1.22-6.69-2-9.73-5.49-1.44-3.06-1.44-3.06-1.44-7.06z" fill="#080"/>
<path transform="translate(139,929)" d="m0 0h5c0.0271 2.23 0.0465 4.46 0.0625 6.69 0.0116 1.24 0.0232 2.48 0.0352 3.76-0.0829 3.01-0.389 5.63-1.1 8.55h2c1.5 6 1.5 12 0 18-1.94-0.312-1.94-0.312-4-1-1.18-3.54-1.23-6.82-1.32-10.5-0.0208-0.728-0.0416-1.46-0.063-2.21-0.0653-2.32-0.124-4.65-0.183-6.97-0.0432-1.58-0.0868-3.15-0.131-4.73-0.107-3.86-0.208-7.72-0.307-11.6z" fill="#080"/>
<path transform="translate(1464,719)" d="m0 0h1v162h-1v-162z" fill="#000100"/>
<path transform="translate(1268,1354)" d="m0 0c-1.34 5.2-4.62 7.34-9 10-2.34 1.33-4.7 2.63-7.08 3.89-2.06 1.09-2.06 1.09-3.92 3.11-1.21 0.464-1.21 0.464-2.44 0.938-2.53 1.05-3.79 2.01-5.56 4.06l-2-2c1.32-0.66 2.64-1.32 4-2v-2c2.54-1.55 5.17-2.9 7.81-4.27 0.722-0.571 1.44-1.14 2.19-1.73 0.25-2.55 0.25-2.55 0-5 0.66-0.66 1.32-1.32 2-2 0.681-0.722 1.36-1.44 2.06-2.19 4.15-2.56 7.3-1.74 11.9-0.812z" fill="#080"/>
<path transform="translate(1145,184)" d="m0 0c3.68 0.6 7.35 1.25 11 2v-1c5.66 0.365 10 1.06 15 4v4c-2.06 1.19-2.06 1.19-5 2-2.55-0.721-4.62-1.79-7-3v-2c-0.566 0.335-1.13 0.67-1.71 1.02-2.62 1.13-4.05 1.09-6.85 0.734-1.15-0.131-1.15-0.131-2.32-0.266-2.12-0.484-2.12-0.484-5.12-2.48h6c-0.99-0.33-1.98-0.66-3-1-0.688-2.06-0.688-2.06-1-4z" fill="#008700"/>
<path transform="translate(1335,1085)" d="m0 0h2c0.087 3.6 0.14 7.21 0.188 10.8 0.0377 1.54 0.0377 1.54 0.0762 3.1 0.0145 1.47 0.0145 1.47 0.0293 2.98 0.0236 1.36 0.0236 1.36 0.0476 2.75-0.412 2.86-1.19 3.52-3.34 5.36-1.36 1.98-2.7 3.98-4 6-2.17-1.72-2.94-2.59-3.38-5.38 0.375-2.62 0.375-2.62 1.75-4.88 2.2-3.73 2.84-7.52 3.62-11.8h2c-0.0206-1.3-0.0412-2.6-0.0625-3.94-0.0215-1.35-0.00898-2.71 0.0625-4.06l1-1z" fill="#080"/>
<path transform="translate(532,1426)" d="m0 0c1.5 1.06 1.5 1.06 3 3-0.0206 1.15-0.0412 2.31-0.0625 3.5 0.0206 1.15 0.0412 2.31 0.0625 3.5 1.9 1.84 1.9 1.84 4 3v2c-3.99 1.33-6.01 0.197-10-1-1.24-0.165-2.48-0.33-3.75-0.5-3.25-0.5-3.25-0.5-6.25-2.5v-2c4.46-0.495 4.46-0.495 9-1l-1-2c0.938-2.12 0.938-2.12 2-4h3v-2z" fill="#080"/>
<path transform="translate(1364,904)" d="m0 0h3c3.1 7.56 2.58 14.4 0 22h-2c-0.33 0.66-0.66 1.32-1 2-0.33-1.32-0.66-2.64-1-4h-1c-0.369-13.6-0.369-13.6 2-20zm0 1 1 2z" fill="#080"/>
<path transform="translate(645 1446)" d="m0 0c1.05 0.588 1.05 0.588 2.12 1.19-0.495 0.33-0.99 0.66-1.5 1-2.38 3.18-1.69 6.1-1.5 10-1.58 0.0815-3.17 0.139-4.75 0.188-0.882 0.0348-1.76 0.0696-2.67 0.105-3.02-0.344-4.33-1.3-6.58-3.29 0.804-0.227 1.61-0.454 2.44-0.688 0.846-0.433 1.69-0.866 2.56-1.31 0.144-0.804 0.289-1.61 0.438-2.44 0.562-2.56 0.562-2.56 3.31-4.5 3.25-1.06 3.25-1.06 6.12-0.25z" fill="#080"/>
<path transform="translate(172,475)" d="m0 0c2.06 0.438 2.06 0.438 4 1 0.206 5.66 0.321 11.7-2 17-2.08 1.26-2.08 1.26-4 2-2-2-2-2-2.25-5.5 0.25-3.5 0.25-3.5 2.25-5.5 0.421-1.94 0.421-1.94 0.562-4.06 0.438-3.94 0.438-3.94 1.44-4.94zm0 1 1 2z" fill="#080"/>
<path transform="translate(1209,320)" d="m0 0c6.82 1.17 10.1 3.11 15 8 1.97 1.06 3.97 2.07 6 3 0.99 0.66 1.98 1.32 3 2h2v6h2v2c-1.65-0.66-3.3-1.32-5-2v-2h-2v-2c-1.65-0.66-3.3-1.32-5-2v-2c-0.835-0.155-0.835-0.155-1.69-0.312-2.79-0.829-4.93-2.03-7.31-3.69v-2c-0.99-0.33-1.98-0.66-3-1v-2c-1.32-0.33-2.64-0.66-4-1v-1z" fill="#080"/>
<path transform="translate(202,398)" d="m0 0c2.62 0.375 2.62 0.375 5 1v9c-1.45 0.619-1.45 0.619-2.94 1.25-3.19 1.4-3.19 1.4-3.94 3.94-0.0412 0.598-0.0825 1.2-0.125 1.81h-3c-0.625-2.38-0.625-2.38-1-5 0.66-0.66 1.32-1.32 2-2 0.601-1.9 0.601-1.9 1-4 0.607-2.95 0.799-3.8 3-6z" fill="#080"/>
<path transform="translate(1315,1143)" d="m0 0c0.33 0.66 0.66 1.32 1 2h2c0.33-0.66 0.66-1.32 1-2 0.75 1.69 0.75 1.69 1 4-1.81 2.75-1.81 2.75-4 5h-2c-0.33 1.98-0.66 3.96-1 6h-2c0.0619 0.908 0.124 1.82 0.188 2.75-0.204 3.54-0.833 4.7-3.19 7.25-1.32-0.66-2.64-1.32-4-2 0.338-0.508 0.675-1.02 1.02-1.54 2.65-4.1 4.54-7.77 5.98-12.5 1.28-3.02 2.63-6.01 4-9z" fill="#008700"/>
<path transform="translate(1341,1061)" d="m0 0c0.99 0.33 1.98 0.66 3 1-0.33 0.66-0.66 1.32-1 2h2c0.362 5.67-0.336 10.9-3 16-0.99 0.33-1.98 0.66-3 1-0.66-0.66-1.32-1.32-2-2 0.324-3.81 0.856-5.78 3-9 0.204-2.02 0.204-2.02 0.0625-4.12-0.0206-1.28-0.0412-2.56-0.0625-3.88l1-1z" fill="#080"/>
<path transform="translate(1027,236)" d="m0 0c2.38 1.38 2.38 1.38 4 3v2h-5c-0.66 1.65-1.32 3.3-2 5h2c-0.33 0.99-0.66 1.98-1 3h-8v-3c1.65-0.66 3.3-1.32 5-2-0.99-2.31-1.98-4.62-3-7 2.81-1.4 4.89-1.25 8-1z" fill="#080"/>
<path transform="translate(222,1229)" d="m0 0c4.75 1.88 4.75 1.88 7 3v10h-4c-1.75-1.75-1.75-1.75-3-4v-4h-2c0.66-1.65 1.32-3.3 2-5z" fill="#080"/>
<path transform="translate(569,1349)" d="m0 0c8.04 0.704 16 1.81 24 3v2h2v2c-5.34 0.348-9.36-0.619-14.4-2.27-3.84-1.1-7.6-1.41-11.6-1.73v-3z" fill="#008B01"/>
<path transform="translate(670,842)" d="m0 0c5.63 2.1 10.1 4.27 13 9.88 0.731 1.68 1.39 3.4 2.03 5.12-4.51-1.38-6.17-3.31-9-7-1.07-0.897-2.15-1.77-3.25-2.62-1.36-1.18-1.36-1.18-2.75-2.38v-3z" fill="#008900"/>
<path transform="translate(982,1445)" d="m0 0c-0.33 1.32-0.66 2.64-1 4-0.699-0.0116-1.4-0.0232-2.12-0.0352-0.91-0.00902-1.82-0.018-2.76-0.0273-0.905-0.0116-1.81-0.0232-2.74-0.0352-2.4-0.0648-2.4-0.0648-4.38 1.1-0.33-0.99-0.66-1.98-1-3 2-3 2-3 5.88-3.81 3.28-0.31 5.36-0.148 8.12 1.81z" fill="#080"/>
<path transform="translate(266,492)" d="m0 0c0.66 0.33 1.32 0.66 2 1-0.33 3.63-0.66 7.26-1 11-0.99-0.33-1.98-0.66-3-1-0.33 2.97-0.66 5.94-1 9-0.66-0.33-1.32-0.66-2-1-0.0819-4.18 0.0944-7.92 1-12v-3c2-2.19 2-2.19 4-4z" fill="#080"/>
<path transform="translate(1324,1120)" d="m0 0c1.32 0.66 2.64 1.32 4 2-0.352 5.46-0.352 5.46-1 8-2.06 1.5-2.06 1.5-4 2-0.66-0.66-1.32-1.32-2-2 0.301-4.14 0.679-6.52 3-10z" fill="#080"/>
<path transform="translate(1298,420)" d="m0 0c3 1 3 1 4 3 0.99 0.33 1.98 0.66 3 1v4c2.97 0.495 2.97 0.495 6 1-0.99 1.98-1.98 3.96-3 6-3-1-3-1-4.82-4.16-0.631-1.3-1.25-2.6-1.86-3.9-0.32-0.663-0.641-1.33-0.971-2.01-0.79-1.64-1.57-3.28-2.34-4.93z" fill="#080"/>
<path transform="translate(266,1098)" d="m0 0c1.12 1.56 1.12 1.56 2 4-0.351 1.13-0.701 2.27-1.06 3.44-1.34 3.53-1.34 3.53 0.438 6.5 0.536 0.681 1.07 1.36 1.62 2.06h-5v-5c-0.66-0.33-1.32-0.66-2-1 0.33-2.97 0.66-5.94 1-9 0.99-0.33 1.98-0.66 3-1z" fill="#080"/>
<path transform="translate(154,550)" d="m0 0h2c0.934 4.36 0.871 7.64 0 12v3c-1.32-0.33-2.64-0.66-4-1-0.0541-1.77-0.0928-3.54-0.125-5.31-0.0232-0.986-0.0464-1.97-0.0703-2.99 0.195-2.7 0.195-2.7 2.2-5.7z" fill="#080"/>
<path transform="translate(1102,266)" d="m0 0c3.38 0.596 6.39 1.44 9.56 2.75 0.855 0.351 1.71 0.701 2.59 1.06 0.94 0.392 1.88 0.784 2.85 1.19 1.64 0.681 1.64 0.681 3.32 1.38 2.9 1.2 5.79 2.41 8.68 3.62v1c-2.38 0.125-2.38 0.125-5 0-0.66-0.66-1.32-1.32-2-2-5.18-2.2-10.4-3.41-16-4v-2c-1.65-0.33-3.3-0.66-5-1 0.33-0.66 0.66-1.32 1-2z" fill="#080"/>
<path transform="translate(1274,380)" d="m0 0c3.38 0.251 4.31 1.31 6.81 3.75 2.19 3.25 2.19 3.25 2 6.12-0.268 0.701-0.536 1.4-0.812 2.12-4.22-1.51-5.86-4.18-8-8v-4z" fill="#080"/>
<path transform="translate(981,238)" d="m0 0c1.44 2.12 1.44 2.12 2 4-4.92 0.167-8.5 0.248-13-2v-3c4.02-1.61 7.09-0.522 11 1z" fill="#080"/>
<path transform="translate(1289,397)" d="m0 0c1.98 0.66 3.96 1.32 6 2l-3 9h-2c-1.32-2.64-2.64-5.28-4-8l3-3z" fill="#080"/>
<path transform="translate(181,452)" d="m0 0c0.99 0.33 1.98 0.66 3 1-0.458 3.47-0.891 6.67-2 10-1.65-0.33-3.3-0.66-5-1 0.565-3.96 1.81-6.67 4-10z" fill="#080"/>
<path transform="translate(1392,1200)" d="m0 0h1c0.625 8.94 0.625 8.94-1.81 13.1-2.19 1.94-2.19 1.94-5.19 2.94v-4h3c0.049-0.615 0.098-1.23 0.148-1.86 0.0748-0.808 0.15-1.62 0.227-2.45 0.104-1.2 0.104-1.2 0.211-2.43 0.414-2.26 0.414-2.26 2.41-5.26z" fill="#080"/>
<path transform="translate(481,271)" d="m0 0c0.99 0.66 1.98 1.32 3 2-6.28 3.38-12.9 5.86-20 7 2.46-3.69 5.03-4.48 9-6 0.704-0.306 1.41-0.611 2.13-0.926 2.12-0.887 2.12-0.887 5.87-2.07z" fill="#080"/>
<path transform="translate(238,1257)" d="m0 0c0.835 1.02 0.835 1.02 1.69 2.06 1.14 0.959 1.14 0.959 2.31 1.94 2.71-0.14 2.71-0.14 5-1v6c-4.83-0.414-6.83-2.46-10-6 0.33-0.99 0.66-1.98 1-3z" fill="#080"/>
<path transform="translate(1449,618)" d="m0 0h2v2h2v12h-4v-14z" fill="#080"/>
<path transform="translate(238,962)" d="m0 0v13c-0.99-0.33-1.98-0.66-3-1-1.18-3.54-1.27-6.28-1-10 3-2 3-2 4-2z" fill="#080"/>
<path transform="translate(362,1259)" d="m0 0c1.17 0.783 2.34 1.58 3.5 2.38 0.975 0.661 0.975 0.661 1.97 1.34 0.505 0.425 1.01 0.851 1.53 1.29v2c0.619 0.103 1.24 0.206 1.88 0.312 2.12 0.688 2.12 0.688 4.12 3.69h-7c-0.33-0.66-0.66-1.32-1-2 0.33-0.66 0.66-1.32 1-2-0.619-0.227-1.24-0.454-1.88-0.688-2.74-1.69-3.18-3.3-4.12-6.31z" fill="#080"/>
<path transform="translate(603,1355)" d="m0 0c3.63 0.33 7.26 0.66 11 1 0.33 0.99 0.66 1.98 1 3h-13c0.33-1.32 0.66-2.64 1-4z" fill="#008C01"/>
<path transform="translate(1363,935)" d="m0 0c0.66 0.33 1.32 0.66 2 1-0.33 0.66-0.66 1.32-1 2h2v8c-3-1-3-1-4.19-2.75-0.921-2.55-0.962-4.56-0.812-7.25 0.66-0.33 1.32-0.66 2-1z" fill="#080"/>
<path transform="translate(231,1245)" d="m0 0h2c0.33 0.99 0.66 1.98 1 3h2v6h-3c-4-4.34-4-4.34-4-7h2v-2z" fill="#008900"/>
<path transform="translate(276,1130)" d="m0 0c-0.613 2.96-1.25 4.38-3 7h-3v-7c2.49-1.25 3.41-0.777 6 0z" fill="#080"/>
<path transform="translate(137,896)" d="m0 0h4c0.0743 3.34 0.0655 5.8-1 9h-3c-0.879-6.15-0.879-6.15-1-8 0.33-0.33 0.66-0.66 1-1z" fill="#080"/>
<path transform="translate(254,1282)" d="m0 0c3.34 0.557 6.03 1.35 9 3v4c-2.25-0.125-2.25-0.125-5-1-2.31-3.06-2.31-3.06-4-6z" fill="#080"/>
<path transform="translate(561,1346)" d="m0 0c2.94 1 2.94 1 5 2v1c-1.96 0.0539-3.92 0.0927-5.88 0.125-1.09 0.0232-2.18 0.0464-3.3 0.0703-2.82-0.195-2.82-0.195-4.82-2.2 3.03-1.52 5.65-1.17 9-1z" fill="#008C01"/>
<path transform="translate(1256,235)" d="m0 0c1.32 0.66 2.64 1.32 4 2v5c-2.38-0.312-2.38-0.312-5-1-0.66-0.99-1.32-1.98-2-3 0.99-0.99 1.98-1.98 3-3z" fill="#080"/>
<path transform="translate(590 1352)" d="m0 0c1.13 0.0206 2.27 0.0412 3.44 0.0625v2h2v2c-6.52 0.369-6.52 0.369-8.94-1.5-0.526-0.743-0.526-0.743-1.06-1.5 1-1 1-1 4.56-1.06z" fill="#008D02"/>
<path transform="translate(190,431)" d="m0 0c0.25 3.31 0.25 3.31 0 7-2 1.94-2 1.94-4 3-0.66-0.66-1.32-1.32-2-2 3.2-8 3.2-8 6-8z" fill="#080"/>
<path transform="translate(298,420)" d="m0 0c0.66 0.33 1.32 0.66 2 1-0.99 2.97-1.98 5.94-3 9-0.99-0.66-1.98-1.32-3-2 0.599-3.36 1.85-5.38 4-8z" fill="#080"/>
<path transform="translate(1360,946)" d="m0 0h2v11c-0.99-0.33-1.98-0.66-3-1-0.0269-1.48-0.0463-2.96-0.0625-4.44-0.0116-0.824-0.0232-1.65-0.0352-2.5 0.0977-2.07 0.0977-2.07 1.1-3.07z" fill="#080"/>
<path transform="translate(135,870)" d="m0 0c2.42 2.42 2.53 3.8 3.12 7.12 0.168 0.91 0.335 1.82 0.508 2.76 0.182 1.05 0.182 1.05 0.367 2.12-1.95-0.785-1.95-0.785-4-2-0.912-3.86-1.26-6.22 0-10z" fill="#080"/>
<path transform="translate(135,802)" d="m0 0h1c0.222 2.77 0.428 5.54 0.625 8.31 0.0645 0.786 0.129 1.57 0.195 2.38 0.0516 0.757 0.103 1.51 0.156 2.29 0.0524 0.696 0.105 1.39 0.159 2.11-0.135 1.9-0.135 1.9-2.14 4.9-0.949-6.86-0.949-13.1 0-20z" fill="#008D02"/>
<path transform="translate(1190,201)" d="m0 0c1.46-0.027 2.92-0.0464 4.38-0.0625 0.812-0.0116 1.62-0.0232 2.46-0.0352 2.16 0.0977 2.16 0.0977 4.16 1.1v2h-10c-0.33-0.99-0.66-1.98-1-3z" fill="#008C01"/>
<path transform="translate(461,1318)" d="m0 0v3c-1.75 0.688-1.75 0.688-4 1-2.25-1.31-2.25-1.31-4-3v-2c3.4-1.22 4.93-0.862 8 1z" fill="#080"/>
<path transform="translate(1262,368)" d="m0 0c2.31 0.33 4.62 0.66 7 1v5c-1.81-0.188-1.81-0.188-4-1-1.75-2.56-1.75-2.56-3-5z" fill="#080"/>
<path transform="translate(255,528)" d="m0 0h2v9c-0.99-0.33-1.98-0.66-3-1-0.812-1.81-0.812-1.81-1-4 0.938-2.25 0.938-2.25 2-4z" fill="#080"/>
<path transform="translate(175,466)" d="m0 0c2.06 0.438 2.06 0.438 4 1l-2 1c0.33 1.98 0.66 3.96 1 6-0.99 0.495-0.99 0.495-2 1-2.15-3.22-2.29-4.28-2-8 0.33-0.33 0.66-0.66 1-1z" fill="#080"/>
<path transform="translate(484 262)" d="m0 0c0.801 0.128 1.6 0.255 2.43 0.387 0.808 0.12 1.62 0.24 2.45 0.363 0.615 0.107 1.23 0.214 1.86 0.324-0.33 0.66-0.66 1.32-1 2h-11c3-3 3-3 5.26-3.07z" fill="#080"/>
<path transform="translate(1455,978)" d="m0 0h1v13h-1v-13z" fill="#000100"/>
<path transform="translate(871,1464)" d="m0 0h10v1h-10v-1z" fill="#000100"/>
<path transform="translate(1455,609)" d="m0 0h1v10h-1v-10z" fill="#000100"/>
<path transform="translate(239,947)" d="m0 0h1v9h-1v-9z" fill="#000100"/>
<path transform="translate(239,644)" d="m0 0h1v9h-1v-9z" fill="#000100"/>
<path transform="translate(235,909)" d="m0 0h1c0.33 2.31 0.66 4.62 1 7-0.66-0.33-1.32-0.66-2-1v-6z" fill="#000100"/>
<path transform="translate(1460,669)" d="m0 0c0.99 1.49 0.99 1.49 2 3-0.33 0.66-0.66 1.32-1 2-0.33-1.65-0.66-3.3-1-5z" fill="#000100"/>
<path transform="translate(1458,634)" d="m0 0h1v6h-1v-6z" fill="#000100"/>
<path transform="translate(1317,1313)" d="m0 0h2v2c-0.99-0.33-1.98-0.66-3-1l1-1z" fill="#000100"/>
<path transform="translate(1446,1043)" d="m0 0 1 4z" fill="#000100"/>
<path transform="translate(1462,890)" d="m0 0 1 4z" fill="#000100"/>
<path transform="translate(232,835)" d="m0 0h2c-0.33 0.99-0.66 1.98-1 3-0.33-0.99-0.66-1.98-1-3z" fill="#000100"/>
<path transform="translate(1449,572)" d="m0 0 1 4z" fill="#000100"/>
<path transform="translate(286,449)" d="m0 0 1 4z" fill="#000100"/>
<path transform="translate(302,418)" d="m0 0 1 4z" fill="#000100"/>
<path transform="translate(1364,1257)" d="m0 0c0.33 0.66 0.66 1.32 1 2-0.66-0.33-1.32-0.66-2-1l1-1z" fill="#000100"/>
<path transform="translate(799,948)" d="m0 0c0.33 0.66 0.66 1.32 1 2-0.66-0.33-1.32-0.66-2-1l1-1z" fill="#000100"/>
<path transform="translate(877,870)" d="m0 0c0.33 0.66 0.66 1.32 1 2-0.66-0.33-1.32-0.66-2-1l1-1z" fill="#000100"/>
<path transform="translate(999,748)" d="m0 0c0.33 0.66 0.66 1.32 1 2-0.66-0.33-1.32-0.66-2-1l1-1z" fill="#000100"/>
<path transform="translate(374,332)" d="m0 0c0.33 0.66 0.66 1.32 1 2-0.66-0.33-1.32-0.66-2-1l1-1z" fill="#000100"/>
<path transform="translate(444,289)" d="m0 0c3 1 3 1 3 1z" fill="#000100"/>
<path transform="translate(1113,1430)" d="m0 0 2 1z" fill="#000100"/>
<path transform="translate(1167,1411)" d="m0 0 2 1z" fill="#000100"/>
<path transform="translate(1236,1377)" d="m0 0 2 1z" fill="#000100"/>
<path transform="translate(542,1342)" d="m0 0 2 1z" fill="#080"/>
<path transform="translate(764,983)" d="m0 0 2 1z" fill="#000100"/>
<path transform="translate(820,927)" d="m0 0 2 1z" fill="#000100"/>
<path transform="translate(867,880)" d="m0 0 2 1z" fill="#000100"/>
<path transform="translate(1097,267)" d="m0 0 2 1z" fill="#000100"/>
<path transform="translate(504,267)" d="m0 0 2 1z" fill="#000100"/>
<path transform="translate(914,236)" d="m0 0 2 1z" fill="#000100"/>
<path transform="translate(767,233)" d="m0 0 2 1z" fill="#000100"/>
</svg>
