<svg width="25" height="25" viewBox="0 0 25 25" fill="none" xmlns="http://www.w3.org/2000/svg">
<rect width="25" height="25" rx="3.47222" fill="white"/>
<path d="M22.1661 6.66683L12.2286 16.6043C11.239 17.5939 8.30146 18.0522 7.64521 17.3959C6.98896 16.7397 7.43688 13.8022 8.42646 12.8126L18.3744 2.86472C18.6197 2.59707 18.9167 2.38193 19.2475 2.23224C19.5783 2.08255 19.936 2.0014 20.299 1.99376C20.6619 1.98612 21.0227 2.0521 21.3595 2.18774C21.6963 2.32337 22.0021 2.52587 22.2585 2.78296C22.5148 3.04004 22.7165 3.34639 22.8512 3.68354C22.9859 4.0207 23.051 4.38163 23.0423 4.7446C23.0337 5.10757 22.9515 5.46506 22.801 5.79542C22.6503 6.12579 22.4344 6.42224 22.1661 6.66683Z" stroke="#FF0000" stroke-width="1.5625" stroke-linecap="round" stroke-linejoin="round"/>
<path d="M11.459 4.1665H6.25065C5.14558 4.1665 4.08584 4.60548 3.30443 5.38689C2.52304 6.1683 2.08398 7.2281 2.08398 8.33317V18.7498C2.08398 19.8549 2.52304 20.9147 3.30443 21.6961C4.08584 22.4775 5.14558 22.9165 6.25065 22.9165H17.709C20.0111 22.9165 20.834 21.0415 20.834 18.7498V13.5415" stroke="#FF0000" stroke-width="1.5625" stroke-linecap="round" stroke-linejoin="round"/>
</svg>
