<svg width="800" height="800" viewBox="0 0 800 800" fill="none" xmlns="http://www.w3.org/2000/svg">
<g clip-path="url(#clip0_916_702)">
<path d="M400 466.667C408.84 466.667 417.319 463.155 423.57 456.904C429.821 450.652 433.333 442.174 433.333 433.333V266.667C433.333 257.826 429.821 249.348 423.57 243.097C417.319 236.845 408.84 233.333 400 233.333C391.159 233.333 382.681 236.845 376.43 243.097C370.178 249.348 366.667 257.826 366.667 266.667V433.333C366.667 442.174 370.178 450.652 376.43 456.904C382.681 463.155 391.159 466.667 400 466.667Z" fill="black"/>
<path d="M400 566.667C418.409 566.667 433.333 551.743 433.333 533.333C433.333 514.924 418.409 500 400 500C381.59 500 366.667 514.924 366.667 533.333C366.667 551.743 381.59 566.667 400 566.667Z" fill="black"/>
</g>
<defs>
<clipPath id="clip0_916_702">
<rect width="800" height="800" fill="white"/>
</clipPath>
</defs>
</svg>
