<svg width="20" height="20" viewBox="0 0 20 20" fill="none" xmlns="http://www.w3.org/2000/svg">
<path d="M9.99999 19.375C8.45812 19.3753 6.93997 18.9954 5.58003 18.2688C4.2201 17.5421 3.06037 16.4913 2.2036 15.2094C1.34682 13.9275 0.81945 12.4541 0.668202 10.9196C0.516954 9.38519 0.746501 7.83714 1.33651 6.41261C1.92651 4.98809 2.85876 3.73108 4.05065 2.75294C5.24255 1.77481 6.6573 1.10574 8.16957 0.805029C9.68183 0.504315 11.2449 0.581234 12.7204 1.02897C14.1958 1.47671 15.538 2.28144 16.6281 3.37188C16.733 3.47639 16.8162 3.60058 16.873 3.73733C16.9298 3.87408 16.959 4.02068 16.959 4.16875C16.959 4.31682 16.9298 4.46343 16.873 4.60017C16.8162 4.73692 16.733 4.86111 16.6281 4.96563C16.4147 5.17295 16.1288 5.28892 15.8312 5.28892C15.5337 5.28892 15.2478 5.17295 15.0344 4.96563C14.376 4.30043 13.5918 3.77298 12.7274 3.41404C11.8631 3.05511 10.9359 2.87186 9.99999 2.875C8.63908 2.87596 7.30692 3.26664 6.16106 4.00085C5.01519 4.73506 4.10357 5.78208 3.534 7.01806C2.96444 8.25405 2.76077 9.6273 2.94707 10.9754C3.13338 12.3235 3.70187 13.59 4.5853 14.6252C5.46874 15.6604 6.63016 16.4209 7.93221 16.8168C9.23425 17.2127 10.6224 17.2275 11.9326 16.8593C13.2428 16.4911 14.4201 15.7554 15.3253 14.7392C16.2305 13.723 16.8257 12.4688 17.0406 11.125H9.99999C9.70162 11.125 9.41547 11.0065 9.20449 10.7955C8.99352 10.5845 8.87499 10.2984 8.87499 10C8.87499 9.70163 8.99352 9.41548 9.20449 9.20451C9.41547 8.99353 9.70162 8.875 9.99999 8.875H18.25C18.5484 8.875 18.8345 8.99353 19.0455 9.20451C19.2565 9.41548 19.375 9.70163 19.375 10C19.37 12.4849 18.3807 14.8666 16.6236 16.6237C14.8666 18.3807 12.4849 19.37 9.99999 19.375Z" fill="black"/>
</svg>
