<svg width="18" height="18" viewBox="0 0 18 18" fill="none" xmlns="http://www.w3.org/2000/svg">
<path d="M16.6784 7.83652L15.763 7.63524C15.5905 7.59743 15.458 7.46173 15.4213 7.2888C15.2765 6.60416 15.0295 5.95746 14.6961 5.36548C14.6146 5.2208 14.6198 5.04312 14.7093 4.90326L15.2691 4.02936C15.3831 3.85151 15.3578 3.61836 15.2085 3.469L14.2796 2.54008C14.1302 2.39072 13.8972 2.36551 13.7193 2.47939L12.938 2.97966C12.7894 3.07478 12.5993 3.07352 12.4511 2.97764C11.8766 2.60573 11.2428 2.318 10.5668 2.13158C10.4064 2.08735 10.2837 1.95794 10.2481 1.79536L10.0272 0.783777C9.98194 0.577444 9.79914 0.426819 9.58796 0.426819H8.27417C8.06295 0.426819 7.88025 0.577444 7.8351 0.783777L7.63485 1.69866C7.59728 1.87036 7.46281 2.00463 7.29114 2.04196C6.60851 2.1906 5.96421 2.44181 5.37472 2.77804C5.22963 2.8607 5.05096 2.85663 4.91027 2.76656L4.02797 2.20157C3.85013 2.08776 3.61691 2.11303 3.46762 2.26233L2.53863 3.19135C2.38927 3.34065 2.36406 3.57389 2.47793 3.75174L2.99474 4.5588C3.08938 4.70655 3.08867 4.8955 2.99419 5.04346C2.63297 5.60928 2.35293 6.23183 2.1704 6.89485C2.12617 7.05549 1.99682 7.17838 1.83404 7.21414L0.783213 7.44383C0.576881 7.48912 0.427246 7.67185 0.427246 7.88304V9.19676C0.427246 9.40797 0.576881 9.59067 0.783213 9.63596L1.74394 9.84622C1.91519 9.88379 2.04894 10.0177 2.08679 10.1888C2.23376 10.8533 2.47817 11.4812 2.80333 12.0572C2.88517 12.2021 2.8808 12.38 2.791 12.5202L2.20022 13.4431C2.08627 13.6209 2.11158 13.854 2.26095 14.0034L3.18994 14.9324C3.3393 15.0817 3.57241 15.1069 3.75026 14.993L4.58843 14.4563C4.73653 14.3615 4.92578 14.3625 5.07395 14.4574C5.62959 14.8133 6.24018 15.0908 6.89026 15.2745C7.0497 15.3195 7.17133 15.4483 7.20675 15.61L7.44242 16.679C7.48764 16.8853 7.67037 17.0263 7.88155 17.0263H9.19534C9.40656 17.0263 9.58918 16.8853 9.63447 16.679L9.84586 15.7177C9.8836 15.5456 10.0188 15.4135 10.1911 15.3765C10.8576 15.2331 11.4879 14.9932 12.0665 14.6708C12.2109 14.5902 12.3878 14.5956 12.5272 14.6848L13.4415 15.2705C13.6194 15.3844 13.8525 15.3592 14.0018 15.2099L14.9309 14.2809C15.0801 14.1316 15.1054 13.8984 14.9916 13.7206L14.4713 12.9084C14.3761 12.7595 14.3776 12.5689 14.4738 12.4207C14.8404 11.8564 15.1256 11.2344 15.3132 10.5714C15.3583 10.4122 15.4872 10.2908 15.6487 10.2555L16.6783 10.0286C16.8847 9.98335 17.0266 9.80062 17.0266 9.58944V8.27565C17.0267 8.06447 16.8848 7.88177 16.6784 7.83652ZM8.68963 13.9211C5.87943 13.9211 3.6012 11.6429 3.6012 8.83269C3.6012 6.02246 5.8794 3.74426 8.68963 3.74426C11.4999 3.74426 13.778 6.02246 13.778 8.83269C13.778 11.6429 11.4999 13.9211 8.68963 13.9211Z" fill="black"/>
<path d="M6.7188 8.11748C7.16221 8.11748 7.52159 7.758 7.52159 7.3147C7.52159 6.87129 7.16224 6.51184 6.7188 6.51184C6.27547 6.51184 5.91602 6.87126 5.91602 7.3147C5.91602 7.758 6.27543 8.11748 6.7188 8.11748Z" fill="black"/>
<path d="M10.7994 8.11748C11.2428 8.11748 11.6022 7.758 11.6022 7.3147C11.6022 6.87129 11.2428 6.51184 10.7994 6.51184C10.356 6.51184 9.99658 6.87126 9.99658 7.3147C9.99658 7.758 10.356 8.11748 10.7994 8.11748Z" fill="black"/>
<path d="M8.75696 8.63452C9.20036 8.63452 9.55981 8.27507 9.55981 7.83166C9.55981 7.38826 9.20036 7.02881 8.75696 7.02881C8.31355 7.02881 7.9541 7.38826 7.9541 7.83166C7.9541 8.27507 8.31355 8.63452 8.75696 8.63452Z" fill="black"/>
<path d="M8.72742 8.953C7.86913 8.953 7.19043 9.64878 7.19043 10.507V10.8261C7.19043 10.8882 7.24556 10.9469 7.30782 10.9469H10.1907C10.2528 10.9469 10.2644 10.8882 10.2644 10.8261V10.507C10.2644 9.64878 9.58571 8.953 8.72742 8.953Z" fill="black"/>
<path d="M7.7393 8.8341C7.46565 8.59078 7.08027 8.4393 6.68554 8.4393C5.82711 8.4393 5.10596 9.13224 5.10596 9.98985V10.3087C5.10596 10.371 5.20733 10.4348 5.26963 10.4348H6.81215C6.84624 9.7176 7.20767 9.17545 7.7393 8.8341Z" fill="black"/>
<path d="M10.7924 8.43594C10.3959 8.43594 10.0353 8.59214 9.76123 8.83631C10.2907 9.17746 10.6501 9.71756 10.6842 10.4348H12.2327C12.295 10.4348 12.3467 10.371 12.3467 10.3087V9.98984C12.3467 9.56102 12.1725 9.17213 11.8913 8.89168C11.61 8.60959 11.222 8.43594 10.7924 8.43594Z" fill="black"/>
</svg>
